M48
;DRILL file {KiCad 4.0.7-e2-6376~58~ubuntu14.04.1} date Thu Jan 18 13:31:27 2018
;FORMAT={-:-/ absolute / metric / decimal}
FMAT,2
METRIC,TZ
T1C0.762
T2C1.000
T3C1.300
%
G90
G05
M71
T1
X130.8Y-71.3
X130.8Y-91.3
X130.8Y-111.3
X130.8Y-131.3
X133.2Y-71.3
X133.2Y-91.3
X133.2Y-111.3
X133.2Y-131.3
X150.2Y-83.6
X150.2Y-103.6
X150.2Y-123.6
X150.2Y-143.6
X152.6Y-83.6
X152.6Y-103.6
X152.6Y-123.6
X152.6Y-143.6
X165.4Y-71.4
X165.4Y-91.4
X165.4Y-111.4
X165.4Y-131.4
X167.8Y-71.4
X167.8Y-91.4
X167.8Y-111.4
X167.8Y-131.4
X184.8Y-83.7
X184.8Y-103.7
X184.8Y-123.7
X184.8Y-143.7
X187.2Y-83.7
X187.2Y-103.7
X187.2Y-123.7
X187.2Y-143.7
T2
X126.Y-69.5
X126.Y-85.5
X126.Y-89.5
X126.Y-105.5
X126.Y-109.5
X126.Y-125.5
X126.Y-129.5
X126.Y-145.5
X155.8Y-76.23
X155.8Y-78.77
X155.8Y-96.23
X155.8Y-98.77
X155.8Y-116.23
X155.8Y-118.77
X155.8Y-136.23
X155.8Y-138.77
X157.Y-69.5
X157.Y-85.5
X157.Y-89.5
X157.Y-105.5
X157.Y-109.5
X157.Y-125.5
X157.Y-129.5
X157.Y-145.5
X161.Y-69.5
X161.Y-85.5
X161.Y-89.5
X161.Y-105.5
X161.Y-109.5
X161.Y-125.5
X161.Y-129.5
X161.Y-145.5
X162.2Y-76.23
X162.2Y-78.77
X162.2Y-96.23
X162.2Y-98.77
X162.2Y-116.23
X162.2Y-118.77
X162.2Y-136.23
X162.2Y-138.77
X192.Y-69.5
X192.Y-85.5
X192.Y-89.5
X192.Y-105.5
X192.Y-109.5
X192.Y-125.5
X192.Y-129.5
X192.Y-145.5
T3
X140.1Y-82.5
X140.1Y-102.5
X140.1Y-122.5
X140.1Y-142.5
X145.1Y-82.5
X145.1Y-102.5
X145.1Y-122.5
X145.1Y-142.5
X172.9Y-72.5
X172.9Y-92.5
X172.9Y-112.5
X172.9Y-132.5
X177.9Y-72.5
X177.9Y-92.5
X177.9Y-112.5
X177.9Y-132.5
T2
X128.201Y-78.4G85X128.201Y-80.4
G05
X128.201Y-98.4G85X128.201Y-100.4
G05
X128.201Y-118.4G85X128.201Y-120.4
G05
X128.201Y-138.4G85X128.201Y-140.4
G05
X130.2Y-84.099G85X132.2Y-84.099
G05
X130.2Y-104.099G85X132.2Y-104.099
G05
X130.2Y-124.099G85X132.2Y-124.099
G05
X130.2Y-144.099G85X132.2Y-144.099
G05
X134.2Y-78.4G85X134.2Y-80.4
G05
X134.2Y-98.4G85X134.2Y-100.4
G05
X134.2Y-118.4G85X134.2Y-120.4
G05
X134.2Y-138.4G85X134.2Y-140.4
G05
X183.8Y-76.6G85X183.8Y-74.6
G05
X183.8Y-96.6G85X183.8Y-94.6
G05
X183.8Y-116.6G85X183.8Y-114.6
G05
X183.8Y-136.6G85X183.8Y-134.6
G05
X187.8Y-70.901G85X185.8Y-70.901
G05
X187.8Y-90.901G85X185.8Y-90.901
G05
X187.8Y-110.901G85X185.8Y-110.901
G05
X187.8Y-130.901G85X185.8Y-130.901
G05
X189.799Y-76.6G85X189.799Y-74.6
G05
X189.799Y-96.6G85X189.799Y-94.6
G05
X189.799Y-116.6G85X189.799Y-114.6
G05
X189.799Y-136.6G85X189.799Y-134.6
G05
T0
M30
