G04 #@! TF.FileFunction,Copper,L2,Bot,Signal*
%FSLAX46Y46*%
G04 Gerber Fmt 4.6, Leading zero omitted, Abs format (unit mm)*
G04 Created by KiCad (PCBNEW 4.0.7-e2-6376~58~ubuntu14.04.1) date Sat Jan 20 11:47:25 2018*
%MOMM*%
%LPD*%
G01*
G04 APERTURE LIST*
%ADD10C,0.100000*%
%ADD11R,3.500120X3.500120*%
%ADD12C,1.500000*%
%ADD13O,3.014980X1.506220*%
%ADD14C,2.600000*%
%ADD15C,1.524000*%
%ADD16C,0.254000*%
G04 APERTURE END LIST*
D10*
D11*
X99200140Y-119400000D03*
X93200660Y-119400000D03*
X96200400Y-124099000D03*
D12*
X122000000Y-125500000D03*
X91000000Y-125500000D03*
X91000000Y-109500000D03*
D13*
X120800000Y-118770000D03*
X120800000Y-116230000D03*
D14*
X105100000Y-122500000D03*
X110100000Y-122500000D03*
D12*
X122000000Y-109500000D03*
D15*
X95800000Y-111300000D03*
X98200000Y-111300000D03*
X115200000Y-123600000D03*
X117600000Y-123600000D03*
X115200000Y-103600000D03*
X117600000Y-103600000D03*
X95800000Y-91300000D03*
X98200000Y-91300000D03*
D12*
X122000000Y-89500000D03*
D14*
X105100000Y-102500000D03*
X110100000Y-102500000D03*
D13*
X120800000Y-98770000D03*
X120800000Y-96230000D03*
D12*
X91000000Y-89500000D03*
X91000000Y-105500000D03*
X122000000Y-105500000D03*
D11*
X99200140Y-99400000D03*
X93200660Y-99400000D03*
X96200400Y-104099000D03*
X99200140Y-59400000D03*
X93200660Y-59400000D03*
X96200400Y-64099000D03*
D12*
X122000000Y-65500000D03*
X91000000Y-65500000D03*
X91000000Y-49500000D03*
D13*
X120800000Y-58770000D03*
X120800000Y-56230000D03*
D14*
X105100000Y-62500000D03*
X110100000Y-62500000D03*
D12*
X122000000Y-49500000D03*
D15*
X95800000Y-51300000D03*
X98200000Y-51300000D03*
X115200000Y-63600000D03*
X117600000Y-63600000D03*
X115200000Y-83600000D03*
X117600000Y-83600000D03*
X95800000Y-71300000D03*
X98200000Y-71300000D03*
D12*
X122000000Y-69500000D03*
D14*
X105100000Y-82500000D03*
X110100000Y-82500000D03*
D13*
X120800000Y-78770000D03*
X120800000Y-76230000D03*
D12*
X91000000Y-69500000D03*
X91000000Y-85500000D03*
X122000000Y-85500000D03*
D11*
X99200140Y-79400000D03*
X93200660Y-79400000D03*
X96200400Y-84099000D03*
X134200140Y-79400000D03*
X128200660Y-79400000D03*
X131200400Y-84099000D03*
D12*
X157000000Y-85500000D03*
X126000000Y-85500000D03*
X126000000Y-69500000D03*
D13*
X155800000Y-78770000D03*
X155800000Y-76230000D03*
D14*
X140100000Y-82500000D03*
X145100000Y-82500000D03*
D12*
X157000000Y-69500000D03*
D15*
X130800000Y-71300000D03*
X133200000Y-71300000D03*
X150200000Y-83600000D03*
X152600000Y-83600000D03*
X150200000Y-63600000D03*
X152600000Y-63600000D03*
X130800000Y-51300000D03*
X133200000Y-51300000D03*
D12*
X157000000Y-49500000D03*
D14*
X140100000Y-62500000D03*
X145100000Y-62500000D03*
D13*
X155800000Y-58770000D03*
X155800000Y-56230000D03*
D12*
X126000000Y-49500000D03*
X126000000Y-65500000D03*
X157000000Y-65500000D03*
D11*
X134200140Y-59400000D03*
X128200660Y-59400000D03*
X131200400Y-64099000D03*
X134200140Y-99400000D03*
X128200660Y-99400000D03*
X131200400Y-104099000D03*
D12*
X157000000Y-105500000D03*
X126000000Y-105500000D03*
X126000000Y-89500000D03*
D13*
X155800000Y-98770000D03*
X155800000Y-96230000D03*
D14*
X140100000Y-102500000D03*
X145100000Y-102500000D03*
D12*
X157000000Y-89500000D03*
D15*
X130800000Y-91300000D03*
X133200000Y-91300000D03*
X150200000Y-103600000D03*
X152600000Y-103600000D03*
X150200000Y-123600000D03*
X152600000Y-123600000D03*
X130800000Y-111300000D03*
X133200000Y-111300000D03*
D12*
X157000000Y-109500000D03*
D14*
X140100000Y-122500000D03*
X145100000Y-122500000D03*
D13*
X155800000Y-118770000D03*
X155800000Y-116230000D03*
D12*
X126000000Y-109500000D03*
X126000000Y-125500000D03*
X157000000Y-125500000D03*
D11*
X134200140Y-119400000D03*
X128200660Y-119400000D03*
X131200400Y-124099000D03*
D16*
G36*
X158290000Y-126790000D02*
X124710000Y-126790000D01*
X124710000Y-124384750D01*
X128815340Y-124384750D01*
X128815340Y-125975370D01*
X128912013Y-126208759D01*
X129090642Y-126387387D01*
X129324031Y-126484060D01*
X130914650Y-126484060D01*
X131073400Y-126325310D01*
X131073400Y-124226000D01*
X131327400Y-124226000D01*
X131327400Y-126325310D01*
X131486150Y-126484060D01*
X133076769Y-126484060D01*
X133310158Y-126387387D01*
X133488787Y-126208759D01*
X133585460Y-125975370D01*
X133585460Y-124580213D01*
X149399392Y-124580213D01*
X149468857Y-124822397D01*
X149992302Y-125009144D01*
X150547368Y-124981362D01*
X150931143Y-124822397D01*
X151000608Y-124580213D01*
X150200000Y-123779605D01*
X149399392Y-124580213D01*
X133585460Y-124580213D01*
X133585460Y-124384750D01*
X133426710Y-124226000D01*
X131327400Y-124226000D01*
X131073400Y-124226000D01*
X128974090Y-124226000D01*
X128815340Y-124384750D01*
X124710000Y-124384750D01*
X124710000Y-119685750D01*
X125815600Y-119685750D01*
X125815600Y-121276370D01*
X125912273Y-121509759D01*
X126090902Y-121688387D01*
X126324291Y-121785060D01*
X127914910Y-121785060D01*
X128073660Y-121626310D01*
X128073660Y-119527000D01*
X128327660Y-119527000D01*
X128327660Y-121626310D01*
X128486410Y-121785060D01*
X129152332Y-121785060D01*
X129090642Y-121810613D01*
X128912013Y-121989241D01*
X128815340Y-122222630D01*
X128815340Y-123813250D01*
X128974090Y-123972000D01*
X131073400Y-123972000D01*
X131073400Y-121872690D01*
X131327400Y-121872690D01*
X131327400Y-123972000D01*
X133426710Y-123972000D01*
X133585460Y-123813250D01*
X133585460Y-122883207D01*
X138164665Y-122883207D01*
X138458630Y-123594658D01*
X139002479Y-124139457D01*
X139713416Y-124434663D01*
X140483207Y-124435335D01*
X141194658Y-124141370D01*
X141739457Y-123597521D01*
X142034663Y-122886584D01*
X142034665Y-122883207D01*
X143164665Y-122883207D01*
X143458630Y-123594658D01*
X144002479Y-124139457D01*
X144713416Y-124434663D01*
X145483207Y-124435335D01*
X146194658Y-124141370D01*
X146739457Y-123597521D01*
X146824671Y-123392302D01*
X148790856Y-123392302D01*
X148818638Y-123947368D01*
X148977603Y-124331143D01*
X149219787Y-124400608D01*
X150020395Y-123600000D01*
X150379605Y-123600000D01*
X151180213Y-124400608D01*
X151393921Y-124339311D01*
X151414990Y-124390303D01*
X151807630Y-124783629D01*
X152320900Y-124996757D01*
X152876661Y-124997242D01*
X153390303Y-124785010D01*
X153783629Y-124392370D01*
X153996757Y-123879100D01*
X153997242Y-123323339D01*
X153785010Y-122809697D01*
X153392370Y-122416371D01*
X152879100Y-122203243D01*
X152323339Y-122202758D01*
X151809697Y-122414990D01*
X151416371Y-122807630D01*
X151394294Y-122860796D01*
X151180213Y-122799392D01*
X150379605Y-123600000D01*
X150020395Y-123600000D01*
X149219787Y-122799392D01*
X148977603Y-122868857D01*
X148790856Y-123392302D01*
X146824671Y-123392302D01*
X147034663Y-122886584D01*
X147034895Y-122619787D01*
X149399392Y-122619787D01*
X150200000Y-123420395D01*
X151000608Y-122619787D01*
X150931143Y-122377603D01*
X150407698Y-122190856D01*
X149852632Y-122218638D01*
X149468857Y-122377603D01*
X149399392Y-122619787D01*
X147034895Y-122619787D01*
X147035335Y-122116793D01*
X146741370Y-121405342D01*
X146197521Y-120860543D01*
X145486584Y-120565337D01*
X144716793Y-120564665D01*
X144005342Y-120858630D01*
X143460543Y-121402479D01*
X143165337Y-122113416D01*
X143164665Y-122883207D01*
X142034665Y-122883207D01*
X142035335Y-122116793D01*
X141741370Y-121405342D01*
X141197521Y-120860543D01*
X140486584Y-120565337D01*
X139716793Y-120564665D01*
X139005342Y-120858630D01*
X138460543Y-121402479D01*
X138165337Y-122113416D01*
X138164665Y-122883207D01*
X133585460Y-122883207D01*
X133585460Y-122222630D01*
X133488787Y-121989241D01*
X133310158Y-121810613D01*
X133278500Y-121797500D01*
X135950200Y-121797500D01*
X136185517Y-121753222D01*
X136401641Y-121614150D01*
X136546631Y-121401950D01*
X136597640Y-121150060D01*
X136597640Y-117649940D01*
X136553362Y-117414623D01*
X136414290Y-117198499D01*
X136202090Y-117053509D01*
X135950200Y-117002500D01*
X132450080Y-117002500D01*
X132214763Y-117046778D01*
X131998639Y-117185850D01*
X131853649Y-117398050D01*
X131802640Y-117649940D01*
X131802640Y-121150060D01*
X131846918Y-121385377D01*
X131985990Y-121601501D01*
X132150550Y-121713940D01*
X131486150Y-121713940D01*
X131327400Y-121872690D01*
X131073400Y-121872690D01*
X130914650Y-121713940D01*
X130248728Y-121713940D01*
X130310418Y-121688387D01*
X130489047Y-121509759D01*
X130585720Y-121276370D01*
X130585720Y-119685750D01*
X130426970Y-119527000D01*
X128327660Y-119527000D01*
X128073660Y-119527000D01*
X125974350Y-119527000D01*
X125815600Y-119685750D01*
X124710000Y-119685750D01*
X124710000Y-117523630D01*
X125815600Y-117523630D01*
X125815600Y-119114250D01*
X125974350Y-119273000D01*
X128073660Y-119273000D01*
X128073660Y-117173690D01*
X128327660Y-117173690D01*
X128327660Y-119273000D01*
X130426970Y-119273000D01*
X130585720Y-119114250D01*
X130585720Y-117523630D01*
X130489047Y-117290241D01*
X130310418Y-117111613D01*
X130077029Y-117014940D01*
X128486410Y-117014940D01*
X128327660Y-117173690D01*
X128073660Y-117173690D01*
X127914910Y-117014940D01*
X126324291Y-117014940D01*
X126090902Y-117111613D01*
X125912273Y-117290241D01*
X125815600Y-117523630D01*
X124710000Y-117523630D01*
X124710000Y-116230000D01*
X153615536Y-116230000D01*
X153721200Y-116761207D01*
X154022104Y-117211542D01*
X154453812Y-117500000D01*
X154022104Y-117788458D01*
X153721200Y-118238793D01*
X153615536Y-118770000D01*
X153721200Y-119301207D01*
X154022104Y-119751542D01*
X154472439Y-120052446D01*
X155003646Y-120158110D01*
X156596354Y-120158110D01*
X157127561Y-120052446D01*
X157577896Y-119751542D01*
X157878800Y-119301207D01*
X157984464Y-118770000D01*
X157878800Y-118238793D01*
X157577896Y-117788458D01*
X157146188Y-117500000D01*
X157577896Y-117211542D01*
X157878800Y-116761207D01*
X157984464Y-116230000D01*
X157878800Y-115698793D01*
X157577896Y-115248458D01*
X157127561Y-114947554D01*
X156596354Y-114841890D01*
X155003646Y-114841890D01*
X154472439Y-114947554D01*
X154022104Y-115248458D01*
X153721200Y-115698793D01*
X153615536Y-116230000D01*
X124710000Y-116230000D01*
X124710000Y-112280213D01*
X129999392Y-112280213D01*
X130068857Y-112522397D01*
X130592302Y-112709144D01*
X131147368Y-112681362D01*
X131531143Y-112522397D01*
X131600608Y-112280213D01*
X130800000Y-111479605D01*
X129999392Y-112280213D01*
X124710000Y-112280213D01*
X124710000Y-111092302D01*
X129390856Y-111092302D01*
X129418638Y-111647368D01*
X129577603Y-112031143D01*
X129819787Y-112100608D01*
X130620395Y-111300000D01*
X130979605Y-111300000D01*
X131780213Y-112100608D01*
X131993921Y-112039311D01*
X132014990Y-112090303D01*
X132407630Y-112483629D01*
X132920900Y-112696757D01*
X133476661Y-112697242D01*
X133990303Y-112485010D01*
X134383629Y-112092370D01*
X134596757Y-111579100D01*
X134597242Y-111023339D01*
X134385010Y-110509697D01*
X133992370Y-110116371D01*
X133479100Y-109903243D01*
X132923339Y-109902758D01*
X132409697Y-110114990D01*
X132016371Y-110507630D01*
X131994294Y-110560796D01*
X131780213Y-110499392D01*
X130979605Y-111300000D01*
X130620395Y-111300000D01*
X129819787Y-110499392D01*
X129577603Y-110568857D01*
X129390856Y-111092302D01*
X124710000Y-111092302D01*
X124710000Y-110319787D01*
X129999392Y-110319787D01*
X130800000Y-111120395D01*
X131600608Y-110319787D01*
X131531143Y-110077603D01*
X131007698Y-109890856D01*
X130452632Y-109918638D01*
X130068857Y-110077603D01*
X129999392Y-110319787D01*
X124710000Y-110319787D01*
X124710000Y-108210000D01*
X158290000Y-108210000D01*
X158290000Y-126790000D01*
X158290000Y-126790000D01*
G37*
X158290000Y-126790000D02*
X124710000Y-126790000D01*
X124710000Y-124384750D01*
X128815340Y-124384750D01*
X128815340Y-125975370D01*
X128912013Y-126208759D01*
X129090642Y-126387387D01*
X129324031Y-126484060D01*
X130914650Y-126484060D01*
X131073400Y-126325310D01*
X131073400Y-124226000D01*
X131327400Y-124226000D01*
X131327400Y-126325310D01*
X131486150Y-126484060D01*
X133076769Y-126484060D01*
X133310158Y-126387387D01*
X133488787Y-126208759D01*
X133585460Y-125975370D01*
X133585460Y-124580213D01*
X149399392Y-124580213D01*
X149468857Y-124822397D01*
X149992302Y-125009144D01*
X150547368Y-124981362D01*
X150931143Y-124822397D01*
X151000608Y-124580213D01*
X150200000Y-123779605D01*
X149399392Y-124580213D01*
X133585460Y-124580213D01*
X133585460Y-124384750D01*
X133426710Y-124226000D01*
X131327400Y-124226000D01*
X131073400Y-124226000D01*
X128974090Y-124226000D01*
X128815340Y-124384750D01*
X124710000Y-124384750D01*
X124710000Y-119685750D01*
X125815600Y-119685750D01*
X125815600Y-121276370D01*
X125912273Y-121509759D01*
X126090902Y-121688387D01*
X126324291Y-121785060D01*
X127914910Y-121785060D01*
X128073660Y-121626310D01*
X128073660Y-119527000D01*
X128327660Y-119527000D01*
X128327660Y-121626310D01*
X128486410Y-121785060D01*
X129152332Y-121785060D01*
X129090642Y-121810613D01*
X128912013Y-121989241D01*
X128815340Y-122222630D01*
X128815340Y-123813250D01*
X128974090Y-123972000D01*
X131073400Y-123972000D01*
X131073400Y-121872690D01*
X131327400Y-121872690D01*
X131327400Y-123972000D01*
X133426710Y-123972000D01*
X133585460Y-123813250D01*
X133585460Y-122883207D01*
X138164665Y-122883207D01*
X138458630Y-123594658D01*
X139002479Y-124139457D01*
X139713416Y-124434663D01*
X140483207Y-124435335D01*
X141194658Y-124141370D01*
X141739457Y-123597521D01*
X142034663Y-122886584D01*
X142034665Y-122883207D01*
X143164665Y-122883207D01*
X143458630Y-123594658D01*
X144002479Y-124139457D01*
X144713416Y-124434663D01*
X145483207Y-124435335D01*
X146194658Y-124141370D01*
X146739457Y-123597521D01*
X146824671Y-123392302D01*
X148790856Y-123392302D01*
X148818638Y-123947368D01*
X148977603Y-124331143D01*
X149219787Y-124400608D01*
X150020395Y-123600000D01*
X150379605Y-123600000D01*
X151180213Y-124400608D01*
X151393921Y-124339311D01*
X151414990Y-124390303D01*
X151807630Y-124783629D01*
X152320900Y-124996757D01*
X152876661Y-124997242D01*
X153390303Y-124785010D01*
X153783629Y-124392370D01*
X153996757Y-123879100D01*
X153997242Y-123323339D01*
X153785010Y-122809697D01*
X153392370Y-122416371D01*
X152879100Y-122203243D01*
X152323339Y-122202758D01*
X151809697Y-122414990D01*
X151416371Y-122807630D01*
X151394294Y-122860796D01*
X151180213Y-122799392D01*
X150379605Y-123600000D01*
X150020395Y-123600000D01*
X149219787Y-122799392D01*
X148977603Y-122868857D01*
X148790856Y-123392302D01*
X146824671Y-123392302D01*
X147034663Y-122886584D01*
X147034895Y-122619787D01*
X149399392Y-122619787D01*
X150200000Y-123420395D01*
X151000608Y-122619787D01*
X150931143Y-122377603D01*
X150407698Y-122190856D01*
X149852632Y-122218638D01*
X149468857Y-122377603D01*
X149399392Y-122619787D01*
X147034895Y-122619787D01*
X147035335Y-122116793D01*
X146741370Y-121405342D01*
X146197521Y-120860543D01*
X145486584Y-120565337D01*
X144716793Y-120564665D01*
X144005342Y-120858630D01*
X143460543Y-121402479D01*
X143165337Y-122113416D01*
X143164665Y-122883207D01*
X142034665Y-122883207D01*
X142035335Y-122116793D01*
X141741370Y-121405342D01*
X141197521Y-120860543D01*
X140486584Y-120565337D01*
X139716793Y-120564665D01*
X139005342Y-120858630D01*
X138460543Y-121402479D01*
X138165337Y-122113416D01*
X138164665Y-122883207D01*
X133585460Y-122883207D01*
X133585460Y-122222630D01*
X133488787Y-121989241D01*
X133310158Y-121810613D01*
X133278500Y-121797500D01*
X135950200Y-121797500D01*
X136185517Y-121753222D01*
X136401641Y-121614150D01*
X136546631Y-121401950D01*
X136597640Y-121150060D01*
X136597640Y-117649940D01*
X136553362Y-117414623D01*
X136414290Y-117198499D01*
X136202090Y-117053509D01*
X135950200Y-117002500D01*
X132450080Y-117002500D01*
X132214763Y-117046778D01*
X131998639Y-117185850D01*
X131853649Y-117398050D01*
X131802640Y-117649940D01*
X131802640Y-121150060D01*
X131846918Y-121385377D01*
X131985990Y-121601501D01*
X132150550Y-121713940D01*
X131486150Y-121713940D01*
X131327400Y-121872690D01*
X131073400Y-121872690D01*
X130914650Y-121713940D01*
X130248728Y-121713940D01*
X130310418Y-121688387D01*
X130489047Y-121509759D01*
X130585720Y-121276370D01*
X130585720Y-119685750D01*
X130426970Y-119527000D01*
X128327660Y-119527000D01*
X128073660Y-119527000D01*
X125974350Y-119527000D01*
X125815600Y-119685750D01*
X124710000Y-119685750D01*
X124710000Y-117523630D01*
X125815600Y-117523630D01*
X125815600Y-119114250D01*
X125974350Y-119273000D01*
X128073660Y-119273000D01*
X128073660Y-117173690D01*
X128327660Y-117173690D01*
X128327660Y-119273000D01*
X130426970Y-119273000D01*
X130585720Y-119114250D01*
X130585720Y-117523630D01*
X130489047Y-117290241D01*
X130310418Y-117111613D01*
X130077029Y-117014940D01*
X128486410Y-117014940D01*
X128327660Y-117173690D01*
X128073660Y-117173690D01*
X127914910Y-117014940D01*
X126324291Y-117014940D01*
X126090902Y-117111613D01*
X125912273Y-117290241D01*
X125815600Y-117523630D01*
X124710000Y-117523630D01*
X124710000Y-116230000D01*
X153615536Y-116230000D01*
X153721200Y-116761207D01*
X154022104Y-117211542D01*
X154453812Y-117500000D01*
X154022104Y-117788458D01*
X153721200Y-118238793D01*
X153615536Y-118770000D01*
X153721200Y-119301207D01*
X154022104Y-119751542D01*
X154472439Y-120052446D01*
X155003646Y-120158110D01*
X156596354Y-120158110D01*
X157127561Y-120052446D01*
X157577896Y-119751542D01*
X157878800Y-119301207D01*
X157984464Y-118770000D01*
X157878800Y-118238793D01*
X157577896Y-117788458D01*
X157146188Y-117500000D01*
X157577896Y-117211542D01*
X157878800Y-116761207D01*
X157984464Y-116230000D01*
X157878800Y-115698793D01*
X157577896Y-115248458D01*
X157127561Y-114947554D01*
X156596354Y-114841890D01*
X155003646Y-114841890D01*
X154472439Y-114947554D01*
X154022104Y-115248458D01*
X153721200Y-115698793D01*
X153615536Y-116230000D01*
X124710000Y-116230000D01*
X124710000Y-112280213D01*
X129999392Y-112280213D01*
X130068857Y-112522397D01*
X130592302Y-112709144D01*
X131147368Y-112681362D01*
X131531143Y-112522397D01*
X131600608Y-112280213D01*
X130800000Y-111479605D01*
X129999392Y-112280213D01*
X124710000Y-112280213D01*
X124710000Y-111092302D01*
X129390856Y-111092302D01*
X129418638Y-111647368D01*
X129577603Y-112031143D01*
X129819787Y-112100608D01*
X130620395Y-111300000D01*
X130979605Y-111300000D01*
X131780213Y-112100608D01*
X131993921Y-112039311D01*
X132014990Y-112090303D01*
X132407630Y-112483629D01*
X132920900Y-112696757D01*
X133476661Y-112697242D01*
X133990303Y-112485010D01*
X134383629Y-112092370D01*
X134596757Y-111579100D01*
X134597242Y-111023339D01*
X134385010Y-110509697D01*
X133992370Y-110116371D01*
X133479100Y-109903243D01*
X132923339Y-109902758D01*
X132409697Y-110114990D01*
X132016371Y-110507630D01*
X131994294Y-110560796D01*
X131780213Y-110499392D01*
X130979605Y-111300000D01*
X130620395Y-111300000D01*
X129819787Y-110499392D01*
X129577603Y-110568857D01*
X129390856Y-111092302D01*
X124710000Y-111092302D01*
X124710000Y-110319787D01*
X129999392Y-110319787D01*
X130800000Y-111120395D01*
X131600608Y-110319787D01*
X131531143Y-110077603D01*
X131007698Y-109890856D01*
X130452632Y-109918638D01*
X130068857Y-110077603D01*
X129999392Y-110319787D01*
X124710000Y-110319787D01*
X124710000Y-108210000D01*
X158290000Y-108210000D01*
X158290000Y-126790000D01*
G36*
X158290000Y-106790000D02*
X124710000Y-106790000D01*
X124710000Y-104384750D01*
X128815340Y-104384750D01*
X128815340Y-105975370D01*
X128912013Y-106208759D01*
X129090642Y-106387387D01*
X129324031Y-106484060D01*
X130914650Y-106484060D01*
X131073400Y-106325310D01*
X131073400Y-104226000D01*
X131327400Y-104226000D01*
X131327400Y-106325310D01*
X131486150Y-106484060D01*
X133076769Y-106484060D01*
X133310158Y-106387387D01*
X133488787Y-106208759D01*
X133585460Y-105975370D01*
X133585460Y-104580213D01*
X149399392Y-104580213D01*
X149468857Y-104822397D01*
X149992302Y-105009144D01*
X150547368Y-104981362D01*
X150931143Y-104822397D01*
X151000608Y-104580213D01*
X150200000Y-103779605D01*
X149399392Y-104580213D01*
X133585460Y-104580213D01*
X133585460Y-104384750D01*
X133426710Y-104226000D01*
X131327400Y-104226000D01*
X131073400Y-104226000D01*
X128974090Y-104226000D01*
X128815340Y-104384750D01*
X124710000Y-104384750D01*
X124710000Y-99685750D01*
X125815600Y-99685750D01*
X125815600Y-101276370D01*
X125912273Y-101509759D01*
X126090902Y-101688387D01*
X126324291Y-101785060D01*
X127914910Y-101785060D01*
X128073660Y-101626310D01*
X128073660Y-99527000D01*
X128327660Y-99527000D01*
X128327660Y-101626310D01*
X128486410Y-101785060D01*
X129152332Y-101785060D01*
X129090642Y-101810613D01*
X128912013Y-101989241D01*
X128815340Y-102222630D01*
X128815340Y-103813250D01*
X128974090Y-103972000D01*
X131073400Y-103972000D01*
X131073400Y-101872690D01*
X131327400Y-101872690D01*
X131327400Y-103972000D01*
X133426710Y-103972000D01*
X133585460Y-103813250D01*
X133585460Y-102883207D01*
X138164665Y-102883207D01*
X138458630Y-103594658D01*
X139002479Y-104139457D01*
X139713416Y-104434663D01*
X140483207Y-104435335D01*
X141194658Y-104141370D01*
X141739457Y-103597521D01*
X142034663Y-102886584D01*
X142034665Y-102883207D01*
X143164665Y-102883207D01*
X143458630Y-103594658D01*
X144002479Y-104139457D01*
X144713416Y-104434663D01*
X145483207Y-104435335D01*
X146194658Y-104141370D01*
X146739457Y-103597521D01*
X146824671Y-103392302D01*
X148790856Y-103392302D01*
X148818638Y-103947368D01*
X148977603Y-104331143D01*
X149219787Y-104400608D01*
X150020395Y-103600000D01*
X150379605Y-103600000D01*
X151180213Y-104400608D01*
X151393921Y-104339311D01*
X151414990Y-104390303D01*
X151807630Y-104783629D01*
X152320900Y-104996757D01*
X152876661Y-104997242D01*
X153390303Y-104785010D01*
X153783629Y-104392370D01*
X153996757Y-103879100D01*
X153997242Y-103323339D01*
X153785010Y-102809697D01*
X153392370Y-102416371D01*
X152879100Y-102203243D01*
X152323339Y-102202758D01*
X151809697Y-102414990D01*
X151416371Y-102807630D01*
X151394294Y-102860796D01*
X151180213Y-102799392D01*
X150379605Y-103600000D01*
X150020395Y-103600000D01*
X149219787Y-102799392D01*
X148977603Y-102868857D01*
X148790856Y-103392302D01*
X146824671Y-103392302D01*
X147034663Y-102886584D01*
X147034895Y-102619787D01*
X149399392Y-102619787D01*
X150200000Y-103420395D01*
X151000608Y-102619787D01*
X150931143Y-102377603D01*
X150407698Y-102190856D01*
X149852632Y-102218638D01*
X149468857Y-102377603D01*
X149399392Y-102619787D01*
X147034895Y-102619787D01*
X147035335Y-102116793D01*
X146741370Y-101405342D01*
X146197521Y-100860543D01*
X145486584Y-100565337D01*
X144716793Y-100564665D01*
X144005342Y-100858630D01*
X143460543Y-101402479D01*
X143165337Y-102113416D01*
X143164665Y-102883207D01*
X142034665Y-102883207D01*
X142035335Y-102116793D01*
X141741370Y-101405342D01*
X141197521Y-100860543D01*
X140486584Y-100565337D01*
X139716793Y-100564665D01*
X139005342Y-100858630D01*
X138460543Y-101402479D01*
X138165337Y-102113416D01*
X138164665Y-102883207D01*
X133585460Y-102883207D01*
X133585460Y-102222630D01*
X133488787Y-101989241D01*
X133310158Y-101810613D01*
X133278500Y-101797500D01*
X135950200Y-101797500D01*
X136185517Y-101753222D01*
X136401641Y-101614150D01*
X136546631Y-101401950D01*
X136597640Y-101150060D01*
X136597640Y-97649940D01*
X136553362Y-97414623D01*
X136414290Y-97198499D01*
X136202090Y-97053509D01*
X135950200Y-97002500D01*
X132450080Y-97002500D01*
X132214763Y-97046778D01*
X131998639Y-97185850D01*
X131853649Y-97398050D01*
X131802640Y-97649940D01*
X131802640Y-101150060D01*
X131846918Y-101385377D01*
X131985990Y-101601501D01*
X132150550Y-101713940D01*
X131486150Y-101713940D01*
X131327400Y-101872690D01*
X131073400Y-101872690D01*
X130914650Y-101713940D01*
X130248728Y-101713940D01*
X130310418Y-101688387D01*
X130489047Y-101509759D01*
X130585720Y-101276370D01*
X130585720Y-99685750D01*
X130426970Y-99527000D01*
X128327660Y-99527000D01*
X128073660Y-99527000D01*
X125974350Y-99527000D01*
X125815600Y-99685750D01*
X124710000Y-99685750D01*
X124710000Y-97523630D01*
X125815600Y-97523630D01*
X125815600Y-99114250D01*
X125974350Y-99273000D01*
X128073660Y-99273000D01*
X128073660Y-97173690D01*
X128327660Y-97173690D01*
X128327660Y-99273000D01*
X130426970Y-99273000D01*
X130585720Y-99114250D01*
X130585720Y-97523630D01*
X130489047Y-97290241D01*
X130310418Y-97111613D01*
X130077029Y-97014940D01*
X128486410Y-97014940D01*
X128327660Y-97173690D01*
X128073660Y-97173690D01*
X127914910Y-97014940D01*
X126324291Y-97014940D01*
X126090902Y-97111613D01*
X125912273Y-97290241D01*
X125815600Y-97523630D01*
X124710000Y-97523630D01*
X124710000Y-96230000D01*
X153615536Y-96230000D01*
X153721200Y-96761207D01*
X154022104Y-97211542D01*
X154453812Y-97500000D01*
X154022104Y-97788458D01*
X153721200Y-98238793D01*
X153615536Y-98770000D01*
X153721200Y-99301207D01*
X154022104Y-99751542D01*
X154472439Y-100052446D01*
X155003646Y-100158110D01*
X156596354Y-100158110D01*
X157127561Y-100052446D01*
X157577896Y-99751542D01*
X157878800Y-99301207D01*
X157984464Y-98770000D01*
X157878800Y-98238793D01*
X157577896Y-97788458D01*
X157146188Y-97500000D01*
X157577896Y-97211542D01*
X157878800Y-96761207D01*
X157984464Y-96230000D01*
X157878800Y-95698793D01*
X157577896Y-95248458D01*
X157127561Y-94947554D01*
X156596354Y-94841890D01*
X155003646Y-94841890D01*
X154472439Y-94947554D01*
X154022104Y-95248458D01*
X153721200Y-95698793D01*
X153615536Y-96230000D01*
X124710000Y-96230000D01*
X124710000Y-92280213D01*
X129999392Y-92280213D01*
X130068857Y-92522397D01*
X130592302Y-92709144D01*
X131147368Y-92681362D01*
X131531143Y-92522397D01*
X131600608Y-92280213D01*
X130800000Y-91479605D01*
X129999392Y-92280213D01*
X124710000Y-92280213D01*
X124710000Y-91092302D01*
X129390856Y-91092302D01*
X129418638Y-91647368D01*
X129577603Y-92031143D01*
X129819787Y-92100608D01*
X130620395Y-91300000D01*
X130979605Y-91300000D01*
X131780213Y-92100608D01*
X131993921Y-92039311D01*
X132014990Y-92090303D01*
X132407630Y-92483629D01*
X132920900Y-92696757D01*
X133476661Y-92697242D01*
X133990303Y-92485010D01*
X134383629Y-92092370D01*
X134596757Y-91579100D01*
X134597242Y-91023339D01*
X134385010Y-90509697D01*
X133992370Y-90116371D01*
X133479100Y-89903243D01*
X132923339Y-89902758D01*
X132409697Y-90114990D01*
X132016371Y-90507630D01*
X131994294Y-90560796D01*
X131780213Y-90499392D01*
X130979605Y-91300000D01*
X130620395Y-91300000D01*
X129819787Y-90499392D01*
X129577603Y-90568857D01*
X129390856Y-91092302D01*
X124710000Y-91092302D01*
X124710000Y-90319787D01*
X129999392Y-90319787D01*
X130800000Y-91120395D01*
X131600608Y-90319787D01*
X131531143Y-90077603D01*
X131007698Y-89890856D01*
X130452632Y-89918638D01*
X130068857Y-90077603D01*
X129999392Y-90319787D01*
X124710000Y-90319787D01*
X124710000Y-88210000D01*
X158290000Y-88210000D01*
X158290000Y-106790000D01*
X158290000Y-106790000D01*
G37*
X158290000Y-106790000D02*
X124710000Y-106790000D01*
X124710000Y-104384750D01*
X128815340Y-104384750D01*
X128815340Y-105975370D01*
X128912013Y-106208759D01*
X129090642Y-106387387D01*
X129324031Y-106484060D01*
X130914650Y-106484060D01*
X131073400Y-106325310D01*
X131073400Y-104226000D01*
X131327400Y-104226000D01*
X131327400Y-106325310D01*
X131486150Y-106484060D01*
X133076769Y-106484060D01*
X133310158Y-106387387D01*
X133488787Y-106208759D01*
X133585460Y-105975370D01*
X133585460Y-104580213D01*
X149399392Y-104580213D01*
X149468857Y-104822397D01*
X149992302Y-105009144D01*
X150547368Y-104981362D01*
X150931143Y-104822397D01*
X151000608Y-104580213D01*
X150200000Y-103779605D01*
X149399392Y-104580213D01*
X133585460Y-104580213D01*
X133585460Y-104384750D01*
X133426710Y-104226000D01*
X131327400Y-104226000D01*
X131073400Y-104226000D01*
X128974090Y-104226000D01*
X128815340Y-104384750D01*
X124710000Y-104384750D01*
X124710000Y-99685750D01*
X125815600Y-99685750D01*
X125815600Y-101276370D01*
X125912273Y-101509759D01*
X126090902Y-101688387D01*
X126324291Y-101785060D01*
X127914910Y-101785060D01*
X128073660Y-101626310D01*
X128073660Y-99527000D01*
X128327660Y-99527000D01*
X128327660Y-101626310D01*
X128486410Y-101785060D01*
X129152332Y-101785060D01*
X129090642Y-101810613D01*
X128912013Y-101989241D01*
X128815340Y-102222630D01*
X128815340Y-103813250D01*
X128974090Y-103972000D01*
X131073400Y-103972000D01*
X131073400Y-101872690D01*
X131327400Y-101872690D01*
X131327400Y-103972000D01*
X133426710Y-103972000D01*
X133585460Y-103813250D01*
X133585460Y-102883207D01*
X138164665Y-102883207D01*
X138458630Y-103594658D01*
X139002479Y-104139457D01*
X139713416Y-104434663D01*
X140483207Y-104435335D01*
X141194658Y-104141370D01*
X141739457Y-103597521D01*
X142034663Y-102886584D01*
X142034665Y-102883207D01*
X143164665Y-102883207D01*
X143458630Y-103594658D01*
X144002479Y-104139457D01*
X144713416Y-104434663D01*
X145483207Y-104435335D01*
X146194658Y-104141370D01*
X146739457Y-103597521D01*
X146824671Y-103392302D01*
X148790856Y-103392302D01*
X148818638Y-103947368D01*
X148977603Y-104331143D01*
X149219787Y-104400608D01*
X150020395Y-103600000D01*
X150379605Y-103600000D01*
X151180213Y-104400608D01*
X151393921Y-104339311D01*
X151414990Y-104390303D01*
X151807630Y-104783629D01*
X152320900Y-104996757D01*
X152876661Y-104997242D01*
X153390303Y-104785010D01*
X153783629Y-104392370D01*
X153996757Y-103879100D01*
X153997242Y-103323339D01*
X153785010Y-102809697D01*
X153392370Y-102416371D01*
X152879100Y-102203243D01*
X152323339Y-102202758D01*
X151809697Y-102414990D01*
X151416371Y-102807630D01*
X151394294Y-102860796D01*
X151180213Y-102799392D01*
X150379605Y-103600000D01*
X150020395Y-103600000D01*
X149219787Y-102799392D01*
X148977603Y-102868857D01*
X148790856Y-103392302D01*
X146824671Y-103392302D01*
X147034663Y-102886584D01*
X147034895Y-102619787D01*
X149399392Y-102619787D01*
X150200000Y-103420395D01*
X151000608Y-102619787D01*
X150931143Y-102377603D01*
X150407698Y-102190856D01*
X149852632Y-102218638D01*
X149468857Y-102377603D01*
X149399392Y-102619787D01*
X147034895Y-102619787D01*
X147035335Y-102116793D01*
X146741370Y-101405342D01*
X146197521Y-100860543D01*
X145486584Y-100565337D01*
X144716793Y-100564665D01*
X144005342Y-100858630D01*
X143460543Y-101402479D01*
X143165337Y-102113416D01*
X143164665Y-102883207D01*
X142034665Y-102883207D01*
X142035335Y-102116793D01*
X141741370Y-101405342D01*
X141197521Y-100860543D01*
X140486584Y-100565337D01*
X139716793Y-100564665D01*
X139005342Y-100858630D01*
X138460543Y-101402479D01*
X138165337Y-102113416D01*
X138164665Y-102883207D01*
X133585460Y-102883207D01*
X133585460Y-102222630D01*
X133488787Y-101989241D01*
X133310158Y-101810613D01*
X133278500Y-101797500D01*
X135950200Y-101797500D01*
X136185517Y-101753222D01*
X136401641Y-101614150D01*
X136546631Y-101401950D01*
X136597640Y-101150060D01*
X136597640Y-97649940D01*
X136553362Y-97414623D01*
X136414290Y-97198499D01*
X136202090Y-97053509D01*
X135950200Y-97002500D01*
X132450080Y-97002500D01*
X132214763Y-97046778D01*
X131998639Y-97185850D01*
X131853649Y-97398050D01*
X131802640Y-97649940D01*
X131802640Y-101150060D01*
X131846918Y-101385377D01*
X131985990Y-101601501D01*
X132150550Y-101713940D01*
X131486150Y-101713940D01*
X131327400Y-101872690D01*
X131073400Y-101872690D01*
X130914650Y-101713940D01*
X130248728Y-101713940D01*
X130310418Y-101688387D01*
X130489047Y-101509759D01*
X130585720Y-101276370D01*
X130585720Y-99685750D01*
X130426970Y-99527000D01*
X128327660Y-99527000D01*
X128073660Y-99527000D01*
X125974350Y-99527000D01*
X125815600Y-99685750D01*
X124710000Y-99685750D01*
X124710000Y-97523630D01*
X125815600Y-97523630D01*
X125815600Y-99114250D01*
X125974350Y-99273000D01*
X128073660Y-99273000D01*
X128073660Y-97173690D01*
X128327660Y-97173690D01*
X128327660Y-99273000D01*
X130426970Y-99273000D01*
X130585720Y-99114250D01*
X130585720Y-97523630D01*
X130489047Y-97290241D01*
X130310418Y-97111613D01*
X130077029Y-97014940D01*
X128486410Y-97014940D01*
X128327660Y-97173690D01*
X128073660Y-97173690D01*
X127914910Y-97014940D01*
X126324291Y-97014940D01*
X126090902Y-97111613D01*
X125912273Y-97290241D01*
X125815600Y-97523630D01*
X124710000Y-97523630D01*
X124710000Y-96230000D01*
X153615536Y-96230000D01*
X153721200Y-96761207D01*
X154022104Y-97211542D01*
X154453812Y-97500000D01*
X154022104Y-97788458D01*
X153721200Y-98238793D01*
X153615536Y-98770000D01*
X153721200Y-99301207D01*
X154022104Y-99751542D01*
X154472439Y-100052446D01*
X155003646Y-100158110D01*
X156596354Y-100158110D01*
X157127561Y-100052446D01*
X157577896Y-99751542D01*
X157878800Y-99301207D01*
X157984464Y-98770000D01*
X157878800Y-98238793D01*
X157577896Y-97788458D01*
X157146188Y-97500000D01*
X157577896Y-97211542D01*
X157878800Y-96761207D01*
X157984464Y-96230000D01*
X157878800Y-95698793D01*
X157577896Y-95248458D01*
X157127561Y-94947554D01*
X156596354Y-94841890D01*
X155003646Y-94841890D01*
X154472439Y-94947554D01*
X154022104Y-95248458D01*
X153721200Y-95698793D01*
X153615536Y-96230000D01*
X124710000Y-96230000D01*
X124710000Y-92280213D01*
X129999392Y-92280213D01*
X130068857Y-92522397D01*
X130592302Y-92709144D01*
X131147368Y-92681362D01*
X131531143Y-92522397D01*
X131600608Y-92280213D01*
X130800000Y-91479605D01*
X129999392Y-92280213D01*
X124710000Y-92280213D01*
X124710000Y-91092302D01*
X129390856Y-91092302D01*
X129418638Y-91647368D01*
X129577603Y-92031143D01*
X129819787Y-92100608D01*
X130620395Y-91300000D01*
X130979605Y-91300000D01*
X131780213Y-92100608D01*
X131993921Y-92039311D01*
X132014990Y-92090303D01*
X132407630Y-92483629D01*
X132920900Y-92696757D01*
X133476661Y-92697242D01*
X133990303Y-92485010D01*
X134383629Y-92092370D01*
X134596757Y-91579100D01*
X134597242Y-91023339D01*
X134385010Y-90509697D01*
X133992370Y-90116371D01*
X133479100Y-89903243D01*
X132923339Y-89902758D01*
X132409697Y-90114990D01*
X132016371Y-90507630D01*
X131994294Y-90560796D01*
X131780213Y-90499392D01*
X130979605Y-91300000D01*
X130620395Y-91300000D01*
X129819787Y-90499392D01*
X129577603Y-90568857D01*
X129390856Y-91092302D01*
X124710000Y-91092302D01*
X124710000Y-90319787D01*
X129999392Y-90319787D01*
X130800000Y-91120395D01*
X131600608Y-90319787D01*
X131531143Y-90077603D01*
X131007698Y-89890856D01*
X130452632Y-89918638D01*
X130068857Y-90077603D01*
X129999392Y-90319787D01*
X124710000Y-90319787D01*
X124710000Y-88210000D01*
X158290000Y-88210000D01*
X158290000Y-106790000D01*
G36*
X158290000Y-86790000D02*
X124710000Y-86790000D01*
X124710000Y-84384750D01*
X128815340Y-84384750D01*
X128815340Y-85975370D01*
X128912013Y-86208759D01*
X129090642Y-86387387D01*
X129324031Y-86484060D01*
X130914650Y-86484060D01*
X131073400Y-86325310D01*
X131073400Y-84226000D01*
X131327400Y-84226000D01*
X131327400Y-86325310D01*
X131486150Y-86484060D01*
X133076769Y-86484060D01*
X133310158Y-86387387D01*
X133488787Y-86208759D01*
X133585460Y-85975370D01*
X133585460Y-84580213D01*
X149399392Y-84580213D01*
X149468857Y-84822397D01*
X149992302Y-85009144D01*
X150547368Y-84981362D01*
X150931143Y-84822397D01*
X151000608Y-84580213D01*
X150200000Y-83779605D01*
X149399392Y-84580213D01*
X133585460Y-84580213D01*
X133585460Y-84384750D01*
X133426710Y-84226000D01*
X131327400Y-84226000D01*
X131073400Y-84226000D01*
X128974090Y-84226000D01*
X128815340Y-84384750D01*
X124710000Y-84384750D01*
X124710000Y-79685750D01*
X125815600Y-79685750D01*
X125815600Y-81276370D01*
X125912273Y-81509759D01*
X126090902Y-81688387D01*
X126324291Y-81785060D01*
X127914910Y-81785060D01*
X128073660Y-81626310D01*
X128073660Y-79527000D01*
X128327660Y-79527000D01*
X128327660Y-81626310D01*
X128486410Y-81785060D01*
X129152332Y-81785060D01*
X129090642Y-81810613D01*
X128912013Y-81989241D01*
X128815340Y-82222630D01*
X128815340Y-83813250D01*
X128974090Y-83972000D01*
X131073400Y-83972000D01*
X131073400Y-81872690D01*
X131327400Y-81872690D01*
X131327400Y-83972000D01*
X133426710Y-83972000D01*
X133585460Y-83813250D01*
X133585460Y-82883207D01*
X138164665Y-82883207D01*
X138458630Y-83594658D01*
X139002479Y-84139457D01*
X139713416Y-84434663D01*
X140483207Y-84435335D01*
X141194658Y-84141370D01*
X141739457Y-83597521D01*
X142034663Y-82886584D01*
X142034665Y-82883207D01*
X143164665Y-82883207D01*
X143458630Y-83594658D01*
X144002479Y-84139457D01*
X144713416Y-84434663D01*
X145483207Y-84435335D01*
X146194658Y-84141370D01*
X146739457Y-83597521D01*
X146824671Y-83392302D01*
X148790856Y-83392302D01*
X148818638Y-83947368D01*
X148977603Y-84331143D01*
X149219787Y-84400608D01*
X150020395Y-83600000D01*
X150379605Y-83600000D01*
X151180213Y-84400608D01*
X151393921Y-84339311D01*
X151414990Y-84390303D01*
X151807630Y-84783629D01*
X152320900Y-84996757D01*
X152876661Y-84997242D01*
X153390303Y-84785010D01*
X153783629Y-84392370D01*
X153996757Y-83879100D01*
X153997242Y-83323339D01*
X153785010Y-82809697D01*
X153392370Y-82416371D01*
X152879100Y-82203243D01*
X152323339Y-82202758D01*
X151809697Y-82414990D01*
X151416371Y-82807630D01*
X151394294Y-82860796D01*
X151180213Y-82799392D01*
X150379605Y-83600000D01*
X150020395Y-83600000D01*
X149219787Y-82799392D01*
X148977603Y-82868857D01*
X148790856Y-83392302D01*
X146824671Y-83392302D01*
X147034663Y-82886584D01*
X147034895Y-82619787D01*
X149399392Y-82619787D01*
X150200000Y-83420395D01*
X151000608Y-82619787D01*
X150931143Y-82377603D01*
X150407698Y-82190856D01*
X149852632Y-82218638D01*
X149468857Y-82377603D01*
X149399392Y-82619787D01*
X147034895Y-82619787D01*
X147035335Y-82116793D01*
X146741370Y-81405342D01*
X146197521Y-80860543D01*
X145486584Y-80565337D01*
X144716793Y-80564665D01*
X144005342Y-80858630D01*
X143460543Y-81402479D01*
X143165337Y-82113416D01*
X143164665Y-82883207D01*
X142034665Y-82883207D01*
X142035335Y-82116793D01*
X141741370Y-81405342D01*
X141197521Y-80860543D01*
X140486584Y-80565337D01*
X139716793Y-80564665D01*
X139005342Y-80858630D01*
X138460543Y-81402479D01*
X138165337Y-82113416D01*
X138164665Y-82883207D01*
X133585460Y-82883207D01*
X133585460Y-82222630D01*
X133488787Y-81989241D01*
X133310158Y-81810613D01*
X133278500Y-81797500D01*
X135950200Y-81797500D01*
X136185517Y-81753222D01*
X136401641Y-81614150D01*
X136546631Y-81401950D01*
X136597640Y-81150060D01*
X136597640Y-77649940D01*
X136553362Y-77414623D01*
X136414290Y-77198499D01*
X136202090Y-77053509D01*
X135950200Y-77002500D01*
X132450080Y-77002500D01*
X132214763Y-77046778D01*
X131998639Y-77185850D01*
X131853649Y-77398050D01*
X131802640Y-77649940D01*
X131802640Y-81150060D01*
X131846918Y-81385377D01*
X131985990Y-81601501D01*
X132150550Y-81713940D01*
X131486150Y-81713940D01*
X131327400Y-81872690D01*
X131073400Y-81872690D01*
X130914650Y-81713940D01*
X130248728Y-81713940D01*
X130310418Y-81688387D01*
X130489047Y-81509759D01*
X130585720Y-81276370D01*
X130585720Y-79685750D01*
X130426970Y-79527000D01*
X128327660Y-79527000D01*
X128073660Y-79527000D01*
X125974350Y-79527000D01*
X125815600Y-79685750D01*
X124710000Y-79685750D01*
X124710000Y-77523630D01*
X125815600Y-77523630D01*
X125815600Y-79114250D01*
X125974350Y-79273000D01*
X128073660Y-79273000D01*
X128073660Y-77173690D01*
X128327660Y-77173690D01*
X128327660Y-79273000D01*
X130426970Y-79273000D01*
X130585720Y-79114250D01*
X130585720Y-77523630D01*
X130489047Y-77290241D01*
X130310418Y-77111613D01*
X130077029Y-77014940D01*
X128486410Y-77014940D01*
X128327660Y-77173690D01*
X128073660Y-77173690D01*
X127914910Y-77014940D01*
X126324291Y-77014940D01*
X126090902Y-77111613D01*
X125912273Y-77290241D01*
X125815600Y-77523630D01*
X124710000Y-77523630D01*
X124710000Y-76230000D01*
X153615536Y-76230000D01*
X153721200Y-76761207D01*
X154022104Y-77211542D01*
X154453812Y-77500000D01*
X154022104Y-77788458D01*
X153721200Y-78238793D01*
X153615536Y-78770000D01*
X153721200Y-79301207D01*
X154022104Y-79751542D01*
X154472439Y-80052446D01*
X155003646Y-80158110D01*
X156596354Y-80158110D01*
X157127561Y-80052446D01*
X157577896Y-79751542D01*
X157878800Y-79301207D01*
X157984464Y-78770000D01*
X157878800Y-78238793D01*
X157577896Y-77788458D01*
X157146188Y-77500000D01*
X157577896Y-77211542D01*
X157878800Y-76761207D01*
X157984464Y-76230000D01*
X157878800Y-75698793D01*
X157577896Y-75248458D01*
X157127561Y-74947554D01*
X156596354Y-74841890D01*
X155003646Y-74841890D01*
X154472439Y-74947554D01*
X154022104Y-75248458D01*
X153721200Y-75698793D01*
X153615536Y-76230000D01*
X124710000Y-76230000D01*
X124710000Y-72280213D01*
X129999392Y-72280213D01*
X130068857Y-72522397D01*
X130592302Y-72709144D01*
X131147368Y-72681362D01*
X131531143Y-72522397D01*
X131600608Y-72280213D01*
X130800000Y-71479605D01*
X129999392Y-72280213D01*
X124710000Y-72280213D01*
X124710000Y-71092302D01*
X129390856Y-71092302D01*
X129418638Y-71647368D01*
X129577603Y-72031143D01*
X129819787Y-72100608D01*
X130620395Y-71300000D01*
X130979605Y-71300000D01*
X131780213Y-72100608D01*
X131993921Y-72039311D01*
X132014990Y-72090303D01*
X132407630Y-72483629D01*
X132920900Y-72696757D01*
X133476661Y-72697242D01*
X133990303Y-72485010D01*
X134383629Y-72092370D01*
X134596757Y-71579100D01*
X134597242Y-71023339D01*
X134385010Y-70509697D01*
X133992370Y-70116371D01*
X133479100Y-69903243D01*
X132923339Y-69902758D01*
X132409697Y-70114990D01*
X132016371Y-70507630D01*
X131994294Y-70560796D01*
X131780213Y-70499392D01*
X130979605Y-71300000D01*
X130620395Y-71300000D01*
X129819787Y-70499392D01*
X129577603Y-70568857D01*
X129390856Y-71092302D01*
X124710000Y-71092302D01*
X124710000Y-70319787D01*
X129999392Y-70319787D01*
X130800000Y-71120395D01*
X131600608Y-70319787D01*
X131531143Y-70077603D01*
X131007698Y-69890856D01*
X130452632Y-69918638D01*
X130068857Y-70077603D01*
X129999392Y-70319787D01*
X124710000Y-70319787D01*
X124710000Y-68210000D01*
X158290000Y-68210000D01*
X158290000Y-86790000D01*
X158290000Y-86790000D01*
G37*
X158290000Y-86790000D02*
X124710000Y-86790000D01*
X124710000Y-84384750D01*
X128815340Y-84384750D01*
X128815340Y-85975370D01*
X128912013Y-86208759D01*
X129090642Y-86387387D01*
X129324031Y-86484060D01*
X130914650Y-86484060D01*
X131073400Y-86325310D01*
X131073400Y-84226000D01*
X131327400Y-84226000D01*
X131327400Y-86325310D01*
X131486150Y-86484060D01*
X133076769Y-86484060D01*
X133310158Y-86387387D01*
X133488787Y-86208759D01*
X133585460Y-85975370D01*
X133585460Y-84580213D01*
X149399392Y-84580213D01*
X149468857Y-84822397D01*
X149992302Y-85009144D01*
X150547368Y-84981362D01*
X150931143Y-84822397D01*
X151000608Y-84580213D01*
X150200000Y-83779605D01*
X149399392Y-84580213D01*
X133585460Y-84580213D01*
X133585460Y-84384750D01*
X133426710Y-84226000D01*
X131327400Y-84226000D01*
X131073400Y-84226000D01*
X128974090Y-84226000D01*
X128815340Y-84384750D01*
X124710000Y-84384750D01*
X124710000Y-79685750D01*
X125815600Y-79685750D01*
X125815600Y-81276370D01*
X125912273Y-81509759D01*
X126090902Y-81688387D01*
X126324291Y-81785060D01*
X127914910Y-81785060D01*
X128073660Y-81626310D01*
X128073660Y-79527000D01*
X128327660Y-79527000D01*
X128327660Y-81626310D01*
X128486410Y-81785060D01*
X129152332Y-81785060D01*
X129090642Y-81810613D01*
X128912013Y-81989241D01*
X128815340Y-82222630D01*
X128815340Y-83813250D01*
X128974090Y-83972000D01*
X131073400Y-83972000D01*
X131073400Y-81872690D01*
X131327400Y-81872690D01*
X131327400Y-83972000D01*
X133426710Y-83972000D01*
X133585460Y-83813250D01*
X133585460Y-82883207D01*
X138164665Y-82883207D01*
X138458630Y-83594658D01*
X139002479Y-84139457D01*
X139713416Y-84434663D01*
X140483207Y-84435335D01*
X141194658Y-84141370D01*
X141739457Y-83597521D01*
X142034663Y-82886584D01*
X142034665Y-82883207D01*
X143164665Y-82883207D01*
X143458630Y-83594658D01*
X144002479Y-84139457D01*
X144713416Y-84434663D01*
X145483207Y-84435335D01*
X146194658Y-84141370D01*
X146739457Y-83597521D01*
X146824671Y-83392302D01*
X148790856Y-83392302D01*
X148818638Y-83947368D01*
X148977603Y-84331143D01*
X149219787Y-84400608D01*
X150020395Y-83600000D01*
X150379605Y-83600000D01*
X151180213Y-84400608D01*
X151393921Y-84339311D01*
X151414990Y-84390303D01*
X151807630Y-84783629D01*
X152320900Y-84996757D01*
X152876661Y-84997242D01*
X153390303Y-84785010D01*
X153783629Y-84392370D01*
X153996757Y-83879100D01*
X153997242Y-83323339D01*
X153785010Y-82809697D01*
X153392370Y-82416371D01*
X152879100Y-82203243D01*
X152323339Y-82202758D01*
X151809697Y-82414990D01*
X151416371Y-82807630D01*
X151394294Y-82860796D01*
X151180213Y-82799392D01*
X150379605Y-83600000D01*
X150020395Y-83600000D01*
X149219787Y-82799392D01*
X148977603Y-82868857D01*
X148790856Y-83392302D01*
X146824671Y-83392302D01*
X147034663Y-82886584D01*
X147034895Y-82619787D01*
X149399392Y-82619787D01*
X150200000Y-83420395D01*
X151000608Y-82619787D01*
X150931143Y-82377603D01*
X150407698Y-82190856D01*
X149852632Y-82218638D01*
X149468857Y-82377603D01*
X149399392Y-82619787D01*
X147034895Y-82619787D01*
X147035335Y-82116793D01*
X146741370Y-81405342D01*
X146197521Y-80860543D01*
X145486584Y-80565337D01*
X144716793Y-80564665D01*
X144005342Y-80858630D01*
X143460543Y-81402479D01*
X143165337Y-82113416D01*
X143164665Y-82883207D01*
X142034665Y-82883207D01*
X142035335Y-82116793D01*
X141741370Y-81405342D01*
X141197521Y-80860543D01*
X140486584Y-80565337D01*
X139716793Y-80564665D01*
X139005342Y-80858630D01*
X138460543Y-81402479D01*
X138165337Y-82113416D01*
X138164665Y-82883207D01*
X133585460Y-82883207D01*
X133585460Y-82222630D01*
X133488787Y-81989241D01*
X133310158Y-81810613D01*
X133278500Y-81797500D01*
X135950200Y-81797500D01*
X136185517Y-81753222D01*
X136401641Y-81614150D01*
X136546631Y-81401950D01*
X136597640Y-81150060D01*
X136597640Y-77649940D01*
X136553362Y-77414623D01*
X136414290Y-77198499D01*
X136202090Y-77053509D01*
X135950200Y-77002500D01*
X132450080Y-77002500D01*
X132214763Y-77046778D01*
X131998639Y-77185850D01*
X131853649Y-77398050D01*
X131802640Y-77649940D01*
X131802640Y-81150060D01*
X131846918Y-81385377D01*
X131985990Y-81601501D01*
X132150550Y-81713940D01*
X131486150Y-81713940D01*
X131327400Y-81872690D01*
X131073400Y-81872690D01*
X130914650Y-81713940D01*
X130248728Y-81713940D01*
X130310418Y-81688387D01*
X130489047Y-81509759D01*
X130585720Y-81276370D01*
X130585720Y-79685750D01*
X130426970Y-79527000D01*
X128327660Y-79527000D01*
X128073660Y-79527000D01*
X125974350Y-79527000D01*
X125815600Y-79685750D01*
X124710000Y-79685750D01*
X124710000Y-77523630D01*
X125815600Y-77523630D01*
X125815600Y-79114250D01*
X125974350Y-79273000D01*
X128073660Y-79273000D01*
X128073660Y-77173690D01*
X128327660Y-77173690D01*
X128327660Y-79273000D01*
X130426970Y-79273000D01*
X130585720Y-79114250D01*
X130585720Y-77523630D01*
X130489047Y-77290241D01*
X130310418Y-77111613D01*
X130077029Y-77014940D01*
X128486410Y-77014940D01*
X128327660Y-77173690D01*
X128073660Y-77173690D01*
X127914910Y-77014940D01*
X126324291Y-77014940D01*
X126090902Y-77111613D01*
X125912273Y-77290241D01*
X125815600Y-77523630D01*
X124710000Y-77523630D01*
X124710000Y-76230000D01*
X153615536Y-76230000D01*
X153721200Y-76761207D01*
X154022104Y-77211542D01*
X154453812Y-77500000D01*
X154022104Y-77788458D01*
X153721200Y-78238793D01*
X153615536Y-78770000D01*
X153721200Y-79301207D01*
X154022104Y-79751542D01*
X154472439Y-80052446D01*
X155003646Y-80158110D01*
X156596354Y-80158110D01*
X157127561Y-80052446D01*
X157577896Y-79751542D01*
X157878800Y-79301207D01*
X157984464Y-78770000D01*
X157878800Y-78238793D01*
X157577896Y-77788458D01*
X157146188Y-77500000D01*
X157577896Y-77211542D01*
X157878800Y-76761207D01*
X157984464Y-76230000D01*
X157878800Y-75698793D01*
X157577896Y-75248458D01*
X157127561Y-74947554D01*
X156596354Y-74841890D01*
X155003646Y-74841890D01*
X154472439Y-74947554D01*
X154022104Y-75248458D01*
X153721200Y-75698793D01*
X153615536Y-76230000D01*
X124710000Y-76230000D01*
X124710000Y-72280213D01*
X129999392Y-72280213D01*
X130068857Y-72522397D01*
X130592302Y-72709144D01*
X131147368Y-72681362D01*
X131531143Y-72522397D01*
X131600608Y-72280213D01*
X130800000Y-71479605D01*
X129999392Y-72280213D01*
X124710000Y-72280213D01*
X124710000Y-71092302D01*
X129390856Y-71092302D01*
X129418638Y-71647368D01*
X129577603Y-72031143D01*
X129819787Y-72100608D01*
X130620395Y-71300000D01*
X130979605Y-71300000D01*
X131780213Y-72100608D01*
X131993921Y-72039311D01*
X132014990Y-72090303D01*
X132407630Y-72483629D01*
X132920900Y-72696757D01*
X133476661Y-72697242D01*
X133990303Y-72485010D01*
X134383629Y-72092370D01*
X134596757Y-71579100D01*
X134597242Y-71023339D01*
X134385010Y-70509697D01*
X133992370Y-70116371D01*
X133479100Y-69903243D01*
X132923339Y-69902758D01*
X132409697Y-70114990D01*
X132016371Y-70507630D01*
X131994294Y-70560796D01*
X131780213Y-70499392D01*
X130979605Y-71300000D01*
X130620395Y-71300000D01*
X129819787Y-70499392D01*
X129577603Y-70568857D01*
X129390856Y-71092302D01*
X124710000Y-71092302D01*
X124710000Y-70319787D01*
X129999392Y-70319787D01*
X130800000Y-71120395D01*
X131600608Y-70319787D01*
X131531143Y-70077603D01*
X131007698Y-69890856D01*
X130452632Y-69918638D01*
X130068857Y-70077603D01*
X129999392Y-70319787D01*
X124710000Y-70319787D01*
X124710000Y-68210000D01*
X158290000Y-68210000D01*
X158290000Y-86790000D01*
G36*
X158290000Y-66790000D02*
X124710000Y-66790000D01*
X124710000Y-64384750D01*
X128815340Y-64384750D01*
X128815340Y-65975370D01*
X128912013Y-66208759D01*
X129090642Y-66387387D01*
X129324031Y-66484060D01*
X130914650Y-66484060D01*
X131073400Y-66325310D01*
X131073400Y-64226000D01*
X131327400Y-64226000D01*
X131327400Y-66325310D01*
X131486150Y-66484060D01*
X133076769Y-66484060D01*
X133310158Y-66387387D01*
X133488787Y-66208759D01*
X133585460Y-65975370D01*
X133585460Y-64580213D01*
X149399392Y-64580213D01*
X149468857Y-64822397D01*
X149992302Y-65009144D01*
X150547368Y-64981362D01*
X150931143Y-64822397D01*
X151000608Y-64580213D01*
X150200000Y-63779605D01*
X149399392Y-64580213D01*
X133585460Y-64580213D01*
X133585460Y-64384750D01*
X133426710Y-64226000D01*
X131327400Y-64226000D01*
X131073400Y-64226000D01*
X128974090Y-64226000D01*
X128815340Y-64384750D01*
X124710000Y-64384750D01*
X124710000Y-59685750D01*
X125815600Y-59685750D01*
X125815600Y-61276370D01*
X125912273Y-61509759D01*
X126090902Y-61688387D01*
X126324291Y-61785060D01*
X127914910Y-61785060D01*
X128073660Y-61626310D01*
X128073660Y-59527000D01*
X128327660Y-59527000D01*
X128327660Y-61626310D01*
X128486410Y-61785060D01*
X129152332Y-61785060D01*
X129090642Y-61810613D01*
X128912013Y-61989241D01*
X128815340Y-62222630D01*
X128815340Y-63813250D01*
X128974090Y-63972000D01*
X131073400Y-63972000D01*
X131073400Y-61872690D01*
X131327400Y-61872690D01*
X131327400Y-63972000D01*
X133426710Y-63972000D01*
X133585460Y-63813250D01*
X133585460Y-62883207D01*
X138164665Y-62883207D01*
X138458630Y-63594658D01*
X139002479Y-64139457D01*
X139713416Y-64434663D01*
X140483207Y-64435335D01*
X141194658Y-64141370D01*
X141739457Y-63597521D01*
X142034663Y-62886584D01*
X142034665Y-62883207D01*
X143164665Y-62883207D01*
X143458630Y-63594658D01*
X144002479Y-64139457D01*
X144713416Y-64434663D01*
X145483207Y-64435335D01*
X146194658Y-64141370D01*
X146739457Y-63597521D01*
X146824671Y-63392302D01*
X148790856Y-63392302D01*
X148818638Y-63947368D01*
X148977603Y-64331143D01*
X149219787Y-64400608D01*
X150020395Y-63600000D01*
X150379605Y-63600000D01*
X151180213Y-64400608D01*
X151393921Y-64339311D01*
X151414990Y-64390303D01*
X151807630Y-64783629D01*
X152320900Y-64996757D01*
X152876661Y-64997242D01*
X153390303Y-64785010D01*
X153783629Y-64392370D01*
X153996757Y-63879100D01*
X153997242Y-63323339D01*
X153785010Y-62809697D01*
X153392370Y-62416371D01*
X152879100Y-62203243D01*
X152323339Y-62202758D01*
X151809697Y-62414990D01*
X151416371Y-62807630D01*
X151394294Y-62860796D01*
X151180213Y-62799392D01*
X150379605Y-63600000D01*
X150020395Y-63600000D01*
X149219787Y-62799392D01*
X148977603Y-62868857D01*
X148790856Y-63392302D01*
X146824671Y-63392302D01*
X147034663Y-62886584D01*
X147034895Y-62619787D01*
X149399392Y-62619787D01*
X150200000Y-63420395D01*
X151000608Y-62619787D01*
X150931143Y-62377603D01*
X150407698Y-62190856D01*
X149852632Y-62218638D01*
X149468857Y-62377603D01*
X149399392Y-62619787D01*
X147034895Y-62619787D01*
X147035335Y-62116793D01*
X146741370Y-61405342D01*
X146197521Y-60860543D01*
X145486584Y-60565337D01*
X144716793Y-60564665D01*
X144005342Y-60858630D01*
X143460543Y-61402479D01*
X143165337Y-62113416D01*
X143164665Y-62883207D01*
X142034665Y-62883207D01*
X142035335Y-62116793D01*
X141741370Y-61405342D01*
X141197521Y-60860543D01*
X140486584Y-60565337D01*
X139716793Y-60564665D01*
X139005342Y-60858630D01*
X138460543Y-61402479D01*
X138165337Y-62113416D01*
X138164665Y-62883207D01*
X133585460Y-62883207D01*
X133585460Y-62222630D01*
X133488787Y-61989241D01*
X133310158Y-61810613D01*
X133278500Y-61797500D01*
X135950200Y-61797500D01*
X136185517Y-61753222D01*
X136401641Y-61614150D01*
X136546631Y-61401950D01*
X136597640Y-61150060D01*
X136597640Y-57649940D01*
X136553362Y-57414623D01*
X136414290Y-57198499D01*
X136202090Y-57053509D01*
X135950200Y-57002500D01*
X132450080Y-57002500D01*
X132214763Y-57046778D01*
X131998639Y-57185850D01*
X131853649Y-57398050D01*
X131802640Y-57649940D01*
X131802640Y-61150060D01*
X131846918Y-61385377D01*
X131985990Y-61601501D01*
X132150550Y-61713940D01*
X131486150Y-61713940D01*
X131327400Y-61872690D01*
X131073400Y-61872690D01*
X130914650Y-61713940D01*
X130248728Y-61713940D01*
X130310418Y-61688387D01*
X130489047Y-61509759D01*
X130585720Y-61276370D01*
X130585720Y-59685750D01*
X130426970Y-59527000D01*
X128327660Y-59527000D01*
X128073660Y-59527000D01*
X125974350Y-59527000D01*
X125815600Y-59685750D01*
X124710000Y-59685750D01*
X124710000Y-57523630D01*
X125815600Y-57523630D01*
X125815600Y-59114250D01*
X125974350Y-59273000D01*
X128073660Y-59273000D01*
X128073660Y-57173690D01*
X128327660Y-57173690D01*
X128327660Y-59273000D01*
X130426970Y-59273000D01*
X130585720Y-59114250D01*
X130585720Y-57523630D01*
X130489047Y-57290241D01*
X130310418Y-57111613D01*
X130077029Y-57014940D01*
X128486410Y-57014940D01*
X128327660Y-57173690D01*
X128073660Y-57173690D01*
X127914910Y-57014940D01*
X126324291Y-57014940D01*
X126090902Y-57111613D01*
X125912273Y-57290241D01*
X125815600Y-57523630D01*
X124710000Y-57523630D01*
X124710000Y-56230000D01*
X153615536Y-56230000D01*
X153721200Y-56761207D01*
X154022104Y-57211542D01*
X154453812Y-57500000D01*
X154022104Y-57788458D01*
X153721200Y-58238793D01*
X153615536Y-58770000D01*
X153721200Y-59301207D01*
X154022104Y-59751542D01*
X154472439Y-60052446D01*
X155003646Y-60158110D01*
X156596354Y-60158110D01*
X157127561Y-60052446D01*
X157577896Y-59751542D01*
X157878800Y-59301207D01*
X157984464Y-58770000D01*
X157878800Y-58238793D01*
X157577896Y-57788458D01*
X157146188Y-57500000D01*
X157577896Y-57211542D01*
X157878800Y-56761207D01*
X157984464Y-56230000D01*
X157878800Y-55698793D01*
X157577896Y-55248458D01*
X157127561Y-54947554D01*
X156596354Y-54841890D01*
X155003646Y-54841890D01*
X154472439Y-54947554D01*
X154022104Y-55248458D01*
X153721200Y-55698793D01*
X153615536Y-56230000D01*
X124710000Y-56230000D01*
X124710000Y-52280213D01*
X129999392Y-52280213D01*
X130068857Y-52522397D01*
X130592302Y-52709144D01*
X131147368Y-52681362D01*
X131531143Y-52522397D01*
X131600608Y-52280213D01*
X130800000Y-51479605D01*
X129999392Y-52280213D01*
X124710000Y-52280213D01*
X124710000Y-51092302D01*
X129390856Y-51092302D01*
X129418638Y-51647368D01*
X129577603Y-52031143D01*
X129819787Y-52100608D01*
X130620395Y-51300000D01*
X130979605Y-51300000D01*
X131780213Y-52100608D01*
X131993921Y-52039311D01*
X132014990Y-52090303D01*
X132407630Y-52483629D01*
X132920900Y-52696757D01*
X133476661Y-52697242D01*
X133990303Y-52485010D01*
X134383629Y-52092370D01*
X134596757Y-51579100D01*
X134597242Y-51023339D01*
X134385010Y-50509697D01*
X133992370Y-50116371D01*
X133479100Y-49903243D01*
X132923339Y-49902758D01*
X132409697Y-50114990D01*
X132016371Y-50507630D01*
X131994294Y-50560796D01*
X131780213Y-50499392D01*
X130979605Y-51300000D01*
X130620395Y-51300000D01*
X129819787Y-50499392D01*
X129577603Y-50568857D01*
X129390856Y-51092302D01*
X124710000Y-51092302D01*
X124710000Y-50319787D01*
X129999392Y-50319787D01*
X130800000Y-51120395D01*
X131600608Y-50319787D01*
X131531143Y-50077603D01*
X131007698Y-49890856D01*
X130452632Y-49918638D01*
X130068857Y-50077603D01*
X129999392Y-50319787D01*
X124710000Y-50319787D01*
X124710000Y-48210000D01*
X158290000Y-48210000D01*
X158290000Y-66790000D01*
X158290000Y-66790000D01*
G37*
X158290000Y-66790000D02*
X124710000Y-66790000D01*
X124710000Y-64384750D01*
X128815340Y-64384750D01*
X128815340Y-65975370D01*
X128912013Y-66208759D01*
X129090642Y-66387387D01*
X129324031Y-66484060D01*
X130914650Y-66484060D01*
X131073400Y-66325310D01*
X131073400Y-64226000D01*
X131327400Y-64226000D01*
X131327400Y-66325310D01*
X131486150Y-66484060D01*
X133076769Y-66484060D01*
X133310158Y-66387387D01*
X133488787Y-66208759D01*
X133585460Y-65975370D01*
X133585460Y-64580213D01*
X149399392Y-64580213D01*
X149468857Y-64822397D01*
X149992302Y-65009144D01*
X150547368Y-64981362D01*
X150931143Y-64822397D01*
X151000608Y-64580213D01*
X150200000Y-63779605D01*
X149399392Y-64580213D01*
X133585460Y-64580213D01*
X133585460Y-64384750D01*
X133426710Y-64226000D01*
X131327400Y-64226000D01*
X131073400Y-64226000D01*
X128974090Y-64226000D01*
X128815340Y-64384750D01*
X124710000Y-64384750D01*
X124710000Y-59685750D01*
X125815600Y-59685750D01*
X125815600Y-61276370D01*
X125912273Y-61509759D01*
X126090902Y-61688387D01*
X126324291Y-61785060D01*
X127914910Y-61785060D01*
X128073660Y-61626310D01*
X128073660Y-59527000D01*
X128327660Y-59527000D01*
X128327660Y-61626310D01*
X128486410Y-61785060D01*
X129152332Y-61785060D01*
X129090642Y-61810613D01*
X128912013Y-61989241D01*
X128815340Y-62222630D01*
X128815340Y-63813250D01*
X128974090Y-63972000D01*
X131073400Y-63972000D01*
X131073400Y-61872690D01*
X131327400Y-61872690D01*
X131327400Y-63972000D01*
X133426710Y-63972000D01*
X133585460Y-63813250D01*
X133585460Y-62883207D01*
X138164665Y-62883207D01*
X138458630Y-63594658D01*
X139002479Y-64139457D01*
X139713416Y-64434663D01*
X140483207Y-64435335D01*
X141194658Y-64141370D01*
X141739457Y-63597521D01*
X142034663Y-62886584D01*
X142034665Y-62883207D01*
X143164665Y-62883207D01*
X143458630Y-63594658D01*
X144002479Y-64139457D01*
X144713416Y-64434663D01*
X145483207Y-64435335D01*
X146194658Y-64141370D01*
X146739457Y-63597521D01*
X146824671Y-63392302D01*
X148790856Y-63392302D01*
X148818638Y-63947368D01*
X148977603Y-64331143D01*
X149219787Y-64400608D01*
X150020395Y-63600000D01*
X150379605Y-63600000D01*
X151180213Y-64400608D01*
X151393921Y-64339311D01*
X151414990Y-64390303D01*
X151807630Y-64783629D01*
X152320900Y-64996757D01*
X152876661Y-64997242D01*
X153390303Y-64785010D01*
X153783629Y-64392370D01*
X153996757Y-63879100D01*
X153997242Y-63323339D01*
X153785010Y-62809697D01*
X153392370Y-62416371D01*
X152879100Y-62203243D01*
X152323339Y-62202758D01*
X151809697Y-62414990D01*
X151416371Y-62807630D01*
X151394294Y-62860796D01*
X151180213Y-62799392D01*
X150379605Y-63600000D01*
X150020395Y-63600000D01*
X149219787Y-62799392D01*
X148977603Y-62868857D01*
X148790856Y-63392302D01*
X146824671Y-63392302D01*
X147034663Y-62886584D01*
X147034895Y-62619787D01*
X149399392Y-62619787D01*
X150200000Y-63420395D01*
X151000608Y-62619787D01*
X150931143Y-62377603D01*
X150407698Y-62190856D01*
X149852632Y-62218638D01*
X149468857Y-62377603D01*
X149399392Y-62619787D01*
X147034895Y-62619787D01*
X147035335Y-62116793D01*
X146741370Y-61405342D01*
X146197521Y-60860543D01*
X145486584Y-60565337D01*
X144716793Y-60564665D01*
X144005342Y-60858630D01*
X143460543Y-61402479D01*
X143165337Y-62113416D01*
X143164665Y-62883207D01*
X142034665Y-62883207D01*
X142035335Y-62116793D01*
X141741370Y-61405342D01*
X141197521Y-60860543D01*
X140486584Y-60565337D01*
X139716793Y-60564665D01*
X139005342Y-60858630D01*
X138460543Y-61402479D01*
X138165337Y-62113416D01*
X138164665Y-62883207D01*
X133585460Y-62883207D01*
X133585460Y-62222630D01*
X133488787Y-61989241D01*
X133310158Y-61810613D01*
X133278500Y-61797500D01*
X135950200Y-61797500D01*
X136185517Y-61753222D01*
X136401641Y-61614150D01*
X136546631Y-61401950D01*
X136597640Y-61150060D01*
X136597640Y-57649940D01*
X136553362Y-57414623D01*
X136414290Y-57198499D01*
X136202090Y-57053509D01*
X135950200Y-57002500D01*
X132450080Y-57002500D01*
X132214763Y-57046778D01*
X131998639Y-57185850D01*
X131853649Y-57398050D01*
X131802640Y-57649940D01*
X131802640Y-61150060D01*
X131846918Y-61385377D01*
X131985990Y-61601501D01*
X132150550Y-61713940D01*
X131486150Y-61713940D01*
X131327400Y-61872690D01*
X131073400Y-61872690D01*
X130914650Y-61713940D01*
X130248728Y-61713940D01*
X130310418Y-61688387D01*
X130489047Y-61509759D01*
X130585720Y-61276370D01*
X130585720Y-59685750D01*
X130426970Y-59527000D01*
X128327660Y-59527000D01*
X128073660Y-59527000D01*
X125974350Y-59527000D01*
X125815600Y-59685750D01*
X124710000Y-59685750D01*
X124710000Y-57523630D01*
X125815600Y-57523630D01*
X125815600Y-59114250D01*
X125974350Y-59273000D01*
X128073660Y-59273000D01*
X128073660Y-57173690D01*
X128327660Y-57173690D01*
X128327660Y-59273000D01*
X130426970Y-59273000D01*
X130585720Y-59114250D01*
X130585720Y-57523630D01*
X130489047Y-57290241D01*
X130310418Y-57111613D01*
X130077029Y-57014940D01*
X128486410Y-57014940D01*
X128327660Y-57173690D01*
X128073660Y-57173690D01*
X127914910Y-57014940D01*
X126324291Y-57014940D01*
X126090902Y-57111613D01*
X125912273Y-57290241D01*
X125815600Y-57523630D01*
X124710000Y-57523630D01*
X124710000Y-56230000D01*
X153615536Y-56230000D01*
X153721200Y-56761207D01*
X154022104Y-57211542D01*
X154453812Y-57500000D01*
X154022104Y-57788458D01*
X153721200Y-58238793D01*
X153615536Y-58770000D01*
X153721200Y-59301207D01*
X154022104Y-59751542D01*
X154472439Y-60052446D01*
X155003646Y-60158110D01*
X156596354Y-60158110D01*
X157127561Y-60052446D01*
X157577896Y-59751542D01*
X157878800Y-59301207D01*
X157984464Y-58770000D01*
X157878800Y-58238793D01*
X157577896Y-57788458D01*
X157146188Y-57500000D01*
X157577896Y-57211542D01*
X157878800Y-56761207D01*
X157984464Y-56230000D01*
X157878800Y-55698793D01*
X157577896Y-55248458D01*
X157127561Y-54947554D01*
X156596354Y-54841890D01*
X155003646Y-54841890D01*
X154472439Y-54947554D01*
X154022104Y-55248458D01*
X153721200Y-55698793D01*
X153615536Y-56230000D01*
X124710000Y-56230000D01*
X124710000Y-52280213D01*
X129999392Y-52280213D01*
X130068857Y-52522397D01*
X130592302Y-52709144D01*
X131147368Y-52681362D01*
X131531143Y-52522397D01*
X131600608Y-52280213D01*
X130800000Y-51479605D01*
X129999392Y-52280213D01*
X124710000Y-52280213D01*
X124710000Y-51092302D01*
X129390856Y-51092302D01*
X129418638Y-51647368D01*
X129577603Y-52031143D01*
X129819787Y-52100608D01*
X130620395Y-51300000D01*
X130979605Y-51300000D01*
X131780213Y-52100608D01*
X131993921Y-52039311D01*
X132014990Y-52090303D01*
X132407630Y-52483629D01*
X132920900Y-52696757D01*
X133476661Y-52697242D01*
X133990303Y-52485010D01*
X134383629Y-52092370D01*
X134596757Y-51579100D01*
X134597242Y-51023339D01*
X134385010Y-50509697D01*
X133992370Y-50116371D01*
X133479100Y-49903243D01*
X132923339Y-49902758D01*
X132409697Y-50114990D01*
X132016371Y-50507630D01*
X131994294Y-50560796D01*
X131780213Y-50499392D01*
X130979605Y-51300000D01*
X130620395Y-51300000D01*
X129819787Y-50499392D01*
X129577603Y-50568857D01*
X129390856Y-51092302D01*
X124710000Y-51092302D01*
X124710000Y-50319787D01*
X129999392Y-50319787D01*
X130800000Y-51120395D01*
X131600608Y-50319787D01*
X131531143Y-50077603D01*
X131007698Y-49890856D01*
X130452632Y-49918638D01*
X130068857Y-50077603D01*
X129999392Y-50319787D01*
X124710000Y-50319787D01*
X124710000Y-48210000D01*
X158290000Y-48210000D01*
X158290000Y-66790000D01*
G36*
X123290000Y-126790000D02*
X89710000Y-126790000D01*
X89710000Y-124384750D01*
X93815340Y-124384750D01*
X93815340Y-125975370D01*
X93912013Y-126208759D01*
X94090642Y-126387387D01*
X94324031Y-126484060D01*
X95914650Y-126484060D01*
X96073400Y-126325310D01*
X96073400Y-124226000D01*
X96327400Y-124226000D01*
X96327400Y-126325310D01*
X96486150Y-126484060D01*
X98076769Y-126484060D01*
X98310158Y-126387387D01*
X98488787Y-126208759D01*
X98585460Y-125975370D01*
X98585460Y-124580213D01*
X114399392Y-124580213D01*
X114468857Y-124822397D01*
X114992302Y-125009144D01*
X115547368Y-124981362D01*
X115931143Y-124822397D01*
X116000608Y-124580213D01*
X115200000Y-123779605D01*
X114399392Y-124580213D01*
X98585460Y-124580213D01*
X98585460Y-124384750D01*
X98426710Y-124226000D01*
X96327400Y-124226000D01*
X96073400Y-124226000D01*
X93974090Y-124226000D01*
X93815340Y-124384750D01*
X89710000Y-124384750D01*
X89710000Y-119685750D01*
X90815600Y-119685750D01*
X90815600Y-121276370D01*
X90912273Y-121509759D01*
X91090902Y-121688387D01*
X91324291Y-121785060D01*
X92914910Y-121785060D01*
X93073660Y-121626310D01*
X93073660Y-119527000D01*
X93327660Y-119527000D01*
X93327660Y-121626310D01*
X93486410Y-121785060D01*
X94152332Y-121785060D01*
X94090642Y-121810613D01*
X93912013Y-121989241D01*
X93815340Y-122222630D01*
X93815340Y-123813250D01*
X93974090Y-123972000D01*
X96073400Y-123972000D01*
X96073400Y-121872690D01*
X96327400Y-121872690D01*
X96327400Y-123972000D01*
X98426710Y-123972000D01*
X98585460Y-123813250D01*
X98585460Y-122883207D01*
X103164665Y-122883207D01*
X103458630Y-123594658D01*
X104002479Y-124139457D01*
X104713416Y-124434663D01*
X105483207Y-124435335D01*
X106194658Y-124141370D01*
X106739457Y-123597521D01*
X107034663Y-122886584D01*
X107034665Y-122883207D01*
X108164665Y-122883207D01*
X108458630Y-123594658D01*
X109002479Y-124139457D01*
X109713416Y-124434663D01*
X110483207Y-124435335D01*
X111194658Y-124141370D01*
X111739457Y-123597521D01*
X111824671Y-123392302D01*
X113790856Y-123392302D01*
X113818638Y-123947368D01*
X113977603Y-124331143D01*
X114219787Y-124400608D01*
X115020395Y-123600000D01*
X115379605Y-123600000D01*
X116180213Y-124400608D01*
X116393921Y-124339311D01*
X116414990Y-124390303D01*
X116807630Y-124783629D01*
X117320900Y-124996757D01*
X117876661Y-124997242D01*
X118390303Y-124785010D01*
X118783629Y-124392370D01*
X118996757Y-123879100D01*
X118997242Y-123323339D01*
X118785010Y-122809697D01*
X118392370Y-122416371D01*
X117879100Y-122203243D01*
X117323339Y-122202758D01*
X116809697Y-122414990D01*
X116416371Y-122807630D01*
X116394294Y-122860796D01*
X116180213Y-122799392D01*
X115379605Y-123600000D01*
X115020395Y-123600000D01*
X114219787Y-122799392D01*
X113977603Y-122868857D01*
X113790856Y-123392302D01*
X111824671Y-123392302D01*
X112034663Y-122886584D01*
X112034895Y-122619787D01*
X114399392Y-122619787D01*
X115200000Y-123420395D01*
X116000608Y-122619787D01*
X115931143Y-122377603D01*
X115407698Y-122190856D01*
X114852632Y-122218638D01*
X114468857Y-122377603D01*
X114399392Y-122619787D01*
X112034895Y-122619787D01*
X112035335Y-122116793D01*
X111741370Y-121405342D01*
X111197521Y-120860543D01*
X110486584Y-120565337D01*
X109716793Y-120564665D01*
X109005342Y-120858630D01*
X108460543Y-121402479D01*
X108165337Y-122113416D01*
X108164665Y-122883207D01*
X107034665Y-122883207D01*
X107035335Y-122116793D01*
X106741370Y-121405342D01*
X106197521Y-120860543D01*
X105486584Y-120565337D01*
X104716793Y-120564665D01*
X104005342Y-120858630D01*
X103460543Y-121402479D01*
X103165337Y-122113416D01*
X103164665Y-122883207D01*
X98585460Y-122883207D01*
X98585460Y-122222630D01*
X98488787Y-121989241D01*
X98310158Y-121810613D01*
X98278500Y-121797500D01*
X100950200Y-121797500D01*
X101185517Y-121753222D01*
X101401641Y-121614150D01*
X101546631Y-121401950D01*
X101597640Y-121150060D01*
X101597640Y-117649940D01*
X101553362Y-117414623D01*
X101414290Y-117198499D01*
X101202090Y-117053509D01*
X100950200Y-117002500D01*
X97450080Y-117002500D01*
X97214763Y-117046778D01*
X96998639Y-117185850D01*
X96853649Y-117398050D01*
X96802640Y-117649940D01*
X96802640Y-121150060D01*
X96846918Y-121385377D01*
X96985990Y-121601501D01*
X97150550Y-121713940D01*
X96486150Y-121713940D01*
X96327400Y-121872690D01*
X96073400Y-121872690D01*
X95914650Y-121713940D01*
X95248728Y-121713940D01*
X95310418Y-121688387D01*
X95489047Y-121509759D01*
X95585720Y-121276370D01*
X95585720Y-119685750D01*
X95426970Y-119527000D01*
X93327660Y-119527000D01*
X93073660Y-119527000D01*
X90974350Y-119527000D01*
X90815600Y-119685750D01*
X89710000Y-119685750D01*
X89710000Y-117523630D01*
X90815600Y-117523630D01*
X90815600Y-119114250D01*
X90974350Y-119273000D01*
X93073660Y-119273000D01*
X93073660Y-117173690D01*
X93327660Y-117173690D01*
X93327660Y-119273000D01*
X95426970Y-119273000D01*
X95585720Y-119114250D01*
X95585720Y-117523630D01*
X95489047Y-117290241D01*
X95310418Y-117111613D01*
X95077029Y-117014940D01*
X93486410Y-117014940D01*
X93327660Y-117173690D01*
X93073660Y-117173690D01*
X92914910Y-117014940D01*
X91324291Y-117014940D01*
X91090902Y-117111613D01*
X90912273Y-117290241D01*
X90815600Y-117523630D01*
X89710000Y-117523630D01*
X89710000Y-116230000D01*
X118615536Y-116230000D01*
X118721200Y-116761207D01*
X119022104Y-117211542D01*
X119453812Y-117500000D01*
X119022104Y-117788458D01*
X118721200Y-118238793D01*
X118615536Y-118770000D01*
X118721200Y-119301207D01*
X119022104Y-119751542D01*
X119472439Y-120052446D01*
X120003646Y-120158110D01*
X121596354Y-120158110D01*
X122127561Y-120052446D01*
X122577896Y-119751542D01*
X122878800Y-119301207D01*
X122984464Y-118770000D01*
X122878800Y-118238793D01*
X122577896Y-117788458D01*
X122146188Y-117500000D01*
X122577896Y-117211542D01*
X122878800Y-116761207D01*
X122984464Y-116230000D01*
X122878800Y-115698793D01*
X122577896Y-115248458D01*
X122127561Y-114947554D01*
X121596354Y-114841890D01*
X120003646Y-114841890D01*
X119472439Y-114947554D01*
X119022104Y-115248458D01*
X118721200Y-115698793D01*
X118615536Y-116230000D01*
X89710000Y-116230000D01*
X89710000Y-112280213D01*
X94999392Y-112280213D01*
X95068857Y-112522397D01*
X95592302Y-112709144D01*
X96147368Y-112681362D01*
X96531143Y-112522397D01*
X96600608Y-112280213D01*
X95800000Y-111479605D01*
X94999392Y-112280213D01*
X89710000Y-112280213D01*
X89710000Y-111092302D01*
X94390856Y-111092302D01*
X94418638Y-111647368D01*
X94577603Y-112031143D01*
X94819787Y-112100608D01*
X95620395Y-111300000D01*
X95979605Y-111300000D01*
X96780213Y-112100608D01*
X96993921Y-112039311D01*
X97014990Y-112090303D01*
X97407630Y-112483629D01*
X97920900Y-112696757D01*
X98476661Y-112697242D01*
X98990303Y-112485010D01*
X99383629Y-112092370D01*
X99596757Y-111579100D01*
X99597242Y-111023339D01*
X99385010Y-110509697D01*
X98992370Y-110116371D01*
X98479100Y-109903243D01*
X97923339Y-109902758D01*
X97409697Y-110114990D01*
X97016371Y-110507630D01*
X96994294Y-110560796D01*
X96780213Y-110499392D01*
X95979605Y-111300000D01*
X95620395Y-111300000D01*
X94819787Y-110499392D01*
X94577603Y-110568857D01*
X94390856Y-111092302D01*
X89710000Y-111092302D01*
X89710000Y-110319787D01*
X94999392Y-110319787D01*
X95800000Y-111120395D01*
X96600608Y-110319787D01*
X96531143Y-110077603D01*
X96007698Y-109890856D01*
X95452632Y-109918638D01*
X95068857Y-110077603D01*
X94999392Y-110319787D01*
X89710000Y-110319787D01*
X89710000Y-108210000D01*
X123290000Y-108210000D01*
X123290000Y-126790000D01*
X123290000Y-126790000D01*
G37*
X123290000Y-126790000D02*
X89710000Y-126790000D01*
X89710000Y-124384750D01*
X93815340Y-124384750D01*
X93815340Y-125975370D01*
X93912013Y-126208759D01*
X94090642Y-126387387D01*
X94324031Y-126484060D01*
X95914650Y-126484060D01*
X96073400Y-126325310D01*
X96073400Y-124226000D01*
X96327400Y-124226000D01*
X96327400Y-126325310D01*
X96486150Y-126484060D01*
X98076769Y-126484060D01*
X98310158Y-126387387D01*
X98488787Y-126208759D01*
X98585460Y-125975370D01*
X98585460Y-124580213D01*
X114399392Y-124580213D01*
X114468857Y-124822397D01*
X114992302Y-125009144D01*
X115547368Y-124981362D01*
X115931143Y-124822397D01*
X116000608Y-124580213D01*
X115200000Y-123779605D01*
X114399392Y-124580213D01*
X98585460Y-124580213D01*
X98585460Y-124384750D01*
X98426710Y-124226000D01*
X96327400Y-124226000D01*
X96073400Y-124226000D01*
X93974090Y-124226000D01*
X93815340Y-124384750D01*
X89710000Y-124384750D01*
X89710000Y-119685750D01*
X90815600Y-119685750D01*
X90815600Y-121276370D01*
X90912273Y-121509759D01*
X91090902Y-121688387D01*
X91324291Y-121785060D01*
X92914910Y-121785060D01*
X93073660Y-121626310D01*
X93073660Y-119527000D01*
X93327660Y-119527000D01*
X93327660Y-121626310D01*
X93486410Y-121785060D01*
X94152332Y-121785060D01*
X94090642Y-121810613D01*
X93912013Y-121989241D01*
X93815340Y-122222630D01*
X93815340Y-123813250D01*
X93974090Y-123972000D01*
X96073400Y-123972000D01*
X96073400Y-121872690D01*
X96327400Y-121872690D01*
X96327400Y-123972000D01*
X98426710Y-123972000D01*
X98585460Y-123813250D01*
X98585460Y-122883207D01*
X103164665Y-122883207D01*
X103458630Y-123594658D01*
X104002479Y-124139457D01*
X104713416Y-124434663D01*
X105483207Y-124435335D01*
X106194658Y-124141370D01*
X106739457Y-123597521D01*
X107034663Y-122886584D01*
X107034665Y-122883207D01*
X108164665Y-122883207D01*
X108458630Y-123594658D01*
X109002479Y-124139457D01*
X109713416Y-124434663D01*
X110483207Y-124435335D01*
X111194658Y-124141370D01*
X111739457Y-123597521D01*
X111824671Y-123392302D01*
X113790856Y-123392302D01*
X113818638Y-123947368D01*
X113977603Y-124331143D01*
X114219787Y-124400608D01*
X115020395Y-123600000D01*
X115379605Y-123600000D01*
X116180213Y-124400608D01*
X116393921Y-124339311D01*
X116414990Y-124390303D01*
X116807630Y-124783629D01*
X117320900Y-124996757D01*
X117876661Y-124997242D01*
X118390303Y-124785010D01*
X118783629Y-124392370D01*
X118996757Y-123879100D01*
X118997242Y-123323339D01*
X118785010Y-122809697D01*
X118392370Y-122416371D01*
X117879100Y-122203243D01*
X117323339Y-122202758D01*
X116809697Y-122414990D01*
X116416371Y-122807630D01*
X116394294Y-122860796D01*
X116180213Y-122799392D01*
X115379605Y-123600000D01*
X115020395Y-123600000D01*
X114219787Y-122799392D01*
X113977603Y-122868857D01*
X113790856Y-123392302D01*
X111824671Y-123392302D01*
X112034663Y-122886584D01*
X112034895Y-122619787D01*
X114399392Y-122619787D01*
X115200000Y-123420395D01*
X116000608Y-122619787D01*
X115931143Y-122377603D01*
X115407698Y-122190856D01*
X114852632Y-122218638D01*
X114468857Y-122377603D01*
X114399392Y-122619787D01*
X112034895Y-122619787D01*
X112035335Y-122116793D01*
X111741370Y-121405342D01*
X111197521Y-120860543D01*
X110486584Y-120565337D01*
X109716793Y-120564665D01*
X109005342Y-120858630D01*
X108460543Y-121402479D01*
X108165337Y-122113416D01*
X108164665Y-122883207D01*
X107034665Y-122883207D01*
X107035335Y-122116793D01*
X106741370Y-121405342D01*
X106197521Y-120860543D01*
X105486584Y-120565337D01*
X104716793Y-120564665D01*
X104005342Y-120858630D01*
X103460543Y-121402479D01*
X103165337Y-122113416D01*
X103164665Y-122883207D01*
X98585460Y-122883207D01*
X98585460Y-122222630D01*
X98488787Y-121989241D01*
X98310158Y-121810613D01*
X98278500Y-121797500D01*
X100950200Y-121797500D01*
X101185517Y-121753222D01*
X101401641Y-121614150D01*
X101546631Y-121401950D01*
X101597640Y-121150060D01*
X101597640Y-117649940D01*
X101553362Y-117414623D01*
X101414290Y-117198499D01*
X101202090Y-117053509D01*
X100950200Y-117002500D01*
X97450080Y-117002500D01*
X97214763Y-117046778D01*
X96998639Y-117185850D01*
X96853649Y-117398050D01*
X96802640Y-117649940D01*
X96802640Y-121150060D01*
X96846918Y-121385377D01*
X96985990Y-121601501D01*
X97150550Y-121713940D01*
X96486150Y-121713940D01*
X96327400Y-121872690D01*
X96073400Y-121872690D01*
X95914650Y-121713940D01*
X95248728Y-121713940D01*
X95310418Y-121688387D01*
X95489047Y-121509759D01*
X95585720Y-121276370D01*
X95585720Y-119685750D01*
X95426970Y-119527000D01*
X93327660Y-119527000D01*
X93073660Y-119527000D01*
X90974350Y-119527000D01*
X90815600Y-119685750D01*
X89710000Y-119685750D01*
X89710000Y-117523630D01*
X90815600Y-117523630D01*
X90815600Y-119114250D01*
X90974350Y-119273000D01*
X93073660Y-119273000D01*
X93073660Y-117173690D01*
X93327660Y-117173690D01*
X93327660Y-119273000D01*
X95426970Y-119273000D01*
X95585720Y-119114250D01*
X95585720Y-117523630D01*
X95489047Y-117290241D01*
X95310418Y-117111613D01*
X95077029Y-117014940D01*
X93486410Y-117014940D01*
X93327660Y-117173690D01*
X93073660Y-117173690D01*
X92914910Y-117014940D01*
X91324291Y-117014940D01*
X91090902Y-117111613D01*
X90912273Y-117290241D01*
X90815600Y-117523630D01*
X89710000Y-117523630D01*
X89710000Y-116230000D01*
X118615536Y-116230000D01*
X118721200Y-116761207D01*
X119022104Y-117211542D01*
X119453812Y-117500000D01*
X119022104Y-117788458D01*
X118721200Y-118238793D01*
X118615536Y-118770000D01*
X118721200Y-119301207D01*
X119022104Y-119751542D01*
X119472439Y-120052446D01*
X120003646Y-120158110D01*
X121596354Y-120158110D01*
X122127561Y-120052446D01*
X122577896Y-119751542D01*
X122878800Y-119301207D01*
X122984464Y-118770000D01*
X122878800Y-118238793D01*
X122577896Y-117788458D01*
X122146188Y-117500000D01*
X122577896Y-117211542D01*
X122878800Y-116761207D01*
X122984464Y-116230000D01*
X122878800Y-115698793D01*
X122577896Y-115248458D01*
X122127561Y-114947554D01*
X121596354Y-114841890D01*
X120003646Y-114841890D01*
X119472439Y-114947554D01*
X119022104Y-115248458D01*
X118721200Y-115698793D01*
X118615536Y-116230000D01*
X89710000Y-116230000D01*
X89710000Y-112280213D01*
X94999392Y-112280213D01*
X95068857Y-112522397D01*
X95592302Y-112709144D01*
X96147368Y-112681362D01*
X96531143Y-112522397D01*
X96600608Y-112280213D01*
X95800000Y-111479605D01*
X94999392Y-112280213D01*
X89710000Y-112280213D01*
X89710000Y-111092302D01*
X94390856Y-111092302D01*
X94418638Y-111647368D01*
X94577603Y-112031143D01*
X94819787Y-112100608D01*
X95620395Y-111300000D01*
X95979605Y-111300000D01*
X96780213Y-112100608D01*
X96993921Y-112039311D01*
X97014990Y-112090303D01*
X97407630Y-112483629D01*
X97920900Y-112696757D01*
X98476661Y-112697242D01*
X98990303Y-112485010D01*
X99383629Y-112092370D01*
X99596757Y-111579100D01*
X99597242Y-111023339D01*
X99385010Y-110509697D01*
X98992370Y-110116371D01*
X98479100Y-109903243D01*
X97923339Y-109902758D01*
X97409697Y-110114990D01*
X97016371Y-110507630D01*
X96994294Y-110560796D01*
X96780213Y-110499392D01*
X95979605Y-111300000D01*
X95620395Y-111300000D01*
X94819787Y-110499392D01*
X94577603Y-110568857D01*
X94390856Y-111092302D01*
X89710000Y-111092302D01*
X89710000Y-110319787D01*
X94999392Y-110319787D01*
X95800000Y-111120395D01*
X96600608Y-110319787D01*
X96531143Y-110077603D01*
X96007698Y-109890856D01*
X95452632Y-109918638D01*
X95068857Y-110077603D01*
X94999392Y-110319787D01*
X89710000Y-110319787D01*
X89710000Y-108210000D01*
X123290000Y-108210000D01*
X123290000Y-126790000D01*
G36*
X123290000Y-106790000D02*
X89710000Y-106790000D01*
X89710000Y-104384750D01*
X93815340Y-104384750D01*
X93815340Y-105975370D01*
X93912013Y-106208759D01*
X94090642Y-106387387D01*
X94324031Y-106484060D01*
X95914650Y-106484060D01*
X96073400Y-106325310D01*
X96073400Y-104226000D01*
X96327400Y-104226000D01*
X96327400Y-106325310D01*
X96486150Y-106484060D01*
X98076769Y-106484060D01*
X98310158Y-106387387D01*
X98488787Y-106208759D01*
X98585460Y-105975370D01*
X98585460Y-104580213D01*
X114399392Y-104580213D01*
X114468857Y-104822397D01*
X114992302Y-105009144D01*
X115547368Y-104981362D01*
X115931143Y-104822397D01*
X116000608Y-104580213D01*
X115200000Y-103779605D01*
X114399392Y-104580213D01*
X98585460Y-104580213D01*
X98585460Y-104384750D01*
X98426710Y-104226000D01*
X96327400Y-104226000D01*
X96073400Y-104226000D01*
X93974090Y-104226000D01*
X93815340Y-104384750D01*
X89710000Y-104384750D01*
X89710000Y-99685750D01*
X90815600Y-99685750D01*
X90815600Y-101276370D01*
X90912273Y-101509759D01*
X91090902Y-101688387D01*
X91324291Y-101785060D01*
X92914910Y-101785060D01*
X93073660Y-101626310D01*
X93073660Y-99527000D01*
X93327660Y-99527000D01*
X93327660Y-101626310D01*
X93486410Y-101785060D01*
X94152332Y-101785060D01*
X94090642Y-101810613D01*
X93912013Y-101989241D01*
X93815340Y-102222630D01*
X93815340Y-103813250D01*
X93974090Y-103972000D01*
X96073400Y-103972000D01*
X96073400Y-101872690D01*
X96327400Y-101872690D01*
X96327400Y-103972000D01*
X98426710Y-103972000D01*
X98585460Y-103813250D01*
X98585460Y-102883207D01*
X103164665Y-102883207D01*
X103458630Y-103594658D01*
X104002479Y-104139457D01*
X104713416Y-104434663D01*
X105483207Y-104435335D01*
X106194658Y-104141370D01*
X106739457Y-103597521D01*
X107034663Y-102886584D01*
X107034665Y-102883207D01*
X108164665Y-102883207D01*
X108458630Y-103594658D01*
X109002479Y-104139457D01*
X109713416Y-104434663D01*
X110483207Y-104435335D01*
X111194658Y-104141370D01*
X111739457Y-103597521D01*
X111824671Y-103392302D01*
X113790856Y-103392302D01*
X113818638Y-103947368D01*
X113977603Y-104331143D01*
X114219787Y-104400608D01*
X115020395Y-103600000D01*
X115379605Y-103600000D01*
X116180213Y-104400608D01*
X116393921Y-104339311D01*
X116414990Y-104390303D01*
X116807630Y-104783629D01*
X117320900Y-104996757D01*
X117876661Y-104997242D01*
X118390303Y-104785010D01*
X118783629Y-104392370D01*
X118996757Y-103879100D01*
X118997242Y-103323339D01*
X118785010Y-102809697D01*
X118392370Y-102416371D01*
X117879100Y-102203243D01*
X117323339Y-102202758D01*
X116809697Y-102414990D01*
X116416371Y-102807630D01*
X116394294Y-102860796D01*
X116180213Y-102799392D01*
X115379605Y-103600000D01*
X115020395Y-103600000D01*
X114219787Y-102799392D01*
X113977603Y-102868857D01*
X113790856Y-103392302D01*
X111824671Y-103392302D01*
X112034663Y-102886584D01*
X112034895Y-102619787D01*
X114399392Y-102619787D01*
X115200000Y-103420395D01*
X116000608Y-102619787D01*
X115931143Y-102377603D01*
X115407698Y-102190856D01*
X114852632Y-102218638D01*
X114468857Y-102377603D01*
X114399392Y-102619787D01*
X112034895Y-102619787D01*
X112035335Y-102116793D01*
X111741370Y-101405342D01*
X111197521Y-100860543D01*
X110486584Y-100565337D01*
X109716793Y-100564665D01*
X109005342Y-100858630D01*
X108460543Y-101402479D01*
X108165337Y-102113416D01*
X108164665Y-102883207D01*
X107034665Y-102883207D01*
X107035335Y-102116793D01*
X106741370Y-101405342D01*
X106197521Y-100860543D01*
X105486584Y-100565337D01*
X104716793Y-100564665D01*
X104005342Y-100858630D01*
X103460543Y-101402479D01*
X103165337Y-102113416D01*
X103164665Y-102883207D01*
X98585460Y-102883207D01*
X98585460Y-102222630D01*
X98488787Y-101989241D01*
X98310158Y-101810613D01*
X98278500Y-101797500D01*
X100950200Y-101797500D01*
X101185517Y-101753222D01*
X101401641Y-101614150D01*
X101546631Y-101401950D01*
X101597640Y-101150060D01*
X101597640Y-97649940D01*
X101553362Y-97414623D01*
X101414290Y-97198499D01*
X101202090Y-97053509D01*
X100950200Y-97002500D01*
X97450080Y-97002500D01*
X97214763Y-97046778D01*
X96998639Y-97185850D01*
X96853649Y-97398050D01*
X96802640Y-97649940D01*
X96802640Y-101150060D01*
X96846918Y-101385377D01*
X96985990Y-101601501D01*
X97150550Y-101713940D01*
X96486150Y-101713940D01*
X96327400Y-101872690D01*
X96073400Y-101872690D01*
X95914650Y-101713940D01*
X95248728Y-101713940D01*
X95310418Y-101688387D01*
X95489047Y-101509759D01*
X95585720Y-101276370D01*
X95585720Y-99685750D01*
X95426970Y-99527000D01*
X93327660Y-99527000D01*
X93073660Y-99527000D01*
X90974350Y-99527000D01*
X90815600Y-99685750D01*
X89710000Y-99685750D01*
X89710000Y-97523630D01*
X90815600Y-97523630D01*
X90815600Y-99114250D01*
X90974350Y-99273000D01*
X93073660Y-99273000D01*
X93073660Y-97173690D01*
X93327660Y-97173690D01*
X93327660Y-99273000D01*
X95426970Y-99273000D01*
X95585720Y-99114250D01*
X95585720Y-97523630D01*
X95489047Y-97290241D01*
X95310418Y-97111613D01*
X95077029Y-97014940D01*
X93486410Y-97014940D01*
X93327660Y-97173690D01*
X93073660Y-97173690D01*
X92914910Y-97014940D01*
X91324291Y-97014940D01*
X91090902Y-97111613D01*
X90912273Y-97290241D01*
X90815600Y-97523630D01*
X89710000Y-97523630D01*
X89710000Y-96230000D01*
X118615536Y-96230000D01*
X118721200Y-96761207D01*
X119022104Y-97211542D01*
X119453812Y-97500000D01*
X119022104Y-97788458D01*
X118721200Y-98238793D01*
X118615536Y-98770000D01*
X118721200Y-99301207D01*
X119022104Y-99751542D01*
X119472439Y-100052446D01*
X120003646Y-100158110D01*
X121596354Y-100158110D01*
X122127561Y-100052446D01*
X122577896Y-99751542D01*
X122878800Y-99301207D01*
X122984464Y-98770000D01*
X122878800Y-98238793D01*
X122577896Y-97788458D01*
X122146188Y-97500000D01*
X122577896Y-97211542D01*
X122878800Y-96761207D01*
X122984464Y-96230000D01*
X122878800Y-95698793D01*
X122577896Y-95248458D01*
X122127561Y-94947554D01*
X121596354Y-94841890D01*
X120003646Y-94841890D01*
X119472439Y-94947554D01*
X119022104Y-95248458D01*
X118721200Y-95698793D01*
X118615536Y-96230000D01*
X89710000Y-96230000D01*
X89710000Y-92280213D01*
X94999392Y-92280213D01*
X95068857Y-92522397D01*
X95592302Y-92709144D01*
X96147368Y-92681362D01*
X96531143Y-92522397D01*
X96600608Y-92280213D01*
X95800000Y-91479605D01*
X94999392Y-92280213D01*
X89710000Y-92280213D01*
X89710000Y-91092302D01*
X94390856Y-91092302D01*
X94418638Y-91647368D01*
X94577603Y-92031143D01*
X94819787Y-92100608D01*
X95620395Y-91300000D01*
X95979605Y-91300000D01*
X96780213Y-92100608D01*
X96993921Y-92039311D01*
X97014990Y-92090303D01*
X97407630Y-92483629D01*
X97920900Y-92696757D01*
X98476661Y-92697242D01*
X98990303Y-92485010D01*
X99383629Y-92092370D01*
X99596757Y-91579100D01*
X99597242Y-91023339D01*
X99385010Y-90509697D01*
X98992370Y-90116371D01*
X98479100Y-89903243D01*
X97923339Y-89902758D01*
X97409697Y-90114990D01*
X97016371Y-90507630D01*
X96994294Y-90560796D01*
X96780213Y-90499392D01*
X95979605Y-91300000D01*
X95620395Y-91300000D01*
X94819787Y-90499392D01*
X94577603Y-90568857D01*
X94390856Y-91092302D01*
X89710000Y-91092302D01*
X89710000Y-90319787D01*
X94999392Y-90319787D01*
X95800000Y-91120395D01*
X96600608Y-90319787D01*
X96531143Y-90077603D01*
X96007698Y-89890856D01*
X95452632Y-89918638D01*
X95068857Y-90077603D01*
X94999392Y-90319787D01*
X89710000Y-90319787D01*
X89710000Y-88210000D01*
X123290000Y-88210000D01*
X123290000Y-106790000D01*
X123290000Y-106790000D01*
G37*
X123290000Y-106790000D02*
X89710000Y-106790000D01*
X89710000Y-104384750D01*
X93815340Y-104384750D01*
X93815340Y-105975370D01*
X93912013Y-106208759D01*
X94090642Y-106387387D01*
X94324031Y-106484060D01*
X95914650Y-106484060D01*
X96073400Y-106325310D01*
X96073400Y-104226000D01*
X96327400Y-104226000D01*
X96327400Y-106325310D01*
X96486150Y-106484060D01*
X98076769Y-106484060D01*
X98310158Y-106387387D01*
X98488787Y-106208759D01*
X98585460Y-105975370D01*
X98585460Y-104580213D01*
X114399392Y-104580213D01*
X114468857Y-104822397D01*
X114992302Y-105009144D01*
X115547368Y-104981362D01*
X115931143Y-104822397D01*
X116000608Y-104580213D01*
X115200000Y-103779605D01*
X114399392Y-104580213D01*
X98585460Y-104580213D01*
X98585460Y-104384750D01*
X98426710Y-104226000D01*
X96327400Y-104226000D01*
X96073400Y-104226000D01*
X93974090Y-104226000D01*
X93815340Y-104384750D01*
X89710000Y-104384750D01*
X89710000Y-99685750D01*
X90815600Y-99685750D01*
X90815600Y-101276370D01*
X90912273Y-101509759D01*
X91090902Y-101688387D01*
X91324291Y-101785060D01*
X92914910Y-101785060D01*
X93073660Y-101626310D01*
X93073660Y-99527000D01*
X93327660Y-99527000D01*
X93327660Y-101626310D01*
X93486410Y-101785060D01*
X94152332Y-101785060D01*
X94090642Y-101810613D01*
X93912013Y-101989241D01*
X93815340Y-102222630D01*
X93815340Y-103813250D01*
X93974090Y-103972000D01*
X96073400Y-103972000D01*
X96073400Y-101872690D01*
X96327400Y-101872690D01*
X96327400Y-103972000D01*
X98426710Y-103972000D01*
X98585460Y-103813250D01*
X98585460Y-102883207D01*
X103164665Y-102883207D01*
X103458630Y-103594658D01*
X104002479Y-104139457D01*
X104713416Y-104434663D01*
X105483207Y-104435335D01*
X106194658Y-104141370D01*
X106739457Y-103597521D01*
X107034663Y-102886584D01*
X107034665Y-102883207D01*
X108164665Y-102883207D01*
X108458630Y-103594658D01*
X109002479Y-104139457D01*
X109713416Y-104434663D01*
X110483207Y-104435335D01*
X111194658Y-104141370D01*
X111739457Y-103597521D01*
X111824671Y-103392302D01*
X113790856Y-103392302D01*
X113818638Y-103947368D01*
X113977603Y-104331143D01*
X114219787Y-104400608D01*
X115020395Y-103600000D01*
X115379605Y-103600000D01*
X116180213Y-104400608D01*
X116393921Y-104339311D01*
X116414990Y-104390303D01*
X116807630Y-104783629D01*
X117320900Y-104996757D01*
X117876661Y-104997242D01*
X118390303Y-104785010D01*
X118783629Y-104392370D01*
X118996757Y-103879100D01*
X118997242Y-103323339D01*
X118785010Y-102809697D01*
X118392370Y-102416371D01*
X117879100Y-102203243D01*
X117323339Y-102202758D01*
X116809697Y-102414990D01*
X116416371Y-102807630D01*
X116394294Y-102860796D01*
X116180213Y-102799392D01*
X115379605Y-103600000D01*
X115020395Y-103600000D01*
X114219787Y-102799392D01*
X113977603Y-102868857D01*
X113790856Y-103392302D01*
X111824671Y-103392302D01*
X112034663Y-102886584D01*
X112034895Y-102619787D01*
X114399392Y-102619787D01*
X115200000Y-103420395D01*
X116000608Y-102619787D01*
X115931143Y-102377603D01*
X115407698Y-102190856D01*
X114852632Y-102218638D01*
X114468857Y-102377603D01*
X114399392Y-102619787D01*
X112034895Y-102619787D01*
X112035335Y-102116793D01*
X111741370Y-101405342D01*
X111197521Y-100860543D01*
X110486584Y-100565337D01*
X109716793Y-100564665D01*
X109005342Y-100858630D01*
X108460543Y-101402479D01*
X108165337Y-102113416D01*
X108164665Y-102883207D01*
X107034665Y-102883207D01*
X107035335Y-102116793D01*
X106741370Y-101405342D01*
X106197521Y-100860543D01*
X105486584Y-100565337D01*
X104716793Y-100564665D01*
X104005342Y-100858630D01*
X103460543Y-101402479D01*
X103165337Y-102113416D01*
X103164665Y-102883207D01*
X98585460Y-102883207D01*
X98585460Y-102222630D01*
X98488787Y-101989241D01*
X98310158Y-101810613D01*
X98278500Y-101797500D01*
X100950200Y-101797500D01*
X101185517Y-101753222D01*
X101401641Y-101614150D01*
X101546631Y-101401950D01*
X101597640Y-101150060D01*
X101597640Y-97649940D01*
X101553362Y-97414623D01*
X101414290Y-97198499D01*
X101202090Y-97053509D01*
X100950200Y-97002500D01*
X97450080Y-97002500D01*
X97214763Y-97046778D01*
X96998639Y-97185850D01*
X96853649Y-97398050D01*
X96802640Y-97649940D01*
X96802640Y-101150060D01*
X96846918Y-101385377D01*
X96985990Y-101601501D01*
X97150550Y-101713940D01*
X96486150Y-101713940D01*
X96327400Y-101872690D01*
X96073400Y-101872690D01*
X95914650Y-101713940D01*
X95248728Y-101713940D01*
X95310418Y-101688387D01*
X95489047Y-101509759D01*
X95585720Y-101276370D01*
X95585720Y-99685750D01*
X95426970Y-99527000D01*
X93327660Y-99527000D01*
X93073660Y-99527000D01*
X90974350Y-99527000D01*
X90815600Y-99685750D01*
X89710000Y-99685750D01*
X89710000Y-97523630D01*
X90815600Y-97523630D01*
X90815600Y-99114250D01*
X90974350Y-99273000D01*
X93073660Y-99273000D01*
X93073660Y-97173690D01*
X93327660Y-97173690D01*
X93327660Y-99273000D01*
X95426970Y-99273000D01*
X95585720Y-99114250D01*
X95585720Y-97523630D01*
X95489047Y-97290241D01*
X95310418Y-97111613D01*
X95077029Y-97014940D01*
X93486410Y-97014940D01*
X93327660Y-97173690D01*
X93073660Y-97173690D01*
X92914910Y-97014940D01*
X91324291Y-97014940D01*
X91090902Y-97111613D01*
X90912273Y-97290241D01*
X90815600Y-97523630D01*
X89710000Y-97523630D01*
X89710000Y-96230000D01*
X118615536Y-96230000D01*
X118721200Y-96761207D01*
X119022104Y-97211542D01*
X119453812Y-97500000D01*
X119022104Y-97788458D01*
X118721200Y-98238793D01*
X118615536Y-98770000D01*
X118721200Y-99301207D01*
X119022104Y-99751542D01*
X119472439Y-100052446D01*
X120003646Y-100158110D01*
X121596354Y-100158110D01*
X122127561Y-100052446D01*
X122577896Y-99751542D01*
X122878800Y-99301207D01*
X122984464Y-98770000D01*
X122878800Y-98238793D01*
X122577896Y-97788458D01*
X122146188Y-97500000D01*
X122577896Y-97211542D01*
X122878800Y-96761207D01*
X122984464Y-96230000D01*
X122878800Y-95698793D01*
X122577896Y-95248458D01*
X122127561Y-94947554D01*
X121596354Y-94841890D01*
X120003646Y-94841890D01*
X119472439Y-94947554D01*
X119022104Y-95248458D01*
X118721200Y-95698793D01*
X118615536Y-96230000D01*
X89710000Y-96230000D01*
X89710000Y-92280213D01*
X94999392Y-92280213D01*
X95068857Y-92522397D01*
X95592302Y-92709144D01*
X96147368Y-92681362D01*
X96531143Y-92522397D01*
X96600608Y-92280213D01*
X95800000Y-91479605D01*
X94999392Y-92280213D01*
X89710000Y-92280213D01*
X89710000Y-91092302D01*
X94390856Y-91092302D01*
X94418638Y-91647368D01*
X94577603Y-92031143D01*
X94819787Y-92100608D01*
X95620395Y-91300000D01*
X95979605Y-91300000D01*
X96780213Y-92100608D01*
X96993921Y-92039311D01*
X97014990Y-92090303D01*
X97407630Y-92483629D01*
X97920900Y-92696757D01*
X98476661Y-92697242D01*
X98990303Y-92485010D01*
X99383629Y-92092370D01*
X99596757Y-91579100D01*
X99597242Y-91023339D01*
X99385010Y-90509697D01*
X98992370Y-90116371D01*
X98479100Y-89903243D01*
X97923339Y-89902758D01*
X97409697Y-90114990D01*
X97016371Y-90507630D01*
X96994294Y-90560796D01*
X96780213Y-90499392D01*
X95979605Y-91300000D01*
X95620395Y-91300000D01*
X94819787Y-90499392D01*
X94577603Y-90568857D01*
X94390856Y-91092302D01*
X89710000Y-91092302D01*
X89710000Y-90319787D01*
X94999392Y-90319787D01*
X95800000Y-91120395D01*
X96600608Y-90319787D01*
X96531143Y-90077603D01*
X96007698Y-89890856D01*
X95452632Y-89918638D01*
X95068857Y-90077603D01*
X94999392Y-90319787D01*
X89710000Y-90319787D01*
X89710000Y-88210000D01*
X123290000Y-88210000D01*
X123290000Y-106790000D01*
G36*
X123290000Y-86790000D02*
X89710000Y-86790000D01*
X89710000Y-84384750D01*
X93815340Y-84384750D01*
X93815340Y-85975370D01*
X93912013Y-86208759D01*
X94090642Y-86387387D01*
X94324031Y-86484060D01*
X95914650Y-86484060D01*
X96073400Y-86325310D01*
X96073400Y-84226000D01*
X96327400Y-84226000D01*
X96327400Y-86325310D01*
X96486150Y-86484060D01*
X98076769Y-86484060D01*
X98310158Y-86387387D01*
X98488787Y-86208759D01*
X98585460Y-85975370D01*
X98585460Y-84580213D01*
X114399392Y-84580213D01*
X114468857Y-84822397D01*
X114992302Y-85009144D01*
X115547368Y-84981362D01*
X115931143Y-84822397D01*
X116000608Y-84580213D01*
X115200000Y-83779605D01*
X114399392Y-84580213D01*
X98585460Y-84580213D01*
X98585460Y-84384750D01*
X98426710Y-84226000D01*
X96327400Y-84226000D01*
X96073400Y-84226000D01*
X93974090Y-84226000D01*
X93815340Y-84384750D01*
X89710000Y-84384750D01*
X89710000Y-79685750D01*
X90815600Y-79685750D01*
X90815600Y-81276370D01*
X90912273Y-81509759D01*
X91090902Y-81688387D01*
X91324291Y-81785060D01*
X92914910Y-81785060D01*
X93073660Y-81626310D01*
X93073660Y-79527000D01*
X93327660Y-79527000D01*
X93327660Y-81626310D01*
X93486410Y-81785060D01*
X94152332Y-81785060D01*
X94090642Y-81810613D01*
X93912013Y-81989241D01*
X93815340Y-82222630D01*
X93815340Y-83813250D01*
X93974090Y-83972000D01*
X96073400Y-83972000D01*
X96073400Y-81872690D01*
X96327400Y-81872690D01*
X96327400Y-83972000D01*
X98426710Y-83972000D01*
X98585460Y-83813250D01*
X98585460Y-82883207D01*
X103164665Y-82883207D01*
X103458630Y-83594658D01*
X104002479Y-84139457D01*
X104713416Y-84434663D01*
X105483207Y-84435335D01*
X106194658Y-84141370D01*
X106739457Y-83597521D01*
X107034663Y-82886584D01*
X107034665Y-82883207D01*
X108164665Y-82883207D01*
X108458630Y-83594658D01*
X109002479Y-84139457D01*
X109713416Y-84434663D01*
X110483207Y-84435335D01*
X111194658Y-84141370D01*
X111739457Y-83597521D01*
X111824671Y-83392302D01*
X113790856Y-83392302D01*
X113818638Y-83947368D01*
X113977603Y-84331143D01*
X114219787Y-84400608D01*
X115020395Y-83600000D01*
X115379605Y-83600000D01*
X116180213Y-84400608D01*
X116393921Y-84339311D01*
X116414990Y-84390303D01*
X116807630Y-84783629D01*
X117320900Y-84996757D01*
X117876661Y-84997242D01*
X118390303Y-84785010D01*
X118783629Y-84392370D01*
X118996757Y-83879100D01*
X118997242Y-83323339D01*
X118785010Y-82809697D01*
X118392370Y-82416371D01*
X117879100Y-82203243D01*
X117323339Y-82202758D01*
X116809697Y-82414990D01*
X116416371Y-82807630D01*
X116394294Y-82860796D01*
X116180213Y-82799392D01*
X115379605Y-83600000D01*
X115020395Y-83600000D01*
X114219787Y-82799392D01*
X113977603Y-82868857D01*
X113790856Y-83392302D01*
X111824671Y-83392302D01*
X112034663Y-82886584D01*
X112034895Y-82619787D01*
X114399392Y-82619787D01*
X115200000Y-83420395D01*
X116000608Y-82619787D01*
X115931143Y-82377603D01*
X115407698Y-82190856D01*
X114852632Y-82218638D01*
X114468857Y-82377603D01*
X114399392Y-82619787D01*
X112034895Y-82619787D01*
X112035335Y-82116793D01*
X111741370Y-81405342D01*
X111197521Y-80860543D01*
X110486584Y-80565337D01*
X109716793Y-80564665D01*
X109005342Y-80858630D01*
X108460543Y-81402479D01*
X108165337Y-82113416D01*
X108164665Y-82883207D01*
X107034665Y-82883207D01*
X107035335Y-82116793D01*
X106741370Y-81405342D01*
X106197521Y-80860543D01*
X105486584Y-80565337D01*
X104716793Y-80564665D01*
X104005342Y-80858630D01*
X103460543Y-81402479D01*
X103165337Y-82113416D01*
X103164665Y-82883207D01*
X98585460Y-82883207D01*
X98585460Y-82222630D01*
X98488787Y-81989241D01*
X98310158Y-81810613D01*
X98278500Y-81797500D01*
X100950200Y-81797500D01*
X101185517Y-81753222D01*
X101401641Y-81614150D01*
X101546631Y-81401950D01*
X101597640Y-81150060D01*
X101597640Y-77649940D01*
X101553362Y-77414623D01*
X101414290Y-77198499D01*
X101202090Y-77053509D01*
X100950200Y-77002500D01*
X97450080Y-77002500D01*
X97214763Y-77046778D01*
X96998639Y-77185850D01*
X96853649Y-77398050D01*
X96802640Y-77649940D01*
X96802640Y-81150060D01*
X96846918Y-81385377D01*
X96985990Y-81601501D01*
X97150550Y-81713940D01*
X96486150Y-81713940D01*
X96327400Y-81872690D01*
X96073400Y-81872690D01*
X95914650Y-81713940D01*
X95248728Y-81713940D01*
X95310418Y-81688387D01*
X95489047Y-81509759D01*
X95585720Y-81276370D01*
X95585720Y-79685750D01*
X95426970Y-79527000D01*
X93327660Y-79527000D01*
X93073660Y-79527000D01*
X90974350Y-79527000D01*
X90815600Y-79685750D01*
X89710000Y-79685750D01*
X89710000Y-77523630D01*
X90815600Y-77523630D01*
X90815600Y-79114250D01*
X90974350Y-79273000D01*
X93073660Y-79273000D01*
X93073660Y-77173690D01*
X93327660Y-77173690D01*
X93327660Y-79273000D01*
X95426970Y-79273000D01*
X95585720Y-79114250D01*
X95585720Y-77523630D01*
X95489047Y-77290241D01*
X95310418Y-77111613D01*
X95077029Y-77014940D01*
X93486410Y-77014940D01*
X93327660Y-77173690D01*
X93073660Y-77173690D01*
X92914910Y-77014940D01*
X91324291Y-77014940D01*
X91090902Y-77111613D01*
X90912273Y-77290241D01*
X90815600Y-77523630D01*
X89710000Y-77523630D01*
X89710000Y-76230000D01*
X118615536Y-76230000D01*
X118721200Y-76761207D01*
X119022104Y-77211542D01*
X119453812Y-77500000D01*
X119022104Y-77788458D01*
X118721200Y-78238793D01*
X118615536Y-78770000D01*
X118721200Y-79301207D01*
X119022104Y-79751542D01*
X119472439Y-80052446D01*
X120003646Y-80158110D01*
X121596354Y-80158110D01*
X122127561Y-80052446D01*
X122577896Y-79751542D01*
X122878800Y-79301207D01*
X122984464Y-78770000D01*
X122878800Y-78238793D01*
X122577896Y-77788458D01*
X122146188Y-77500000D01*
X122577896Y-77211542D01*
X122878800Y-76761207D01*
X122984464Y-76230000D01*
X122878800Y-75698793D01*
X122577896Y-75248458D01*
X122127561Y-74947554D01*
X121596354Y-74841890D01*
X120003646Y-74841890D01*
X119472439Y-74947554D01*
X119022104Y-75248458D01*
X118721200Y-75698793D01*
X118615536Y-76230000D01*
X89710000Y-76230000D01*
X89710000Y-72280213D01*
X94999392Y-72280213D01*
X95068857Y-72522397D01*
X95592302Y-72709144D01*
X96147368Y-72681362D01*
X96531143Y-72522397D01*
X96600608Y-72280213D01*
X95800000Y-71479605D01*
X94999392Y-72280213D01*
X89710000Y-72280213D01*
X89710000Y-71092302D01*
X94390856Y-71092302D01*
X94418638Y-71647368D01*
X94577603Y-72031143D01*
X94819787Y-72100608D01*
X95620395Y-71300000D01*
X95979605Y-71300000D01*
X96780213Y-72100608D01*
X96993921Y-72039311D01*
X97014990Y-72090303D01*
X97407630Y-72483629D01*
X97920900Y-72696757D01*
X98476661Y-72697242D01*
X98990303Y-72485010D01*
X99383629Y-72092370D01*
X99596757Y-71579100D01*
X99597242Y-71023339D01*
X99385010Y-70509697D01*
X98992370Y-70116371D01*
X98479100Y-69903243D01*
X97923339Y-69902758D01*
X97409697Y-70114990D01*
X97016371Y-70507630D01*
X96994294Y-70560796D01*
X96780213Y-70499392D01*
X95979605Y-71300000D01*
X95620395Y-71300000D01*
X94819787Y-70499392D01*
X94577603Y-70568857D01*
X94390856Y-71092302D01*
X89710000Y-71092302D01*
X89710000Y-70319787D01*
X94999392Y-70319787D01*
X95800000Y-71120395D01*
X96600608Y-70319787D01*
X96531143Y-70077603D01*
X96007698Y-69890856D01*
X95452632Y-69918638D01*
X95068857Y-70077603D01*
X94999392Y-70319787D01*
X89710000Y-70319787D01*
X89710000Y-68210000D01*
X123290000Y-68210000D01*
X123290000Y-86790000D01*
X123290000Y-86790000D01*
G37*
X123290000Y-86790000D02*
X89710000Y-86790000D01*
X89710000Y-84384750D01*
X93815340Y-84384750D01*
X93815340Y-85975370D01*
X93912013Y-86208759D01*
X94090642Y-86387387D01*
X94324031Y-86484060D01*
X95914650Y-86484060D01*
X96073400Y-86325310D01*
X96073400Y-84226000D01*
X96327400Y-84226000D01*
X96327400Y-86325310D01*
X96486150Y-86484060D01*
X98076769Y-86484060D01*
X98310158Y-86387387D01*
X98488787Y-86208759D01*
X98585460Y-85975370D01*
X98585460Y-84580213D01*
X114399392Y-84580213D01*
X114468857Y-84822397D01*
X114992302Y-85009144D01*
X115547368Y-84981362D01*
X115931143Y-84822397D01*
X116000608Y-84580213D01*
X115200000Y-83779605D01*
X114399392Y-84580213D01*
X98585460Y-84580213D01*
X98585460Y-84384750D01*
X98426710Y-84226000D01*
X96327400Y-84226000D01*
X96073400Y-84226000D01*
X93974090Y-84226000D01*
X93815340Y-84384750D01*
X89710000Y-84384750D01*
X89710000Y-79685750D01*
X90815600Y-79685750D01*
X90815600Y-81276370D01*
X90912273Y-81509759D01*
X91090902Y-81688387D01*
X91324291Y-81785060D01*
X92914910Y-81785060D01*
X93073660Y-81626310D01*
X93073660Y-79527000D01*
X93327660Y-79527000D01*
X93327660Y-81626310D01*
X93486410Y-81785060D01*
X94152332Y-81785060D01*
X94090642Y-81810613D01*
X93912013Y-81989241D01*
X93815340Y-82222630D01*
X93815340Y-83813250D01*
X93974090Y-83972000D01*
X96073400Y-83972000D01*
X96073400Y-81872690D01*
X96327400Y-81872690D01*
X96327400Y-83972000D01*
X98426710Y-83972000D01*
X98585460Y-83813250D01*
X98585460Y-82883207D01*
X103164665Y-82883207D01*
X103458630Y-83594658D01*
X104002479Y-84139457D01*
X104713416Y-84434663D01*
X105483207Y-84435335D01*
X106194658Y-84141370D01*
X106739457Y-83597521D01*
X107034663Y-82886584D01*
X107034665Y-82883207D01*
X108164665Y-82883207D01*
X108458630Y-83594658D01*
X109002479Y-84139457D01*
X109713416Y-84434663D01*
X110483207Y-84435335D01*
X111194658Y-84141370D01*
X111739457Y-83597521D01*
X111824671Y-83392302D01*
X113790856Y-83392302D01*
X113818638Y-83947368D01*
X113977603Y-84331143D01*
X114219787Y-84400608D01*
X115020395Y-83600000D01*
X115379605Y-83600000D01*
X116180213Y-84400608D01*
X116393921Y-84339311D01*
X116414990Y-84390303D01*
X116807630Y-84783629D01*
X117320900Y-84996757D01*
X117876661Y-84997242D01*
X118390303Y-84785010D01*
X118783629Y-84392370D01*
X118996757Y-83879100D01*
X118997242Y-83323339D01*
X118785010Y-82809697D01*
X118392370Y-82416371D01*
X117879100Y-82203243D01*
X117323339Y-82202758D01*
X116809697Y-82414990D01*
X116416371Y-82807630D01*
X116394294Y-82860796D01*
X116180213Y-82799392D01*
X115379605Y-83600000D01*
X115020395Y-83600000D01*
X114219787Y-82799392D01*
X113977603Y-82868857D01*
X113790856Y-83392302D01*
X111824671Y-83392302D01*
X112034663Y-82886584D01*
X112034895Y-82619787D01*
X114399392Y-82619787D01*
X115200000Y-83420395D01*
X116000608Y-82619787D01*
X115931143Y-82377603D01*
X115407698Y-82190856D01*
X114852632Y-82218638D01*
X114468857Y-82377603D01*
X114399392Y-82619787D01*
X112034895Y-82619787D01*
X112035335Y-82116793D01*
X111741370Y-81405342D01*
X111197521Y-80860543D01*
X110486584Y-80565337D01*
X109716793Y-80564665D01*
X109005342Y-80858630D01*
X108460543Y-81402479D01*
X108165337Y-82113416D01*
X108164665Y-82883207D01*
X107034665Y-82883207D01*
X107035335Y-82116793D01*
X106741370Y-81405342D01*
X106197521Y-80860543D01*
X105486584Y-80565337D01*
X104716793Y-80564665D01*
X104005342Y-80858630D01*
X103460543Y-81402479D01*
X103165337Y-82113416D01*
X103164665Y-82883207D01*
X98585460Y-82883207D01*
X98585460Y-82222630D01*
X98488787Y-81989241D01*
X98310158Y-81810613D01*
X98278500Y-81797500D01*
X100950200Y-81797500D01*
X101185517Y-81753222D01*
X101401641Y-81614150D01*
X101546631Y-81401950D01*
X101597640Y-81150060D01*
X101597640Y-77649940D01*
X101553362Y-77414623D01*
X101414290Y-77198499D01*
X101202090Y-77053509D01*
X100950200Y-77002500D01*
X97450080Y-77002500D01*
X97214763Y-77046778D01*
X96998639Y-77185850D01*
X96853649Y-77398050D01*
X96802640Y-77649940D01*
X96802640Y-81150060D01*
X96846918Y-81385377D01*
X96985990Y-81601501D01*
X97150550Y-81713940D01*
X96486150Y-81713940D01*
X96327400Y-81872690D01*
X96073400Y-81872690D01*
X95914650Y-81713940D01*
X95248728Y-81713940D01*
X95310418Y-81688387D01*
X95489047Y-81509759D01*
X95585720Y-81276370D01*
X95585720Y-79685750D01*
X95426970Y-79527000D01*
X93327660Y-79527000D01*
X93073660Y-79527000D01*
X90974350Y-79527000D01*
X90815600Y-79685750D01*
X89710000Y-79685750D01*
X89710000Y-77523630D01*
X90815600Y-77523630D01*
X90815600Y-79114250D01*
X90974350Y-79273000D01*
X93073660Y-79273000D01*
X93073660Y-77173690D01*
X93327660Y-77173690D01*
X93327660Y-79273000D01*
X95426970Y-79273000D01*
X95585720Y-79114250D01*
X95585720Y-77523630D01*
X95489047Y-77290241D01*
X95310418Y-77111613D01*
X95077029Y-77014940D01*
X93486410Y-77014940D01*
X93327660Y-77173690D01*
X93073660Y-77173690D01*
X92914910Y-77014940D01*
X91324291Y-77014940D01*
X91090902Y-77111613D01*
X90912273Y-77290241D01*
X90815600Y-77523630D01*
X89710000Y-77523630D01*
X89710000Y-76230000D01*
X118615536Y-76230000D01*
X118721200Y-76761207D01*
X119022104Y-77211542D01*
X119453812Y-77500000D01*
X119022104Y-77788458D01*
X118721200Y-78238793D01*
X118615536Y-78770000D01*
X118721200Y-79301207D01*
X119022104Y-79751542D01*
X119472439Y-80052446D01*
X120003646Y-80158110D01*
X121596354Y-80158110D01*
X122127561Y-80052446D01*
X122577896Y-79751542D01*
X122878800Y-79301207D01*
X122984464Y-78770000D01*
X122878800Y-78238793D01*
X122577896Y-77788458D01*
X122146188Y-77500000D01*
X122577896Y-77211542D01*
X122878800Y-76761207D01*
X122984464Y-76230000D01*
X122878800Y-75698793D01*
X122577896Y-75248458D01*
X122127561Y-74947554D01*
X121596354Y-74841890D01*
X120003646Y-74841890D01*
X119472439Y-74947554D01*
X119022104Y-75248458D01*
X118721200Y-75698793D01*
X118615536Y-76230000D01*
X89710000Y-76230000D01*
X89710000Y-72280213D01*
X94999392Y-72280213D01*
X95068857Y-72522397D01*
X95592302Y-72709144D01*
X96147368Y-72681362D01*
X96531143Y-72522397D01*
X96600608Y-72280213D01*
X95800000Y-71479605D01*
X94999392Y-72280213D01*
X89710000Y-72280213D01*
X89710000Y-71092302D01*
X94390856Y-71092302D01*
X94418638Y-71647368D01*
X94577603Y-72031143D01*
X94819787Y-72100608D01*
X95620395Y-71300000D01*
X95979605Y-71300000D01*
X96780213Y-72100608D01*
X96993921Y-72039311D01*
X97014990Y-72090303D01*
X97407630Y-72483629D01*
X97920900Y-72696757D01*
X98476661Y-72697242D01*
X98990303Y-72485010D01*
X99383629Y-72092370D01*
X99596757Y-71579100D01*
X99597242Y-71023339D01*
X99385010Y-70509697D01*
X98992370Y-70116371D01*
X98479100Y-69903243D01*
X97923339Y-69902758D01*
X97409697Y-70114990D01*
X97016371Y-70507630D01*
X96994294Y-70560796D01*
X96780213Y-70499392D01*
X95979605Y-71300000D01*
X95620395Y-71300000D01*
X94819787Y-70499392D01*
X94577603Y-70568857D01*
X94390856Y-71092302D01*
X89710000Y-71092302D01*
X89710000Y-70319787D01*
X94999392Y-70319787D01*
X95800000Y-71120395D01*
X96600608Y-70319787D01*
X96531143Y-70077603D01*
X96007698Y-69890856D01*
X95452632Y-69918638D01*
X95068857Y-70077603D01*
X94999392Y-70319787D01*
X89710000Y-70319787D01*
X89710000Y-68210000D01*
X123290000Y-68210000D01*
X123290000Y-86790000D01*
G36*
X123290000Y-66790000D02*
X89710000Y-66790000D01*
X89710000Y-64384750D01*
X93815340Y-64384750D01*
X93815340Y-65975370D01*
X93912013Y-66208759D01*
X94090642Y-66387387D01*
X94324031Y-66484060D01*
X95914650Y-66484060D01*
X96073400Y-66325310D01*
X96073400Y-64226000D01*
X96327400Y-64226000D01*
X96327400Y-66325310D01*
X96486150Y-66484060D01*
X98076769Y-66484060D01*
X98310158Y-66387387D01*
X98488787Y-66208759D01*
X98585460Y-65975370D01*
X98585460Y-64580213D01*
X114399392Y-64580213D01*
X114468857Y-64822397D01*
X114992302Y-65009144D01*
X115547368Y-64981362D01*
X115931143Y-64822397D01*
X116000608Y-64580213D01*
X115200000Y-63779605D01*
X114399392Y-64580213D01*
X98585460Y-64580213D01*
X98585460Y-64384750D01*
X98426710Y-64226000D01*
X96327400Y-64226000D01*
X96073400Y-64226000D01*
X93974090Y-64226000D01*
X93815340Y-64384750D01*
X89710000Y-64384750D01*
X89710000Y-59685750D01*
X90815600Y-59685750D01*
X90815600Y-61276370D01*
X90912273Y-61509759D01*
X91090902Y-61688387D01*
X91324291Y-61785060D01*
X92914910Y-61785060D01*
X93073660Y-61626310D01*
X93073660Y-59527000D01*
X93327660Y-59527000D01*
X93327660Y-61626310D01*
X93486410Y-61785060D01*
X94152332Y-61785060D01*
X94090642Y-61810613D01*
X93912013Y-61989241D01*
X93815340Y-62222630D01*
X93815340Y-63813250D01*
X93974090Y-63972000D01*
X96073400Y-63972000D01*
X96073400Y-61872690D01*
X96327400Y-61872690D01*
X96327400Y-63972000D01*
X98426710Y-63972000D01*
X98585460Y-63813250D01*
X98585460Y-62883207D01*
X103164665Y-62883207D01*
X103458630Y-63594658D01*
X104002479Y-64139457D01*
X104713416Y-64434663D01*
X105483207Y-64435335D01*
X106194658Y-64141370D01*
X106739457Y-63597521D01*
X107034663Y-62886584D01*
X107034665Y-62883207D01*
X108164665Y-62883207D01*
X108458630Y-63594658D01*
X109002479Y-64139457D01*
X109713416Y-64434663D01*
X110483207Y-64435335D01*
X111194658Y-64141370D01*
X111739457Y-63597521D01*
X111824671Y-63392302D01*
X113790856Y-63392302D01*
X113818638Y-63947368D01*
X113977603Y-64331143D01*
X114219787Y-64400608D01*
X115020395Y-63600000D01*
X115379605Y-63600000D01*
X116180213Y-64400608D01*
X116393921Y-64339311D01*
X116414990Y-64390303D01*
X116807630Y-64783629D01*
X117320900Y-64996757D01*
X117876661Y-64997242D01*
X118390303Y-64785010D01*
X118783629Y-64392370D01*
X118996757Y-63879100D01*
X118997242Y-63323339D01*
X118785010Y-62809697D01*
X118392370Y-62416371D01*
X117879100Y-62203243D01*
X117323339Y-62202758D01*
X116809697Y-62414990D01*
X116416371Y-62807630D01*
X116394294Y-62860796D01*
X116180213Y-62799392D01*
X115379605Y-63600000D01*
X115020395Y-63600000D01*
X114219787Y-62799392D01*
X113977603Y-62868857D01*
X113790856Y-63392302D01*
X111824671Y-63392302D01*
X112034663Y-62886584D01*
X112034895Y-62619787D01*
X114399392Y-62619787D01*
X115200000Y-63420395D01*
X116000608Y-62619787D01*
X115931143Y-62377603D01*
X115407698Y-62190856D01*
X114852632Y-62218638D01*
X114468857Y-62377603D01*
X114399392Y-62619787D01*
X112034895Y-62619787D01*
X112035335Y-62116793D01*
X111741370Y-61405342D01*
X111197521Y-60860543D01*
X110486584Y-60565337D01*
X109716793Y-60564665D01*
X109005342Y-60858630D01*
X108460543Y-61402479D01*
X108165337Y-62113416D01*
X108164665Y-62883207D01*
X107034665Y-62883207D01*
X107035335Y-62116793D01*
X106741370Y-61405342D01*
X106197521Y-60860543D01*
X105486584Y-60565337D01*
X104716793Y-60564665D01*
X104005342Y-60858630D01*
X103460543Y-61402479D01*
X103165337Y-62113416D01*
X103164665Y-62883207D01*
X98585460Y-62883207D01*
X98585460Y-62222630D01*
X98488787Y-61989241D01*
X98310158Y-61810613D01*
X98278500Y-61797500D01*
X100950200Y-61797500D01*
X101185517Y-61753222D01*
X101401641Y-61614150D01*
X101546631Y-61401950D01*
X101597640Y-61150060D01*
X101597640Y-57649940D01*
X101553362Y-57414623D01*
X101414290Y-57198499D01*
X101202090Y-57053509D01*
X100950200Y-57002500D01*
X97450080Y-57002500D01*
X97214763Y-57046778D01*
X96998639Y-57185850D01*
X96853649Y-57398050D01*
X96802640Y-57649940D01*
X96802640Y-61150060D01*
X96846918Y-61385377D01*
X96985990Y-61601501D01*
X97150550Y-61713940D01*
X96486150Y-61713940D01*
X96327400Y-61872690D01*
X96073400Y-61872690D01*
X95914650Y-61713940D01*
X95248728Y-61713940D01*
X95310418Y-61688387D01*
X95489047Y-61509759D01*
X95585720Y-61276370D01*
X95585720Y-59685750D01*
X95426970Y-59527000D01*
X93327660Y-59527000D01*
X93073660Y-59527000D01*
X90974350Y-59527000D01*
X90815600Y-59685750D01*
X89710000Y-59685750D01*
X89710000Y-57523630D01*
X90815600Y-57523630D01*
X90815600Y-59114250D01*
X90974350Y-59273000D01*
X93073660Y-59273000D01*
X93073660Y-57173690D01*
X93327660Y-57173690D01*
X93327660Y-59273000D01*
X95426970Y-59273000D01*
X95585720Y-59114250D01*
X95585720Y-57523630D01*
X95489047Y-57290241D01*
X95310418Y-57111613D01*
X95077029Y-57014940D01*
X93486410Y-57014940D01*
X93327660Y-57173690D01*
X93073660Y-57173690D01*
X92914910Y-57014940D01*
X91324291Y-57014940D01*
X91090902Y-57111613D01*
X90912273Y-57290241D01*
X90815600Y-57523630D01*
X89710000Y-57523630D01*
X89710000Y-56230000D01*
X118615536Y-56230000D01*
X118721200Y-56761207D01*
X119022104Y-57211542D01*
X119453812Y-57500000D01*
X119022104Y-57788458D01*
X118721200Y-58238793D01*
X118615536Y-58770000D01*
X118721200Y-59301207D01*
X119022104Y-59751542D01*
X119472439Y-60052446D01*
X120003646Y-60158110D01*
X121596354Y-60158110D01*
X122127561Y-60052446D01*
X122577896Y-59751542D01*
X122878800Y-59301207D01*
X122984464Y-58770000D01*
X122878800Y-58238793D01*
X122577896Y-57788458D01*
X122146188Y-57500000D01*
X122577896Y-57211542D01*
X122878800Y-56761207D01*
X122984464Y-56230000D01*
X122878800Y-55698793D01*
X122577896Y-55248458D01*
X122127561Y-54947554D01*
X121596354Y-54841890D01*
X120003646Y-54841890D01*
X119472439Y-54947554D01*
X119022104Y-55248458D01*
X118721200Y-55698793D01*
X118615536Y-56230000D01*
X89710000Y-56230000D01*
X89710000Y-52280213D01*
X94999392Y-52280213D01*
X95068857Y-52522397D01*
X95592302Y-52709144D01*
X96147368Y-52681362D01*
X96531143Y-52522397D01*
X96600608Y-52280213D01*
X95800000Y-51479605D01*
X94999392Y-52280213D01*
X89710000Y-52280213D01*
X89710000Y-51092302D01*
X94390856Y-51092302D01*
X94418638Y-51647368D01*
X94577603Y-52031143D01*
X94819787Y-52100608D01*
X95620395Y-51300000D01*
X95979605Y-51300000D01*
X96780213Y-52100608D01*
X96993921Y-52039311D01*
X97014990Y-52090303D01*
X97407630Y-52483629D01*
X97920900Y-52696757D01*
X98476661Y-52697242D01*
X98990303Y-52485010D01*
X99383629Y-52092370D01*
X99596757Y-51579100D01*
X99597242Y-51023339D01*
X99385010Y-50509697D01*
X98992370Y-50116371D01*
X98479100Y-49903243D01*
X97923339Y-49902758D01*
X97409697Y-50114990D01*
X97016371Y-50507630D01*
X96994294Y-50560796D01*
X96780213Y-50499392D01*
X95979605Y-51300000D01*
X95620395Y-51300000D01*
X94819787Y-50499392D01*
X94577603Y-50568857D01*
X94390856Y-51092302D01*
X89710000Y-51092302D01*
X89710000Y-50319787D01*
X94999392Y-50319787D01*
X95800000Y-51120395D01*
X96600608Y-50319787D01*
X96531143Y-50077603D01*
X96007698Y-49890856D01*
X95452632Y-49918638D01*
X95068857Y-50077603D01*
X94999392Y-50319787D01*
X89710000Y-50319787D01*
X89710000Y-48210000D01*
X123290000Y-48210000D01*
X123290000Y-66790000D01*
X123290000Y-66790000D01*
G37*
X123290000Y-66790000D02*
X89710000Y-66790000D01*
X89710000Y-64384750D01*
X93815340Y-64384750D01*
X93815340Y-65975370D01*
X93912013Y-66208759D01*
X94090642Y-66387387D01*
X94324031Y-66484060D01*
X95914650Y-66484060D01*
X96073400Y-66325310D01*
X96073400Y-64226000D01*
X96327400Y-64226000D01*
X96327400Y-66325310D01*
X96486150Y-66484060D01*
X98076769Y-66484060D01*
X98310158Y-66387387D01*
X98488787Y-66208759D01*
X98585460Y-65975370D01*
X98585460Y-64580213D01*
X114399392Y-64580213D01*
X114468857Y-64822397D01*
X114992302Y-65009144D01*
X115547368Y-64981362D01*
X115931143Y-64822397D01*
X116000608Y-64580213D01*
X115200000Y-63779605D01*
X114399392Y-64580213D01*
X98585460Y-64580213D01*
X98585460Y-64384750D01*
X98426710Y-64226000D01*
X96327400Y-64226000D01*
X96073400Y-64226000D01*
X93974090Y-64226000D01*
X93815340Y-64384750D01*
X89710000Y-64384750D01*
X89710000Y-59685750D01*
X90815600Y-59685750D01*
X90815600Y-61276370D01*
X90912273Y-61509759D01*
X91090902Y-61688387D01*
X91324291Y-61785060D01*
X92914910Y-61785060D01*
X93073660Y-61626310D01*
X93073660Y-59527000D01*
X93327660Y-59527000D01*
X93327660Y-61626310D01*
X93486410Y-61785060D01*
X94152332Y-61785060D01*
X94090642Y-61810613D01*
X93912013Y-61989241D01*
X93815340Y-62222630D01*
X93815340Y-63813250D01*
X93974090Y-63972000D01*
X96073400Y-63972000D01*
X96073400Y-61872690D01*
X96327400Y-61872690D01*
X96327400Y-63972000D01*
X98426710Y-63972000D01*
X98585460Y-63813250D01*
X98585460Y-62883207D01*
X103164665Y-62883207D01*
X103458630Y-63594658D01*
X104002479Y-64139457D01*
X104713416Y-64434663D01*
X105483207Y-64435335D01*
X106194658Y-64141370D01*
X106739457Y-63597521D01*
X107034663Y-62886584D01*
X107034665Y-62883207D01*
X108164665Y-62883207D01*
X108458630Y-63594658D01*
X109002479Y-64139457D01*
X109713416Y-64434663D01*
X110483207Y-64435335D01*
X111194658Y-64141370D01*
X111739457Y-63597521D01*
X111824671Y-63392302D01*
X113790856Y-63392302D01*
X113818638Y-63947368D01*
X113977603Y-64331143D01*
X114219787Y-64400608D01*
X115020395Y-63600000D01*
X115379605Y-63600000D01*
X116180213Y-64400608D01*
X116393921Y-64339311D01*
X116414990Y-64390303D01*
X116807630Y-64783629D01*
X117320900Y-64996757D01*
X117876661Y-64997242D01*
X118390303Y-64785010D01*
X118783629Y-64392370D01*
X118996757Y-63879100D01*
X118997242Y-63323339D01*
X118785010Y-62809697D01*
X118392370Y-62416371D01*
X117879100Y-62203243D01*
X117323339Y-62202758D01*
X116809697Y-62414990D01*
X116416371Y-62807630D01*
X116394294Y-62860796D01*
X116180213Y-62799392D01*
X115379605Y-63600000D01*
X115020395Y-63600000D01*
X114219787Y-62799392D01*
X113977603Y-62868857D01*
X113790856Y-63392302D01*
X111824671Y-63392302D01*
X112034663Y-62886584D01*
X112034895Y-62619787D01*
X114399392Y-62619787D01*
X115200000Y-63420395D01*
X116000608Y-62619787D01*
X115931143Y-62377603D01*
X115407698Y-62190856D01*
X114852632Y-62218638D01*
X114468857Y-62377603D01*
X114399392Y-62619787D01*
X112034895Y-62619787D01*
X112035335Y-62116793D01*
X111741370Y-61405342D01*
X111197521Y-60860543D01*
X110486584Y-60565337D01*
X109716793Y-60564665D01*
X109005342Y-60858630D01*
X108460543Y-61402479D01*
X108165337Y-62113416D01*
X108164665Y-62883207D01*
X107034665Y-62883207D01*
X107035335Y-62116793D01*
X106741370Y-61405342D01*
X106197521Y-60860543D01*
X105486584Y-60565337D01*
X104716793Y-60564665D01*
X104005342Y-60858630D01*
X103460543Y-61402479D01*
X103165337Y-62113416D01*
X103164665Y-62883207D01*
X98585460Y-62883207D01*
X98585460Y-62222630D01*
X98488787Y-61989241D01*
X98310158Y-61810613D01*
X98278500Y-61797500D01*
X100950200Y-61797500D01*
X101185517Y-61753222D01*
X101401641Y-61614150D01*
X101546631Y-61401950D01*
X101597640Y-61150060D01*
X101597640Y-57649940D01*
X101553362Y-57414623D01*
X101414290Y-57198499D01*
X101202090Y-57053509D01*
X100950200Y-57002500D01*
X97450080Y-57002500D01*
X97214763Y-57046778D01*
X96998639Y-57185850D01*
X96853649Y-57398050D01*
X96802640Y-57649940D01*
X96802640Y-61150060D01*
X96846918Y-61385377D01*
X96985990Y-61601501D01*
X97150550Y-61713940D01*
X96486150Y-61713940D01*
X96327400Y-61872690D01*
X96073400Y-61872690D01*
X95914650Y-61713940D01*
X95248728Y-61713940D01*
X95310418Y-61688387D01*
X95489047Y-61509759D01*
X95585720Y-61276370D01*
X95585720Y-59685750D01*
X95426970Y-59527000D01*
X93327660Y-59527000D01*
X93073660Y-59527000D01*
X90974350Y-59527000D01*
X90815600Y-59685750D01*
X89710000Y-59685750D01*
X89710000Y-57523630D01*
X90815600Y-57523630D01*
X90815600Y-59114250D01*
X90974350Y-59273000D01*
X93073660Y-59273000D01*
X93073660Y-57173690D01*
X93327660Y-57173690D01*
X93327660Y-59273000D01*
X95426970Y-59273000D01*
X95585720Y-59114250D01*
X95585720Y-57523630D01*
X95489047Y-57290241D01*
X95310418Y-57111613D01*
X95077029Y-57014940D01*
X93486410Y-57014940D01*
X93327660Y-57173690D01*
X93073660Y-57173690D01*
X92914910Y-57014940D01*
X91324291Y-57014940D01*
X91090902Y-57111613D01*
X90912273Y-57290241D01*
X90815600Y-57523630D01*
X89710000Y-57523630D01*
X89710000Y-56230000D01*
X118615536Y-56230000D01*
X118721200Y-56761207D01*
X119022104Y-57211542D01*
X119453812Y-57500000D01*
X119022104Y-57788458D01*
X118721200Y-58238793D01*
X118615536Y-58770000D01*
X118721200Y-59301207D01*
X119022104Y-59751542D01*
X119472439Y-60052446D01*
X120003646Y-60158110D01*
X121596354Y-60158110D01*
X122127561Y-60052446D01*
X122577896Y-59751542D01*
X122878800Y-59301207D01*
X122984464Y-58770000D01*
X122878800Y-58238793D01*
X122577896Y-57788458D01*
X122146188Y-57500000D01*
X122577896Y-57211542D01*
X122878800Y-56761207D01*
X122984464Y-56230000D01*
X122878800Y-55698793D01*
X122577896Y-55248458D01*
X122127561Y-54947554D01*
X121596354Y-54841890D01*
X120003646Y-54841890D01*
X119472439Y-54947554D01*
X119022104Y-55248458D01*
X118721200Y-55698793D01*
X118615536Y-56230000D01*
X89710000Y-56230000D01*
X89710000Y-52280213D01*
X94999392Y-52280213D01*
X95068857Y-52522397D01*
X95592302Y-52709144D01*
X96147368Y-52681362D01*
X96531143Y-52522397D01*
X96600608Y-52280213D01*
X95800000Y-51479605D01*
X94999392Y-52280213D01*
X89710000Y-52280213D01*
X89710000Y-51092302D01*
X94390856Y-51092302D01*
X94418638Y-51647368D01*
X94577603Y-52031143D01*
X94819787Y-52100608D01*
X95620395Y-51300000D01*
X95979605Y-51300000D01*
X96780213Y-52100608D01*
X96993921Y-52039311D01*
X97014990Y-52090303D01*
X97407630Y-52483629D01*
X97920900Y-52696757D01*
X98476661Y-52697242D01*
X98990303Y-52485010D01*
X99383629Y-52092370D01*
X99596757Y-51579100D01*
X99597242Y-51023339D01*
X99385010Y-50509697D01*
X98992370Y-50116371D01*
X98479100Y-49903243D01*
X97923339Y-49902758D01*
X97409697Y-50114990D01*
X97016371Y-50507630D01*
X96994294Y-50560796D01*
X96780213Y-50499392D01*
X95979605Y-51300000D01*
X95620395Y-51300000D01*
X94819787Y-50499392D01*
X94577603Y-50568857D01*
X94390856Y-51092302D01*
X89710000Y-51092302D01*
X89710000Y-50319787D01*
X94999392Y-50319787D01*
X95800000Y-51120395D01*
X96600608Y-50319787D01*
X96531143Y-50077603D01*
X96007698Y-49890856D01*
X95452632Y-49918638D01*
X95068857Y-50077603D01*
X94999392Y-50319787D01*
X89710000Y-50319787D01*
X89710000Y-48210000D01*
X123290000Y-48210000D01*
X123290000Y-66790000D01*
M02*
