G04 #@! TF.FileFunction,Copper,L2,Bot,Signal*
%FSLAX46Y46*%
G04 Gerber Fmt 4.6, Leading zero omitted, Abs format (unit mm)*
G04 Created by KiCad (PCBNEW 4.0.7-e2-6376~58~ubuntu14.04.1) date Thu Jan 18 13:31:30 2018*
%MOMM*%
%LPD*%
G01*
G04 APERTURE LIST*
%ADD10C,0.100000*%
%ADD11C,1.524000*%
%ADD12C,1.500000*%
%ADD13C,2.600000*%
%ADD14R,3.500120X3.500120*%
%ADD15O,3.014980X1.506220*%
%ADD16C,0.254000*%
G04 APERTURE END LIST*
D10*
D11*
X167800000Y-71400000D03*
X165400000Y-71400000D03*
X187200000Y-83700000D03*
X184800000Y-83700000D03*
D12*
X161000000Y-85500000D03*
D13*
X177900000Y-72500000D03*
X172900000Y-72500000D03*
D14*
X183799860Y-75600000D03*
X189799340Y-75600000D03*
X186799600Y-70901000D03*
D12*
X192000000Y-85500000D03*
X192000000Y-69500000D03*
X161000000Y-69500000D03*
D15*
X162200000Y-76230000D03*
X162200000Y-78770000D03*
D12*
X161000000Y-89500000D03*
X192000000Y-89500000D03*
X192000000Y-105500000D03*
D14*
X183799860Y-95600000D03*
X189799340Y-95600000D03*
X186799600Y-90901000D03*
D15*
X162200000Y-96230000D03*
X162200000Y-98770000D03*
D13*
X177900000Y-92500000D03*
X172900000Y-92500000D03*
D12*
X161000000Y-105500000D03*
D11*
X187200000Y-103700000D03*
X184800000Y-103700000D03*
X167800000Y-91400000D03*
X165400000Y-91400000D03*
X167800000Y-131400000D03*
X165400000Y-131400000D03*
X187200000Y-143700000D03*
X184800000Y-143700000D03*
D12*
X161000000Y-145500000D03*
D13*
X177900000Y-132500000D03*
X172900000Y-132500000D03*
D15*
X162200000Y-136230000D03*
X162200000Y-138770000D03*
D14*
X183799860Y-135600000D03*
X189799340Y-135600000D03*
X186799600Y-130901000D03*
D12*
X192000000Y-145500000D03*
X192000000Y-129500000D03*
X161000000Y-129500000D03*
D15*
X162200000Y-116230000D03*
X162200000Y-118770000D03*
D12*
X161000000Y-109500000D03*
X192000000Y-109500000D03*
X192000000Y-125500000D03*
D14*
X183799860Y-115600000D03*
X189799340Y-115600000D03*
X186799600Y-110901000D03*
D13*
X177900000Y-112500000D03*
X172900000Y-112500000D03*
D12*
X161000000Y-125500000D03*
D11*
X187200000Y-123700000D03*
X184800000Y-123700000D03*
X167800000Y-111400000D03*
X165400000Y-111400000D03*
X150200000Y-103600000D03*
X152600000Y-103600000D03*
X130800000Y-91300000D03*
X133200000Y-91300000D03*
D12*
X157000000Y-89500000D03*
D13*
X140100000Y-102500000D03*
X145100000Y-102500000D03*
D14*
X134200140Y-99400000D03*
X128200660Y-99400000D03*
X131200400Y-104099000D03*
D12*
X126000000Y-89500000D03*
X126000000Y-105500000D03*
X157000000Y-105500000D03*
D15*
X155800000Y-98770000D03*
X155800000Y-96230000D03*
D12*
X157000000Y-85500000D03*
X126000000Y-85500000D03*
X126000000Y-69500000D03*
D14*
X134200140Y-79400000D03*
X128200660Y-79400000D03*
X131200400Y-84099000D03*
D15*
X155800000Y-78770000D03*
X155800000Y-76230000D03*
D13*
X140100000Y-82500000D03*
X145100000Y-82500000D03*
D12*
X157000000Y-69500000D03*
D11*
X130800000Y-71300000D03*
X133200000Y-71300000D03*
X150200000Y-83600000D03*
X152600000Y-83600000D03*
X150200000Y-123600000D03*
X152600000Y-123600000D03*
X130800000Y-111300000D03*
X133200000Y-111300000D03*
D12*
X157000000Y-109500000D03*
D13*
X140100000Y-122500000D03*
X145100000Y-122500000D03*
D15*
X155800000Y-118770000D03*
X155800000Y-116230000D03*
D14*
X134200140Y-119400000D03*
X128200660Y-119400000D03*
X131200400Y-124099000D03*
D12*
X126000000Y-109500000D03*
X126000000Y-125500000D03*
X157000000Y-125500000D03*
D15*
X155800000Y-138770000D03*
X155800000Y-136230000D03*
D12*
X157000000Y-145500000D03*
X126000000Y-145500000D03*
X126000000Y-129500000D03*
D14*
X134200140Y-139400000D03*
X128200660Y-139400000D03*
X131200400Y-144099000D03*
D13*
X140100000Y-142500000D03*
X145100000Y-142500000D03*
D12*
X157000000Y-129500000D03*
D11*
X130800000Y-131300000D03*
X133200000Y-131300000D03*
X150200000Y-143600000D03*
X152600000Y-143600000D03*
D16*
G36*
X158290000Y-146790000D02*
X124710000Y-146790000D01*
X124710000Y-144384750D01*
X128815340Y-144384750D01*
X128815340Y-145975370D01*
X128912013Y-146208759D01*
X129090642Y-146387387D01*
X129324031Y-146484060D01*
X130914650Y-146484060D01*
X131073400Y-146325310D01*
X131073400Y-144226000D01*
X131327400Y-144226000D01*
X131327400Y-146325310D01*
X131486150Y-146484060D01*
X133076769Y-146484060D01*
X133310158Y-146387387D01*
X133488787Y-146208759D01*
X133585460Y-145975370D01*
X133585460Y-144580213D01*
X149399392Y-144580213D01*
X149468857Y-144822397D01*
X149992302Y-145009144D01*
X150547368Y-144981362D01*
X150931143Y-144822397D01*
X151000608Y-144580213D01*
X150200000Y-143779605D01*
X149399392Y-144580213D01*
X133585460Y-144580213D01*
X133585460Y-144384750D01*
X133426710Y-144226000D01*
X131327400Y-144226000D01*
X131073400Y-144226000D01*
X128974090Y-144226000D01*
X128815340Y-144384750D01*
X124710000Y-144384750D01*
X124710000Y-139685750D01*
X125815600Y-139685750D01*
X125815600Y-141276370D01*
X125912273Y-141509759D01*
X126090902Y-141688387D01*
X126324291Y-141785060D01*
X127914910Y-141785060D01*
X128073660Y-141626310D01*
X128073660Y-139527000D01*
X128327660Y-139527000D01*
X128327660Y-141626310D01*
X128486410Y-141785060D01*
X129152332Y-141785060D01*
X129090642Y-141810613D01*
X128912013Y-141989241D01*
X128815340Y-142222630D01*
X128815340Y-143813250D01*
X128974090Y-143972000D01*
X131073400Y-143972000D01*
X131073400Y-141872690D01*
X131327400Y-141872690D01*
X131327400Y-143972000D01*
X133426710Y-143972000D01*
X133585460Y-143813250D01*
X133585460Y-142883207D01*
X138164665Y-142883207D01*
X138458630Y-143594658D01*
X139002479Y-144139457D01*
X139713416Y-144434663D01*
X140483207Y-144435335D01*
X141194658Y-144141370D01*
X141739457Y-143597521D01*
X142034663Y-142886584D01*
X142034665Y-142883207D01*
X143164665Y-142883207D01*
X143458630Y-143594658D01*
X144002479Y-144139457D01*
X144713416Y-144434663D01*
X145483207Y-144435335D01*
X146194658Y-144141370D01*
X146739457Y-143597521D01*
X146824671Y-143392302D01*
X148790856Y-143392302D01*
X148818638Y-143947368D01*
X148977603Y-144331143D01*
X149219787Y-144400608D01*
X150020395Y-143600000D01*
X150379605Y-143600000D01*
X151180213Y-144400608D01*
X151393921Y-144339311D01*
X151414990Y-144390303D01*
X151807630Y-144783629D01*
X152320900Y-144996757D01*
X152876661Y-144997242D01*
X153390303Y-144785010D01*
X153783629Y-144392370D01*
X153996757Y-143879100D01*
X153997242Y-143323339D01*
X153785010Y-142809697D01*
X153392370Y-142416371D01*
X152879100Y-142203243D01*
X152323339Y-142202758D01*
X151809697Y-142414990D01*
X151416371Y-142807630D01*
X151394294Y-142860796D01*
X151180213Y-142799392D01*
X150379605Y-143600000D01*
X150020395Y-143600000D01*
X149219787Y-142799392D01*
X148977603Y-142868857D01*
X148790856Y-143392302D01*
X146824671Y-143392302D01*
X147034663Y-142886584D01*
X147034895Y-142619787D01*
X149399392Y-142619787D01*
X150200000Y-143420395D01*
X151000608Y-142619787D01*
X150931143Y-142377603D01*
X150407698Y-142190856D01*
X149852632Y-142218638D01*
X149468857Y-142377603D01*
X149399392Y-142619787D01*
X147034895Y-142619787D01*
X147035335Y-142116793D01*
X146741370Y-141405342D01*
X146197521Y-140860543D01*
X145486584Y-140565337D01*
X144716793Y-140564665D01*
X144005342Y-140858630D01*
X143460543Y-141402479D01*
X143165337Y-142113416D01*
X143164665Y-142883207D01*
X142034665Y-142883207D01*
X142035335Y-142116793D01*
X141741370Y-141405342D01*
X141197521Y-140860543D01*
X140486584Y-140565337D01*
X139716793Y-140564665D01*
X139005342Y-140858630D01*
X138460543Y-141402479D01*
X138165337Y-142113416D01*
X138164665Y-142883207D01*
X133585460Y-142883207D01*
X133585460Y-142222630D01*
X133488787Y-141989241D01*
X133310158Y-141810613D01*
X133278500Y-141797500D01*
X135950200Y-141797500D01*
X136185517Y-141753222D01*
X136401641Y-141614150D01*
X136546631Y-141401950D01*
X136597640Y-141150060D01*
X136597640Y-137649940D01*
X136553362Y-137414623D01*
X136414290Y-137198499D01*
X136202090Y-137053509D01*
X135950200Y-137002500D01*
X132450080Y-137002500D01*
X132214763Y-137046778D01*
X131998639Y-137185850D01*
X131853649Y-137398050D01*
X131802640Y-137649940D01*
X131802640Y-141150060D01*
X131846918Y-141385377D01*
X131985990Y-141601501D01*
X132150550Y-141713940D01*
X131486150Y-141713940D01*
X131327400Y-141872690D01*
X131073400Y-141872690D01*
X130914650Y-141713940D01*
X130248728Y-141713940D01*
X130310418Y-141688387D01*
X130489047Y-141509759D01*
X130585720Y-141276370D01*
X130585720Y-139685750D01*
X130426970Y-139527000D01*
X128327660Y-139527000D01*
X128073660Y-139527000D01*
X125974350Y-139527000D01*
X125815600Y-139685750D01*
X124710000Y-139685750D01*
X124710000Y-137523630D01*
X125815600Y-137523630D01*
X125815600Y-139114250D01*
X125974350Y-139273000D01*
X128073660Y-139273000D01*
X128073660Y-137173690D01*
X128327660Y-137173690D01*
X128327660Y-139273000D01*
X130426970Y-139273000D01*
X130585720Y-139114250D01*
X130585720Y-137523630D01*
X130489047Y-137290241D01*
X130310418Y-137111613D01*
X130077029Y-137014940D01*
X128486410Y-137014940D01*
X128327660Y-137173690D01*
X128073660Y-137173690D01*
X127914910Y-137014940D01*
X126324291Y-137014940D01*
X126090902Y-137111613D01*
X125912273Y-137290241D01*
X125815600Y-137523630D01*
X124710000Y-137523630D01*
X124710000Y-136230000D01*
X153615536Y-136230000D01*
X153721200Y-136761207D01*
X154022104Y-137211542D01*
X154453812Y-137500000D01*
X154022104Y-137788458D01*
X153721200Y-138238793D01*
X153615536Y-138770000D01*
X153721200Y-139301207D01*
X154022104Y-139751542D01*
X154472439Y-140052446D01*
X155003646Y-140158110D01*
X156596354Y-140158110D01*
X157127561Y-140052446D01*
X157577896Y-139751542D01*
X157878800Y-139301207D01*
X157984464Y-138770000D01*
X157878800Y-138238793D01*
X157577896Y-137788458D01*
X157146188Y-137500000D01*
X157577896Y-137211542D01*
X157878800Y-136761207D01*
X157984464Y-136230000D01*
X157878800Y-135698793D01*
X157577896Y-135248458D01*
X157127561Y-134947554D01*
X156596354Y-134841890D01*
X155003646Y-134841890D01*
X154472439Y-134947554D01*
X154022104Y-135248458D01*
X153721200Y-135698793D01*
X153615536Y-136230000D01*
X124710000Y-136230000D01*
X124710000Y-132280213D01*
X129999392Y-132280213D01*
X130068857Y-132522397D01*
X130592302Y-132709144D01*
X131147368Y-132681362D01*
X131531143Y-132522397D01*
X131600608Y-132280213D01*
X130800000Y-131479605D01*
X129999392Y-132280213D01*
X124710000Y-132280213D01*
X124710000Y-131092302D01*
X129390856Y-131092302D01*
X129418638Y-131647368D01*
X129577603Y-132031143D01*
X129819787Y-132100608D01*
X130620395Y-131300000D01*
X130979605Y-131300000D01*
X131780213Y-132100608D01*
X131993921Y-132039311D01*
X132014990Y-132090303D01*
X132407630Y-132483629D01*
X132920900Y-132696757D01*
X133476661Y-132697242D01*
X133990303Y-132485010D01*
X134383629Y-132092370D01*
X134596757Y-131579100D01*
X134597242Y-131023339D01*
X134385010Y-130509697D01*
X133992370Y-130116371D01*
X133479100Y-129903243D01*
X132923339Y-129902758D01*
X132409697Y-130114990D01*
X132016371Y-130507630D01*
X131994294Y-130560796D01*
X131780213Y-130499392D01*
X130979605Y-131300000D01*
X130620395Y-131300000D01*
X129819787Y-130499392D01*
X129577603Y-130568857D01*
X129390856Y-131092302D01*
X124710000Y-131092302D01*
X124710000Y-130319787D01*
X129999392Y-130319787D01*
X130800000Y-131120395D01*
X131600608Y-130319787D01*
X131531143Y-130077603D01*
X131007698Y-129890856D01*
X130452632Y-129918638D01*
X130068857Y-130077603D01*
X129999392Y-130319787D01*
X124710000Y-130319787D01*
X124710000Y-128210000D01*
X158290000Y-128210000D01*
X158290000Y-146790000D01*
X158290000Y-146790000D01*
G37*
X158290000Y-146790000D02*
X124710000Y-146790000D01*
X124710000Y-144384750D01*
X128815340Y-144384750D01*
X128815340Y-145975370D01*
X128912013Y-146208759D01*
X129090642Y-146387387D01*
X129324031Y-146484060D01*
X130914650Y-146484060D01*
X131073400Y-146325310D01*
X131073400Y-144226000D01*
X131327400Y-144226000D01*
X131327400Y-146325310D01*
X131486150Y-146484060D01*
X133076769Y-146484060D01*
X133310158Y-146387387D01*
X133488787Y-146208759D01*
X133585460Y-145975370D01*
X133585460Y-144580213D01*
X149399392Y-144580213D01*
X149468857Y-144822397D01*
X149992302Y-145009144D01*
X150547368Y-144981362D01*
X150931143Y-144822397D01*
X151000608Y-144580213D01*
X150200000Y-143779605D01*
X149399392Y-144580213D01*
X133585460Y-144580213D01*
X133585460Y-144384750D01*
X133426710Y-144226000D01*
X131327400Y-144226000D01*
X131073400Y-144226000D01*
X128974090Y-144226000D01*
X128815340Y-144384750D01*
X124710000Y-144384750D01*
X124710000Y-139685750D01*
X125815600Y-139685750D01*
X125815600Y-141276370D01*
X125912273Y-141509759D01*
X126090902Y-141688387D01*
X126324291Y-141785060D01*
X127914910Y-141785060D01*
X128073660Y-141626310D01*
X128073660Y-139527000D01*
X128327660Y-139527000D01*
X128327660Y-141626310D01*
X128486410Y-141785060D01*
X129152332Y-141785060D01*
X129090642Y-141810613D01*
X128912013Y-141989241D01*
X128815340Y-142222630D01*
X128815340Y-143813250D01*
X128974090Y-143972000D01*
X131073400Y-143972000D01*
X131073400Y-141872690D01*
X131327400Y-141872690D01*
X131327400Y-143972000D01*
X133426710Y-143972000D01*
X133585460Y-143813250D01*
X133585460Y-142883207D01*
X138164665Y-142883207D01*
X138458630Y-143594658D01*
X139002479Y-144139457D01*
X139713416Y-144434663D01*
X140483207Y-144435335D01*
X141194658Y-144141370D01*
X141739457Y-143597521D01*
X142034663Y-142886584D01*
X142034665Y-142883207D01*
X143164665Y-142883207D01*
X143458630Y-143594658D01*
X144002479Y-144139457D01*
X144713416Y-144434663D01*
X145483207Y-144435335D01*
X146194658Y-144141370D01*
X146739457Y-143597521D01*
X146824671Y-143392302D01*
X148790856Y-143392302D01*
X148818638Y-143947368D01*
X148977603Y-144331143D01*
X149219787Y-144400608D01*
X150020395Y-143600000D01*
X150379605Y-143600000D01*
X151180213Y-144400608D01*
X151393921Y-144339311D01*
X151414990Y-144390303D01*
X151807630Y-144783629D01*
X152320900Y-144996757D01*
X152876661Y-144997242D01*
X153390303Y-144785010D01*
X153783629Y-144392370D01*
X153996757Y-143879100D01*
X153997242Y-143323339D01*
X153785010Y-142809697D01*
X153392370Y-142416371D01*
X152879100Y-142203243D01*
X152323339Y-142202758D01*
X151809697Y-142414990D01*
X151416371Y-142807630D01*
X151394294Y-142860796D01*
X151180213Y-142799392D01*
X150379605Y-143600000D01*
X150020395Y-143600000D01*
X149219787Y-142799392D01*
X148977603Y-142868857D01*
X148790856Y-143392302D01*
X146824671Y-143392302D01*
X147034663Y-142886584D01*
X147034895Y-142619787D01*
X149399392Y-142619787D01*
X150200000Y-143420395D01*
X151000608Y-142619787D01*
X150931143Y-142377603D01*
X150407698Y-142190856D01*
X149852632Y-142218638D01*
X149468857Y-142377603D01*
X149399392Y-142619787D01*
X147034895Y-142619787D01*
X147035335Y-142116793D01*
X146741370Y-141405342D01*
X146197521Y-140860543D01*
X145486584Y-140565337D01*
X144716793Y-140564665D01*
X144005342Y-140858630D01*
X143460543Y-141402479D01*
X143165337Y-142113416D01*
X143164665Y-142883207D01*
X142034665Y-142883207D01*
X142035335Y-142116793D01*
X141741370Y-141405342D01*
X141197521Y-140860543D01*
X140486584Y-140565337D01*
X139716793Y-140564665D01*
X139005342Y-140858630D01*
X138460543Y-141402479D01*
X138165337Y-142113416D01*
X138164665Y-142883207D01*
X133585460Y-142883207D01*
X133585460Y-142222630D01*
X133488787Y-141989241D01*
X133310158Y-141810613D01*
X133278500Y-141797500D01*
X135950200Y-141797500D01*
X136185517Y-141753222D01*
X136401641Y-141614150D01*
X136546631Y-141401950D01*
X136597640Y-141150060D01*
X136597640Y-137649940D01*
X136553362Y-137414623D01*
X136414290Y-137198499D01*
X136202090Y-137053509D01*
X135950200Y-137002500D01*
X132450080Y-137002500D01*
X132214763Y-137046778D01*
X131998639Y-137185850D01*
X131853649Y-137398050D01*
X131802640Y-137649940D01*
X131802640Y-141150060D01*
X131846918Y-141385377D01*
X131985990Y-141601501D01*
X132150550Y-141713940D01*
X131486150Y-141713940D01*
X131327400Y-141872690D01*
X131073400Y-141872690D01*
X130914650Y-141713940D01*
X130248728Y-141713940D01*
X130310418Y-141688387D01*
X130489047Y-141509759D01*
X130585720Y-141276370D01*
X130585720Y-139685750D01*
X130426970Y-139527000D01*
X128327660Y-139527000D01*
X128073660Y-139527000D01*
X125974350Y-139527000D01*
X125815600Y-139685750D01*
X124710000Y-139685750D01*
X124710000Y-137523630D01*
X125815600Y-137523630D01*
X125815600Y-139114250D01*
X125974350Y-139273000D01*
X128073660Y-139273000D01*
X128073660Y-137173690D01*
X128327660Y-137173690D01*
X128327660Y-139273000D01*
X130426970Y-139273000D01*
X130585720Y-139114250D01*
X130585720Y-137523630D01*
X130489047Y-137290241D01*
X130310418Y-137111613D01*
X130077029Y-137014940D01*
X128486410Y-137014940D01*
X128327660Y-137173690D01*
X128073660Y-137173690D01*
X127914910Y-137014940D01*
X126324291Y-137014940D01*
X126090902Y-137111613D01*
X125912273Y-137290241D01*
X125815600Y-137523630D01*
X124710000Y-137523630D01*
X124710000Y-136230000D01*
X153615536Y-136230000D01*
X153721200Y-136761207D01*
X154022104Y-137211542D01*
X154453812Y-137500000D01*
X154022104Y-137788458D01*
X153721200Y-138238793D01*
X153615536Y-138770000D01*
X153721200Y-139301207D01*
X154022104Y-139751542D01*
X154472439Y-140052446D01*
X155003646Y-140158110D01*
X156596354Y-140158110D01*
X157127561Y-140052446D01*
X157577896Y-139751542D01*
X157878800Y-139301207D01*
X157984464Y-138770000D01*
X157878800Y-138238793D01*
X157577896Y-137788458D01*
X157146188Y-137500000D01*
X157577896Y-137211542D01*
X157878800Y-136761207D01*
X157984464Y-136230000D01*
X157878800Y-135698793D01*
X157577896Y-135248458D01*
X157127561Y-134947554D01*
X156596354Y-134841890D01*
X155003646Y-134841890D01*
X154472439Y-134947554D01*
X154022104Y-135248458D01*
X153721200Y-135698793D01*
X153615536Y-136230000D01*
X124710000Y-136230000D01*
X124710000Y-132280213D01*
X129999392Y-132280213D01*
X130068857Y-132522397D01*
X130592302Y-132709144D01*
X131147368Y-132681362D01*
X131531143Y-132522397D01*
X131600608Y-132280213D01*
X130800000Y-131479605D01*
X129999392Y-132280213D01*
X124710000Y-132280213D01*
X124710000Y-131092302D01*
X129390856Y-131092302D01*
X129418638Y-131647368D01*
X129577603Y-132031143D01*
X129819787Y-132100608D01*
X130620395Y-131300000D01*
X130979605Y-131300000D01*
X131780213Y-132100608D01*
X131993921Y-132039311D01*
X132014990Y-132090303D01*
X132407630Y-132483629D01*
X132920900Y-132696757D01*
X133476661Y-132697242D01*
X133990303Y-132485010D01*
X134383629Y-132092370D01*
X134596757Y-131579100D01*
X134597242Y-131023339D01*
X134385010Y-130509697D01*
X133992370Y-130116371D01*
X133479100Y-129903243D01*
X132923339Y-129902758D01*
X132409697Y-130114990D01*
X132016371Y-130507630D01*
X131994294Y-130560796D01*
X131780213Y-130499392D01*
X130979605Y-131300000D01*
X130620395Y-131300000D01*
X129819787Y-130499392D01*
X129577603Y-130568857D01*
X129390856Y-131092302D01*
X124710000Y-131092302D01*
X124710000Y-130319787D01*
X129999392Y-130319787D01*
X130800000Y-131120395D01*
X131600608Y-130319787D01*
X131531143Y-130077603D01*
X131007698Y-129890856D01*
X130452632Y-129918638D01*
X130068857Y-130077603D01*
X129999392Y-130319787D01*
X124710000Y-130319787D01*
X124710000Y-128210000D01*
X158290000Y-128210000D01*
X158290000Y-146790000D01*
G36*
X158290000Y-126790000D02*
X124710000Y-126790000D01*
X124710000Y-124384750D01*
X128815340Y-124384750D01*
X128815340Y-125975370D01*
X128912013Y-126208759D01*
X129090642Y-126387387D01*
X129324031Y-126484060D01*
X130914650Y-126484060D01*
X131073400Y-126325310D01*
X131073400Y-124226000D01*
X131327400Y-124226000D01*
X131327400Y-126325310D01*
X131486150Y-126484060D01*
X133076769Y-126484060D01*
X133310158Y-126387387D01*
X133488787Y-126208759D01*
X133585460Y-125975370D01*
X133585460Y-124580213D01*
X149399392Y-124580213D01*
X149468857Y-124822397D01*
X149992302Y-125009144D01*
X150547368Y-124981362D01*
X150931143Y-124822397D01*
X151000608Y-124580213D01*
X150200000Y-123779605D01*
X149399392Y-124580213D01*
X133585460Y-124580213D01*
X133585460Y-124384750D01*
X133426710Y-124226000D01*
X131327400Y-124226000D01*
X131073400Y-124226000D01*
X128974090Y-124226000D01*
X128815340Y-124384750D01*
X124710000Y-124384750D01*
X124710000Y-119685750D01*
X125815600Y-119685750D01*
X125815600Y-121276370D01*
X125912273Y-121509759D01*
X126090902Y-121688387D01*
X126324291Y-121785060D01*
X127914910Y-121785060D01*
X128073660Y-121626310D01*
X128073660Y-119527000D01*
X128327660Y-119527000D01*
X128327660Y-121626310D01*
X128486410Y-121785060D01*
X129152332Y-121785060D01*
X129090642Y-121810613D01*
X128912013Y-121989241D01*
X128815340Y-122222630D01*
X128815340Y-123813250D01*
X128974090Y-123972000D01*
X131073400Y-123972000D01*
X131073400Y-121872690D01*
X131327400Y-121872690D01*
X131327400Y-123972000D01*
X133426710Y-123972000D01*
X133585460Y-123813250D01*
X133585460Y-122883207D01*
X138164665Y-122883207D01*
X138458630Y-123594658D01*
X139002479Y-124139457D01*
X139713416Y-124434663D01*
X140483207Y-124435335D01*
X141194658Y-124141370D01*
X141739457Y-123597521D01*
X142034663Y-122886584D01*
X142034665Y-122883207D01*
X143164665Y-122883207D01*
X143458630Y-123594658D01*
X144002479Y-124139457D01*
X144713416Y-124434663D01*
X145483207Y-124435335D01*
X146194658Y-124141370D01*
X146739457Y-123597521D01*
X146824671Y-123392302D01*
X148790856Y-123392302D01*
X148818638Y-123947368D01*
X148977603Y-124331143D01*
X149219787Y-124400608D01*
X150020395Y-123600000D01*
X150379605Y-123600000D01*
X151180213Y-124400608D01*
X151393921Y-124339311D01*
X151414990Y-124390303D01*
X151807630Y-124783629D01*
X152320900Y-124996757D01*
X152876661Y-124997242D01*
X153390303Y-124785010D01*
X153783629Y-124392370D01*
X153996757Y-123879100D01*
X153997242Y-123323339D01*
X153785010Y-122809697D01*
X153392370Y-122416371D01*
X152879100Y-122203243D01*
X152323339Y-122202758D01*
X151809697Y-122414990D01*
X151416371Y-122807630D01*
X151394294Y-122860796D01*
X151180213Y-122799392D01*
X150379605Y-123600000D01*
X150020395Y-123600000D01*
X149219787Y-122799392D01*
X148977603Y-122868857D01*
X148790856Y-123392302D01*
X146824671Y-123392302D01*
X147034663Y-122886584D01*
X147034895Y-122619787D01*
X149399392Y-122619787D01*
X150200000Y-123420395D01*
X151000608Y-122619787D01*
X150931143Y-122377603D01*
X150407698Y-122190856D01*
X149852632Y-122218638D01*
X149468857Y-122377603D01*
X149399392Y-122619787D01*
X147034895Y-122619787D01*
X147035335Y-122116793D01*
X146741370Y-121405342D01*
X146197521Y-120860543D01*
X145486584Y-120565337D01*
X144716793Y-120564665D01*
X144005342Y-120858630D01*
X143460543Y-121402479D01*
X143165337Y-122113416D01*
X143164665Y-122883207D01*
X142034665Y-122883207D01*
X142035335Y-122116793D01*
X141741370Y-121405342D01*
X141197521Y-120860543D01*
X140486584Y-120565337D01*
X139716793Y-120564665D01*
X139005342Y-120858630D01*
X138460543Y-121402479D01*
X138165337Y-122113416D01*
X138164665Y-122883207D01*
X133585460Y-122883207D01*
X133585460Y-122222630D01*
X133488787Y-121989241D01*
X133310158Y-121810613D01*
X133278500Y-121797500D01*
X135950200Y-121797500D01*
X136185517Y-121753222D01*
X136401641Y-121614150D01*
X136546631Y-121401950D01*
X136597640Y-121150060D01*
X136597640Y-117649940D01*
X136553362Y-117414623D01*
X136414290Y-117198499D01*
X136202090Y-117053509D01*
X135950200Y-117002500D01*
X132450080Y-117002500D01*
X132214763Y-117046778D01*
X131998639Y-117185850D01*
X131853649Y-117398050D01*
X131802640Y-117649940D01*
X131802640Y-121150060D01*
X131846918Y-121385377D01*
X131985990Y-121601501D01*
X132150550Y-121713940D01*
X131486150Y-121713940D01*
X131327400Y-121872690D01*
X131073400Y-121872690D01*
X130914650Y-121713940D01*
X130248728Y-121713940D01*
X130310418Y-121688387D01*
X130489047Y-121509759D01*
X130585720Y-121276370D01*
X130585720Y-119685750D01*
X130426970Y-119527000D01*
X128327660Y-119527000D01*
X128073660Y-119527000D01*
X125974350Y-119527000D01*
X125815600Y-119685750D01*
X124710000Y-119685750D01*
X124710000Y-117523630D01*
X125815600Y-117523630D01*
X125815600Y-119114250D01*
X125974350Y-119273000D01*
X128073660Y-119273000D01*
X128073660Y-117173690D01*
X128327660Y-117173690D01*
X128327660Y-119273000D01*
X130426970Y-119273000D01*
X130585720Y-119114250D01*
X130585720Y-117523630D01*
X130489047Y-117290241D01*
X130310418Y-117111613D01*
X130077029Y-117014940D01*
X128486410Y-117014940D01*
X128327660Y-117173690D01*
X128073660Y-117173690D01*
X127914910Y-117014940D01*
X126324291Y-117014940D01*
X126090902Y-117111613D01*
X125912273Y-117290241D01*
X125815600Y-117523630D01*
X124710000Y-117523630D01*
X124710000Y-116230000D01*
X153615536Y-116230000D01*
X153721200Y-116761207D01*
X154022104Y-117211542D01*
X154453812Y-117500000D01*
X154022104Y-117788458D01*
X153721200Y-118238793D01*
X153615536Y-118770000D01*
X153721200Y-119301207D01*
X154022104Y-119751542D01*
X154472439Y-120052446D01*
X155003646Y-120158110D01*
X156596354Y-120158110D01*
X157127561Y-120052446D01*
X157577896Y-119751542D01*
X157878800Y-119301207D01*
X157984464Y-118770000D01*
X157878800Y-118238793D01*
X157577896Y-117788458D01*
X157146188Y-117500000D01*
X157577896Y-117211542D01*
X157878800Y-116761207D01*
X157984464Y-116230000D01*
X157878800Y-115698793D01*
X157577896Y-115248458D01*
X157127561Y-114947554D01*
X156596354Y-114841890D01*
X155003646Y-114841890D01*
X154472439Y-114947554D01*
X154022104Y-115248458D01*
X153721200Y-115698793D01*
X153615536Y-116230000D01*
X124710000Y-116230000D01*
X124710000Y-112280213D01*
X129999392Y-112280213D01*
X130068857Y-112522397D01*
X130592302Y-112709144D01*
X131147368Y-112681362D01*
X131531143Y-112522397D01*
X131600608Y-112280213D01*
X130800000Y-111479605D01*
X129999392Y-112280213D01*
X124710000Y-112280213D01*
X124710000Y-111092302D01*
X129390856Y-111092302D01*
X129418638Y-111647368D01*
X129577603Y-112031143D01*
X129819787Y-112100608D01*
X130620395Y-111300000D01*
X130979605Y-111300000D01*
X131780213Y-112100608D01*
X131993921Y-112039311D01*
X132014990Y-112090303D01*
X132407630Y-112483629D01*
X132920900Y-112696757D01*
X133476661Y-112697242D01*
X133990303Y-112485010D01*
X134383629Y-112092370D01*
X134596757Y-111579100D01*
X134597242Y-111023339D01*
X134385010Y-110509697D01*
X133992370Y-110116371D01*
X133479100Y-109903243D01*
X132923339Y-109902758D01*
X132409697Y-110114990D01*
X132016371Y-110507630D01*
X131994294Y-110560796D01*
X131780213Y-110499392D01*
X130979605Y-111300000D01*
X130620395Y-111300000D01*
X129819787Y-110499392D01*
X129577603Y-110568857D01*
X129390856Y-111092302D01*
X124710000Y-111092302D01*
X124710000Y-110319787D01*
X129999392Y-110319787D01*
X130800000Y-111120395D01*
X131600608Y-110319787D01*
X131531143Y-110077603D01*
X131007698Y-109890856D01*
X130452632Y-109918638D01*
X130068857Y-110077603D01*
X129999392Y-110319787D01*
X124710000Y-110319787D01*
X124710000Y-108210000D01*
X158290000Y-108210000D01*
X158290000Y-126790000D01*
X158290000Y-126790000D01*
G37*
X158290000Y-126790000D02*
X124710000Y-126790000D01*
X124710000Y-124384750D01*
X128815340Y-124384750D01*
X128815340Y-125975370D01*
X128912013Y-126208759D01*
X129090642Y-126387387D01*
X129324031Y-126484060D01*
X130914650Y-126484060D01*
X131073400Y-126325310D01*
X131073400Y-124226000D01*
X131327400Y-124226000D01*
X131327400Y-126325310D01*
X131486150Y-126484060D01*
X133076769Y-126484060D01*
X133310158Y-126387387D01*
X133488787Y-126208759D01*
X133585460Y-125975370D01*
X133585460Y-124580213D01*
X149399392Y-124580213D01*
X149468857Y-124822397D01*
X149992302Y-125009144D01*
X150547368Y-124981362D01*
X150931143Y-124822397D01*
X151000608Y-124580213D01*
X150200000Y-123779605D01*
X149399392Y-124580213D01*
X133585460Y-124580213D01*
X133585460Y-124384750D01*
X133426710Y-124226000D01*
X131327400Y-124226000D01*
X131073400Y-124226000D01*
X128974090Y-124226000D01*
X128815340Y-124384750D01*
X124710000Y-124384750D01*
X124710000Y-119685750D01*
X125815600Y-119685750D01*
X125815600Y-121276370D01*
X125912273Y-121509759D01*
X126090902Y-121688387D01*
X126324291Y-121785060D01*
X127914910Y-121785060D01*
X128073660Y-121626310D01*
X128073660Y-119527000D01*
X128327660Y-119527000D01*
X128327660Y-121626310D01*
X128486410Y-121785060D01*
X129152332Y-121785060D01*
X129090642Y-121810613D01*
X128912013Y-121989241D01*
X128815340Y-122222630D01*
X128815340Y-123813250D01*
X128974090Y-123972000D01*
X131073400Y-123972000D01*
X131073400Y-121872690D01*
X131327400Y-121872690D01*
X131327400Y-123972000D01*
X133426710Y-123972000D01*
X133585460Y-123813250D01*
X133585460Y-122883207D01*
X138164665Y-122883207D01*
X138458630Y-123594658D01*
X139002479Y-124139457D01*
X139713416Y-124434663D01*
X140483207Y-124435335D01*
X141194658Y-124141370D01*
X141739457Y-123597521D01*
X142034663Y-122886584D01*
X142034665Y-122883207D01*
X143164665Y-122883207D01*
X143458630Y-123594658D01*
X144002479Y-124139457D01*
X144713416Y-124434663D01*
X145483207Y-124435335D01*
X146194658Y-124141370D01*
X146739457Y-123597521D01*
X146824671Y-123392302D01*
X148790856Y-123392302D01*
X148818638Y-123947368D01*
X148977603Y-124331143D01*
X149219787Y-124400608D01*
X150020395Y-123600000D01*
X150379605Y-123600000D01*
X151180213Y-124400608D01*
X151393921Y-124339311D01*
X151414990Y-124390303D01*
X151807630Y-124783629D01*
X152320900Y-124996757D01*
X152876661Y-124997242D01*
X153390303Y-124785010D01*
X153783629Y-124392370D01*
X153996757Y-123879100D01*
X153997242Y-123323339D01*
X153785010Y-122809697D01*
X153392370Y-122416371D01*
X152879100Y-122203243D01*
X152323339Y-122202758D01*
X151809697Y-122414990D01*
X151416371Y-122807630D01*
X151394294Y-122860796D01*
X151180213Y-122799392D01*
X150379605Y-123600000D01*
X150020395Y-123600000D01*
X149219787Y-122799392D01*
X148977603Y-122868857D01*
X148790856Y-123392302D01*
X146824671Y-123392302D01*
X147034663Y-122886584D01*
X147034895Y-122619787D01*
X149399392Y-122619787D01*
X150200000Y-123420395D01*
X151000608Y-122619787D01*
X150931143Y-122377603D01*
X150407698Y-122190856D01*
X149852632Y-122218638D01*
X149468857Y-122377603D01*
X149399392Y-122619787D01*
X147034895Y-122619787D01*
X147035335Y-122116793D01*
X146741370Y-121405342D01*
X146197521Y-120860543D01*
X145486584Y-120565337D01*
X144716793Y-120564665D01*
X144005342Y-120858630D01*
X143460543Y-121402479D01*
X143165337Y-122113416D01*
X143164665Y-122883207D01*
X142034665Y-122883207D01*
X142035335Y-122116793D01*
X141741370Y-121405342D01*
X141197521Y-120860543D01*
X140486584Y-120565337D01*
X139716793Y-120564665D01*
X139005342Y-120858630D01*
X138460543Y-121402479D01*
X138165337Y-122113416D01*
X138164665Y-122883207D01*
X133585460Y-122883207D01*
X133585460Y-122222630D01*
X133488787Y-121989241D01*
X133310158Y-121810613D01*
X133278500Y-121797500D01*
X135950200Y-121797500D01*
X136185517Y-121753222D01*
X136401641Y-121614150D01*
X136546631Y-121401950D01*
X136597640Y-121150060D01*
X136597640Y-117649940D01*
X136553362Y-117414623D01*
X136414290Y-117198499D01*
X136202090Y-117053509D01*
X135950200Y-117002500D01*
X132450080Y-117002500D01*
X132214763Y-117046778D01*
X131998639Y-117185850D01*
X131853649Y-117398050D01*
X131802640Y-117649940D01*
X131802640Y-121150060D01*
X131846918Y-121385377D01*
X131985990Y-121601501D01*
X132150550Y-121713940D01*
X131486150Y-121713940D01*
X131327400Y-121872690D01*
X131073400Y-121872690D01*
X130914650Y-121713940D01*
X130248728Y-121713940D01*
X130310418Y-121688387D01*
X130489047Y-121509759D01*
X130585720Y-121276370D01*
X130585720Y-119685750D01*
X130426970Y-119527000D01*
X128327660Y-119527000D01*
X128073660Y-119527000D01*
X125974350Y-119527000D01*
X125815600Y-119685750D01*
X124710000Y-119685750D01*
X124710000Y-117523630D01*
X125815600Y-117523630D01*
X125815600Y-119114250D01*
X125974350Y-119273000D01*
X128073660Y-119273000D01*
X128073660Y-117173690D01*
X128327660Y-117173690D01*
X128327660Y-119273000D01*
X130426970Y-119273000D01*
X130585720Y-119114250D01*
X130585720Y-117523630D01*
X130489047Y-117290241D01*
X130310418Y-117111613D01*
X130077029Y-117014940D01*
X128486410Y-117014940D01*
X128327660Y-117173690D01*
X128073660Y-117173690D01*
X127914910Y-117014940D01*
X126324291Y-117014940D01*
X126090902Y-117111613D01*
X125912273Y-117290241D01*
X125815600Y-117523630D01*
X124710000Y-117523630D01*
X124710000Y-116230000D01*
X153615536Y-116230000D01*
X153721200Y-116761207D01*
X154022104Y-117211542D01*
X154453812Y-117500000D01*
X154022104Y-117788458D01*
X153721200Y-118238793D01*
X153615536Y-118770000D01*
X153721200Y-119301207D01*
X154022104Y-119751542D01*
X154472439Y-120052446D01*
X155003646Y-120158110D01*
X156596354Y-120158110D01*
X157127561Y-120052446D01*
X157577896Y-119751542D01*
X157878800Y-119301207D01*
X157984464Y-118770000D01*
X157878800Y-118238793D01*
X157577896Y-117788458D01*
X157146188Y-117500000D01*
X157577896Y-117211542D01*
X157878800Y-116761207D01*
X157984464Y-116230000D01*
X157878800Y-115698793D01*
X157577896Y-115248458D01*
X157127561Y-114947554D01*
X156596354Y-114841890D01*
X155003646Y-114841890D01*
X154472439Y-114947554D01*
X154022104Y-115248458D01*
X153721200Y-115698793D01*
X153615536Y-116230000D01*
X124710000Y-116230000D01*
X124710000Y-112280213D01*
X129999392Y-112280213D01*
X130068857Y-112522397D01*
X130592302Y-112709144D01*
X131147368Y-112681362D01*
X131531143Y-112522397D01*
X131600608Y-112280213D01*
X130800000Y-111479605D01*
X129999392Y-112280213D01*
X124710000Y-112280213D01*
X124710000Y-111092302D01*
X129390856Y-111092302D01*
X129418638Y-111647368D01*
X129577603Y-112031143D01*
X129819787Y-112100608D01*
X130620395Y-111300000D01*
X130979605Y-111300000D01*
X131780213Y-112100608D01*
X131993921Y-112039311D01*
X132014990Y-112090303D01*
X132407630Y-112483629D01*
X132920900Y-112696757D01*
X133476661Y-112697242D01*
X133990303Y-112485010D01*
X134383629Y-112092370D01*
X134596757Y-111579100D01*
X134597242Y-111023339D01*
X134385010Y-110509697D01*
X133992370Y-110116371D01*
X133479100Y-109903243D01*
X132923339Y-109902758D01*
X132409697Y-110114990D01*
X132016371Y-110507630D01*
X131994294Y-110560796D01*
X131780213Y-110499392D01*
X130979605Y-111300000D01*
X130620395Y-111300000D01*
X129819787Y-110499392D01*
X129577603Y-110568857D01*
X129390856Y-111092302D01*
X124710000Y-111092302D01*
X124710000Y-110319787D01*
X129999392Y-110319787D01*
X130800000Y-111120395D01*
X131600608Y-110319787D01*
X131531143Y-110077603D01*
X131007698Y-109890856D01*
X130452632Y-109918638D01*
X130068857Y-110077603D01*
X129999392Y-110319787D01*
X124710000Y-110319787D01*
X124710000Y-108210000D01*
X158290000Y-108210000D01*
X158290000Y-126790000D01*
G36*
X158290000Y-106790000D02*
X124710000Y-106790000D01*
X124710000Y-104384750D01*
X128815340Y-104384750D01*
X128815340Y-105975370D01*
X128912013Y-106208759D01*
X129090642Y-106387387D01*
X129324031Y-106484060D01*
X130914650Y-106484060D01*
X131073400Y-106325310D01*
X131073400Y-104226000D01*
X131327400Y-104226000D01*
X131327400Y-106325310D01*
X131486150Y-106484060D01*
X133076769Y-106484060D01*
X133310158Y-106387387D01*
X133488787Y-106208759D01*
X133585460Y-105975370D01*
X133585460Y-104580213D01*
X149399392Y-104580213D01*
X149468857Y-104822397D01*
X149992302Y-105009144D01*
X150547368Y-104981362D01*
X150931143Y-104822397D01*
X151000608Y-104580213D01*
X150200000Y-103779605D01*
X149399392Y-104580213D01*
X133585460Y-104580213D01*
X133585460Y-104384750D01*
X133426710Y-104226000D01*
X131327400Y-104226000D01*
X131073400Y-104226000D01*
X128974090Y-104226000D01*
X128815340Y-104384750D01*
X124710000Y-104384750D01*
X124710000Y-99685750D01*
X125815600Y-99685750D01*
X125815600Y-101276370D01*
X125912273Y-101509759D01*
X126090902Y-101688387D01*
X126324291Y-101785060D01*
X127914910Y-101785060D01*
X128073660Y-101626310D01*
X128073660Y-99527000D01*
X128327660Y-99527000D01*
X128327660Y-101626310D01*
X128486410Y-101785060D01*
X129152332Y-101785060D01*
X129090642Y-101810613D01*
X128912013Y-101989241D01*
X128815340Y-102222630D01*
X128815340Y-103813250D01*
X128974090Y-103972000D01*
X131073400Y-103972000D01*
X131073400Y-101872690D01*
X131327400Y-101872690D01*
X131327400Y-103972000D01*
X133426710Y-103972000D01*
X133585460Y-103813250D01*
X133585460Y-102883207D01*
X138164665Y-102883207D01*
X138458630Y-103594658D01*
X139002479Y-104139457D01*
X139713416Y-104434663D01*
X140483207Y-104435335D01*
X141194658Y-104141370D01*
X141739457Y-103597521D01*
X142034663Y-102886584D01*
X142034665Y-102883207D01*
X143164665Y-102883207D01*
X143458630Y-103594658D01*
X144002479Y-104139457D01*
X144713416Y-104434663D01*
X145483207Y-104435335D01*
X146194658Y-104141370D01*
X146739457Y-103597521D01*
X146824671Y-103392302D01*
X148790856Y-103392302D01*
X148818638Y-103947368D01*
X148977603Y-104331143D01*
X149219787Y-104400608D01*
X150020395Y-103600000D01*
X150379605Y-103600000D01*
X151180213Y-104400608D01*
X151393921Y-104339311D01*
X151414990Y-104390303D01*
X151807630Y-104783629D01*
X152320900Y-104996757D01*
X152876661Y-104997242D01*
X153390303Y-104785010D01*
X153783629Y-104392370D01*
X153996757Y-103879100D01*
X153997242Y-103323339D01*
X153785010Y-102809697D01*
X153392370Y-102416371D01*
X152879100Y-102203243D01*
X152323339Y-102202758D01*
X151809697Y-102414990D01*
X151416371Y-102807630D01*
X151394294Y-102860796D01*
X151180213Y-102799392D01*
X150379605Y-103600000D01*
X150020395Y-103600000D01*
X149219787Y-102799392D01*
X148977603Y-102868857D01*
X148790856Y-103392302D01*
X146824671Y-103392302D01*
X147034663Y-102886584D01*
X147034895Y-102619787D01*
X149399392Y-102619787D01*
X150200000Y-103420395D01*
X151000608Y-102619787D01*
X150931143Y-102377603D01*
X150407698Y-102190856D01*
X149852632Y-102218638D01*
X149468857Y-102377603D01*
X149399392Y-102619787D01*
X147034895Y-102619787D01*
X147035335Y-102116793D01*
X146741370Y-101405342D01*
X146197521Y-100860543D01*
X145486584Y-100565337D01*
X144716793Y-100564665D01*
X144005342Y-100858630D01*
X143460543Y-101402479D01*
X143165337Y-102113416D01*
X143164665Y-102883207D01*
X142034665Y-102883207D01*
X142035335Y-102116793D01*
X141741370Y-101405342D01*
X141197521Y-100860543D01*
X140486584Y-100565337D01*
X139716793Y-100564665D01*
X139005342Y-100858630D01*
X138460543Y-101402479D01*
X138165337Y-102113416D01*
X138164665Y-102883207D01*
X133585460Y-102883207D01*
X133585460Y-102222630D01*
X133488787Y-101989241D01*
X133310158Y-101810613D01*
X133278500Y-101797500D01*
X135950200Y-101797500D01*
X136185517Y-101753222D01*
X136401641Y-101614150D01*
X136546631Y-101401950D01*
X136597640Y-101150060D01*
X136597640Y-97649940D01*
X136553362Y-97414623D01*
X136414290Y-97198499D01*
X136202090Y-97053509D01*
X135950200Y-97002500D01*
X132450080Y-97002500D01*
X132214763Y-97046778D01*
X131998639Y-97185850D01*
X131853649Y-97398050D01*
X131802640Y-97649940D01*
X131802640Y-101150060D01*
X131846918Y-101385377D01*
X131985990Y-101601501D01*
X132150550Y-101713940D01*
X131486150Y-101713940D01*
X131327400Y-101872690D01*
X131073400Y-101872690D01*
X130914650Y-101713940D01*
X130248728Y-101713940D01*
X130310418Y-101688387D01*
X130489047Y-101509759D01*
X130585720Y-101276370D01*
X130585720Y-99685750D01*
X130426970Y-99527000D01*
X128327660Y-99527000D01*
X128073660Y-99527000D01*
X125974350Y-99527000D01*
X125815600Y-99685750D01*
X124710000Y-99685750D01*
X124710000Y-97523630D01*
X125815600Y-97523630D01*
X125815600Y-99114250D01*
X125974350Y-99273000D01*
X128073660Y-99273000D01*
X128073660Y-97173690D01*
X128327660Y-97173690D01*
X128327660Y-99273000D01*
X130426970Y-99273000D01*
X130585720Y-99114250D01*
X130585720Y-97523630D01*
X130489047Y-97290241D01*
X130310418Y-97111613D01*
X130077029Y-97014940D01*
X128486410Y-97014940D01*
X128327660Y-97173690D01*
X128073660Y-97173690D01*
X127914910Y-97014940D01*
X126324291Y-97014940D01*
X126090902Y-97111613D01*
X125912273Y-97290241D01*
X125815600Y-97523630D01*
X124710000Y-97523630D01*
X124710000Y-96230000D01*
X153615536Y-96230000D01*
X153721200Y-96761207D01*
X154022104Y-97211542D01*
X154453812Y-97500000D01*
X154022104Y-97788458D01*
X153721200Y-98238793D01*
X153615536Y-98770000D01*
X153721200Y-99301207D01*
X154022104Y-99751542D01*
X154472439Y-100052446D01*
X155003646Y-100158110D01*
X156596354Y-100158110D01*
X157127561Y-100052446D01*
X157577896Y-99751542D01*
X157878800Y-99301207D01*
X157984464Y-98770000D01*
X157878800Y-98238793D01*
X157577896Y-97788458D01*
X157146188Y-97500000D01*
X157577896Y-97211542D01*
X157878800Y-96761207D01*
X157984464Y-96230000D01*
X157878800Y-95698793D01*
X157577896Y-95248458D01*
X157127561Y-94947554D01*
X156596354Y-94841890D01*
X155003646Y-94841890D01*
X154472439Y-94947554D01*
X154022104Y-95248458D01*
X153721200Y-95698793D01*
X153615536Y-96230000D01*
X124710000Y-96230000D01*
X124710000Y-92280213D01*
X129999392Y-92280213D01*
X130068857Y-92522397D01*
X130592302Y-92709144D01*
X131147368Y-92681362D01*
X131531143Y-92522397D01*
X131600608Y-92280213D01*
X130800000Y-91479605D01*
X129999392Y-92280213D01*
X124710000Y-92280213D01*
X124710000Y-91092302D01*
X129390856Y-91092302D01*
X129418638Y-91647368D01*
X129577603Y-92031143D01*
X129819787Y-92100608D01*
X130620395Y-91300000D01*
X130979605Y-91300000D01*
X131780213Y-92100608D01*
X131993921Y-92039311D01*
X132014990Y-92090303D01*
X132407630Y-92483629D01*
X132920900Y-92696757D01*
X133476661Y-92697242D01*
X133990303Y-92485010D01*
X134383629Y-92092370D01*
X134596757Y-91579100D01*
X134597242Y-91023339D01*
X134385010Y-90509697D01*
X133992370Y-90116371D01*
X133479100Y-89903243D01*
X132923339Y-89902758D01*
X132409697Y-90114990D01*
X132016371Y-90507630D01*
X131994294Y-90560796D01*
X131780213Y-90499392D01*
X130979605Y-91300000D01*
X130620395Y-91300000D01*
X129819787Y-90499392D01*
X129577603Y-90568857D01*
X129390856Y-91092302D01*
X124710000Y-91092302D01*
X124710000Y-90319787D01*
X129999392Y-90319787D01*
X130800000Y-91120395D01*
X131600608Y-90319787D01*
X131531143Y-90077603D01*
X131007698Y-89890856D01*
X130452632Y-89918638D01*
X130068857Y-90077603D01*
X129999392Y-90319787D01*
X124710000Y-90319787D01*
X124710000Y-88210000D01*
X158290000Y-88210000D01*
X158290000Y-106790000D01*
X158290000Y-106790000D01*
G37*
X158290000Y-106790000D02*
X124710000Y-106790000D01*
X124710000Y-104384750D01*
X128815340Y-104384750D01*
X128815340Y-105975370D01*
X128912013Y-106208759D01*
X129090642Y-106387387D01*
X129324031Y-106484060D01*
X130914650Y-106484060D01*
X131073400Y-106325310D01*
X131073400Y-104226000D01*
X131327400Y-104226000D01*
X131327400Y-106325310D01*
X131486150Y-106484060D01*
X133076769Y-106484060D01*
X133310158Y-106387387D01*
X133488787Y-106208759D01*
X133585460Y-105975370D01*
X133585460Y-104580213D01*
X149399392Y-104580213D01*
X149468857Y-104822397D01*
X149992302Y-105009144D01*
X150547368Y-104981362D01*
X150931143Y-104822397D01*
X151000608Y-104580213D01*
X150200000Y-103779605D01*
X149399392Y-104580213D01*
X133585460Y-104580213D01*
X133585460Y-104384750D01*
X133426710Y-104226000D01*
X131327400Y-104226000D01*
X131073400Y-104226000D01*
X128974090Y-104226000D01*
X128815340Y-104384750D01*
X124710000Y-104384750D01*
X124710000Y-99685750D01*
X125815600Y-99685750D01*
X125815600Y-101276370D01*
X125912273Y-101509759D01*
X126090902Y-101688387D01*
X126324291Y-101785060D01*
X127914910Y-101785060D01*
X128073660Y-101626310D01*
X128073660Y-99527000D01*
X128327660Y-99527000D01*
X128327660Y-101626310D01*
X128486410Y-101785060D01*
X129152332Y-101785060D01*
X129090642Y-101810613D01*
X128912013Y-101989241D01*
X128815340Y-102222630D01*
X128815340Y-103813250D01*
X128974090Y-103972000D01*
X131073400Y-103972000D01*
X131073400Y-101872690D01*
X131327400Y-101872690D01*
X131327400Y-103972000D01*
X133426710Y-103972000D01*
X133585460Y-103813250D01*
X133585460Y-102883207D01*
X138164665Y-102883207D01*
X138458630Y-103594658D01*
X139002479Y-104139457D01*
X139713416Y-104434663D01*
X140483207Y-104435335D01*
X141194658Y-104141370D01*
X141739457Y-103597521D01*
X142034663Y-102886584D01*
X142034665Y-102883207D01*
X143164665Y-102883207D01*
X143458630Y-103594658D01*
X144002479Y-104139457D01*
X144713416Y-104434663D01*
X145483207Y-104435335D01*
X146194658Y-104141370D01*
X146739457Y-103597521D01*
X146824671Y-103392302D01*
X148790856Y-103392302D01*
X148818638Y-103947368D01*
X148977603Y-104331143D01*
X149219787Y-104400608D01*
X150020395Y-103600000D01*
X150379605Y-103600000D01*
X151180213Y-104400608D01*
X151393921Y-104339311D01*
X151414990Y-104390303D01*
X151807630Y-104783629D01*
X152320900Y-104996757D01*
X152876661Y-104997242D01*
X153390303Y-104785010D01*
X153783629Y-104392370D01*
X153996757Y-103879100D01*
X153997242Y-103323339D01*
X153785010Y-102809697D01*
X153392370Y-102416371D01*
X152879100Y-102203243D01*
X152323339Y-102202758D01*
X151809697Y-102414990D01*
X151416371Y-102807630D01*
X151394294Y-102860796D01*
X151180213Y-102799392D01*
X150379605Y-103600000D01*
X150020395Y-103600000D01*
X149219787Y-102799392D01*
X148977603Y-102868857D01*
X148790856Y-103392302D01*
X146824671Y-103392302D01*
X147034663Y-102886584D01*
X147034895Y-102619787D01*
X149399392Y-102619787D01*
X150200000Y-103420395D01*
X151000608Y-102619787D01*
X150931143Y-102377603D01*
X150407698Y-102190856D01*
X149852632Y-102218638D01*
X149468857Y-102377603D01*
X149399392Y-102619787D01*
X147034895Y-102619787D01*
X147035335Y-102116793D01*
X146741370Y-101405342D01*
X146197521Y-100860543D01*
X145486584Y-100565337D01*
X144716793Y-100564665D01*
X144005342Y-100858630D01*
X143460543Y-101402479D01*
X143165337Y-102113416D01*
X143164665Y-102883207D01*
X142034665Y-102883207D01*
X142035335Y-102116793D01*
X141741370Y-101405342D01*
X141197521Y-100860543D01*
X140486584Y-100565337D01*
X139716793Y-100564665D01*
X139005342Y-100858630D01*
X138460543Y-101402479D01*
X138165337Y-102113416D01*
X138164665Y-102883207D01*
X133585460Y-102883207D01*
X133585460Y-102222630D01*
X133488787Y-101989241D01*
X133310158Y-101810613D01*
X133278500Y-101797500D01*
X135950200Y-101797500D01*
X136185517Y-101753222D01*
X136401641Y-101614150D01*
X136546631Y-101401950D01*
X136597640Y-101150060D01*
X136597640Y-97649940D01*
X136553362Y-97414623D01*
X136414290Y-97198499D01*
X136202090Y-97053509D01*
X135950200Y-97002500D01*
X132450080Y-97002500D01*
X132214763Y-97046778D01*
X131998639Y-97185850D01*
X131853649Y-97398050D01*
X131802640Y-97649940D01*
X131802640Y-101150060D01*
X131846918Y-101385377D01*
X131985990Y-101601501D01*
X132150550Y-101713940D01*
X131486150Y-101713940D01*
X131327400Y-101872690D01*
X131073400Y-101872690D01*
X130914650Y-101713940D01*
X130248728Y-101713940D01*
X130310418Y-101688387D01*
X130489047Y-101509759D01*
X130585720Y-101276370D01*
X130585720Y-99685750D01*
X130426970Y-99527000D01*
X128327660Y-99527000D01*
X128073660Y-99527000D01*
X125974350Y-99527000D01*
X125815600Y-99685750D01*
X124710000Y-99685750D01*
X124710000Y-97523630D01*
X125815600Y-97523630D01*
X125815600Y-99114250D01*
X125974350Y-99273000D01*
X128073660Y-99273000D01*
X128073660Y-97173690D01*
X128327660Y-97173690D01*
X128327660Y-99273000D01*
X130426970Y-99273000D01*
X130585720Y-99114250D01*
X130585720Y-97523630D01*
X130489047Y-97290241D01*
X130310418Y-97111613D01*
X130077029Y-97014940D01*
X128486410Y-97014940D01*
X128327660Y-97173690D01*
X128073660Y-97173690D01*
X127914910Y-97014940D01*
X126324291Y-97014940D01*
X126090902Y-97111613D01*
X125912273Y-97290241D01*
X125815600Y-97523630D01*
X124710000Y-97523630D01*
X124710000Y-96230000D01*
X153615536Y-96230000D01*
X153721200Y-96761207D01*
X154022104Y-97211542D01*
X154453812Y-97500000D01*
X154022104Y-97788458D01*
X153721200Y-98238793D01*
X153615536Y-98770000D01*
X153721200Y-99301207D01*
X154022104Y-99751542D01*
X154472439Y-100052446D01*
X155003646Y-100158110D01*
X156596354Y-100158110D01*
X157127561Y-100052446D01*
X157577896Y-99751542D01*
X157878800Y-99301207D01*
X157984464Y-98770000D01*
X157878800Y-98238793D01*
X157577896Y-97788458D01*
X157146188Y-97500000D01*
X157577896Y-97211542D01*
X157878800Y-96761207D01*
X157984464Y-96230000D01*
X157878800Y-95698793D01*
X157577896Y-95248458D01*
X157127561Y-94947554D01*
X156596354Y-94841890D01*
X155003646Y-94841890D01*
X154472439Y-94947554D01*
X154022104Y-95248458D01*
X153721200Y-95698793D01*
X153615536Y-96230000D01*
X124710000Y-96230000D01*
X124710000Y-92280213D01*
X129999392Y-92280213D01*
X130068857Y-92522397D01*
X130592302Y-92709144D01*
X131147368Y-92681362D01*
X131531143Y-92522397D01*
X131600608Y-92280213D01*
X130800000Y-91479605D01*
X129999392Y-92280213D01*
X124710000Y-92280213D01*
X124710000Y-91092302D01*
X129390856Y-91092302D01*
X129418638Y-91647368D01*
X129577603Y-92031143D01*
X129819787Y-92100608D01*
X130620395Y-91300000D01*
X130979605Y-91300000D01*
X131780213Y-92100608D01*
X131993921Y-92039311D01*
X132014990Y-92090303D01*
X132407630Y-92483629D01*
X132920900Y-92696757D01*
X133476661Y-92697242D01*
X133990303Y-92485010D01*
X134383629Y-92092370D01*
X134596757Y-91579100D01*
X134597242Y-91023339D01*
X134385010Y-90509697D01*
X133992370Y-90116371D01*
X133479100Y-89903243D01*
X132923339Y-89902758D01*
X132409697Y-90114990D01*
X132016371Y-90507630D01*
X131994294Y-90560796D01*
X131780213Y-90499392D01*
X130979605Y-91300000D01*
X130620395Y-91300000D01*
X129819787Y-90499392D01*
X129577603Y-90568857D01*
X129390856Y-91092302D01*
X124710000Y-91092302D01*
X124710000Y-90319787D01*
X129999392Y-90319787D01*
X130800000Y-91120395D01*
X131600608Y-90319787D01*
X131531143Y-90077603D01*
X131007698Y-89890856D01*
X130452632Y-89918638D01*
X130068857Y-90077603D01*
X129999392Y-90319787D01*
X124710000Y-90319787D01*
X124710000Y-88210000D01*
X158290000Y-88210000D01*
X158290000Y-106790000D01*
G36*
X158290000Y-86790000D02*
X124710000Y-86790000D01*
X124710000Y-84384750D01*
X128815340Y-84384750D01*
X128815340Y-85975370D01*
X128912013Y-86208759D01*
X129090642Y-86387387D01*
X129324031Y-86484060D01*
X130914650Y-86484060D01*
X131073400Y-86325310D01*
X131073400Y-84226000D01*
X131327400Y-84226000D01*
X131327400Y-86325310D01*
X131486150Y-86484060D01*
X133076769Y-86484060D01*
X133310158Y-86387387D01*
X133488787Y-86208759D01*
X133585460Y-85975370D01*
X133585460Y-84580213D01*
X149399392Y-84580213D01*
X149468857Y-84822397D01*
X149992302Y-85009144D01*
X150547368Y-84981362D01*
X150931143Y-84822397D01*
X151000608Y-84580213D01*
X150200000Y-83779605D01*
X149399392Y-84580213D01*
X133585460Y-84580213D01*
X133585460Y-84384750D01*
X133426710Y-84226000D01*
X131327400Y-84226000D01*
X131073400Y-84226000D01*
X128974090Y-84226000D01*
X128815340Y-84384750D01*
X124710000Y-84384750D01*
X124710000Y-79685750D01*
X125815600Y-79685750D01*
X125815600Y-81276370D01*
X125912273Y-81509759D01*
X126090902Y-81688387D01*
X126324291Y-81785060D01*
X127914910Y-81785060D01*
X128073660Y-81626310D01*
X128073660Y-79527000D01*
X128327660Y-79527000D01*
X128327660Y-81626310D01*
X128486410Y-81785060D01*
X129152332Y-81785060D01*
X129090642Y-81810613D01*
X128912013Y-81989241D01*
X128815340Y-82222630D01*
X128815340Y-83813250D01*
X128974090Y-83972000D01*
X131073400Y-83972000D01*
X131073400Y-81872690D01*
X131327400Y-81872690D01*
X131327400Y-83972000D01*
X133426710Y-83972000D01*
X133585460Y-83813250D01*
X133585460Y-82883207D01*
X138164665Y-82883207D01*
X138458630Y-83594658D01*
X139002479Y-84139457D01*
X139713416Y-84434663D01*
X140483207Y-84435335D01*
X141194658Y-84141370D01*
X141739457Y-83597521D01*
X142034663Y-82886584D01*
X142034665Y-82883207D01*
X143164665Y-82883207D01*
X143458630Y-83594658D01*
X144002479Y-84139457D01*
X144713416Y-84434663D01*
X145483207Y-84435335D01*
X146194658Y-84141370D01*
X146739457Y-83597521D01*
X146824671Y-83392302D01*
X148790856Y-83392302D01*
X148818638Y-83947368D01*
X148977603Y-84331143D01*
X149219787Y-84400608D01*
X150020395Y-83600000D01*
X150379605Y-83600000D01*
X151180213Y-84400608D01*
X151393921Y-84339311D01*
X151414990Y-84390303D01*
X151807630Y-84783629D01*
X152320900Y-84996757D01*
X152876661Y-84997242D01*
X153390303Y-84785010D01*
X153783629Y-84392370D01*
X153996757Y-83879100D01*
X153997242Y-83323339D01*
X153785010Y-82809697D01*
X153392370Y-82416371D01*
X152879100Y-82203243D01*
X152323339Y-82202758D01*
X151809697Y-82414990D01*
X151416371Y-82807630D01*
X151394294Y-82860796D01*
X151180213Y-82799392D01*
X150379605Y-83600000D01*
X150020395Y-83600000D01*
X149219787Y-82799392D01*
X148977603Y-82868857D01*
X148790856Y-83392302D01*
X146824671Y-83392302D01*
X147034663Y-82886584D01*
X147034895Y-82619787D01*
X149399392Y-82619787D01*
X150200000Y-83420395D01*
X151000608Y-82619787D01*
X150931143Y-82377603D01*
X150407698Y-82190856D01*
X149852632Y-82218638D01*
X149468857Y-82377603D01*
X149399392Y-82619787D01*
X147034895Y-82619787D01*
X147035335Y-82116793D01*
X146741370Y-81405342D01*
X146197521Y-80860543D01*
X145486584Y-80565337D01*
X144716793Y-80564665D01*
X144005342Y-80858630D01*
X143460543Y-81402479D01*
X143165337Y-82113416D01*
X143164665Y-82883207D01*
X142034665Y-82883207D01*
X142035335Y-82116793D01*
X141741370Y-81405342D01*
X141197521Y-80860543D01*
X140486584Y-80565337D01*
X139716793Y-80564665D01*
X139005342Y-80858630D01*
X138460543Y-81402479D01*
X138165337Y-82113416D01*
X138164665Y-82883207D01*
X133585460Y-82883207D01*
X133585460Y-82222630D01*
X133488787Y-81989241D01*
X133310158Y-81810613D01*
X133278500Y-81797500D01*
X135950200Y-81797500D01*
X136185517Y-81753222D01*
X136401641Y-81614150D01*
X136546631Y-81401950D01*
X136597640Y-81150060D01*
X136597640Y-77649940D01*
X136553362Y-77414623D01*
X136414290Y-77198499D01*
X136202090Y-77053509D01*
X135950200Y-77002500D01*
X132450080Y-77002500D01*
X132214763Y-77046778D01*
X131998639Y-77185850D01*
X131853649Y-77398050D01*
X131802640Y-77649940D01*
X131802640Y-81150060D01*
X131846918Y-81385377D01*
X131985990Y-81601501D01*
X132150550Y-81713940D01*
X131486150Y-81713940D01*
X131327400Y-81872690D01*
X131073400Y-81872690D01*
X130914650Y-81713940D01*
X130248728Y-81713940D01*
X130310418Y-81688387D01*
X130489047Y-81509759D01*
X130585720Y-81276370D01*
X130585720Y-79685750D01*
X130426970Y-79527000D01*
X128327660Y-79527000D01*
X128073660Y-79527000D01*
X125974350Y-79527000D01*
X125815600Y-79685750D01*
X124710000Y-79685750D01*
X124710000Y-77523630D01*
X125815600Y-77523630D01*
X125815600Y-79114250D01*
X125974350Y-79273000D01*
X128073660Y-79273000D01*
X128073660Y-77173690D01*
X128327660Y-77173690D01*
X128327660Y-79273000D01*
X130426970Y-79273000D01*
X130585720Y-79114250D01*
X130585720Y-77523630D01*
X130489047Y-77290241D01*
X130310418Y-77111613D01*
X130077029Y-77014940D01*
X128486410Y-77014940D01*
X128327660Y-77173690D01*
X128073660Y-77173690D01*
X127914910Y-77014940D01*
X126324291Y-77014940D01*
X126090902Y-77111613D01*
X125912273Y-77290241D01*
X125815600Y-77523630D01*
X124710000Y-77523630D01*
X124710000Y-76230000D01*
X153615536Y-76230000D01*
X153721200Y-76761207D01*
X154022104Y-77211542D01*
X154453812Y-77500000D01*
X154022104Y-77788458D01*
X153721200Y-78238793D01*
X153615536Y-78770000D01*
X153721200Y-79301207D01*
X154022104Y-79751542D01*
X154472439Y-80052446D01*
X155003646Y-80158110D01*
X156596354Y-80158110D01*
X157127561Y-80052446D01*
X157577896Y-79751542D01*
X157878800Y-79301207D01*
X157984464Y-78770000D01*
X157878800Y-78238793D01*
X157577896Y-77788458D01*
X157146188Y-77500000D01*
X157577896Y-77211542D01*
X157878800Y-76761207D01*
X157984464Y-76230000D01*
X157878800Y-75698793D01*
X157577896Y-75248458D01*
X157127561Y-74947554D01*
X156596354Y-74841890D01*
X155003646Y-74841890D01*
X154472439Y-74947554D01*
X154022104Y-75248458D01*
X153721200Y-75698793D01*
X153615536Y-76230000D01*
X124710000Y-76230000D01*
X124710000Y-72280213D01*
X129999392Y-72280213D01*
X130068857Y-72522397D01*
X130592302Y-72709144D01*
X131147368Y-72681362D01*
X131531143Y-72522397D01*
X131600608Y-72280213D01*
X130800000Y-71479605D01*
X129999392Y-72280213D01*
X124710000Y-72280213D01*
X124710000Y-71092302D01*
X129390856Y-71092302D01*
X129418638Y-71647368D01*
X129577603Y-72031143D01*
X129819787Y-72100608D01*
X130620395Y-71300000D01*
X130979605Y-71300000D01*
X131780213Y-72100608D01*
X131993921Y-72039311D01*
X132014990Y-72090303D01*
X132407630Y-72483629D01*
X132920900Y-72696757D01*
X133476661Y-72697242D01*
X133990303Y-72485010D01*
X134383629Y-72092370D01*
X134596757Y-71579100D01*
X134597242Y-71023339D01*
X134385010Y-70509697D01*
X133992370Y-70116371D01*
X133479100Y-69903243D01*
X132923339Y-69902758D01*
X132409697Y-70114990D01*
X132016371Y-70507630D01*
X131994294Y-70560796D01*
X131780213Y-70499392D01*
X130979605Y-71300000D01*
X130620395Y-71300000D01*
X129819787Y-70499392D01*
X129577603Y-70568857D01*
X129390856Y-71092302D01*
X124710000Y-71092302D01*
X124710000Y-70319787D01*
X129999392Y-70319787D01*
X130800000Y-71120395D01*
X131600608Y-70319787D01*
X131531143Y-70077603D01*
X131007698Y-69890856D01*
X130452632Y-69918638D01*
X130068857Y-70077603D01*
X129999392Y-70319787D01*
X124710000Y-70319787D01*
X124710000Y-68210000D01*
X158290000Y-68210000D01*
X158290000Y-86790000D01*
X158290000Y-86790000D01*
G37*
X158290000Y-86790000D02*
X124710000Y-86790000D01*
X124710000Y-84384750D01*
X128815340Y-84384750D01*
X128815340Y-85975370D01*
X128912013Y-86208759D01*
X129090642Y-86387387D01*
X129324031Y-86484060D01*
X130914650Y-86484060D01*
X131073400Y-86325310D01*
X131073400Y-84226000D01*
X131327400Y-84226000D01*
X131327400Y-86325310D01*
X131486150Y-86484060D01*
X133076769Y-86484060D01*
X133310158Y-86387387D01*
X133488787Y-86208759D01*
X133585460Y-85975370D01*
X133585460Y-84580213D01*
X149399392Y-84580213D01*
X149468857Y-84822397D01*
X149992302Y-85009144D01*
X150547368Y-84981362D01*
X150931143Y-84822397D01*
X151000608Y-84580213D01*
X150200000Y-83779605D01*
X149399392Y-84580213D01*
X133585460Y-84580213D01*
X133585460Y-84384750D01*
X133426710Y-84226000D01*
X131327400Y-84226000D01*
X131073400Y-84226000D01*
X128974090Y-84226000D01*
X128815340Y-84384750D01*
X124710000Y-84384750D01*
X124710000Y-79685750D01*
X125815600Y-79685750D01*
X125815600Y-81276370D01*
X125912273Y-81509759D01*
X126090902Y-81688387D01*
X126324291Y-81785060D01*
X127914910Y-81785060D01*
X128073660Y-81626310D01*
X128073660Y-79527000D01*
X128327660Y-79527000D01*
X128327660Y-81626310D01*
X128486410Y-81785060D01*
X129152332Y-81785060D01*
X129090642Y-81810613D01*
X128912013Y-81989241D01*
X128815340Y-82222630D01*
X128815340Y-83813250D01*
X128974090Y-83972000D01*
X131073400Y-83972000D01*
X131073400Y-81872690D01*
X131327400Y-81872690D01*
X131327400Y-83972000D01*
X133426710Y-83972000D01*
X133585460Y-83813250D01*
X133585460Y-82883207D01*
X138164665Y-82883207D01*
X138458630Y-83594658D01*
X139002479Y-84139457D01*
X139713416Y-84434663D01*
X140483207Y-84435335D01*
X141194658Y-84141370D01*
X141739457Y-83597521D01*
X142034663Y-82886584D01*
X142034665Y-82883207D01*
X143164665Y-82883207D01*
X143458630Y-83594658D01*
X144002479Y-84139457D01*
X144713416Y-84434663D01*
X145483207Y-84435335D01*
X146194658Y-84141370D01*
X146739457Y-83597521D01*
X146824671Y-83392302D01*
X148790856Y-83392302D01*
X148818638Y-83947368D01*
X148977603Y-84331143D01*
X149219787Y-84400608D01*
X150020395Y-83600000D01*
X150379605Y-83600000D01*
X151180213Y-84400608D01*
X151393921Y-84339311D01*
X151414990Y-84390303D01*
X151807630Y-84783629D01*
X152320900Y-84996757D01*
X152876661Y-84997242D01*
X153390303Y-84785010D01*
X153783629Y-84392370D01*
X153996757Y-83879100D01*
X153997242Y-83323339D01*
X153785010Y-82809697D01*
X153392370Y-82416371D01*
X152879100Y-82203243D01*
X152323339Y-82202758D01*
X151809697Y-82414990D01*
X151416371Y-82807630D01*
X151394294Y-82860796D01*
X151180213Y-82799392D01*
X150379605Y-83600000D01*
X150020395Y-83600000D01*
X149219787Y-82799392D01*
X148977603Y-82868857D01*
X148790856Y-83392302D01*
X146824671Y-83392302D01*
X147034663Y-82886584D01*
X147034895Y-82619787D01*
X149399392Y-82619787D01*
X150200000Y-83420395D01*
X151000608Y-82619787D01*
X150931143Y-82377603D01*
X150407698Y-82190856D01*
X149852632Y-82218638D01*
X149468857Y-82377603D01*
X149399392Y-82619787D01*
X147034895Y-82619787D01*
X147035335Y-82116793D01*
X146741370Y-81405342D01*
X146197521Y-80860543D01*
X145486584Y-80565337D01*
X144716793Y-80564665D01*
X144005342Y-80858630D01*
X143460543Y-81402479D01*
X143165337Y-82113416D01*
X143164665Y-82883207D01*
X142034665Y-82883207D01*
X142035335Y-82116793D01*
X141741370Y-81405342D01*
X141197521Y-80860543D01*
X140486584Y-80565337D01*
X139716793Y-80564665D01*
X139005342Y-80858630D01*
X138460543Y-81402479D01*
X138165337Y-82113416D01*
X138164665Y-82883207D01*
X133585460Y-82883207D01*
X133585460Y-82222630D01*
X133488787Y-81989241D01*
X133310158Y-81810613D01*
X133278500Y-81797500D01*
X135950200Y-81797500D01*
X136185517Y-81753222D01*
X136401641Y-81614150D01*
X136546631Y-81401950D01*
X136597640Y-81150060D01*
X136597640Y-77649940D01*
X136553362Y-77414623D01*
X136414290Y-77198499D01*
X136202090Y-77053509D01*
X135950200Y-77002500D01*
X132450080Y-77002500D01*
X132214763Y-77046778D01*
X131998639Y-77185850D01*
X131853649Y-77398050D01*
X131802640Y-77649940D01*
X131802640Y-81150060D01*
X131846918Y-81385377D01*
X131985990Y-81601501D01*
X132150550Y-81713940D01*
X131486150Y-81713940D01*
X131327400Y-81872690D01*
X131073400Y-81872690D01*
X130914650Y-81713940D01*
X130248728Y-81713940D01*
X130310418Y-81688387D01*
X130489047Y-81509759D01*
X130585720Y-81276370D01*
X130585720Y-79685750D01*
X130426970Y-79527000D01*
X128327660Y-79527000D01*
X128073660Y-79527000D01*
X125974350Y-79527000D01*
X125815600Y-79685750D01*
X124710000Y-79685750D01*
X124710000Y-77523630D01*
X125815600Y-77523630D01*
X125815600Y-79114250D01*
X125974350Y-79273000D01*
X128073660Y-79273000D01*
X128073660Y-77173690D01*
X128327660Y-77173690D01*
X128327660Y-79273000D01*
X130426970Y-79273000D01*
X130585720Y-79114250D01*
X130585720Y-77523630D01*
X130489047Y-77290241D01*
X130310418Y-77111613D01*
X130077029Y-77014940D01*
X128486410Y-77014940D01*
X128327660Y-77173690D01*
X128073660Y-77173690D01*
X127914910Y-77014940D01*
X126324291Y-77014940D01*
X126090902Y-77111613D01*
X125912273Y-77290241D01*
X125815600Y-77523630D01*
X124710000Y-77523630D01*
X124710000Y-76230000D01*
X153615536Y-76230000D01*
X153721200Y-76761207D01*
X154022104Y-77211542D01*
X154453812Y-77500000D01*
X154022104Y-77788458D01*
X153721200Y-78238793D01*
X153615536Y-78770000D01*
X153721200Y-79301207D01*
X154022104Y-79751542D01*
X154472439Y-80052446D01*
X155003646Y-80158110D01*
X156596354Y-80158110D01*
X157127561Y-80052446D01*
X157577896Y-79751542D01*
X157878800Y-79301207D01*
X157984464Y-78770000D01*
X157878800Y-78238793D01*
X157577896Y-77788458D01*
X157146188Y-77500000D01*
X157577896Y-77211542D01*
X157878800Y-76761207D01*
X157984464Y-76230000D01*
X157878800Y-75698793D01*
X157577896Y-75248458D01*
X157127561Y-74947554D01*
X156596354Y-74841890D01*
X155003646Y-74841890D01*
X154472439Y-74947554D01*
X154022104Y-75248458D01*
X153721200Y-75698793D01*
X153615536Y-76230000D01*
X124710000Y-76230000D01*
X124710000Y-72280213D01*
X129999392Y-72280213D01*
X130068857Y-72522397D01*
X130592302Y-72709144D01*
X131147368Y-72681362D01*
X131531143Y-72522397D01*
X131600608Y-72280213D01*
X130800000Y-71479605D01*
X129999392Y-72280213D01*
X124710000Y-72280213D01*
X124710000Y-71092302D01*
X129390856Y-71092302D01*
X129418638Y-71647368D01*
X129577603Y-72031143D01*
X129819787Y-72100608D01*
X130620395Y-71300000D01*
X130979605Y-71300000D01*
X131780213Y-72100608D01*
X131993921Y-72039311D01*
X132014990Y-72090303D01*
X132407630Y-72483629D01*
X132920900Y-72696757D01*
X133476661Y-72697242D01*
X133990303Y-72485010D01*
X134383629Y-72092370D01*
X134596757Y-71579100D01*
X134597242Y-71023339D01*
X134385010Y-70509697D01*
X133992370Y-70116371D01*
X133479100Y-69903243D01*
X132923339Y-69902758D01*
X132409697Y-70114990D01*
X132016371Y-70507630D01*
X131994294Y-70560796D01*
X131780213Y-70499392D01*
X130979605Y-71300000D01*
X130620395Y-71300000D01*
X129819787Y-70499392D01*
X129577603Y-70568857D01*
X129390856Y-71092302D01*
X124710000Y-71092302D01*
X124710000Y-70319787D01*
X129999392Y-70319787D01*
X130800000Y-71120395D01*
X131600608Y-70319787D01*
X131531143Y-70077603D01*
X131007698Y-69890856D01*
X130452632Y-69918638D01*
X130068857Y-70077603D01*
X129999392Y-70319787D01*
X124710000Y-70319787D01*
X124710000Y-68210000D01*
X158290000Y-68210000D01*
X158290000Y-86790000D01*
G36*
X159710000Y-68210000D02*
X193290000Y-68210000D01*
X193290000Y-70615250D01*
X189184660Y-70615250D01*
X189184660Y-69024630D01*
X189087987Y-68791241D01*
X188909358Y-68612613D01*
X188675969Y-68515940D01*
X187085350Y-68515940D01*
X186926600Y-68674690D01*
X186926600Y-70774000D01*
X186672600Y-70774000D01*
X186672600Y-68674690D01*
X186513850Y-68515940D01*
X184923231Y-68515940D01*
X184689842Y-68612613D01*
X184511213Y-68791241D01*
X184414540Y-69024630D01*
X184414540Y-70419787D01*
X168600608Y-70419787D01*
X168531143Y-70177603D01*
X168007698Y-69990856D01*
X167452632Y-70018638D01*
X167068857Y-70177603D01*
X166999392Y-70419787D01*
X167800000Y-71220395D01*
X168600608Y-70419787D01*
X184414540Y-70419787D01*
X184414540Y-70615250D01*
X184573290Y-70774000D01*
X186672600Y-70774000D01*
X186926600Y-70774000D01*
X189025910Y-70774000D01*
X189184660Y-70615250D01*
X193290000Y-70615250D01*
X193290000Y-75314250D01*
X192184400Y-75314250D01*
X192184400Y-73723630D01*
X192087727Y-73490241D01*
X191909098Y-73311613D01*
X191675709Y-73214940D01*
X190085090Y-73214940D01*
X189926340Y-73373690D01*
X189926340Y-75473000D01*
X189672340Y-75473000D01*
X189672340Y-73373690D01*
X189513590Y-73214940D01*
X188847668Y-73214940D01*
X188909358Y-73189387D01*
X189087987Y-73010759D01*
X189184660Y-72777370D01*
X189184660Y-71186750D01*
X189025910Y-71028000D01*
X186926600Y-71028000D01*
X186926600Y-73127310D01*
X186672600Y-73127310D01*
X186672600Y-71028000D01*
X184573290Y-71028000D01*
X184414540Y-71186750D01*
X184414540Y-72116793D01*
X179835335Y-72116793D01*
X179541370Y-71405342D01*
X178997521Y-70860543D01*
X178286584Y-70565337D01*
X177516793Y-70564665D01*
X176805342Y-70858630D01*
X176260543Y-71402479D01*
X175965337Y-72113416D01*
X175965335Y-72116793D01*
X174835335Y-72116793D01*
X174541370Y-71405342D01*
X173997521Y-70860543D01*
X173286584Y-70565337D01*
X172516793Y-70564665D01*
X171805342Y-70858630D01*
X171260543Y-71402479D01*
X171175329Y-71607698D01*
X169209144Y-71607698D01*
X169181362Y-71052632D01*
X169022397Y-70668857D01*
X168780213Y-70599392D01*
X167979605Y-71400000D01*
X167620395Y-71400000D01*
X166819787Y-70599392D01*
X166606079Y-70660689D01*
X166585010Y-70609697D01*
X166192370Y-70216371D01*
X165679100Y-70003243D01*
X165123339Y-70002758D01*
X164609697Y-70214990D01*
X164216371Y-70607630D01*
X164003243Y-71120900D01*
X164002758Y-71676661D01*
X164214990Y-72190303D01*
X164607630Y-72583629D01*
X165120900Y-72796757D01*
X165676661Y-72797242D01*
X166190303Y-72585010D01*
X166583629Y-72192370D01*
X166605706Y-72139204D01*
X166819787Y-72200608D01*
X167620395Y-71400000D01*
X167979605Y-71400000D01*
X168780213Y-72200608D01*
X169022397Y-72131143D01*
X169209144Y-71607698D01*
X171175329Y-71607698D01*
X170965337Y-72113416D01*
X170965105Y-72380213D01*
X168600608Y-72380213D01*
X167800000Y-71579605D01*
X166999392Y-72380213D01*
X167068857Y-72622397D01*
X167592302Y-72809144D01*
X168147368Y-72781362D01*
X168531143Y-72622397D01*
X168600608Y-72380213D01*
X170965105Y-72380213D01*
X170964665Y-72883207D01*
X171258630Y-73594658D01*
X171802479Y-74139457D01*
X172513416Y-74434663D01*
X173283207Y-74435335D01*
X173994658Y-74141370D01*
X174539457Y-73597521D01*
X174834663Y-72886584D01*
X174835335Y-72116793D01*
X175965335Y-72116793D01*
X175964665Y-72883207D01*
X176258630Y-73594658D01*
X176802479Y-74139457D01*
X177513416Y-74434663D01*
X178283207Y-74435335D01*
X178994658Y-74141370D01*
X179539457Y-73597521D01*
X179834663Y-72886584D01*
X179835335Y-72116793D01*
X184414540Y-72116793D01*
X184414540Y-72777370D01*
X184511213Y-73010759D01*
X184689842Y-73189387D01*
X184721500Y-73202500D01*
X182049800Y-73202500D01*
X181814483Y-73246778D01*
X181598359Y-73385850D01*
X181453369Y-73598050D01*
X181402360Y-73849940D01*
X181402360Y-77350060D01*
X181446638Y-77585377D01*
X181585710Y-77801501D01*
X181797910Y-77946491D01*
X182049800Y-77997500D01*
X185549920Y-77997500D01*
X185785237Y-77953222D01*
X186001361Y-77814150D01*
X186146351Y-77601950D01*
X186197360Y-77350060D01*
X186197360Y-73849940D01*
X186153082Y-73614623D01*
X186014010Y-73398499D01*
X185849450Y-73286060D01*
X186513850Y-73286060D01*
X186672600Y-73127310D01*
X186926600Y-73127310D01*
X187085350Y-73286060D01*
X187751272Y-73286060D01*
X187689582Y-73311613D01*
X187510953Y-73490241D01*
X187414280Y-73723630D01*
X187414280Y-75314250D01*
X187573030Y-75473000D01*
X189672340Y-75473000D01*
X189926340Y-75473000D01*
X192025650Y-75473000D01*
X192184400Y-75314250D01*
X193290000Y-75314250D01*
X193290000Y-77476370D01*
X192184400Y-77476370D01*
X192184400Y-75885750D01*
X192025650Y-75727000D01*
X189926340Y-75727000D01*
X189926340Y-77826310D01*
X189672340Y-77826310D01*
X189672340Y-75727000D01*
X187573030Y-75727000D01*
X187414280Y-75885750D01*
X187414280Y-77476370D01*
X187510953Y-77709759D01*
X187689582Y-77888387D01*
X187922971Y-77985060D01*
X189513590Y-77985060D01*
X189672340Y-77826310D01*
X189926340Y-77826310D01*
X190085090Y-77985060D01*
X191675709Y-77985060D01*
X191909098Y-77888387D01*
X192087727Y-77709759D01*
X192184400Y-77476370D01*
X193290000Y-77476370D01*
X193290000Y-78770000D01*
X164384464Y-78770000D01*
X164278800Y-78238793D01*
X163977896Y-77788458D01*
X163546188Y-77500000D01*
X163977896Y-77211542D01*
X164278800Y-76761207D01*
X164384464Y-76230000D01*
X164278800Y-75698793D01*
X163977896Y-75248458D01*
X163527561Y-74947554D01*
X162996354Y-74841890D01*
X161403646Y-74841890D01*
X160872439Y-74947554D01*
X160422104Y-75248458D01*
X160121200Y-75698793D01*
X160015536Y-76230000D01*
X160121200Y-76761207D01*
X160422104Y-77211542D01*
X160853812Y-77500000D01*
X160422104Y-77788458D01*
X160121200Y-78238793D01*
X160015536Y-78770000D01*
X160121200Y-79301207D01*
X160422104Y-79751542D01*
X160872439Y-80052446D01*
X161403646Y-80158110D01*
X162996354Y-80158110D01*
X163527561Y-80052446D01*
X163977896Y-79751542D01*
X164278800Y-79301207D01*
X164384464Y-78770000D01*
X193290000Y-78770000D01*
X193290000Y-82719787D01*
X188000608Y-82719787D01*
X187931143Y-82477603D01*
X187407698Y-82290856D01*
X186852632Y-82318638D01*
X186468857Y-82477603D01*
X186399392Y-82719787D01*
X187200000Y-83520395D01*
X188000608Y-82719787D01*
X193290000Y-82719787D01*
X193290000Y-83907698D01*
X188609144Y-83907698D01*
X188581362Y-83352632D01*
X188422397Y-82968857D01*
X188180213Y-82899392D01*
X187379605Y-83700000D01*
X187020395Y-83700000D01*
X186219787Y-82899392D01*
X186006079Y-82960689D01*
X185985010Y-82909697D01*
X185592370Y-82516371D01*
X185079100Y-82303243D01*
X184523339Y-82302758D01*
X184009697Y-82514990D01*
X183616371Y-82907630D01*
X183403243Y-83420900D01*
X183402758Y-83976661D01*
X183614990Y-84490303D01*
X184007630Y-84883629D01*
X184520900Y-85096757D01*
X185076661Y-85097242D01*
X185590303Y-84885010D01*
X185983629Y-84492370D01*
X186005706Y-84439204D01*
X186219787Y-84500608D01*
X187020395Y-83700000D01*
X187379605Y-83700000D01*
X188180213Y-84500608D01*
X188422397Y-84431143D01*
X188609144Y-83907698D01*
X193290000Y-83907698D01*
X193290000Y-84680213D01*
X188000608Y-84680213D01*
X187200000Y-83879605D01*
X186399392Y-84680213D01*
X186468857Y-84922397D01*
X186992302Y-85109144D01*
X187547368Y-85081362D01*
X187931143Y-84922397D01*
X188000608Y-84680213D01*
X193290000Y-84680213D01*
X193290000Y-86790000D01*
X159710000Y-86790000D01*
X159710000Y-68210000D01*
X159710000Y-68210000D01*
G37*
X159710000Y-68210000D02*
X193290000Y-68210000D01*
X193290000Y-70615250D01*
X189184660Y-70615250D01*
X189184660Y-69024630D01*
X189087987Y-68791241D01*
X188909358Y-68612613D01*
X188675969Y-68515940D01*
X187085350Y-68515940D01*
X186926600Y-68674690D01*
X186926600Y-70774000D01*
X186672600Y-70774000D01*
X186672600Y-68674690D01*
X186513850Y-68515940D01*
X184923231Y-68515940D01*
X184689842Y-68612613D01*
X184511213Y-68791241D01*
X184414540Y-69024630D01*
X184414540Y-70419787D01*
X168600608Y-70419787D01*
X168531143Y-70177603D01*
X168007698Y-69990856D01*
X167452632Y-70018638D01*
X167068857Y-70177603D01*
X166999392Y-70419787D01*
X167800000Y-71220395D01*
X168600608Y-70419787D01*
X184414540Y-70419787D01*
X184414540Y-70615250D01*
X184573290Y-70774000D01*
X186672600Y-70774000D01*
X186926600Y-70774000D01*
X189025910Y-70774000D01*
X189184660Y-70615250D01*
X193290000Y-70615250D01*
X193290000Y-75314250D01*
X192184400Y-75314250D01*
X192184400Y-73723630D01*
X192087727Y-73490241D01*
X191909098Y-73311613D01*
X191675709Y-73214940D01*
X190085090Y-73214940D01*
X189926340Y-73373690D01*
X189926340Y-75473000D01*
X189672340Y-75473000D01*
X189672340Y-73373690D01*
X189513590Y-73214940D01*
X188847668Y-73214940D01*
X188909358Y-73189387D01*
X189087987Y-73010759D01*
X189184660Y-72777370D01*
X189184660Y-71186750D01*
X189025910Y-71028000D01*
X186926600Y-71028000D01*
X186926600Y-73127310D01*
X186672600Y-73127310D01*
X186672600Y-71028000D01*
X184573290Y-71028000D01*
X184414540Y-71186750D01*
X184414540Y-72116793D01*
X179835335Y-72116793D01*
X179541370Y-71405342D01*
X178997521Y-70860543D01*
X178286584Y-70565337D01*
X177516793Y-70564665D01*
X176805342Y-70858630D01*
X176260543Y-71402479D01*
X175965337Y-72113416D01*
X175965335Y-72116793D01*
X174835335Y-72116793D01*
X174541370Y-71405342D01*
X173997521Y-70860543D01*
X173286584Y-70565337D01*
X172516793Y-70564665D01*
X171805342Y-70858630D01*
X171260543Y-71402479D01*
X171175329Y-71607698D01*
X169209144Y-71607698D01*
X169181362Y-71052632D01*
X169022397Y-70668857D01*
X168780213Y-70599392D01*
X167979605Y-71400000D01*
X167620395Y-71400000D01*
X166819787Y-70599392D01*
X166606079Y-70660689D01*
X166585010Y-70609697D01*
X166192370Y-70216371D01*
X165679100Y-70003243D01*
X165123339Y-70002758D01*
X164609697Y-70214990D01*
X164216371Y-70607630D01*
X164003243Y-71120900D01*
X164002758Y-71676661D01*
X164214990Y-72190303D01*
X164607630Y-72583629D01*
X165120900Y-72796757D01*
X165676661Y-72797242D01*
X166190303Y-72585010D01*
X166583629Y-72192370D01*
X166605706Y-72139204D01*
X166819787Y-72200608D01*
X167620395Y-71400000D01*
X167979605Y-71400000D01*
X168780213Y-72200608D01*
X169022397Y-72131143D01*
X169209144Y-71607698D01*
X171175329Y-71607698D01*
X170965337Y-72113416D01*
X170965105Y-72380213D01*
X168600608Y-72380213D01*
X167800000Y-71579605D01*
X166999392Y-72380213D01*
X167068857Y-72622397D01*
X167592302Y-72809144D01*
X168147368Y-72781362D01*
X168531143Y-72622397D01*
X168600608Y-72380213D01*
X170965105Y-72380213D01*
X170964665Y-72883207D01*
X171258630Y-73594658D01*
X171802479Y-74139457D01*
X172513416Y-74434663D01*
X173283207Y-74435335D01*
X173994658Y-74141370D01*
X174539457Y-73597521D01*
X174834663Y-72886584D01*
X174835335Y-72116793D01*
X175965335Y-72116793D01*
X175964665Y-72883207D01*
X176258630Y-73594658D01*
X176802479Y-74139457D01*
X177513416Y-74434663D01*
X178283207Y-74435335D01*
X178994658Y-74141370D01*
X179539457Y-73597521D01*
X179834663Y-72886584D01*
X179835335Y-72116793D01*
X184414540Y-72116793D01*
X184414540Y-72777370D01*
X184511213Y-73010759D01*
X184689842Y-73189387D01*
X184721500Y-73202500D01*
X182049800Y-73202500D01*
X181814483Y-73246778D01*
X181598359Y-73385850D01*
X181453369Y-73598050D01*
X181402360Y-73849940D01*
X181402360Y-77350060D01*
X181446638Y-77585377D01*
X181585710Y-77801501D01*
X181797910Y-77946491D01*
X182049800Y-77997500D01*
X185549920Y-77997500D01*
X185785237Y-77953222D01*
X186001361Y-77814150D01*
X186146351Y-77601950D01*
X186197360Y-77350060D01*
X186197360Y-73849940D01*
X186153082Y-73614623D01*
X186014010Y-73398499D01*
X185849450Y-73286060D01*
X186513850Y-73286060D01*
X186672600Y-73127310D01*
X186926600Y-73127310D01*
X187085350Y-73286060D01*
X187751272Y-73286060D01*
X187689582Y-73311613D01*
X187510953Y-73490241D01*
X187414280Y-73723630D01*
X187414280Y-75314250D01*
X187573030Y-75473000D01*
X189672340Y-75473000D01*
X189926340Y-75473000D01*
X192025650Y-75473000D01*
X192184400Y-75314250D01*
X193290000Y-75314250D01*
X193290000Y-77476370D01*
X192184400Y-77476370D01*
X192184400Y-75885750D01*
X192025650Y-75727000D01*
X189926340Y-75727000D01*
X189926340Y-77826310D01*
X189672340Y-77826310D01*
X189672340Y-75727000D01*
X187573030Y-75727000D01*
X187414280Y-75885750D01*
X187414280Y-77476370D01*
X187510953Y-77709759D01*
X187689582Y-77888387D01*
X187922971Y-77985060D01*
X189513590Y-77985060D01*
X189672340Y-77826310D01*
X189926340Y-77826310D01*
X190085090Y-77985060D01*
X191675709Y-77985060D01*
X191909098Y-77888387D01*
X192087727Y-77709759D01*
X192184400Y-77476370D01*
X193290000Y-77476370D01*
X193290000Y-78770000D01*
X164384464Y-78770000D01*
X164278800Y-78238793D01*
X163977896Y-77788458D01*
X163546188Y-77500000D01*
X163977896Y-77211542D01*
X164278800Y-76761207D01*
X164384464Y-76230000D01*
X164278800Y-75698793D01*
X163977896Y-75248458D01*
X163527561Y-74947554D01*
X162996354Y-74841890D01*
X161403646Y-74841890D01*
X160872439Y-74947554D01*
X160422104Y-75248458D01*
X160121200Y-75698793D01*
X160015536Y-76230000D01*
X160121200Y-76761207D01*
X160422104Y-77211542D01*
X160853812Y-77500000D01*
X160422104Y-77788458D01*
X160121200Y-78238793D01*
X160015536Y-78770000D01*
X160121200Y-79301207D01*
X160422104Y-79751542D01*
X160872439Y-80052446D01*
X161403646Y-80158110D01*
X162996354Y-80158110D01*
X163527561Y-80052446D01*
X163977896Y-79751542D01*
X164278800Y-79301207D01*
X164384464Y-78770000D01*
X193290000Y-78770000D01*
X193290000Y-82719787D01*
X188000608Y-82719787D01*
X187931143Y-82477603D01*
X187407698Y-82290856D01*
X186852632Y-82318638D01*
X186468857Y-82477603D01*
X186399392Y-82719787D01*
X187200000Y-83520395D01*
X188000608Y-82719787D01*
X193290000Y-82719787D01*
X193290000Y-83907698D01*
X188609144Y-83907698D01*
X188581362Y-83352632D01*
X188422397Y-82968857D01*
X188180213Y-82899392D01*
X187379605Y-83700000D01*
X187020395Y-83700000D01*
X186219787Y-82899392D01*
X186006079Y-82960689D01*
X185985010Y-82909697D01*
X185592370Y-82516371D01*
X185079100Y-82303243D01*
X184523339Y-82302758D01*
X184009697Y-82514990D01*
X183616371Y-82907630D01*
X183403243Y-83420900D01*
X183402758Y-83976661D01*
X183614990Y-84490303D01*
X184007630Y-84883629D01*
X184520900Y-85096757D01*
X185076661Y-85097242D01*
X185590303Y-84885010D01*
X185983629Y-84492370D01*
X186005706Y-84439204D01*
X186219787Y-84500608D01*
X187020395Y-83700000D01*
X187379605Y-83700000D01*
X188180213Y-84500608D01*
X188422397Y-84431143D01*
X188609144Y-83907698D01*
X193290000Y-83907698D01*
X193290000Y-84680213D01*
X188000608Y-84680213D01*
X187200000Y-83879605D01*
X186399392Y-84680213D01*
X186468857Y-84922397D01*
X186992302Y-85109144D01*
X187547368Y-85081362D01*
X187931143Y-84922397D01*
X188000608Y-84680213D01*
X193290000Y-84680213D01*
X193290000Y-86790000D01*
X159710000Y-86790000D01*
X159710000Y-68210000D01*
G36*
X159710000Y-88210000D02*
X193290000Y-88210000D01*
X193290000Y-90615250D01*
X189184660Y-90615250D01*
X189184660Y-89024630D01*
X189087987Y-88791241D01*
X188909358Y-88612613D01*
X188675969Y-88515940D01*
X187085350Y-88515940D01*
X186926600Y-88674690D01*
X186926600Y-90774000D01*
X186672600Y-90774000D01*
X186672600Y-88674690D01*
X186513850Y-88515940D01*
X184923231Y-88515940D01*
X184689842Y-88612613D01*
X184511213Y-88791241D01*
X184414540Y-89024630D01*
X184414540Y-90419787D01*
X168600608Y-90419787D01*
X168531143Y-90177603D01*
X168007698Y-89990856D01*
X167452632Y-90018638D01*
X167068857Y-90177603D01*
X166999392Y-90419787D01*
X167800000Y-91220395D01*
X168600608Y-90419787D01*
X184414540Y-90419787D01*
X184414540Y-90615250D01*
X184573290Y-90774000D01*
X186672600Y-90774000D01*
X186926600Y-90774000D01*
X189025910Y-90774000D01*
X189184660Y-90615250D01*
X193290000Y-90615250D01*
X193290000Y-95314250D01*
X192184400Y-95314250D01*
X192184400Y-93723630D01*
X192087727Y-93490241D01*
X191909098Y-93311613D01*
X191675709Y-93214940D01*
X190085090Y-93214940D01*
X189926340Y-93373690D01*
X189926340Y-95473000D01*
X189672340Y-95473000D01*
X189672340Y-93373690D01*
X189513590Y-93214940D01*
X188847668Y-93214940D01*
X188909358Y-93189387D01*
X189087987Y-93010759D01*
X189184660Y-92777370D01*
X189184660Y-91186750D01*
X189025910Y-91028000D01*
X186926600Y-91028000D01*
X186926600Y-93127310D01*
X186672600Y-93127310D01*
X186672600Y-91028000D01*
X184573290Y-91028000D01*
X184414540Y-91186750D01*
X184414540Y-92116793D01*
X179835335Y-92116793D01*
X179541370Y-91405342D01*
X178997521Y-90860543D01*
X178286584Y-90565337D01*
X177516793Y-90564665D01*
X176805342Y-90858630D01*
X176260543Y-91402479D01*
X175965337Y-92113416D01*
X175965335Y-92116793D01*
X174835335Y-92116793D01*
X174541370Y-91405342D01*
X173997521Y-90860543D01*
X173286584Y-90565337D01*
X172516793Y-90564665D01*
X171805342Y-90858630D01*
X171260543Y-91402479D01*
X171175329Y-91607698D01*
X169209144Y-91607698D01*
X169181362Y-91052632D01*
X169022397Y-90668857D01*
X168780213Y-90599392D01*
X167979605Y-91400000D01*
X167620395Y-91400000D01*
X166819787Y-90599392D01*
X166606079Y-90660689D01*
X166585010Y-90609697D01*
X166192370Y-90216371D01*
X165679100Y-90003243D01*
X165123339Y-90002758D01*
X164609697Y-90214990D01*
X164216371Y-90607630D01*
X164003243Y-91120900D01*
X164002758Y-91676661D01*
X164214990Y-92190303D01*
X164607630Y-92583629D01*
X165120900Y-92796757D01*
X165676661Y-92797242D01*
X166190303Y-92585010D01*
X166583629Y-92192370D01*
X166605706Y-92139204D01*
X166819787Y-92200608D01*
X167620395Y-91400000D01*
X167979605Y-91400000D01*
X168780213Y-92200608D01*
X169022397Y-92131143D01*
X169209144Y-91607698D01*
X171175329Y-91607698D01*
X170965337Y-92113416D01*
X170965105Y-92380213D01*
X168600608Y-92380213D01*
X167800000Y-91579605D01*
X166999392Y-92380213D01*
X167068857Y-92622397D01*
X167592302Y-92809144D01*
X168147368Y-92781362D01*
X168531143Y-92622397D01*
X168600608Y-92380213D01*
X170965105Y-92380213D01*
X170964665Y-92883207D01*
X171258630Y-93594658D01*
X171802479Y-94139457D01*
X172513416Y-94434663D01*
X173283207Y-94435335D01*
X173994658Y-94141370D01*
X174539457Y-93597521D01*
X174834663Y-92886584D01*
X174835335Y-92116793D01*
X175965335Y-92116793D01*
X175964665Y-92883207D01*
X176258630Y-93594658D01*
X176802479Y-94139457D01*
X177513416Y-94434663D01*
X178283207Y-94435335D01*
X178994658Y-94141370D01*
X179539457Y-93597521D01*
X179834663Y-92886584D01*
X179835335Y-92116793D01*
X184414540Y-92116793D01*
X184414540Y-92777370D01*
X184511213Y-93010759D01*
X184689842Y-93189387D01*
X184721500Y-93202500D01*
X182049800Y-93202500D01*
X181814483Y-93246778D01*
X181598359Y-93385850D01*
X181453369Y-93598050D01*
X181402360Y-93849940D01*
X181402360Y-97350060D01*
X181446638Y-97585377D01*
X181585710Y-97801501D01*
X181797910Y-97946491D01*
X182049800Y-97997500D01*
X185549920Y-97997500D01*
X185785237Y-97953222D01*
X186001361Y-97814150D01*
X186146351Y-97601950D01*
X186197360Y-97350060D01*
X186197360Y-93849940D01*
X186153082Y-93614623D01*
X186014010Y-93398499D01*
X185849450Y-93286060D01*
X186513850Y-93286060D01*
X186672600Y-93127310D01*
X186926600Y-93127310D01*
X187085350Y-93286060D01*
X187751272Y-93286060D01*
X187689582Y-93311613D01*
X187510953Y-93490241D01*
X187414280Y-93723630D01*
X187414280Y-95314250D01*
X187573030Y-95473000D01*
X189672340Y-95473000D01*
X189926340Y-95473000D01*
X192025650Y-95473000D01*
X192184400Y-95314250D01*
X193290000Y-95314250D01*
X193290000Y-97476370D01*
X192184400Y-97476370D01*
X192184400Y-95885750D01*
X192025650Y-95727000D01*
X189926340Y-95727000D01*
X189926340Y-97826310D01*
X189672340Y-97826310D01*
X189672340Y-95727000D01*
X187573030Y-95727000D01*
X187414280Y-95885750D01*
X187414280Y-97476370D01*
X187510953Y-97709759D01*
X187689582Y-97888387D01*
X187922971Y-97985060D01*
X189513590Y-97985060D01*
X189672340Y-97826310D01*
X189926340Y-97826310D01*
X190085090Y-97985060D01*
X191675709Y-97985060D01*
X191909098Y-97888387D01*
X192087727Y-97709759D01*
X192184400Y-97476370D01*
X193290000Y-97476370D01*
X193290000Y-98770000D01*
X164384464Y-98770000D01*
X164278800Y-98238793D01*
X163977896Y-97788458D01*
X163546188Y-97500000D01*
X163977896Y-97211542D01*
X164278800Y-96761207D01*
X164384464Y-96230000D01*
X164278800Y-95698793D01*
X163977896Y-95248458D01*
X163527561Y-94947554D01*
X162996354Y-94841890D01*
X161403646Y-94841890D01*
X160872439Y-94947554D01*
X160422104Y-95248458D01*
X160121200Y-95698793D01*
X160015536Y-96230000D01*
X160121200Y-96761207D01*
X160422104Y-97211542D01*
X160853812Y-97500000D01*
X160422104Y-97788458D01*
X160121200Y-98238793D01*
X160015536Y-98770000D01*
X160121200Y-99301207D01*
X160422104Y-99751542D01*
X160872439Y-100052446D01*
X161403646Y-100158110D01*
X162996354Y-100158110D01*
X163527561Y-100052446D01*
X163977896Y-99751542D01*
X164278800Y-99301207D01*
X164384464Y-98770000D01*
X193290000Y-98770000D01*
X193290000Y-102719787D01*
X188000608Y-102719787D01*
X187931143Y-102477603D01*
X187407698Y-102290856D01*
X186852632Y-102318638D01*
X186468857Y-102477603D01*
X186399392Y-102719787D01*
X187200000Y-103520395D01*
X188000608Y-102719787D01*
X193290000Y-102719787D01*
X193290000Y-103907698D01*
X188609144Y-103907698D01*
X188581362Y-103352632D01*
X188422397Y-102968857D01*
X188180213Y-102899392D01*
X187379605Y-103700000D01*
X187020395Y-103700000D01*
X186219787Y-102899392D01*
X186006079Y-102960689D01*
X185985010Y-102909697D01*
X185592370Y-102516371D01*
X185079100Y-102303243D01*
X184523339Y-102302758D01*
X184009697Y-102514990D01*
X183616371Y-102907630D01*
X183403243Y-103420900D01*
X183402758Y-103976661D01*
X183614990Y-104490303D01*
X184007630Y-104883629D01*
X184520900Y-105096757D01*
X185076661Y-105097242D01*
X185590303Y-104885010D01*
X185983629Y-104492370D01*
X186005706Y-104439204D01*
X186219787Y-104500608D01*
X187020395Y-103700000D01*
X187379605Y-103700000D01*
X188180213Y-104500608D01*
X188422397Y-104431143D01*
X188609144Y-103907698D01*
X193290000Y-103907698D01*
X193290000Y-104680213D01*
X188000608Y-104680213D01*
X187200000Y-103879605D01*
X186399392Y-104680213D01*
X186468857Y-104922397D01*
X186992302Y-105109144D01*
X187547368Y-105081362D01*
X187931143Y-104922397D01*
X188000608Y-104680213D01*
X193290000Y-104680213D01*
X193290000Y-106790000D01*
X159710000Y-106790000D01*
X159710000Y-88210000D01*
X159710000Y-88210000D01*
G37*
X159710000Y-88210000D02*
X193290000Y-88210000D01*
X193290000Y-90615250D01*
X189184660Y-90615250D01*
X189184660Y-89024630D01*
X189087987Y-88791241D01*
X188909358Y-88612613D01*
X188675969Y-88515940D01*
X187085350Y-88515940D01*
X186926600Y-88674690D01*
X186926600Y-90774000D01*
X186672600Y-90774000D01*
X186672600Y-88674690D01*
X186513850Y-88515940D01*
X184923231Y-88515940D01*
X184689842Y-88612613D01*
X184511213Y-88791241D01*
X184414540Y-89024630D01*
X184414540Y-90419787D01*
X168600608Y-90419787D01*
X168531143Y-90177603D01*
X168007698Y-89990856D01*
X167452632Y-90018638D01*
X167068857Y-90177603D01*
X166999392Y-90419787D01*
X167800000Y-91220395D01*
X168600608Y-90419787D01*
X184414540Y-90419787D01*
X184414540Y-90615250D01*
X184573290Y-90774000D01*
X186672600Y-90774000D01*
X186926600Y-90774000D01*
X189025910Y-90774000D01*
X189184660Y-90615250D01*
X193290000Y-90615250D01*
X193290000Y-95314250D01*
X192184400Y-95314250D01*
X192184400Y-93723630D01*
X192087727Y-93490241D01*
X191909098Y-93311613D01*
X191675709Y-93214940D01*
X190085090Y-93214940D01*
X189926340Y-93373690D01*
X189926340Y-95473000D01*
X189672340Y-95473000D01*
X189672340Y-93373690D01*
X189513590Y-93214940D01*
X188847668Y-93214940D01*
X188909358Y-93189387D01*
X189087987Y-93010759D01*
X189184660Y-92777370D01*
X189184660Y-91186750D01*
X189025910Y-91028000D01*
X186926600Y-91028000D01*
X186926600Y-93127310D01*
X186672600Y-93127310D01*
X186672600Y-91028000D01*
X184573290Y-91028000D01*
X184414540Y-91186750D01*
X184414540Y-92116793D01*
X179835335Y-92116793D01*
X179541370Y-91405342D01*
X178997521Y-90860543D01*
X178286584Y-90565337D01*
X177516793Y-90564665D01*
X176805342Y-90858630D01*
X176260543Y-91402479D01*
X175965337Y-92113416D01*
X175965335Y-92116793D01*
X174835335Y-92116793D01*
X174541370Y-91405342D01*
X173997521Y-90860543D01*
X173286584Y-90565337D01*
X172516793Y-90564665D01*
X171805342Y-90858630D01*
X171260543Y-91402479D01*
X171175329Y-91607698D01*
X169209144Y-91607698D01*
X169181362Y-91052632D01*
X169022397Y-90668857D01*
X168780213Y-90599392D01*
X167979605Y-91400000D01*
X167620395Y-91400000D01*
X166819787Y-90599392D01*
X166606079Y-90660689D01*
X166585010Y-90609697D01*
X166192370Y-90216371D01*
X165679100Y-90003243D01*
X165123339Y-90002758D01*
X164609697Y-90214990D01*
X164216371Y-90607630D01*
X164003243Y-91120900D01*
X164002758Y-91676661D01*
X164214990Y-92190303D01*
X164607630Y-92583629D01*
X165120900Y-92796757D01*
X165676661Y-92797242D01*
X166190303Y-92585010D01*
X166583629Y-92192370D01*
X166605706Y-92139204D01*
X166819787Y-92200608D01*
X167620395Y-91400000D01*
X167979605Y-91400000D01*
X168780213Y-92200608D01*
X169022397Y-92131143D01*
X169209144Y-91607698D01*
X171175329Y-91607698D01*
X170965337Y-92113416D01*
X170965105Y-92380213D01*
X168600608Y-92380213D01*
X167800000Y-91579605D01*
X166999392Y-92380213D01*
X167068857Y-92622397D01*
X167592302Y-92809144D01*
X168147368Y-92781362D01*
X168531143Y-92622397D01*
X168600608Y-92380213D01*
X170965105Y-92380213D01*
X170964665Y-92883207D01*
X171258630Y-93594658D01*
X171802479Y-94139457D01*
X172513416Y-94434663D01*
X173283207Y-94435335D01*
X173994658Y-94141370D01*
X174539457Y-93597521D01*
X174834663Y-92886584D01*
X174835335Y-92116793D01*
X175965335Y-92116793D01*
X175964665Y-92883207D01*
X176258630Y-93594658D01*
X176802479Y-94139457D01*
X177513416Y-94434663D01*
X178283207Y-94435335D01*
X178994658Y-94141370D01*
X179539457Y-93597521D01*
X179834663Y-92886584D01*
X179835335Y-92116793D01*
X184414540Y-92116793D01*
X184414540Y-92777370D01*
X184511213Y-93010759D01*
X184689842Y-93189387D01*
X184721500Y-93202500D01*
X182049800Y-93202500D01*
X181814483Y-93246778D01*
X181598359Y-93385850D01*
X181453369Y-93598050D01*
X181402360Y-93849940D01*
X181402360Y-97350060D01*
X181446638Y-97585377D01*
X181585710Y-97801501D01*
X181797910Y-97946491D01*
X182049800Y-97997500D01*
X185549920Y-97997500D01*
X185785237Y-97953222D01*
X186001361Y-97814150D01*
X186146351Y-97601950D01*
X186197360Y-97350060D01*
X186197360Y-93849940D01*
X186153082Y-93614623D01*
X186014010Y-93398499D01*
X185849450Y-93286060D01*
X186513850Y-93286060D01*
X186672600Y-93127310D01*
X186926600Y-93127310D01*
X187085350Y-93286060D01*
X187751272Y-93286060D01*
X187689582Y-93311613D01*
X187510953Y-93490241D01*
X187414280Y-93723630D01*
X187414280Y-95314250D01*
X187573030Y-95473000D01*
X189672340Y-95473000D01*
X189926340Y-95473000D01*
X192025650Y-95473000D01*
X192184400Y-95314250D01*
X193290000Y-95314250D01*
X193290000Y-97476370D01*
X192184400Y-97476370D01*
X192184400Y-95885750D01*
X192025650Y-95727000D01*
X189926340Y-95727000D01*
X189926340Y-97826310D01*
X189672340Y-97826310D01*
X189672340Y-95727000D01*
X187573030Y-95727000D01*
X187414280Y-95885750D01*
X187414280Y-97476370D01*
X187510953Y-97709759D01*
X187689582Y-97888387D01*
X187922971Y-97985060D01*
X189513590Y-97985060D01*
X189672340Y-97826310D01*
X189926340Y-97826310D01*
X190085090Y-97985060D01*
X191675709Y-97985060D01*
X191909098Y-97888387D01*
X192087727Y-97709759D01*
X192184400Y-97476370D01*
X193290000Y-97476370D01*
X193290000Y-98770000D01*
X164384464Y-98770000D01*
X164278800Y-98238793D01*
X163977896Y-97788458D01*
X163546188Y-97500000D01*
X163977896Y-97211542D01*
X164278800Y-96761207D01*
X164384464Y-96230000D01*
X164278800Y-95698793D01*
X163977896Y-95248458D01*
X163527561Y-94947554D01*
X162996354Y-94841890D01*
X161403646Y-94841890D01*
X160872439Y-94947554D01*
X160422104Y-95248458D01*
X160121200Y-95698793D01*
X160015536Y-96230000D01*
X160121200Y-96761207D01*
X160422104Y-97211542D01*
X160853812Y-97500000D01*
X160422104Y-97788458D01*
X160121200Y-98238793D01*
X160015536Y-98770000D01*
X160121200Y-99301207D01*
X160422104Y-99751542D01*
X160872439Y-100052446D01*
X161403646Y-100158110D01*
X162996354Y-100158110D01*
X163527561Y-100052446D01*
X163977896Y-99751542D01*
X164278800Y-99301207D01*
X164384464Y-98770000D01*
X193290000Y-98770000D01*
X193290000Y-102719787D01*
X188000608Y-102719787D01*
X187931143Y-102477603D01*
X187407698Y-102290856D01*
X186852632Y-102318638D01*
X186468857Y-102477603D01*
X186399392Y-102719787D01*
X187200000Y-103520395D01*
X188000608Y-102719787D01*
X193290000Y-102719787D01*
X193290000Y-103907698D01*
X188609144Y-103907698D01*
X188581362Y-103352632D01*
X188422397Y-102968857D01*
X188180213Y-102899392D01*
X187379605Y-103700000D01*
X187020395Y-103700000D01*
X186219787Y-102899392D01*
X186006079Y-102960689D01*
X185985010Y-102909697D01*
X185592370Y-102516371D01*
X185079100Y-102303243D01*
X184523339Y-102302758D01*
X184009697Y-102514990D01*
X183616371Y-102907630D01*
X183403243Y-103420900D01*
X183402758Y-103976661D01*
X183614990Y-104490303D01*
X184007630Y-104883629D01*
X184520900Y-105096757D01*
X185076661Y-105097242D01*
X185590303Y-104885010D01*
X185983629Y-104492370D01*
X186005706Y-104439204D01*
X186219787Y-104500608D01*
X187020395Y-103700000D01*
X187379605Y-103700000D01*
X188180213Y-104500608D01*
X188422397Y-104431143D01*
X188609144Y-103907698D01*
X193290000Y-103907698D01*
X193290000Y-104680213D01*
X188000608Y-104680213D01*
X187200000Y-103879605D01*
X186399392Y-104680213D01*
X186468857Y-104922397D01*
X186992302Y-105109144D01*
X187547368Y-105081362D01*
X187931143Y-104922397D01*
X188000608Y-104680213D01*
X193290000Y-104680213D01*
X193290000Y-106790000D01*
X159710000Y-106790000D01*
X159710000Y-88210000D01*
G36*
X159710000Y-108210000D02*
X193290000Y-108210000D01*
X193290000Y-110615250D01*
X189184660Y-110615250D01*
X189184660Y-109024630D01*
X189087987Y-108791241D01*
X188909358Y-108612613D01*
X188675969Y-108515940D01*
X187085350Y-108515940D01*
X186926600Y-108674690D01*
X186926600Y-110774000D01*
X186672600Y-110774000D01*
X186672600Y-108674690D01*
X186513850Y-108515940D01*
X184923231Y-108515940D01*
X184689842Y-108612613D01*
X184511213Y-108791241D01*
X184414540Y-109024630D01*
X184414540Y-110419787D01*
X168600608Y-110419787D01*
X168531143Y-110177603D01*
X168007698Y-109990856D01*
X167452632Y-110018638D01*
X167068857Y-110177603D01*
X166999392Y-110419787D01*
X167800000Y-111220395D01*
X168600608Y-110419787D01*
X184414540Y-110419787D01*
X184414540Y-110615250D01*
X184573290Y-110774000D01*
X186672600Y-110774000D01*
X186926600Y-110774000D01*
X189025910Y-110774000D01*
X189184660Y-110615250D01*
X193290000Y-110615250D01*
X193290000Y-115314250D01*
X192184400Y-115314250D01*
X192184400Y-113723630D01*
X192087727Y-113490241D01*
X191909098Y-113311613D01*
X191675709Y-113214940D01*
X190085090Y-113214940D01*
X189926340Y-113373690D01*
X189926340Y-115473000D01*
X189672340Y-115473000D01*
X189672340Y-113373690D01*
X189513590Y-113214940D01*
X188847668Y-113214940D01*
X188909358Y-113189387D01*
X189087987Y-113010759D01*
X189184660Y-112777370D01*
X189184660Y-111186750D01*
X189025910Y-111028000D01*
X186926600Y-111028000D01*
X186926600Y-113127310D01*
X186672600Y-113127310D01*
X186672600Y-111028000D01*
X184573290Y-111028000D01*
X184414540Y-111186750D01*
X184414540Y-112116793D01*
X179835335Y-112116793D01*
X179541370Y-111405342D01*
X178997521Y-110860543D01*
X178286584Y-110565337D01*
X177516793Y-110564665D01*
X176805342Y-110858630D01*
X176260543Y-111402479D01*
X175965337Y-112113416D01*
X175965335Y-112116793D01*
X174835335Y-112116793D01*
X174541370Y-111405342D01*
X173997521Y-110860543D01*
X173286584Y-110565337D01*
X172516793Y-110564665D01*
X171805342Y-110858630D01*
X171260543Y-111402479D01*
X171175329Y-111607698D01*
X169209144Y-111607698D01*
X169181362Y-111052632D01*
X169022397Y-110668857D01*
X168780213Y-110599392D01*
X167979605Y-111400000D01*
X167620395Y-111400000D01*
X166819787Y-110599392D01*
X166606079Y-110660689D01*
X166585010Y-110609697D01*
X166192370Y-110216371D01*
X165679100Y-110003243D01*
X165123339Y-110002758D01*
X164609697Y-110214990D01*
X164216371Y-110607630D01*
X164003243Y-111120900D01*
X164002758Y-111676661D01*
X164214990Y-112190303D01*
X164607630Y-112583629D01*
X165120900Y-112796757D01*
X165676661Y-112797242D01*
X166190303Y-112585010D01*
X166583629Y-112192370D01*
X166605706Y-112139204D01*
X166819787Y-112200608D01*
X167620395Y-111400000D01*
X167979605Y-111400000D01*
X168780213Y-112200608D01*
X169022397Y-112131143D01*
X169209144Y-111607698D01*
X171175329Y-111607698D01*
X170965337Y-112113416D01*
X170965105Y-112380213D01*
X168600608Y-112380213D01*
X167800000Y-111579605D01*
X166999392Y-112380213D01*
X167068857Y-112622397D01*
X167592302Y-112809144D01*
X168147368Y-112781362D01*
X168531143Y-112622397D01*
X168600608Y-112380213D01*
X170965105Y-112380213D01*
X170964665Y-112883207D01*
X171258630Y-113594658D01*
X171802479Y-114139457D01*
X172513416Y-114434663D01*
X173283207Y-114435335D01*
X173994658Y-114141370D01*
X174539457Y-113597521D01*
X174834663Y-112886584D01*
X174835335Y-112116793D01*
X175965335Y-112116793D01*
X175964665Y-112883207D01*
X176258630Y-113594658D01*
X176802479Y-114139457D01*
X177513416Y-114434663D01*
X178283207Y-114435335D01*
X178994658Y-114141370D01*
X179539457Y-113597521D01*
X179834663Y-112886584D01*
X179835335Y-112116793D01*
X184414540Y-112116793D01*
X184414540Y-112777370D01*
X184511213Y-113010759D01*
X184689842Y-113189387D01*
X184721500Y-113202500D01*
X182049800Y-113202500D01*
X181814483Y-113246778D01*
X181598359Y-113385850D01*
X181453369Y-113598050D01*
X181402360Y-113849940D01*
X181402360Y-117350060D01*
X181446638Y-117585377D01*
X181585710Y-117801501D01*
X181797910Y-117946491D01*
X182049800Y-117997500D01*
X185549920Y-117997500D01*
X185785237Y-117953222D01*
X186001361Y-117814150D01*
X186146351Y-117601950D01*
X186197360Y-117350060D01*
X186197360Y-113849940D01*
X186153082Y-113614623D01*
X186014010Y-113398499D01*
X185849450Y-113286060D01*
X186513850Y-113286060D01*
X186672600Y-113127310D01*
X186926600Y-113127310D01*
X187085350Y-113286060D01*
X187751272Y-113286060D01*
X187689582Y-113311613D01*
X187510953Y-113490241D01*
X187414280Y-113723630D01*
X187414280Y-115314250D01*
X187573030Y-115473000D01*
X189672340Y-115473000D01*
X189926340Y-115473000D01*
X192025650Y-115473000D01*
X192184400Y-115314250D01*
X193290000Y-115314250D01*
X193290000Y-117476370D01*
X192184400Y-117476370D01*
X192184400Y-115885750D01*
X192025650Y-115727000D01*
X189926340Y-115727000D01*
X189926340Y-117826310D01*
X189672340Y-117826310D01*
X189672340Y-115727000D01*
X187573030Y-115727000D01*
X187414280Y-115885750D01*
X187414280Y-117476370D01*
X187510953Y-117709759D01*
X187689582Y-117888387D01*
X187922971Y-117985060D01*
X189513590Y-117985060D01*
X189672340Y-117826310D01*
X189926340Y-117826310D01*
X190085090Y-117985060D01*
X191675709Y-117985060D01*
X191909098Y-117888387D01*
X192087727Y-117709759D01*
X192184400Y-117476370D01*
X193290000Y-117476370D01*
X193290000Y-118770000D01*
X164384464Y-118770000D01*
X164278800Y-118238793D01*
X163977896Y-117788458D01*
X163546188Y-117500000D01*
X163977896Y-117211542D01*
X164278800Y-116761207D01*
X164384464Y-116230000D01*
X164278800Y-115698793D01*
X163977896Y-115248458D01*
X163527561Y-114947554D01*
X162996354Y-114841890D01*
X161403646Y-114841890D01*
X160872439Y-114947554D01*
X160422104Y-115248458D01*
X160121200Y-115698793D01*
X160015536Y-116230000D01*
X160121200Y-116761207D01*
X160422104Y-117211542D01*
X160853812Y-117500000D01*
X160422104Y-117788458D01*
X160121200Y-118238793D01*
X160015536Y-118770000D01*
X160121200Y-119301207D01*
X160422104Y-119751542D01*
X160872439Y-120052446D01*
X161403646Y-120158110D01*
X162996354Y-120158110D01*
X163527561Y-120052446D01*
X163977896Y-119751542D01*
X164278800Y-119301207D01*
X164384464Y-118770000D01*
X193290000Y-118770000D01*
X193290000Y-122719787D01*
X188000608Y-122719787D01*
X187931143Y-122477603D01*
X187407698Y-122290856D01*
X186852632Y-122318638D01*
X186468857Y-122477603D01*
X186399392Y-122719787D01*
X187200000Y-123520395D01*
X188000608Y-122719787D01*
X193290000Y-122719787D01*
X193290000Y-123907698D01*
X188609144Y-123907698D01*
X188581362Y-123352632D01*
X188422397Y-122968857D01*
X188180213Y-122899392D01*
X187379605Y-123700000D01*
X187020395Y-123700000D01*
X186219787Y-122899392D01*
X186006079Y-122960689D01*
X185985010Y-122909697D01*
X185592370Y-122516371D01*
X185079100Y-122303243D01*
X184523339Y-122302758D01*
X184009697Y-122514990D01*
X183616371Y-122907630D01*
X183403243Y-123420900D01*
X183402758Y-123976661D01*
X183614990Y-124490303D01*
X184007630Y-124883629D01*
X184520900Y-125096757D01*
X185076661Y-125097242D01*
X185590303Y-124885010D01*
X185983629Y-124492370D01*
X186005706Y-124439204D01*
X186219787Y-124500608D01*
X187020395Y-123700000D01*
X187379605Y-123700000D01*
X188180213Y-124500608D01*
X188422397Y-124431143D01*
X188609144Y-123907698D01*
X193290000Y-123907698D01*
X193290000Y-124680213D01*
X188000608Y-124680213D01*
X187200000Y-123879605D01*
X186399392Y-124680213D01*
X186468857Y-124922397D01*
X186992302Y-125109144D01*
X187547368Y-125081362D01*
X187931143Y-124922397D01*
X188000608Y-124680213D01*
X193290000Y-124680213D01*
X193290000Y-126790000D01*
X159710000Y-126790000D01*
X159710000Y-108210000D01*
X159710000Y-108210000D01*
G37*
X159710000Y-108210000D02*
X193290000Y-108210000D01*
X193290000Y-110615250D01*
X189184660Y-110615250D01*
X189184660Y-109024630D01*
X189087987Y-108791241D01*
X188909358Y-108612613D01*
X188675969Y-108515940D01*
X187085350Y-108515940D01*
X186926600Y-108674690D01*
X186926600Y-110774000D01*
X186672600Y-110774000D01*
X186672600Y-108674690D01*
X186513850Y-108515940D01*
X184923231Y-108515940D01*
X184689842Y-108612613D01*
X184511213Y-108791241D01*
X184414540Y-109024630D01*
X184414540Y-110419787D01*
X168600608Y-110419787D01*
X168531143Y-110177603D01*
X168007698Y-109990856D01*
X167452632Y-110018638D01*
X167068857Y-110177603D01*
X166999392Y-110419787D01*
X167800000Y-111220395D01*
X168600608Y-110419787D01*
X184414540Y-110419787D01*
X184414540Y-110615250D01*
X184573290Y-110774000D01*
X186672600Y-110774000D01*
X186926600Y-110774000D01*
X189025910Y-110774000D01*
X189184660Y-110615250D01*
X193290000Y-110615250D01*
X193290000Y-115314250D01*
X192184400Y-115314250D01*
X192184400Y-113723630D01*
X192087727Y-113490241D01*
X191909098Y-113311613D01*
X191675709Y-113214940D01*
X190085090Y-113214940D01*
X189926340Y-113373690D01*
X189926340Y-115473000D01*
X189672340Y-115473000D01*
X189672340Y-113373690D01*
X189513590Y-113214940D01*
X188847668Y-113214940D01*
X188909358Y-113189387D01*
X189087987Y-113010759D01*
X189184660Y-112777370D01*
X189184660Y-111186750D01*
X189025910Y-111028000D01*
X186926600Y-111028000D01*
X186926600Y-113127310D01*
X186672600Y-113127310D01*
X186672600Y-111028000D01*
X184573290Y-111028000D01*
X184414540Y-111186750D01*
X184414540Y-112116793D01*
X179835335Y-112116793D01*
X179541370Y-111405342D01*
X178997521Y-110860543D01*
X178286584Y-110565337D01*
X177516793Y-110564665D01*
X176805342Y-110858630D01*
X176260543Y-111402479D01*
X175965337Y-112113416D01*
X175965335Y-112116793D01*
X174835335Y-112116793D01*
X174541370Y-111405342D01*
X173997521Y-110860543D01*
X173286584Y-110565337D01*
X172516793Y-110564665D01*
X171805342Y-110858630D01*
X171260543Y-111402479D01*
X171175329Y-111607698D01*
X169209144Y-111607698D01*
X169181362Y-111052632D01*
X169022397Y-110668857D01*
X168780213Y-110599392D01*
X167979605Y-111400000D01*
X167620395Y-111400000D01*
X166819787Y-110599392D01*
X166606079Y-110660689D01*
X166585010Y-110609697D01*
X166192370Y-110216371D01*
X165679100Y-110003243D01*
X165123339Y-110002758D01*
X164609697Y-110214990D01*
X164216371Y-110607630D01*
X164003243Y-111120900D01*
X164002758Y-111676661D01*
X164214990Y-112190303D01*
X164607630Y-112583629D01*
X165120900Y-112796757D01*
X165676661Y-112797242D01*
X166190303Y-112585010D01*
X166583629Y-112192370D01*
X166605706Y-112139204D01*
X166819787Y-112200608D01*
X167620395Y-111400000D01*
X167979605Y-111400000D01*
X168780213Y-112200608D01*
X169022397Y-112131143D01*
X169209144Y-111607698D01*
X171175329Y-111607698D01*
X170965337Y-112113416D01*
X170965105Y-112380213D01*
X168600608Y-112380213D01*
X167800000Y-111579605D01*
X166999392Y-112380213D01*
X167068857Y-112622397D01*
X167592302Y-112809144D01*
X168147368Y-112781362D01*
X168531143Y-112622397D01*
X168600608Y-112380213D01*
X170965105Y-112380213D01*
X170964665Y-112883207D01*
X171258630Y-113594658D01*
X171802479Y-114139457D01*
X172513416Y-114434663D01*
X173283207Y-114435335D01*
X173994658Y-114141370D01*
X174539457Y-113597521D01*
X174834663Y-112886584D01*
X174835335Y-112116793D01*
X175965335Y-112116793D01*
X175964665Y-112883207D01*
X176258630Y-113594658D01*
X176802479Y-114139457D01*
X177513416Y-114434663D01*
X178283207Y-114435335D01*
X178994658Y-114141370D01*
X179539457Y-113597521D01*
X179834663Y-112886584D01*
X179835335Y-112116793D01*
X184414540Y-112116793D01*
X184414540Y-112777370D01*
X184511213Y-113010759D01*
X184689842Y-113189387D01*
X184721500Y-113202500D01*
X182049800Y-113202500D01*
X181814483Y-113246778D01*
X181598359Y-113385850D01*
X181453369Y-113598050D01*
X181402360Y-113849940D01*
X181402360Y-117350060D01*
X181446638Y-117585377D01*
X181585710Y-117801501D01*
X181797910Y-117946491D01*
X182049800Y-117997500D01*
X185549920Y-117997500D01*
X185785237Y-117953222D01*
X186001361Y-117814150D01*
X186146351Y-117601950D01*
X186197360Y-117350060D01*
X186197360Y-113849940D01*
X186153082Y-113614623D01*
X186014010Y-113398499D01*
X185849450Y-113286060D01*
X186513850Y-113286060D01*
X186672600Y-113127310D01*
X186926600Y-113127310D01*
X187085350Y-113286060D01*
X187751272Y-113286060D01*
X187689582Y-113311613D01*
X187510953Y-113490241D01*
X187414280Y-113723630D01*
X187414280Y-115314250D01*
X187573030Y-115473000D01*
X189672340Y-115473000D01*
X189926340Y-115473000D01*
X192025650Y-115473000D01*
X192184400Y-115314250D01*
X193290000Y-115314250D01*
X193290000Y-117476370D01*
X192184400Y-117476370D01*
X192184400Y-115885750D01*
X192025650Y-115727000D01*
X189926340Y-115727000D01*
X189926340Y-117826310D01*
X189672340Y-117826310D01*
X189672340Y-115727000D01*
X187573030Y-115727000D01*
X187414280Y-115885750D01*
X187414280Y-117476370D01*
X187510953Y-117709759D01*
X187689582Y-117888387D01*
X187922971Y-117985060D01*
X189513590Y-117985060D01*
X189672340Y-117826310D01*
X189926340Y-117826310D01*
X190085090Y-117985060D01*
X191675709Y-117985060D01*
X191909098Y-117888387D01*
X192087727Y-117709759D01*
X192184400Y-117476370D01*
X193290000Y-117476370D01*
X193290000Y-118770000D01*
X164384464Y-118770000D01*
X164278800Y-118238793D01*
X163977896Y-117788458D01*
X163546188Y-117500000D01*
X163977896Y-117211542D01*
X164278800Y-116761207D01*
X164384464Y-116230000D01*
X164278800Y-115698793D01*
X163977896Y-115248458D01*
X163527561Y-114947554D01*
X162996354Y-114841890D01*
X161403646Y-114841890D01*
X160872439Y-114947554D01*
X160422104Y-115248458D01*
X160121200Y-115698793D01*
X160015536Y-116230000D01*
X160121200Y-116761207D01*
X160422104Y-117211542D01*
X160853812Y-117500000D01*
X160422104Y-117788458D01*
X160121200Y-118238793D01*
X160015536Y-118770000D01*
X160121200Y-119301207D01*
X160422104Y-119751542D01*
X160872439Y-120052446D01*
X161403646Y-120158110D01*
X162996354Y-120158110D01*
X163527561Y-120052446D01*
X163977896Y-119751542D01*
X164278800Y-119301207D01*
X164384464Y-118770000D01*
X193290000Y-118770000D01*
X193290000Y-122719787D01*
X188000608Y-122719787D01*
X187931143Y-122477603D01*
X187407698Y-122290856D01*
X186852632Y-122318638D01*
X186468857Y-122477603D01*
X186399392Y-122719787D01*
X187200000Y-123520395D01*
X188000608Y-122719787D01*
X193290000Y-122719787D01*
X193290000Y-123907698D01*
X188609144Y-123907698D01*
X188581362Y-123352632D01*
X188422397Y-122968857D01*
X188180213Y-122899392D01*
X187379605Y-123700000D01*
X187020395Y-123700000D01*
X186219787Y-122899392D01*
X186006079Y-122960689D01*
X185985010Y-122909697D01*
X185592370Y-122516371D01*
X185079100Y-122303243D01*
X184523339Y-122302758D01*
X184009697Y-122514990D01*
X183616371Y-122907630D01*
X183403243Y-123420900D01*
X183402758Y-123976661D01*
X183614990Y-124490303D01*
X184007630Y-124883629D01*
X184520900Y-125096757D01*
X185076661Y-125097242D01*
X185590303Y-124885010D01*
X185983629Y-124492370D01*
X186005706Y-124439204D01*
X186219787Y-124500608D01*
X187020395Y-123700000D01*
X187379605Y-123700000D01*
X188180213Y-124500608D01*
X188422397Y-124431143D01*
X188609144Y-123907698D01*
X193290000Y-123907698D01*
X193290000Y-124680213D01*
X188000608Y-124680213D01*
X187200000Y-123879605D01*
X186399392Y-124680213D01*
X186468857Y-124922397D01*
X186992302Y-125109144D01*
X187547368Y-125081362D01*
X187931143Y-124922397D01*
X188000608Y-124680213D01*
X193290000Y-124680213D01*
X193290000Y-126790000D01*
X159710000Y-126790000D01*
X159710000Y-108210000D01*
G36*
X159710000Y-128210000D02*
X193290000Y-128210000D01*
X193290000Y-130615250D01*
X189184660Y-130615250D01*
X189184660Y-129024630D01*
X189087987Y-128791241D01*
X188909358Y-128612613D01*
X188675969Y-128515940D01*
X187085350Y-128515940D01*
X186926600Y-128674690D01*
X186926600Y-130774000D01*
X186672600Y-130774000D01*
X186672600Y-128674690D01*
X186513850Y-128515940D01*
X184923231Y-128515940D01*
X184689842Y-128612613D01*
X184511213Y-128791241D01*
X184414540Y-129024630D01*
X184414540Y-130419787D01*
X168600608Y-130419787D01*
X168531143Y-130177603D01*
X168007698Y-129990856D01*
X167452632Y-130018638D01*
X167068857Y-130177603D01*
X166999392Y-130419787D01*
X167800000Y-131220395D01*
X168600608Y-130419787D01*
X184414540Y-130419787D01*
X184414540Y-130615250D01*
X184573290Y-130774000D01*
X186672600Y-130774000D01*
X186926600Y-130774000D01*
X189025910Y-130774000D01*
X189184660Y-130615250D01*
X193290000Y-130615250D01*
X193290000Y-135314250D01*
X192184400Y-135314250D01*
X192184400Y-133723630D01*
X192087727Y-133490241D01*
X191909098Y-133311613D01*
X191675709Y-133214940D01*
X190085090Y-133214940D01*
X189926340Y-133373690D01*
X189926340Y-135473000D01*
X189672340Y-135473000D01*
X189672340Y-133373690D01*
X189513590Y-133214940D01*
X188847668Y-133214940D01*
X188909358Y-133189387D01*
X189087987Y-133010759D01*
X189184660Y-132777370D01*
X189184660Y-131186750D01*
X189025910Y-131028000D01*
X186926600Y-131028000D01*
X186926600Y-133127310D01*
X186672600Y-133127310D01*
X186672600Y-131028000D01*
X184573290Y-131028000D01*
X184414540Y-131186750D01*
X184414540Y-132116793D01*
X179835335Y-132116793D01*
X179541370Y-131405342D01*
X178997521Y-130860543D01*
X178286584Y-130565337D01*
X177516793Y-130564665D01*
X176805342Y-130858630D01*
X176260543Y-131402479D01*
X175965337Y-132113416D01*
X175965335Y-132116793D01*
X174835335Y-132116793D01*
X174541370Y-131405342D01*
X173997521Y-130860543D01*
X173286584Y-130565337D01*
X172516793Y-130564665D01*
X171805342Y-130858630D01*
X171260543Y-131402479D01*
X171175329Y-131607698D01*
X169209144Y-131607698D01*
X169181362Y-131052632D01*
X169022397Y-130668857D01*
X168780213Y-130599392D01*
X167979605Y-131400000D01*
X167620395Y-131400000D01*
X166819787Y-130599392D01*
X166606079Y-130660689D01*
X166585010Y-130609697D01*
X166192370Y-130216371D01*
X165679100Y-130003243D01*
X165123339Y-130002758D01*
X164609697Y-130214990D01*
X164216371Y-130607630D01*
X164003243Y-131120900D01*
X164002758Y-131676661D01*
X164214990Y-132190303D01*
X164607630Y-132583629D01*
X165120900Y-132796757D01*
X165676661Y-132797242D01*
X166190303Y-132585010D01*
X166583629Y-132192370D01*
X166605706Y-132139204D01*
X166819787Y-132200608D01*
X167620395Y-131400000D01*
X167979605Y-131400000D01*
X168780213Y-132200608D01*
X169022397Y-132131143D01*
X169209144Y-131607698D01*
X171175329Y-131607698D01*
X170965337Y-132113416D01*
X170965105Y-132380213D01*
X168600608Y-132380213D01*
X167800000Y-131579605D01*
X166999392Y-132380213D01*
X167068857Y-132622397D01*
X167592302Y-132809144D01*
X168147368Y-132781362D01*
X168531143Y-132622397D01*
X168600608Y-132380213D01*
X170965105Y-132380213D01*
X170964665Y-132883207D01*
X171258630Y-133594658D01*
X171802479Y-134139457D01*
X172513416Y-134434663D01*
X173283207Y-134435335D01*
X173994658Y-134141370D01*
X174539457Y-133597521D01*
X174834663Y-132886584D01*
X174835335Y-132116793D01*
X175965335Y-132116793D01*
X175964665Y-132883207D01*
X176258630Y-133594658D01*
X176802479Y-134139457D01*
X177513416Y-134434663D01*
X178283207Y-134435335D01*
X178994658Y-134141370D01*
X179539457Y-133597521D01*
X179834663Y-132886584D01*
X179835335Y-132116793D01*
X184414540Y-132116793D01*
X184414540Y-132777370D01*
X184511213Y-133010759D01*
X184689842Y-133189387D01*
X184721500Y-133202500D01*
X182049800Y-133202500D01*
X181814483Y-133246778D01*
X181598359Y-133385850D01*
X181453369Y-133598050D01*
X181402360Y-133849940D01*
X181402360Y-137350060D01*
X181446638Y-137585377D01*
X181585710Y-137801501D01*
X181797910Y-137946491D01*
X182049800Y-137997500D01*
X185549920Y-137997500D01*
X185785237Y-137953222D01*
X186001361Y-137814150D01*
X186146351Y-137601950D01*
X186197360Y-137350060D01*
X186197360Y-133849940D01*
X186153082Y-133614623D01*
X186014010Y-133398499D01*
X185849450Y-133286060D01*
X186513850Y-133286060D01*
X186672600Y-133127310D01*
X186926600Y-133127310D01*
X187085350Y-133286060D01*
X187751272Y-133286060D01*
X187689582Y-133311613D01*
X187510953Y-133490241D01*
X187414280Y-133723630D01*
X187414280Y-135314250D01*
X187573030Y-135473000D01*
X189672340Y-135473000D01*
X189926340Y-135473000D01*
X192025650Y-135473000D01*
X192184400Y-135314250D01*
X193290000Y-135314250D01*
X193290000Y-137476370D01*
X192184400Y-137476370D01*
X192184400Y-135885750D01*
X192025650Y-135727000D01*
X189926340Y-135727000D01*
X189926340Y-137826310D01*
X189672340Y-137826310D01*
X189672340Y-135727000D01*
X187573030Y-135727000D01*
X187414280Y-135885750D01*
X187414280Y-137476370D01*
X187510953Y-137709759D01*
X187689582Y-137888387D01*
X187922971Y-137985060D01*
X189513590Y-137985060D01*
X189672340Y-137826310D01*
X189926340Y-137826310D01*
X190085090Y-137985060D01*
X191675709Y-137985060D01*
X191909098Y-137888387D01*
X192087727Y-137709759D01*
X192184400Y-137476370D01*
X193290000Y-137476370D01*
X193290000Y-138770000D01*
X164384464Y-138770000D01*
X164278800Y-138238793D01*
X163977896Y-137788458D01*
X163546188Y-137500000D01*
X163977896Y-137211542D01*
X164278800Y-136761207D01*
X164384464Y-136230000D01*
X164278800Y-135698793D01*
X163977896Y-135248458D01*
X163527561Y-134947554D01*
X162996354Y-134841890D01*
X161403646Y-134841890D01*
X160872439Y-134947554D01*
X160422104Y-135248458D01*
X160121200Y-135698793D01*
X160015536Y-136230000D01*
X160121200Y-136761207D01*
X160422104Y-137211542D01*
X160853812Y-137500000D01*
X160422104Y-137788458D01*
X160121200Y-138238793D01*
X160015536Y-138770000D01*
X160121200Y-139301207D01*
X160422104Y-139751542D01*
X160872439Y-140052446D01*
X161403646Y-140158110D01*
X162996354Y-140158110D01*
X163527561Y-140052446D01*
X163977896Y-139751542D01*
X164278800Y-139301207D01*
X164384464Y-138770000D01*
X193290000Y-138770000D01*
X193290000Y-142719787D01*
X188000608Y-142719787D01*
X187931143Y-142477603D01*
X187407698Y-142290856D01*
X186852632Y-142318638D01*
X186468857Y-142477603D01*
X186399392Y-142719787D01*
X187200000Y-143520395D01*
X188000608Y-142719787D01*
X193290000Y-142719787D01*
X193290000Y-143907698D01*
X188609144Y-143907698D01*
X188581362Y-143352632D01*
X188422397Y-142968857D01*
X188180213Y-142899392D01*
X187379605Y-143700000D01*
X187020395Y-143700000D01*
X186219787Y-142899392D01*
X186006079Y-142960689D01*
X185985010Y-142909697D01*
X185592370Y-142516371D01*
X185079100Y-142303243D01*
X184523339Y-142302758D01*
X184009697Y-142514990D01*
X183616371Y-142907630D01*
X183403243Y-143420900D01*
X183402758Y-143976661D01*
X183614990Y-144490303D01*
X184007630Y-144883629D01*
X184520900Y-145096757D01*
X185076661Y-145097242D01*
X185590303Y-144885010D01*
X185983629Y-144492370D01*
X186005706Y-144439204D01*
X186219787Y-144500608D01*
X187020395Y-143700000D01*
X187379605Y-143700000D01*
X188180213Y-144500608D01*
X188422397Y-144431143D01*
X188609144Y-143907698D01*
X193290000Y-143907698D01*
X193290000Y-144680213D01*
X188000608Y-144680213D01*
X187200000Y-143879605D01*
X186399392Y-144680213D01*
X186468857Y-144922397D01*
X186992302Y-145109144D01*
X187547368Y-145081362D01*
X187931143Y-144922397D01*
X188000608Y-144680213D01*
X193290000Y-144680213D01*
X193290000Y-146790000D01*
X159710000Y-146790000D01*
X159710000Y-128210000D01*
X159710000Y-128210000D01*
G37*
X159710000Y-128210000D02*
X193290000Y-128210000D01*
X193290000Y-130615250D01*
X189184660Y-130615250D01*
X189184660Y-129024630D01*
X189087987Y-128791241D01*
X188909358Y-128612613D01*
X188675969Y-128515940D01*
X187085350Y-128515940D01*
X186926600Y-128674690D01*
X186926600Y-130774000D01*
X186672600Y-130774000D01*
X186672600Y-128674690D01*
X186513850Y-128515940D01*
X184923231Y-128515940D01*
X184689842Y-128612613D01*
X184511213Y-128791241D01*
X184414540Y-129024630D01*
X184414540Y-130419787D01*
X168600608Y-130419787D01*
X168531143Y-130177603D01*
X168007698Y-129990856D01*
X167452632Y-130018638D01*
X167068857Y-130177603D01*
X166999392Y-130419787D01*
X167800000Y-131220395D01*
X168600608Y-130419787D01*
X184414540Y-130419787D01*
X184414540Y-130615250D01*
X184573290Y-130774000D01*
X186672600Y-130774000D01*
X186926600Y-130774000D01*
X189025910Y-130774000D01*
X189184660Y-130615250D01*
X193290000Y-130615250D01*
X193290000Y-135314250D01*
X192184400Y-135314250D01*
X192184400Y-133723630D01*
X192087727Y-133490241D01*
X191909098Y-133311613D01*
X191675709Y-133214940D01*
X190085090Y-133214940D01*
X189926340Y-133373690D01*
X189926340Y-135473000D01*
X189672340Y-135473000D01*
X189672340Y-133373690D01*
X189513590Y-133214940D01*
X188847668Y-133214940D01*
X188909358Y-133189387D01*
X189087987Y-133010759D01*
X189184660Y-132777370D01*
X189184660Y-131186750D01*
X189025910Y-131028000D01*
X186926600Y-131028000D01*
X186926600Y-133127310D01*
X186672600Y-133127310D01*
X186672600Y-131028000D01*
X184573290Y-131028000D01*
X184414540Y-131186750D01*
X184414540Y-132116793D01*
X179835335Y-132116793D01*
X179541370Y-131405342D01*
X178997521Y-130860543D01*
X178286584Y-130565337D01*
X177516793Y-130564665D01*
X176805342Y-130858630D01*
X176260543Y-131402479D01*
X175965337Y-132113416D01*
X175965335Y-132116793D01*
X174835335Y-132116793D01*
X174541370Y-131405342D01*
X173997521Y-130860543D01*
X173286584Y-130565337D01*
X172516793Y-130564665D01*
X171805342Y-130858630D01*
X171260543Y-131402479D01*
X171175329Y-131607698D01*
X169209144Y-131607698D01*
X169181362Y-131052632D01*
X169022397Y-130668857D01*
X168780213Y-130599392D01*
X167979605Y-131400000D01*
X167620395Y-131400000D01*
X166819787Y-130599392D01*
X166606079Y-130660689D01*
X166585010Y-130609697D01*
X166192370Y-130216371D01*
X165679100Y-130003243D01*
X165123339Y-130002758D01*
X164609697Y-130214990D01*
X164216371Y-130607630D01*
X164003243Y-131120900D01*
X164002758Y-131676661D01*
X164214990Y-132190303D01*
X164607630Y-132583629D01*
X165120900Y-132796757D01*
X165676661Y-132797242D01*
X166190303Y-132585010D01*
X166583629Y-132192370D01*
X166605706Y-132139204D01*
X166819787Y-132200608D01*
X167620395Y-131400000D01*
X167979605Y-131400000D01*
X168780213Y-132200608D01*
X169022397Y-132131143D01*
X169209144Y-131607698D01*
X171175329Y-131607698D01*
X170965337Y-132113416D01*
X170965105Y-132380213D01*
X168600608Y-132380213D01*
X167800000Y-131579605D01*
X166999392Y-132380213D01*
X167068857Y-132622397D01*
X167592302Y-132809144D01*
X168147368Y-132781362D01*
X168531143Y-132622397D01*
X168600608Y-132380213D01*
X170965105Y-132380213D01*
X170964665Y-132883207D01*
X171258630Y-133594658D01*
X171802479Y-134139457D01*
X172513416Y-134434663D01*
X173283207Y-134435335D01*
X173994658Y-134141370D01*
X174539457Y-133597521D01*
X174834663Y-132886584D01*
X174835335Y-132116793D01*
X175965335Y-132116793D01*
X175964665Y-132883207D01*
X176258630Y-133594658D01*
X176802479Y-134139457D01*
X177513416Y-134434663D01*
X178283207Y-134435335D01*
X178994658Y-134141370D01*
X179539457Y-133597521D01*
X179834663Y-132886584D01*
X179835335Y-132116793D01*
X184414540Y-132116793D01*
X184414540Y-132777370D01*
X184511213Y-133010759D01*
X184689842Y-133189387D01*
X184721500Y-133202500D01*
X182049800Y-133202500D01*
X181814483Y-133246778D01*
X181598359Y-133385850D01*
X181453369Y-133598050D01*
X181402360Y-133849940D01*
X181402360Y-137350060D01*
X181446638Y-137585377D01*
X181585710Y-137801501D01*
X181797910Y-137946491D01*
X182049800Y-137997500D01*
X185549920Y-137997500D01*
X185785237Y-137953222D01*
X186001361Y-137814150D01*
X186146351Y-137601950D01*
X186197360Y-137350060D01*
X186197360Y-133849940D01*
X186153082Y-133614623D01*
X186014010Y-133398499D01*
X185849450Y-133286060D01*
X186513850Y-133286060D01*
X186672600Y-133127310D01*
X186926600Y-133127310D01*
X187085350Y-133286060D01*
X187751272Y-133286060D01*
X187689582Y-133311613D01*
X187510953Y-133490241D01*
X187414280Y-133723630D01*
X187414280Y-135314250D01*
X187573030Y-135473000D01*
X189672340Y-135473000D01*
X189926340Y-135473000D01*
X192025650Y-135473000D01*
X192184400Y-135314250D01*
X193290000Y-135314250D01*
X193290000Y-137476370D01*
X192184400Y-137476370D01*
X192184400Y-135885750D01*
X192025650Y-135727000D01*
X189926340Y-135727000D01*
X189926340Y-137826310D01*
X189672340Y-137826310D01*
X189672340Y-135727000D01*
X187573030Y-135727000D01*
X187414280Y-135885750D01*
X187414280Y-137476370D01*
X187510953Y-137709759D01*
X187689582Y-137888387D01*
X187922971Y-137985060D01*
X189513590Y-137985060D01*
X189672340Y-137826310D01*
X189926340Y-137826310D01*
X190085090Y-137985060D01*
X191675709Y-137985060D01*
X191909098Y-137888387D01*
X192087727Y-137709759D01*
X192184400Y-137476370D01*
X193290000Y-137476370D01*
X193290000Y-138770000D01*
X164384464Y-138770000D01*
X164278800Y-138238793D01*
X163977896Y-137788458D01*
X163546188Y-137500000D01*
X163977896Y-137211542D01*
X164278800Y-136761207D01*
X164384464Y-136230000D01*
X164278800Y-135698793D01*
X163977896Y-135248458D01*
X163527561Y-134947554D01*
X162996354Y-134841890D01*
X161403646Y-134841890D01*
X160872439Y-134947554D01*
X160422104Y-135248458D01*
X160121200Y-135698793D01*
X160015536Y-136230000D01*
X160121200Y-136761207D01*
X160422104Y-137211542D01*
X160853812Y-137500000D01*
X160422104Y-137788458D01*
X160121200Y-138238793D01*
X160015536Y-138770000D01*
X160121200Y-139301207D01*
X160422104Y-139751542D01*
X160872439Y-140052446D01*
X161403646Y-140158110D01*
X162996354Y-140158110D01*
X163527561Y-140052446D01*
X163977896Y-139751542D01*
X164278800Y-139301207D01*
X164384464Y-138770000D01*
X193290000Y-138770000D01*
X193290000Y-142719787D01*
X188000608Y-142719787D01*
X187931143Y-142477603D01*
X187407698Y-142290856D01*
X186852632Y-142318638D01*
X186468857Y-142477603D01*
X186399392Y-142719787D01*
X187200000Y-143520395D01*
X188000608Y-142719787D01*
X193290000Y-142719787D01*
X193290000Y-143907698D01*
X188609144Y-143907698D01*
X188581362Y-143352632D01*
X188422397Y-142968857D01*
X188180213Y-142899392D01*
X187379605Y-143700000D01*
X187020395Y-143700000D01*
X186219787Y-142899392D01*
X186006079Y-142960689D01*
X185985010Y-142909697D01*
X185592370Y-142516371D01*
X185079100Y-142303243D01*
X184523339Y-142302758D01*
X184009697Y-142514990D01*
X183616371Y-142907630D01*
X183403243Y-143420900D01*
X183402758Y-143976661D01*
X183614990Y-144490303D01*
X184007630Y-144883629D01*
X184520900Y-145096757D01*
X185076661Y-145097242D01*
X185590303Y-144885010D01*
X185983629Y-144492370D01*
X186005706Y-144439204D01*
X186219787Y-144500608D01*
X187020395Y-143700000D01*
X187379605Y-143700000D01*
X188180213Y-144500608D01*
X188422397Y-144431143D01*
X188609144Y-143907698D01*
X193290000Y-143907698D01*
X193290000Y-144680213D01*
X188000608Y-144680213D01*
X187200000Y-143879605D01*
X186399392Y-144680213D01*
X186468857Y-144922397D01*
X186992302Y-145109144D01*
X187547368Y-145081362D01*
X187931143Y-144922397D01*
X188000608Y-144680213D01*
X193290000Y-144680213D01*
X193290000Y-146790000D01*
X159710000Y-146790000D01*
X159710000Y-128210000D01*
M02*
