G04 #@! TF.FileFunction,Soldermask,Top*
%FSLAX46Y46*%
G04 Gerber Fmt 4.6, Leading zero omitted, Abs format (unit mm)*
G04 Created by KiCad (PCBNEW 4.0.7-e2-6376~58~ubuntu14.04.1) date Thu Jan 18 13:31:30 2018*
%MOMM*%
%LPD*%
G01*
G04 APERTURE LIST*
%ADD10C,0.100000*%
%ADD11R,3.900000X1.800000*%
%ADD12C,1.924000*%
%ADD13R,1.100000X2.000000*%
%ADD14C,1.900000*%
%ADD15R,1.035000X1.543000*%
%ADD16R,1.162000X0.908000*%
%ADD17R,1.543000X1.035000*%
%ADD18C,3.000000*%
%ADD19R,3.900120X3.900120*%
%ADD20R,0.958800X1.085800*%
%ADD21R,1.085800X0.958800*%
%ADD22O,3.414980X1.906220*%
G04 APERTURE END LIST*
D10*
D11*
X164400000Y-71400000D03*
X168800000Y-71400000D03*
D12*
X167800000Y-71400000D03*
X165400000Y-71400000D03*
D11*
X183800000Y-83700000D03*
X188200000Y-83700000D03*
D12*
X187200000Y-83700000D03*
X184800000Y-83700000D03*
D13*
X177205000Y-79000000D03*
X175935000Y-79000000D03*
X174665000Y-79000000D03*
X173395000Y-79000000D03*
X173395000Y-85200000D03*
X174665000Y-85200000D03*
X175935000Y-85200000D03*
X177205000Y-85200000D03*
D14*
X161000000Y-85500000D03*
D15*
X170662000Y-80700000D03*
X169138000Y-80700000D03*
D16*
X168430000Y-82547500D03*
X168430000Y-84452500D03*
X170970000Y-82547500D03*
X168430000Y-83500000D03*
X170970000Y-84452500D03*
D17*
X166900000Y-78862000D03*
X166900000Y-77338000D03*
X166100000Y-82138000D03*
X166100000Y-83662000D03*
D15*
X162338000Y-81800000D03*
X163862000Y-81800000D03*
X162438000Y-83900000D03*
X163962000Y-83900000D03*
D17*
X179600000Y-85462000D03*
X179600000Y-83938000D03*
D18*
X177900000Y-72500000D03*
X172900000Y-72500000D03*
D19*
X183799860Y-75600000D03*
X189799340Y-75600000D03*
X186799600Y-70901000D03*
D20*
X180580800Y-69600000D03*
X183019200Y-69600000D03*
D21*
X179800000Y-79919200D03*
X179800000Y-77480800D03*
D15*
X170662000Y-77800000D03*
X169138000Y-77800000D03*
D14*
X192000000Y-85500000D03*
X192000000Y-69500000D03*
X161000000Y-69500000D03*
D22*
X162200000Y-76230000D03*
X162200000Y-78770000D03*
D14*
X161000000Y-89500000D03*
X192000000Y-89500000D03*
X192000000Y-105500000D03*
D15*
X170662000Y-97800000D03*
X169138000Y-97800000D03*
D21*
X179800000Y-99919200D03*
X179800000Y-97480800D03*
D20*
X180580800Y-89600000D03*
X183019200Y-89600000D03*
D19*
X183799860Y-95600000D03*
X189799340Y-95600000D03*
X186799600Y-90901000D03*
D22*
X162200000Y-96230000D03*
X162200000Y-98770000D03*
D18*
X177900000Y-92500000D03*
X172900000Y-92500000D03*
D17*
X179600000Y-105462000D03*
X179600000Y-103938000D03*
D15*
X162438000Y-103900000D03*
X163962000Y-103900000D03*
X162338000Y-101800000D03*
X163862000Y-101800000D03*
D17*
X166100000Y-102138000D03*
X166100000Y-103662000D03*
X166900000Y-98862000D03*
X166900000Y-97338000D03*
D16*
X168430000Y-102547500D03*
X168430000Y-104452500D03*
X170970000Y-102547500D03*
X168430000Y-103500000D03*
X170970000Y-104452500D03*
D15*
X170662000Y-100700000D03*
X169138000Y-100700000D03*
D14*
X161000000Y-105500000D03*
D13*
X177205000Y-99000000D03*
X175935000Y-99000000D03*
X174665000Y-99000000D03*
X173395000Y-99000000D03*
X173395000Y-105200000D03*
X174665000Y-105200000D03*
X175935000Y-105200000D03*
X177205000Y-105200000D03*
D11*
X183800000Y-103700000D03*
X188200000Y-103700000D03*
D12*
X187200000Y-103700000D03*
X184800000Y-103700000D03*
D11*
X164400000Y-91400000D03*
X168800000Y-91400000D03*
D12*
X167800000Y-91400000D03*
X165400000Y-91400000D03*
D11*
X164400000Y-131400000D03*
X168800000Y-131400000D03*
D12*
X167800000Y-131400000D03*
X165400000Y-131400000D03*
D11*
X183800000Y-143700000D03*
X188200000Y-143700000D03*
D12*
X187200000Y-143700000D03*
X184800000Y-143700000D03*
D13*
X177205000Y-139000000D03*
X175935000Y-139000000D03*
X174665000Y-139000000D03*
X173395000Y-139000000D03*
X173395000Y-145200000D03*
X174665000Y-145200000D03*
X175935000Y-145200000D03*
X177205000Y-145200000D03*
D14*
X161000000Y-145500000D03*
D15*
X170662000Y-140700000D03*
X169138000Y-140700000D03*
D16*
X168430000Y-142547500D03*
X168430000Y-144452500D03*
X170970000Y-142547500D03*
X168430000Y-143500000D03*
X170970000Y-144452500D03*
D17*
X166900000Y-138862000D03*
X166900000Y-137338000D03*
X166100000Y-142138000D03*
X166100000Y-143662000D03*
D15*
X162338000Y-141800000D03*
X163862000Y-141800000D03*
X162438000Y-143900000D03*
X163962000Y-143900000D03*
D17*
X179600000Y-145462000D03*
X179600000Y-143938000D03*
D18*
X177900000Y-132500000D03*
X172900000Y-132500000D03*
D22*
X162200000Y-136230000D03*
X162200000Y-138770000D03*
D19*
X183799860Y-135600000D03*
X189799340Y-135600000D03*
X186799600Y-130901000D03*
D20*
X180580800Y-129600000D03*
X183019200Y-129600000D03*
D21*
X179800000Y-139919200D03*
X179800000Y-137480800D03*
D15*
X170662000Y-137800000D03*
X169138000Y-137800000D03*
D14*
X192000000Y-145500000D03*
X192000000Y-129500000D03*
X161000000Y-129500000D03*
D22*
X162200000Y-116230000D03*
X162200000Y-118770000D03*
D14*
X161000000Y-109500000D03*
X192000000Y-109500000D03*
X192000000Y-125500000D03*
D15*
X170662000Y-117800000D03*
X169138000Y-117800000D03*
D21*
X179800000Y-119919200D03*
X179800000Y-117480800D03*
D20*
X180580800Y-109600000D03*
X183019200Y-109600000D03*
D19*
X183799860Y-115600000D03*
X189799340Y-115600000D03*
X186799600Y-110901000D03*
D18*
X177900000Y-112500000D03*
X172900000Y-112500000D03*
D17*
X179600000Y-125462000D03*
X179600000Y-123938000D03*
D15*
X162438000Y-123900000D03*
X163962000Y-123900000D03*
X162338000Y-121800000D03*
X163862000Y-121800000D03*
D17*
X166100000Y-122138000D03*
X166100000Y-123662000D03*
X166900000Y-118862000D03*
X166900000Y-117338000D03*
D16*
X168430000Y-122547500D03*
X168430000Y-124452500D03*
X170970000Y-122547500D03*
X168430000Y-123500000D03*
X170970000Y-124452500D03*
D15*
X170662000Y-120700000D03*
X169138000Y-120700000D03*
D14*
X161000000Y-125500000D03*
D13*
X177205000Y-119000000D03*
X175935000Y-119000000D03*
X174665000Y-119000000D03*
X173395000Y-119000000D03*
X173395000Y-125200000D03*
X174665000Y-125200000D03*
X175935000Y-125200000D03*
X177205000Y-125200000D03*
D11*
X183800000Y-123700000D03*
X188200000Y-123700000D03*
D12*
X187200000Y-123700000D03*
X184800000Y-123700000D03*
D11*
X164400000Y-111400000D03*
X168800000Y-111400000D03*
D12*
X167800000Y-111400000D03*
X165400000Y-111400000D03*
D11*
X153600000Y-103600000D03*
X149200000Y-103600000D03*
D12*
X150200000Y-103600000D03*
X152600000Y-103600000D03*
D11*
X134200000Y-91300000D03*
X129800000Y-91300000D03*
D12*
X130800000Y-91300000D03*
X133200000Y-91300000D03*
D13*
X140795000Y-96000000D03*
X142065000Y-96000000D03*
X143335000Y-96000000D03*
X144605000Y-96000000D03*
X144605000Y-89800000D03*
X143335000Y-89800000D03*
X142065000Y-89800000D03*
X140795000Y-89800000D03*
D14*
X157000000Y-89500000D03*
D15*
X147338000Y-94300000D03*
X148862000Y-94300000D03*
D16*
X149570000Y-92452500D03*
X149570000Y-90547500D03*
X147030000Y-92452500D03*
X149570000Y-91500000D03*
X147030000Y-90547500D03*
D17*
X151100000Y-96138000D03*
X151100000Y-97662000D03*
X151900000Y-92862000D03*
X151900000Y-91338000D03*
D15*
X155662000Y-93200000D03*
X154138000Y-93200000D03*
X155562000Y-91100000D03*
X154038000Y-91100000D03*
D17*
X138400000Y-89538000D03*
X138400000Y-91062000D03*
D18*
X140100000Y-102500000D03*
X145100000Y-102500000D03*
D19*
X134200140Y-99400000D03*
X128200660Y-99400000D03*
X131200400Y-104099000D03*
D20*
X137419200Y-105400000D03*
X134980800Y-105400000D03*
D21*
X138200000Y-95080800D03*
X138200000Y-97519200D03*
D15*
X147338000Y-97200000D03*
X148862000Y-97200000D03*
D14*
X126000000Y-89500000D03*
X126000000Y-105500000D03*
X157000000Y-105500000D03*
D22*
X155800000Y-98770000D03*
X155800000Y-96230000D03*
D14*
X157000000Y-85500000D03*
X126000000Y-85500000D03*
X126000000Y-69500000D03*
D15*
X147338000Y-77200000D03*
X148862000Y-77200000D03*
D21*
X138200000Y-75080800D03*
X138200000Y-77519200D03*
D20*
X137419200Y-85400000D03*
X134980800Y-85400000D03*
D19*
X134200140Y-79400000D03*
X128200660Y-79400000D03*
X131200400Y-84099000D03*
D22*
X155800000Y-78770000D03*
X155800000Y-76230000D03*
D18*
X140100000Y-82500000D03*
X145100000Y-82500000D03*
D17*
X138400000Y-69538000D03*
X138400000Y-71062000D03*
D15*
X155562000Y-71100000D03*
X154038000Y-71100000D03*
X155662000Y-73200000D03*
X154138000Y-73200000D03*
D17*
X151900000Y-72862000D03*
X151900000Y-71338000D03*
X151100000Y-76138000D03*
X151100000Y-77662000D03*
D16*
X149570000Y-72452500D03*
X149570000Y-70547500D03*
X147030000Y-72452500D03*
X149570000Y-71500000D03*
X147030000Y-70547500D03*
D15*
X147338000Y-74300000D03*
X148862000Y-74300000D03*
D14*
X157000000Y-69500000D03*
D13*
X140795000Y-76000000D03*
X142065000Y-76000000D03*
X143335000Y-76000000D03*
X144605000Y-76000000D03*
X144605000Y-69800000D03*
X143335000Y-69800000D03*
X142065000Y-69800000D03*
X140795000Y-69800000D03*
D11*
X134200000Y-71300000D03*
X129800000Y-71300000D03*
D12*
X130800000Y-71300000D03*
X133200000Y-71300000D03*
D11*
X153600000Y-83600000D03*
X149200000Y-83600000D03*
D12*
X150200000Y-83600000D03*
X152600000Y-83600000D03*
D11*
X153600000Y-123600000D03*
X149200000Y-123600000D03*
D12*
X150200000Y-123600000D03*
X152600000Y-123600000D03*
D11*
X134200000Y-111300000D03*
X129800000Y-111300000D03*
D12*
X130800000Y-111300000D03*
X133200000Y-111300000D03*
D13*
X140795000Y-116000000D03*
X142065000Y-116000000D03*
X143335000Y-116000000D03*
X144605000Y-116000000D03*
X144605000Y-109800000D03*
X143335000Y-109800000D03*
X142065000Y-109800000D03*
X140795000Y-109800000D03*
D14*
X157000000Y-109500000D03*
D15*
X147338000Y-114300000D03*
X148862000Y-114300000D03*
D16*
X149570000Y-112452500D03*
X149570000Y-110547500D03*
X147030000Y-112452500D03*
X149570000Y-111500000D03*
X147030000Y-110547500D03*
D17*
X151100000Y-116138000D03*
X151100000Y-117662000D03*
X151900000Y-112862000D03*
X151900000Y-111338000D03*
D15*
X155662000Y-113200000D03*
X154138000Y-113200000D03*
X155562000Y-111100000D03*
X154038000Y-111100000D03*
D17*
X138400000Y-109538000D03*
X138400000Y-111062000D03*
D18*
X140100000Y-122500000D03*
X145100000Y-122500000D03*
D22*
X155800000Y-118770000D03*
X155800000Y-116230000D03*
D19*
X134200140Y-119400000D03*
X128200660Y-119400000D03*
X131200400Y-124099000D03*
D20*
X137419200Y-125400000D03*
X134980800Y-125400000D03*
D21*
X138200000Y-115080800D03*
X138200000Y-117519200D03*
D15*
X147338000Y-117200000D03*
X148862000Y-117200000D03*
D14*
X126000000Y-109500000D03*
X126000000Y-125500000D03*
X157000000Y-125500000D03*
D22*
X155800000Y-138770000D03*
X155800000Y-136230000D03*
D14*
X157000000Y-145500000D03*
X126000000Y-145500000D03*
X126000000Y-129500000D03*
D15*
X147338000Y-137200000D03*
X148862000Y-137200000D03*
D21*
X138200000Y-135080800D03*
X138200000Y-137519200D03*
D20*
X137419200Y-145400000D03*
X134980800Y-145400000D03*
D19*
X134200140Y-139400000D03*
X128200660Y-139400000D03*
X131200400Y-144099000D03*
D18*
X140100000Y-142500000D03*
X145100000Y-142500000D03*
D17*
X138400000Y-129538000D03*
X138400000Y-131062000D03*
D15*
X155562000Y-131100000D03*
X154038000Y-131100000D03*
X155662000Y-133200000D03*
X154138000Y-133200000D03*
D17*
X151900000Y-132862000D03*
X151900000Y-131338000D03*
X151100000Y-136138000D03*
X151100000Y-137662000D03*
D16*
X149570000Y-132452500D03*
X149570000Y-130547500D03*
X147030000Y-132452500D03*
X149570000Y-131500000D03*
X147030000Y-130547500D03*
D15*
X147338000Y-134300000D03*
X148862000Y-134300000D03*
D14*
X157000000Y-129500000D03*
D13*
X140795000Y-136000000D03*
X142065000Y-136000000D03*
X143335000Y-136000000D03*
X144605000Y-136000000D03*
X144605000Y-129800000D03*
X143335000Y-129800000D03*
X142065000Y-129800000D03*
X140795000Y-129800000D03*
D11*
X134200000Y-131300000D03*
X129800000Y-131300000D03*
D12*
X130800000Y-131300000D03*
X133200000Y-131300000D03*
D11*
X153600000Y-143600000D03*
X149200000Y-143600000D03*
D12*
X150200000Y-143600000D03*
X152600000Y-143600000D03*
M02*
