G04 #@! TF.FileFunction,Legend,Top*
%FSLAX46Y46*%
G04 Gerber Fmt 4.6, Leading zero omitted, Abs format (unit mm)*
G04 Created by KiCad (PCBNEW 4.0.7-e2-6376~58~ubuntu14.04.1) date Wed Feb  7 09:15:08 2018*
%MOMM*%
%LPD*%
G01*
G04 APERTURE LIST*
%ADD10C,0.100000*%
%ADD11C,0.150000*%
%ADD12C,0.119380*%
%ADD13C,0.120000*%
%ADD14C,0.127000*%
%ADD15C,0.114300*%
G04 APERTURE END LIST*
D10*
X154580952Y-80761905D02*
X154733333Y-80761905D01*
X154809524Y-80800000D01*
X154885714Y-80876190D01*
X154923809Y-81028571D01*
X154923809Y-81295238D01*
X154885714Y-81447619D01*
X154809524Y-81523810D01*
X154733333Y-81561905D01*
X154580952Y-81561905D01*
X154504762Y-81523810D01*
X154428571Y-81447619D01*
X154390476Y-81295238D01*
X154390476Y-81028571D01*
X154428571Y-80876190D01*
X154504762Y-80800000D01*
X154580952Y-80761905D01*
X155609523Y-81028571D02*
X155609523Y-81561905D01*
X155266666Y-81028571D02*
X155266666Y-81447619D01*
X155304761Y-81523810D01*
X155380952Y-81561905D01*
X155495238Y-81561905D01*
X155571428Y-81523810D01*
X155609523Y-81485714D01*
X155876190Y-81028571D02*
X156180952Y-81028571D01*
X155990476Y-80761905D02*
X155990476Y-81447619D01*
X156028571Y-81523810D01*
X156104762Y-81561905D01*
X156180952Y-81561905D01*
X156447619Y-81028571D02*
X156447619Y-81828571D01*
X156447619Y-81066667D02*
X156523810Y-81028571D01*
X156676191Y-81028571D01*
X156752381Y-81066667D01*
X156790476Y-81104762D01*
X156828572Y-81180952D01*
X156828572Y-81409524D01*
X156790476Y-81485714D01*
X156752381Y-81523810D01*
X156676191Y-81561905D01*
X156523810Y-81561905D01*
X156447619Y-81523810D01*
X157514286Y-81028571D02*
X157514286Y-81561905D01*
X157171429Y-81028571D02*
X157171429Y-81447619D01*
X157209524Y-81523810D01*
X157285715Y-81561905D01*
X157400001Y-81561905D01*
X157476191Y-81523810D01*
X157514286Y-81485714D01*
X157780953Y-81028571D02*
X158085715Y-81028571D01*
X157895239Y-80761905D02*
X157895239Y-81447619D01*
X157933334Y-81523810D01*
X158009525Y-81561905D01*
X158085715Y-81561905D01*
X125585714Y-73011905D02*
X125585714Y-72211905D01*
X125966666Y-72478571D02*
X125966666Y-73011905D01*
X125966666Y-72554762D02*
X126004761Y-72516667D01*
X126080952Y-72478571D01*
X126195238Y-72478571D01*
X126271428Y-72516667D01*
X126309523Y-72592857D01*
X126309523Y-73011905D01*
X126690476Y-72478571D02*
X126690476Y-73278571D01*
X126690476Y-72516667D02*
X126766667Y-72478571D01*
X126919048Y-72478571D01*
X126995238Y-72516667D01*
X127033333Y-72554762D01*
X127071429Y-72630952D01*
X127071429Y-72859524D01*
X127033333Y-72935714D01*
X126995238Y-72973810D01*
X126919048Y-73011905D01*
X126766667Y-73011905D01*
X126690476Y-72973810D01*
X127757143Y-72478571D02*
X127757143Y-73011905D01*
X127414286Y-72478571D02*
X127414286Y-72897619D01*
X127452381Y-72973810D01*
X127528572Y-73011905D01*
X127642858Y-73011905D01*
X127719048Y-72973810D01*
X127757143Y-72935714D01*
X128023810Y-72478571D02*
X128328572Y-72478571D01*
X128138096Y-72211905D02*
X128138096Y-72897619D01*
X128176191Y-72973810D01*
X128252382Y-73011905D01*
X128328572Y-73011905D01*
X124804762Y-74311905D02*
X124347619Y-74311905D01*
X124576190Y-74311905D02*
X124576190Y-73511905D01*
X124500000Y-73626190D01*
X124423809Y-73702381D01*
X124347619Y-73740476D01*
X125109524Y-73588095D02*
X125147619Y-73550000D01*
X125223810Y-73511905D01*
X125414286Y-73511905D01*
X125490476Y-73550000D01*
X125528572Y-73588095D01*
X125566667Y-73664286D01*
X125566667Y-73740476D01*
X125528572Y-73854762D01*
X125071429Y-74311905D01*
X125566667Y-74311905D01*
X125795238Y-73511905D02*
X126061905Y-74311905D01*
X126328572Y-73511905D01*
X126595238Y-74007143D02*
X127204762Y-74007143D01*
X127509524Y-73511905D02*
X128004762Y-73511905D01*
X127738095Y-73816667D01*
X127852381Y-73816667D01*
X127928571Y-73854762D01*
X127966667Y-73892857D01*
X128004762Y-73969048D01*
X128004762Y-74159524D01*
X127966667Y-74235714D01*
X127928571Y-74273810D01*
X127852381Y-74311905D01*
X127623809Y-74311905D01*
X127547619Y-74273810D01*
X127509524Y-74235714D01*
X128500000Y-73511905D02*
X128576191Y-73511905D01*
X128652381Y-73550000D01*
X128690476Y-73588095D01*
X128728572Y-73664286D01*
X128766667Y-73816667D01*
X128766667Y-74007143D01*
X128728572Y-74159524D01*
X128690476Y-74235714D01*
X128652381Y-74273810D01*
X128576191Y-74311905D01*
X128500000Y-74311905D01*
X128423810Y-74273810D01*
X128385714Y-74235714D01*
X128347619Y-74159524D01*
X128309524Y-74007143D01*
X128309524Y-73816667D01*
X128347619Y-73664286D01*
X128385714Y-73588095D01*
X128423810Y-73550000D01*
X128500000Y-73511905D01*
X128995238Y-73511905D02*
X129261905Y-74311905D01*
X129528572Y-73511905D01*
X125585714Y-53011905D02*
X125585714Y-52211905D01*
X125966666Y-52478571D02*
X125966666Y-53011905D01*
X125966666Y-52554762D02*
X126004761Y-52516667D01*
X126080952Y-52478571D01*
X126195238Y-52478571D01*
X126271428Y-52516667D01*
X126309523Y-52592857D01*
X126309523Y-53011905D01*
X126690476Y-52478571D02*
X126690476Y-53278571D01*
X126690476Y-52516667D02*
X126766667Y-52478571D01*
X126919048Y-52478571D01*
X126995238Y-52516667D01*
X127033333Y-52554762D01*
X127071429Y-52630952D01*
X127071429Y-52859524D01*
X127033333Y-52935714D01*
X126995238Y-52973810D01*
X126919048Y-53011905D01*
X126766667Y-53011905D01*
X126690476Y-52973810D01*
X127757143Y-52478571D02*
X127757143Y-53011905D01*
X127414286Y-52478571D02*
X127414286Y-52897619D01*
X127452381Y-52973810D01*
X127528572Y-53011905D01*
X127642858Y-53011905D01*
X127719048Y-52973810D01*
X127757143Y-52935714D01*
X128023810Y-52478571D02*
X128328572Y-52478571D01*
X128138096Y-52211905D02*
X128138096Y-52897619D01*
X128176191Y-52973810D01*
X128252382Y-53011905D01*
X128328572Y-53011905D01*
X124804762Y-54311905D02*
X124347619Y-54311905D01*
X124576190Y-54311905D02*
X124576190Y-53511905D01*
X124500000Y-53626190D01*
X124423809Y-53702381D01*
X124347619Y-53740476D01*
X125109524Y-53588095D02*
X125147619Y-53550000D01*
X125223810Y-53511905D01*
X125414286Y-53511905D01*
X125490476Y-53550000D01*
X125528572Y-53588095D01*
X125566667Y-53664286D01*
X125566667Y-53740476D01*
X125528572Y-53854762D01*
X125071429Y-54311905D01*
X125566667Y-54311905D01*
X125795238Y-53511905D02*
X126061905Y-54311905D01*
X126328572Y-53511905D01*
X126595238Y-54007143D02*
X127204762Y-54007143D01*
X127509524Y-53511905D02*
X128004762Y-53511905D01*
X127738095Y-53816667D01*
X127852381Y-53816667D01*
X127928571Y-53854762D01*
X127966667Y-53892857D01*
X128004762Y-53969048D01*
X128004762Y-54159524D01*
X127966667Y-54235714D01*
X127928571Y-54273810D01*
X127852381Y-54311905D01*
X127623809Y-54311905D01*
X127547619Y-54273810D01*
X127509524Y-54235714D01*
X128500000Y-53511905D02*
X128576191Y-53511905D01*
X128652381Y-53550000D01*
X128690476Y-53588095D01*
X128728572Y-53664286D01*
X128766667Y-53816667D01*
X128766667Y-54007143D01*
X128728572Y-54159524D01*
X128690476Y-54235714D01*
X128652381Y-54273810D01*
X128576191Y-54311905D01*
X128500000Y-54311905D01*
X128423810Y-54273810D01*
X128385714Y-54235714D01*
X128347619Y-54159524D01*
X128309524Y-54007143D01*
X128309524Y-53816667D01*
X128347619Y-53664286D01*
X128385714Y-53588095D01*
X128423810Y-53550000D01*
X128500000Y-53511905D01*
X128995238Y-53511905D02*
X129261905Y-54311905D01*
X129528572Y-53511905D01*
X154580952Y-60761905D02*
X154733333Y-60761905D01*
X154809524Y-60800000D01*
X154885714Y-60876190D01*
X154923809Y-61028571D01*
X154923809Y-61295238D01*
X154885714Y-61447619D01*
X154809524Y-61523810D01*
X154733333Y-61561905D01*
X154580952Y-61561905D01*
X154504762Y-61523810D01*
X154428571Y-61447619D01*
X154390476Y-61295238D01*
X154390476Y-61028571D01*
X154428571Y-60876190D01*
X154504762Y-60800000D01*
X154580952Y-60761905D01*
X155609523Y-61028571D02*
X155609523Y-61561905D01*
X155266666Y-61028571D02*
X155266666Y-61447619D01*
X155304761Y-61523810D01*
X155380952Y-61561905D01*
X155495238Y-61561905D01*
X155571428Y-61523810D01*
X155609523Y-61485714D01*
X155876190Y-61028571D02*
X156180952Y-61028571D01*
X155990476Y-60761905D02*
X155990476Y-61447619D01*
X156028571Y-61523810D01*
X156104762Y-61561905D01*
X156180952Y-61561905D01*
X156447619Y-61028571D02*
X156447619Y-61828571D01*
X156447619Y-61066667D02*
X156523810Y-61028571D01*
X156676191Y-61028571D01*
X156752381Y-61066667D01*
X156790476Y-61104762D01*
X156828572Y-61180952D01*
X156828572Y-61409524D01*
X156790476Y-61485714D01*
X156752381Y-61523810D01*
X156676191Y-61561905D01*
X156523810Y-61561905D01*
X156447619Y-61523810D01*
X157514286Y-61028571D02*
X157514286Y-61561905D01*
X157171429Y-61028571D02*
X157171429Y-61447619D01*
X157209524Y-61523810D01*
X157285715Y-61561905D01*
X157400001Y-61561905D01*
X157476191Y-61523810D01*
X157514286Y-61485714D01*
X157780953Y-61028571D02*
X158085715Y-61028571D01*
X157895239Y-60761905D02*
X157895239Y-61447619D01*
X157933334Y-61523810D01*
X158009525Y-61561905D01*
X158085715Y-61561905D01*
X119580952Y-60761905D02*
X119733333Y-60761905D01*
X119809524Y-60800000D01*
X119885714Y-60876190D01*
X119923809Y-61028571D01*
X119923809Y-61295238D01*
X119885714Y-61447619D01*
X119809524Y-61523810D01*
X119733333Y-61561905D01*
X119580952Y-61561905D01*
X119504762Y-61523810D01*
X119428571Y-61447619D01*
X119390476Y-61295238D01*
X119390476Y-61028571D01*
X119428571Y-60876190D01*
X119504762Y-60800000D01*
X119580952Y-60761905D01*
X120609523Y-61028571D02*
X120609523Y-61561905D01*
X120266666Y-61028571D02*
X120266666Y-61447619D01*
X120304761Y-61523810D01*
X120380952Y-61561905D01*
X120495238Y-61561905D01*
X120571428Y-61523810D01*
X120609523Y-61485714D01*
X120876190Y-61028571D02*
X121180952Y-61028571D01*
X120990476Y-60761905D02*
X120990476Y-61447619D01*
X121028571Y-61523810D01*
X121104762Y-61561905D01*
X121180952Y-61561905D01*
X121447619Y-61028571D02*
X121447619Y-61828571D01*
X121447619Y-61066667D02*
X121523810Y-61028571D01*
X121676191Y-61028571D01*
X121752381Y-61066667D01*
X121790476Y-61104762D01*
X121828572Y-61180952D01*
X121828572Y-61409524D01*
X121790476Y-61485714D01*
X121752381Y-61523810D01*
X121676191Y-61561905D01*
X121523810Y-61561905D01*
X121447619Y-61523810D01*
X122514286Y-61028571D02*
X122514286Y-61561905D01*
X122171429Y-61028571D02*
X122171429Y-61447619D01*
X122209524Y-61523810D01*
X122285715Y-61561905D01*
X122400001Y-61561905D01*
X122476191Y-61523810D01*
X122514286Y-61485714D01*
X122780953Y-61028571D02*
X123085715Y-61028571D01*
X122895239Y-60761905D02*
X122895239Y-61447619D01*
X122933334Y-61523810D01*
X123009525Y-61561905D01*
X123085715Y-61561905D01*
X90585714Y-53011905D02*
X90585714Y-52211905D01*
X90966666Y-52478571D02*
X90966666Y-53011905D01*
X90966666Y-52554762D02*
X91004761Y-52516667D01*
X91080952Y-52478571D01*
X91195238Y-52478571D01*
X91271428Y-52516667D01*
X91309523Y-52592857D01*
X91309523Y-53011905D01*
X91690476Y-52478571D02*
X91690476Y-53278571D01*
X91690476Y-52516667D02*
X91766667Y-52478571D01*
X91919048Y-52478571D01*
X91995238Y-52516667D01*
X92033333Y-52554762D01*
X92071429Y-52630952D01*
X92071429Y-52859524D01*
X92033333Y-52935714D01*
X91995238Y-52973810D01*
X91919048Y-53011905D01*
X91766667Y-53011905D01*
X91690476Y-52973810D01*
X92757143Y-52478571D02*
X92757143Y-53011905D01*
X92414286Y-52478571D02*
X92414286Y-52897619D01*
X92452381Y-52973810D01*
X92528572Y-53011905D01*
X92642858Y-53011905D01*
X92719048Y-52973810D01*
X92757143Y-52935714D01*
X93023810Y-52478571D02*
X93328572Y-52478571D01*
X93138096Y-52211905D02*
X93138096Y-52897619D01*
X93176191Y-52973810D01*
X93252382Y-53011905D01*
X93328572Y-53011905D01*
X89804762Y-54311905D02*
X89347619Y-54311905D01*
X89576190Y-54311905D02*
X89576190Y-53511905D01*
X89500000Y-53626190D01*
X89423809Y-53702381D01*
X89347619Y-53740476D01*
X90109524Y-53588095D02*
X90147619Y-53550000D01*
X90223810Y-53511905D01*
X90414286Y-53511905D01*
X90490476Y-53550000D01*
X90528572Y-53588095D01*
X90566667Y-53664286D01*
X90566667Y-53740476D01*
X90528572Y-53854762D01*
X90071429Y-54311905D01*
X90566667Y-54311905D01*
X90795238Y-53511905D02*
X91061905Y-54311905D01*
X91328572Y-53511905D01*
X91595238Y-54007143D02*
X92204762Y-54007143D01*
X92509524Y-53511905D02*
X93004762Y-53511905D01*
X92738095Y-53816667D01*
X92852381Y-53816667D01*
X92928571Y-53854762D01*
X92966667Y-53892857D01*
X93004762Y-53969048D01*
X93004762Y-54159524D01*
X92966667Y-54235714D01*
X92928571Y-54273810D01*
X92852381Y-54311905D01*
X92623809Y-54311905D01*
X92547619Y-54273810D01*
X92509524Y-54235714D01*
X93500000Y-53511905D02*
X93576191Y-53511905D01*
X93652381Y-53550000D01*
X93690476Y-53588095D01*
X93728572Y-53664286D01*
X93766667Y-53816667D01*
X93766667Y-54007143D01*
X93728572Y-54159524D01*
X93690476Y-54235714D01*
X93652381Y-54273810D01*
X93576191Y-54311905D01*
X93500000Y-54311905D01*
X93423810Y-54273810D01*
X93385714Y-54235714D01*
X93347619Y-54159524D01*
X93309524Y-54007143D01*
X93309524Y-53816667D01*
X93347619Y-53664286D01*
X93385714Y-53588095D01*
X93423810Y-53550000D01*
X93500000Y-53511905D01*
X93995238Y-53511905D02*
X94261905Y-54311905D01*
X94528572Y-53511905D01*
X90585714Y-73011905D02*
X90585714Y-72211905D01*
X90966666Y-72478571D02*
X90966666Y-73011905D01*
X90966666Y-72554762D02*
X91004761Y-72516667D01*
X91080952Y-72478571D01*
X91195238Y-72478571D01*
X91271428Y-72516667D01*
X91309523Y-72592857D01*
X91309523Y-73011905D01*
X91690476Y-72478571D02*
X91690476Y-73278571D01*
X91690476Y-72516667D02*
X91766667Y-72478571D01*
X91919048Y-72478571D01*
X91995238Y-72516667D01*
X92033333Y-72554762D01*
X92071429Y-72630952D01*
X92071429Y-72859524D01*
X92033333Y-72935714D01*
X91995238Y-72973810D01*
X91919048Y-73011905D01*
X91766667Y-73011905D01*
X91690476Y-72973810D01*
X92757143Y-72478571D02*
X92757143Y-73011905D01*
X92414286Y-72478571D02*
X92414286Y-72897619D01*
X92452381Y-72973810D01*
X92528572Y-73011905D01*
X92642858Y-73011905D01*
X92719048Y-72973810D01*
X92757143Y-72935714D01*
X93023810Y-72478571D02*
X93328572Y-72478571D01*
X93138096Y-72211905D02*
X93138096Y-72897619D01*
X93176191Y-72973810D01*
X93252382Y-73011905D01*
X93328572Y-73011905D01*
X89804762Y-74311905D02*
X89347619Y-74311905D01*
X89576190Y-74311905D02*
X89576190Y-73511905D01*
X89500000Y-73626190D01*
X89423809Y-73702381D01*
X89347619Y-73740476D01*
X90109524Y-73588095D02*
X90147619Y-73550000D01*
X90223810Y-73511905D01*
X90414286Y-73511905D01*
X90490476Y-73550000D01*
X90528572Y-73588095D01*
X90566667Y-73664286D01*
X90566667Y-73740476D01*
X90528572Y-73854762D01*
X90071429Y-74311905D01*
X90566667Y-74311905D01*
X90795238Y-73511905D02*
X91061905Y-74311905D01*
X91328572Y-73511905D01*
X91595238Y-74007143D02*
X92204762Y-74007143D01*
X92509524Y-73511905D02*
X93004762Y-73511905D01*
X92738095Y-73816667D01*
X92852381Y-73816667D01*
X92928571Y-73854762D01*
X92966667Y-73892857D01*
X93004762Y-73969048D01*
X93004762Y-74159524D01*
X92966667Y-74235714D01*
X92928571Y-74273810D01*
X92852381Y-74311905D01*
X92623809Y-74311905D01*
X92547619Y-74273810D01*
X92509524Y-74235714D01*
X93500000Y-73511905D02*
X93576191Y-73511905D01*
X93652381Y-73550000D01*
X93690476Y-73588095D01*
X93728572Y-73664286D01*
X93766667Y-73816667D01*
X93766667Y-74007143D01*
X93728572Y-74159524D01*
X93690476Y-74235714D01*
X93652381Y-74273810D01*
X93576191Y-74311905D01*
X93500000Y-74311905D01*
X93423810Y-74273810D01*
X93385714Y-74235714D01*
X93347619Y-74159524D01*
X93309524Y-74007143D01*
X93309524Y-73816667D01*
X93347619Y-73664286D01*
X93385714Y-73588095D01*
X93423810Y-73550000D01*
X93500000Y-73511905D01*
X93995238Y-73511905D02*
X94261905Y-74311905D01*
X94528572Y-73511905D01*
X119580952Y-80761905D02*
X119733333Y-80761905D01*
X119809524Y-80800000D01*
X119885714Y-80876190D01*
X119923809Y-81028571D01*
X119923809Y-81295238D01*
X119885714Y-81447619D01*
X119809524Y-81523810D01*
X119733333Y-81561905D01*
X119580952Y-81561905D01*
X119504762Y-81523810D01*
X119428571Y-81447619D01*
X119390476Y-81295238D01*
X119390476Y-81028571D01*
X119428571Y-80876190D01*
X119504762Y-80800000D01*
X119580952Y-80761905D01*
X120609523Y-81028571D02*
X120609523Y-81561905D01*
X120266666Y-81028571D02*
X120266666Y-81447619D01*
X120304761Y-81523810D01*
X120380952Y-81561905D01*
X120495238Y-81561905D01*
X120571428Y-81523810D01*
X120609523Y-81485714D01*
X120876190Y-81028571D02*
X121180952Y-81028571D01*
X120990476Y-80761905D02*
X120990476Y-81447619D01*
X121028571Y-81523810D01*
X121104762Y-81561905D01*
X121180952Y-81561905D01*
X121447619Y-81028571D02*
X121447619Y-81828571D01*
X121447619Y-81066667D02*
X121523810Y-81028571D01*
X121676191Y-81028571D01*
X121752381Y-81066667D01*
X121790476Y-81104762D01*
X121828572Y-81180952D01*
X121828572Y-81409524D01*
X121790476Y-81485714D01*
X121752381Y-81523810D01*
X121676191Y-81561905D01*
X121523810Y-81561905D01*
X121447619Y-81523810D01*
X122514286Y-81028571D02*
X122514286Y-81561905D01*
X122171429Y-81028571D02*
X122171429Y-81447619D01*
X122209524Y-81523810D01*
X122285715Y-81561905D01*
X122400001Y-81561905D01*
X122476191Y-81523810D01*
X122514286Y-81485714D01*
X122780953Y-81028571D02*
X123085715Y-81028571D01*
X122895239Y-80761905D02*
X122895239Y-81447619D01*
X122933334Y-81523810D01*
X123009525Y-81561905D01*
X123085715Y-81561905D01*
X119580952Y-120761905D02*
X119733333Y-120761905D01*
X119809524Y-120800000D01*
X119885714Y-120876190D01*
X119923809Y-121028571D01*
X119923809Y-121295238D01*
X119885714Y-121447619D01*
X119809524Y-121523810D01*
X119733333Y-121561905D01*
X119580952Y-121561905D01*
X119504762Y-121523810D01*
X119428571Y-121447619D01*
X119390476Y-121295238D01*
X119390476Y-121028571D01*
X119428571Y-120876190D01*
X119504762Y-120800000D01*
X119580952Y-120761905D01*
X120609523Y-121028571D02*
X120609523Y-121561905D01*
X120266666Y-121028571D02*
X120266666Y-121447619D01*
X120304761Y-121523810D01*
X120380952Y-121561905D01*
X120495238Y-121561905D01*
X120571428Y-121523810D01*
X120609523Y-121485714D01*
X120876190Y-121028571D02*
X121180952Y-121028571D01*
X120990476Y-120761905D02*
X120990476Y-121447619D01*
X121028571Y-121523810D01*
X121104762Y-121561905D01*
X121180952Y-121561905D01*
X121447619Y-121028571D02*
X121447619Y-121828571D01*
X121447619Y-121066667D02*
X121523810Y-121028571D01*
X121676191Y-121028571D01*
X121752381Y-121066667D01*
X121790476Y-121104762D01*
X121828572Y-121180952D01*
X121828572Y-121409524D01*
X121790476Y-121485714D01*
X121752381Y-121523810D01*
X121676191Y-121561905D01*
X121523810Y-121561905D01*
X121447619Y-121523810D01*
X122514286Y-121028571D02*
X122514286Y-121561905D01*
X122171429Y-121028571D02*
X122171429Y-121447619D01*
X122209524Y-121523810D01*
X122285715Y-121561905D01*
X122400001Y-121561905D01*
X122476191Y-121523810D01*
X122514286Y-121485714D01*
X122780953Y-121028571D02*
X123085715Y-121028571D01*
X122895239Y-120761905D02*
X122895239Y-121447619D01*
X122933334Y-121523810D01*
X123009525Y-121561905D01*
X123085715Y-121561905D01*
X90585714Y-113011905D02*
X90585714Y-112211905D01*
X90966666Y-112478571D02*
X90966666Y-113011905D01*
X90966666Y-112554762D02*
X91004761Y-112516667D01*
X91080952Y-112478571D01*
X91195238Y-112478571D01*
X91271428Y-112516667D01*
X91309523Y-112592857D01*
X91309523Y-113011905D01*
X91690476Y-112478571D02*
X91690476Y-113278571D01*
X91690476Y-112516667D02*
X91766667Y-112478571D01*
X91919048Y-112478571D01*
X91995238Y-112516667D01*
X92033333Y-112554762D01*
X92071429Y-112630952D01*
X92071429Y-112859524D01*
X92033333Y-112935714D01*
X91995238Y-112973810D01*
X91919048Y-113011905D01*
X91766667Y-113011905D01*
X91690476Y-112973810D01*
X92757143Y-112478571D02*
X92757143Y-113011905D01*
X92414286Y-112478571D02*
X92414286Y-112897619D01*
X92452381Y-112973810D01*
X92528572Y-113011905D01*
X92642858Y-113011905D01*
X92719048Y-112973810D01*
X92757143Y-112935714D01*
X93023810Y-112478571D02*
X93328572Y-112478571D01*
X93138096Y-112211905D02*
X93138096Y-112897619D01*
X93176191Y-112973810D01*
X93252382Y-113011905D01*
X93328572Y-113011905D01*
X89804762Y-114311905D02*
X89347619Y-114311905D01*
X89576190Y-114311905D02*
X89576190Y-113511905D01*
X89500000Y-113626190D01*
X89423809Y-113702381D01*
X89347619Y-113740476D01*
X90109524Y-113588095D02*
X90147619Y-113550000D01*
X90223810Y-113511905D01*
X90414286Y-113511905D01*
X90490476Y-113550000D01*
X90528572Y-113588095D01*
X90566667Y-113664286D01*
X90566667Y-113740476D01*
X90528572Y-113854762D01*
X90071429Y-114311905D01*
X90566667Y-114311905D01*
X90795238Y-113511905D02*
X91061905Y-114311905D01*
X91328572Y-113511905D01*
X91595238Y-114007143D02*
X92204762Y-114007143D01*
X92509524Y-113511905D02*
X93004762Y-113511905D01*
X92738095Y-113816667D01*
X92852381Y-113816667D01*
X92928571Y-113854762D01*
X92966667Y-113892857D01*
X93004762Y-113969048D01*
X93004762Y-114159524D01*
X92966667Y-114235714D01*
X92928571Y-114273810D01*
X92852381Y-114311905D01*
X92623809Y-114311905D01*
X92547619Y-114273810D01*
X92509524Y-114235714D01*
X93500000Y-113511905D02*
X93576191Y-113511905D01*
X93652381Y-113550000D01*
X93690476Y-113588095D01*
X93728572Y-113664286D01*
X93766667Y-113816667D01*
X93766667Y-114007143D01*
X93728572Y-114159524D01*
X93690476Y-114235714D01*
X93652381Y-114273810D01*
X93576191Y-114311905D01*
X93500000Y-114311905D01*
X93423810Y-114273810D01*
X93385714Y-114235714D01*
X93347619Y-114159524D01*
X93309524Y-114007143D01*
X93309524Y-113816667D01*
X93347619Y-113664286D01*
X93385714Y-113588095D01*
X93423810Y-113550000D01*
X93500000Y-113511905D01*
X93995238Y-113511905D02*
X94261905Y-114311905D01*
X94528572Y-113511905D01*
X90585714Y-93011905D02*
X90585714Y-92211905D01*
X90966666Y-92478571D02*
X90966666Y-93011905D01*
X90966666Y-92554762D02*
X91004761Y-92516667D01*
X91080952Y-92478571D01*
X91195238Y-92478571D01*
X91271428Y-92516667D01*
X91309523Y-92592857D01*
X91309523Y-93011905D01*
X91690476Y-92478571D02*
X91690476Y-93278571D01*
X91690476Y-92516667D02*
X91766667Y-92478571D01*
X91919048Y-92478571D01*
X91995238Y-92516667D01*
X92033333Y-92554762D01*
X92071429Y-92630952D01*
X92071429Y-92859524D01*
X92033333Y-92935714D01*
X91995238Y-92973810D01*
X91919048Y-93011905D01*
X91766667Y-93011905D01*
X91690476Y-92973810D01*
X92757143Y-92478571D02*
X92757143Y-93011905D01*
X92414286Y-92478571D02*
X92414286Y-92897619D01*
X92452381Y-92973810D01*
X92528572Y-93011905D01*
X92642858Y-93011905D01*
X92719048Y-92973810D01*
X92757143Y-92935714D01*
X93023810Y-92478571D02*
X93328572Y-92478571D01*
X93138096Y-92211905D02*
X93138096Y-92897619D01*
X93176191Y-92973810D01*
X93252382Y-93011905D01*
X93328572Y-93011905D01*
X89804762Y-94311905D02*
X89347619Y-94311905D01*
X89576190Y-94311905D02*
X89576190Y-93511905D01*
X89500000Y-93626190D01*
X89423809Y-93702381D01*
X89347619Y-93740476D01*
X90109524Y-93588095D02*
X90147619Y-93550000D01*
X90223810Y-93511905D01*
X90414286Y-93511905D01*
X90490476Y-93550000D01*
X90528572Y-93588095D01*
X90566667Y-93664286D01*
X90566667Y-93740476D01*
X90528572Y-93854762D01*
X90071429Y-94311905D01*
X90566667Y-94311905D01*
X90795238Y-93511905D02*
X91061905Y-94311905D01*
X91328572Y-93511905D01*
X91595238Y-94007143D02*
X92204762Y-94007143D01*
X92509524Y-93511905D02*
X93004762Y-93511905D01*
X92738095Y-93816667D01*
X92852381Y-93816667D01*
X92928571Y-93854762D01*
X92966667Y-93892857D01*
X93004762Y-93969048D01*
X93004762Y-94159524D01*
X92966667Y-94235714D01*
X92928571Y-94273810D01*
X92852381Y-94311905D01*
X92623809Y-94311905D01*
X92547619Y-94273810D01*
X92509524Y-94235714D01*
X93500000Y-93511905D02*
X93576191Y-93511905D01*
X93652381Y-93550000D01*
X93690476Y-93588095D01*
X93728572Y-93664286D01*
X93766667Y-93816667D01*
X93766667Y-94007143D01*
X93728572Y-94159524D01*
X93690476Y-94235714D01*
X93652381Y-94273810D01*
X93576191Y-94311905D01*
X93500000Y-94311905D01*
X93423810Y-94273810D01*
X93385714Y-94235714D01*
X93347619Y-94159524D01*
X93309524Y-94007143D01*
X93309524Y-93816667D01*
X93347619Y-93664286D01*
X93385714Y-93588095D01*
X93423810Y-93550000D01*
X93500000Y-93511905D01*
X93995238Y-93511905D02*
X94261905Y-94311905D01*
X94528572Y-93511905D01*
X119580952Y-100761905D02*
X119733333Y-100761905D01*
X119809524Y-100800000D01*
X119885714Y-100876190D01*
X119923809Y-101028571D01*
X119923809Y-101295238D01*
X119885714Y-101447619D01*
X119809524Y-101523810D01*
X119733333Y-101561905D01*
X119580952Y-101561905D01*
X119504762Y-101523810D01*
X119428571Y-101447619D01*
X119390476Y-101295238D01*
X119390476Y-101028571D01*
X119428571Y-100876190D01*
X119504762Y-100800000D01*
X119580952Y-100761905D01*
X120609523Y-101028571D02*
X120609523Y-101561905D01*
X120266666Y-101028571D02*
X120266666Y-101447619D01*
X120304761Y-101523810D01*
X120380952Y-101561905D01*
X120495238Y-101561905D01*
X120571428Y-101523810D01*
X120609523Y-101485714D01*
X120876190Y-101028571D02*
X121180952Y-101028571D01*
X120990476Y-100761905D02*
X120990476Y-101447619D01*
X121028571Y-101523810D01*
X121104762Y-101561905D01*
X121180952Y-101561905D01*
X121447619Y-101028571D02*
X121447619Y-101828571D01*
X121447619Y-101066667D02*
X121523810Y-101028571D01*
X121676191Y-101028571D01*
X121752381Y-101066667D01*
X121790476Y-101104762D01*
X121828572Y-101180952D01*
X121828572Y-101409524D01*
X121790476Y-101485714D01*
X121752381Y-101523810D01*
X121676191Y-101561905D01*
X121523810Y-101561905D01*
X121447619Y-101523810D01*
X122514286Y-101028571D02*
X122514286Y-101561905D01*
X122171429Y-101028571D02*
X122171429Y-101447619D01*
X122209524Y-101523810D01*
X122285715Y-101561905D01*
X122400001Y-101561905D01*
X122476191Y-101523810D01*
X122514286Y-101485714D01*
X122780953Y-101028571D02*
X123085715Y-101028571D01*
X122895239Y-100761905D02*
X122895239Y-101447619D01*
X122933334Y-101523810D01*
X123009525Y-101561905D01*
X123085715Y-101561905D01*
X154580952Y-100761905D02*
X154733333Y-100761905D01*
X154809524Y-100800000D01*
X154885714Y-100876190D01*
X154923809Y-101028571D01*
X154923809Y-101295238D01*
X154885714Y-101447619D01*
X154809524Y-101523810D01*
X154733333Y-101561905D01*
X154580952Y-101561905D01*
X154504762Y-101523810D01*
X154428571Y-101447619D01*
X154390476Y-101295238D01*
X154390476Y-101028571D01*
X154428571Y-100876190D01*
X154504762Y-100800000D01*
X154580952Y-100761905D01*
X155609523Y-101028571D02*
X155609523Y-101561905D01*
X155266666Y-101028571D02*
X155266666Y-101447619D01*
X155304761Y-101523810D01*
X155380952Y-101561905D01*
X155495238Y-101561905D01*
X155571428Y-101523810D01*
X155609523Y-101485714D01*
X155876190Y-101028571D02*
X156180952Y-101028571D01*
X155990476Y-100761905D02*
X155990476Y-101447619D01*
X156028571Y-101523810D01*
X156104762Y-101561905D01*
X156180952Y-101561905D01*
X156447619Y-101028571D02*
X156447619Y-101828571D01*
X156447619Y-101066667D02*
X156523810Y-101028571D01*
X156676191Y-101028571D01*
X156752381Y-101066667D01*
X156790476Y-101104762D01*
X156828572Y-101180952D01*
X156828572Y-101409524D01*
X156790476Y-101485714D01*
X156752381Y-101523810D01*
X156676191Y-101561905D01*
X156523810Y-101561905D01*
X156447619Y-101523810D01*
X157514286Y-101028571D02*
X157514286Y-101561905D01*
X157171429Y-101028571D02*
X157171429Y-101447619D01*
X157209524Y-101523810D01*
X157285715Y-101561905D01*
X157400001Y-101561905D01*
X157476191Y-101523810D01*
X157514286Y-101485714D01*
X157780953Y-101028571D02*
X158085715Y-101028571D01*
X157895239Y-100761905D02*
X157895239Y-101447619D01*
X157933334Y-101523810D01*
X158009525Y-101561905D01*
X158085715Y-101561905D01*
X125585714Y-93011905D02*
X125585714Y-92211905D01*
X125966666Y-92478571D02*
X125966666Y-93011905D01*
X125966666Y-92554762D02*
X126004761Y-92516667D01*
X126080952Y-92478571D01*
X126195238Y-92478571D01*
X126271428Y-92516667D01*
X126309523Y-92592857D01*
X126309523Y-93011905D01*
X126690476Y-92478571D02*
X126690476Y-93278571D01*
X126690476Y-92516667D02*
X126766667Y-92478571D01*
X126919048Y-92478571D01*
X126995238Y-92516667D01*
X127033333Y-92554762D01*
X127071429Y-92630952D01*
X127071429Y-92859524D01*
X127033333Y-92935714D01*
X126995238Y-92973810D01*
X126919048Y-93011905D01*
X126766667Y-93011905D01*
X126690476Y-92973810D01*
X127757143Y-92478571D02*
X127757143Y-93011905D01*
X127414286Y-92478571D02*
X127414286Y-92897619D01*
X127452381Y-92973810D01*
X127528572Y-93011905D01*
X127642858Y-93011905D01*
X127719048Y-92973810D01*
X127757143Y-92935714D01*
X128023810Y-92478571D02*
X128328572Y-92478571D01*
X128138096Y-92211905D02*
X128138096Y-92897619D01*
X128176191Y-92973810D01*
X128252382Y-93011905D01*
X128328572Y-93011905D01*
X124804762Y-94311905D02*
X124347619Y-94311905D01*
X124576190Y-94311905D02*
X124576190Y-93511905D01*
X124500000Y-93626190D01*
X124423809Y-93702381D01*
X124347619Y-93740476D01*
X125109524Y-93588095D02*
X125147619Y-93550000D01*
X125223810Y-93511905D01*
X125414286Y-93511905D01*
X125490476Y-93550000D01*
X125528572Y-93588095D01*
X125566667Y-93664286D01*
X125566667Y-93740476D01*
X125528572Y-93854762D01*
X125071429Y-94311905D01*
X125566667Y-94311905D01*
X125795238Y-93511905D02*
X126061905Y-94311905D01*
X126328572Y-93511905D01*
X126595238Y-94007143D02*
X127204762Y-94007143D01*
X127509524Y-93511905D02*
X128004762Y-93511905D01*
X127738095Y-93816667D01*
X127852381Y-93816667D01*
X127928571Y-93854762D01*
X127966667Y-93892857D01*
X128004762Y-93969048D01*
X128004762Y-94159524D01*
X127966667Y-94235714D01*
X127928571Y-94273810D01*
X127852381Y-94311905D01*
X127623809Y-94311905D01*
X127547619Y-94273810D01*
X127509524Y-94235714D01*
X128500000Y-93511905D02*
X128576191Y-93511905D01*
X128652381Y-93550000D01*
X128690476Y-93588095D01*
X128728572Y-93664286D01*
X128766667Y-93816667D01*
X128766667Y-94007143D01*
X128728572Y-94159524D01*
X128690476Y-94235714D01*
X128652381Y-94273810D01*
X128576191Y-94311905D01*
X128500000Y-94311905D01*
X128423810Y-94273810D01*
X128385714Y-94235714D01*
X128347619Y-94159524D01*
X128309524Y-94007143D01*
X128309524Y-93816667D01*
X128347619Y-93664286D01*
X128385714Y-93588095D01*
X128423810Y-93550000D01*
X128500000Y-93511905D01*
X128995238Y-93511905D02*
X129261905Y-94311905D01*
X129528572Y-93511905D01*
X125585714Y-113011905D02*
X125585714Y-112211905D01*
X125966666Y-112478571D02*
X125966666Y-113011905D01*
X125966666Y-112554762D02*
X126004761Y-112516667D01*
X126080952Y-112478571D01*
X126195238Y-112478571D01*
X126271428Y-112516667D01*
X126309523Y-112592857D01*
X126309523Y-113011905D01*
X126690476Y-112478571D02*
X126690476Y-113278571D01*
X126690476Y-112516667D02*
X126766667Y-112478571D01*
X126919048Y-112478571D01*
X126995238Y-112516667D01*
X127033333Y-112554762D01*
X127071429Y-112630952D01*
X127071429Y-112859524D01*
X127033333Y-112935714D01*
X126995238Y-112973810D01*
X126919048Y-113011905D01*
X126766667Y-113011905D01*
X126690476Y-112973810D01*
X127757143Y-112478571D02*
X127757143Y-113011905D01*
X127414286Y-112478571D02*
X127414286Y-112897619D01*
X127452381Y-112973810D01*
X127528572Y-113011905D01*
X127642858Y-113011905D01*
X127719048Y-112973810D01*
X127757143Y-112935714D01*
X128023810Y-112478571D02*
X128328572Y-112478571D01*
X128138096Y-112211905D02*
X128138096Y-112897619D01*
X128176191Y-112973810D01*
X128252382Y-113011905D01*
X128328572Y-113011905D01*
X124804762Y-114311905D02*
X124347619Y-114311905D01*
X124576190Y-114311905D02*
X124576190Y-113511905D01*
X124500000Y-113626190D01*
X124423809Y-113702381D01*
X124347619Y-113740476D01*
X125109524Y-113588095D02*
X125147619Y-113550000D01*
X125223810Y-113511905D01*
X125414286Y-113511905D01*
X125490476Y-113550000D01*
X125528572Y-113588095D01*
X125566667Y-113664286D01*
X125566667Y-113740476D01*
X125528572Y-113854762D01*
X125071429Y-114311905D01*
X125566667Y-114311905D01*
X125795238Y-113511905D02*
X126061905Y-114311905D01*
X126328572Y-113511905D01*
X126595238Y-114007143D02*
X127204762Y-114007143D01*
X127509524Y-113511905D02*
X128004762Y-113511905D01*
X127738095Y-113816667D01*
X127852381Y-113816667D01*
X127928571Y-113854762D01*
X127966667Y-113892857D01*
X128004762Y-113969048D01*
X128004762Y-114159524D01*
X127966667Y-114235714D01*
X127928571Y-114273810D01*
X127852381Y-114311905D01*
X127623809Y-114311905D01*
X127547619Y-114273810D01*
X127509524Y-114235714D01*
X128500000Y-113511905D02*
X128576191Y-113511905D01*
X128652381Y-113550000D01*
X128690476Y-113588095D01*
X128728572Y-113664286D01*
X128766667Y-113816667D01*
X128766667Y-114007143D01*
X128728572Y-114159524D01*
X128690476Y-114235714D01*
X128652381Y-114273810D01*
X128576191Y-114311905D01*
X128500000Y-114311905D01*
X128423810Y-114273810D01*
X128385714Y-114235714D01*
X128347619Y-114159524D01*
X128309524Y-114007143D01*
X128309524Y-113816667D01*
X128347619Y-113664286D01*
X128385714Y-113588095D01*
X128423810Y-113550000D01*
X128500000Y-113511905D01*
X128995238Y-113511905D02*
X129261905Y-114311905D01*
X129528572Y-113511905D01*
X154580952Y-120761905D02*
X154733333Y-120761905D01*
X154809524Y-120800000D01*
X154885714Y-120876190D01*
X154923809Y-121028571D01*
X154923809Y-121295238D01*
X154885714Y-121447619D01*
X154809524Y-121523810D01*
X154733333Y-121561905D01*
X154580952Y-121561905D01*
X154504762Y-121523810D01*
X154428571Y-121447619D01*
X154390476Y-121295238D01*
X154390476Y-121028571D01*
X154428571Y-120876190D01*
X154504762Y-120800000D01*
X154580952Y-120761905D01*
X155609523Y-121028571D02*
X155609523Y-121561905D01*
X155266666Y-121028571D02*
X155266666Y-121447619D01*
X155304761Y-121523810D01*
X155380952Y-121561905D01*
X155495238Y-121561905D01*
X155571428Y-121523810D01*
X155609523Y-121485714D01*
X155876190Y-121028571D02*
X156180952Y-121028571D01*
X155990476Y-120761905D02*
X155990476Y-121447619D01*
X156028571Y-121523810D01*
X156104762Y-121561905D01*
X156180952Y-121561905D01*
X156447619Y-121028571D02*
X156447619Y-121828571D01*
X156447619Y-121066667D02*
X156523810Y-121028571D01*
X156676191Y-121028571D01*
X156752381Y-121066667D01*
X156790476Y-121104762D01*
X156828572Y-121180952D01*
X156828572Y-121409524D01*
X156790476Y-121485714D01*
X156752381Y-121523810D01*
X156676191Y-121561905D01*
X156523810Y-121561905D01*
X156447619Y-121523810D01*
X157514286Y-121028571D02*
X157514286Y-121561905D01*
X157171429Y-121028571D02*
X157171429Y-121447619D01*
X157209524Y-121523810D01*
X157285715Y-121561905D01*
X157400001Y-121561905D01*
X157476191Y-121523810D01*
X157514286Y-121485714D01*
X157780953Y-121028571D02*
X158085715Y-121028571D01*
X157895239Y-120761905D02*
X157895239Y-121447619D01*
X157933334Y-121523810D01*
X158009525Y-121561905D01*
X158085715Y-121561905D01*
D11*
X136454000Y-85400000D02*
X136708000Y-85400000D01*
X135946000Y-85400000D02*
X135692000Y-85400000D01*
X136454000Y-85400000D02*
X135946000Y-85781000D01*
X135946000Y-85781000D02*
X135946000Y-85019000D01*
X135946000Y-85019000D02*
X136454000Y-85400000D01*
X136454000Y-85019000D02*
X136454000Y-85781000D01*
X135565000Y-86035000D02*
X136835000Y-86035000D01*
X135565000Y-84765000D02*
X136835000Y-84765000D01*
X138200000Y-76046000D02*
X138200000Y-75792000D01*
X138200000Y-76554000D02*
X138200000Y-76808000D01*
X138200000Y-76046000D02*
X138581000Y-76554000D01*
X138581000Y-76554000D02*
X137819000Y-76554000D01*
X137819000Y-76554000D02*
X138200000Y-76046000D01*
X137819000Y-76046000D02*
X138581000Y-76046000D01*
X138835000Y-76935000D02*
X138835000Y-75665000D01*
X137565000Y-76935000D02*
X137565000Y-75665000D01*
D12*
X148600380Y-77850240D02*
X149298880Y-77850240D01*
X147599620Y-77850240D02*
X146901120Y-77850240D01*
X148600380Y-76549760D02*
X149298880Y-76549760D01*
X146901120Y-76549760D02*
X147599620Y-76549760D01*
X149298880Y-76565000D02*
X149298880Y-77835000D01*
X146901120Y-77835000D02*
X146901120Y-76565000D01*
D11*
X123999500Y-74899120D02*
X123999500Y-83900880D01*
X120499380Y-74899120D02*
X120499380Y-83900880D01*
X120499380Y-83900880D02*
X135000240Y-83900880D01*
X135000240Y-83900880D02*
X135000240Y-74899120D01*
X135000240Y-74899120D02*
X120499380Y-74899120D01*
X154530000Y-74960000D02*
X154530000Y-80040000D01*
X158975000Y-74960000D02*
X158975000Y-80040000D01*
X152625000Y-80040000D02*
X152625000Y-74960000D01*
X152625000Y-80040000D02*
X158975000Y-80040000D01*
X152625000Y-74960000D02*
X158975000Y-74960000D01*
D13*
X146590000Y-82500000D02*
G75*
G03X146590000Y-82500000I-3990000J0D01*
G01*
D14*
X138898500Y-70099620D02*
X138898500Y-69393500D01*
X138898500Y-69393500D02*
X137501500Y-69393500D01*
X137501500Y-69393500D02*
X137501500Y-70099620D01*
X138898500Y-71806500D02*
X138898500Y-71100380D01*
X138898500Y-71806500D02*
X137501500Y-71806500D01*
X137501500Y-71806500D02*
X137501500Y-71100380D01*
X155300380Y-71798500D02*
X156006500Y-71798500D01*
X156006500Y-71798500D02*
X156006500Y-70401500D01*
X156006500Y-70401500D02*
X155300380Y-70401500D01*
X153593500Y-71798500D02*
X154299620Y-71798500D01*
X153593500Y-71798500D02*
X153593500Y-70401500D01*
X153593500Y-70401500D02*
X154299620Y-70401500D01*
X155400380Y-73898500D02*
X156106500Y-73898500D01*
X156106500Y-73898500D02*
X156106500Y-72501500D01*
X156106500Y-72501500D02*
X155400380Y-72501500D01*
X153693500Y-73898500D02*
X154399620Y-73898500D01*
X153693500Y-73898500D02*
X153693500Y-72501500D01*
X153693500Y-72501500D02*
X154399620Y-72501500D01*
X151201500Y-72600380D02*
X151201500Y-73306500D01*
X151201500Y-73306500D02*
X152598500Y-73306500D01*
X152598500Y-73306500D02*
X152598500Y-72600380D01*
X151201500Y-70893500D02*
X151201500Y-71599620D01*
X151201500Y-70893500D02*
X152598500Y-70893500D01*
X152598500Y-70893500D02*
X152598500Y-71599620D01*
X151798500Y-76399620D02*
X151798500Y-75693500D01*
X151798500Y-75693500D02*
X150401500Y-75693500D01*
X150401500Y-75693500D02*
X150401500Y-76399620D01*
X151798500Y-78106500D02*
X151798500Y-77400380D01*
X151798500Y-78106500D02*
X150401500Y-78106500D01*
X150401500Y-78106500D02*
X150401500Y-77400380D01*
X147411000Y-69976000D02*
X149189000Y-69976000D01*
X149189000Y-69976000D02*
X149189000Y-73024000D01*
X149189000Y-73024000D02*
X147411000Y-73024000D01*
X147411000Y-73024000D02*
X147411000Y-69976000D01*
D12*
X148600380Y-74950240D02*
X149298880Y-74950240D01*
X147599620Y-74950240D02*
X146901120Y-74950240D01*
X148600380Y-73649760D02*
X149298880Y-73649760D01*
X146901120Y-73649760D02*
X147599620Y-73649760D01*
X149298880Y-73665000D02*
X149298880Y-74935000D01*
X146901120Y-74935000D02*
X146901120Y-73665000D01*
D11*
X141023607Y-74900000D02*
G75*
G03X141023607Y-74900000I-223607J0D01*
G01*
X140300000Y-71400000D02*
X145300000Y-71400000D01*
X145300000Y-71400000D02*
X145300000Y-75400000D01*
X145300000Y-75400000D02*
X140300000Y-75400000D01*
X140300000Y-75400000D02*
X140300000Y-71400000D01*
X129800000Y-71300000D02*
X129200000Y-71300000D01*
X134500000Y-70900000D02*
X134500000Y-71700000D01*
X134100000Y-71300000D02*
X134900000Y-71300000D01*
X135100000Y-71300000D02*
G75*
G03X135100000Y-71300000I-3100000J0D01*
G01*
X149200000Y-83600000D02*
X148600000Y-83600000D01*
X153900000Y-83200000D02*
X153900000Y-84000000D01*
X153500000Y-83600000D02*
X154300000Y-83600000D01*
X154500000Y-83600000D02*
G75*
G03X154500000Y-83600000I-3100000J0D01*
G01*
X149200000Y-63600000D02*
X148600000Y-63600000D01*
X153900000Y-63200000D02*
X153900000Y-64000000D01*
X153500000Y-63600000D02*
X154300000Y-63600000D01*
X154500000Y-63600000D02*
G75*
G03X154500000Y-63600000I-3100000J0D01*
G01*
X129800000Y-51300000D02*
X129200000Y-51300000D01*
X134500000Y-50900000D02*
X134500000Y-51700000D01*
X134100000Y-51300000D02*
X134900000Y-51300000D01*
X135100000Y-51300000D02*
G75*
G03X135100000Y-51300000I-3100000J0D01*
G01*
X141023607Y-54900000D02*
G75*
G03X141023607Y-54900000I-223607J0D01*
G01*
X140300000Y-51400000D02*
X145300000Y-51400000D01*
X145300000Y-51400000D02*
X145300000Y-55400000D01*
X145300000Y-55400000D02*
X140300000Y-55400000D01*
X140300000Y-55400000D02*
X140300000Y-51400000D01*
D12*
X148600380Y-54950240D02*
X149298880Y-54950240D01*
X147599620Y-54950240D02*
X146901120Y-54950240D01*
X148600380Y-53649760D02*
X149298880Y-53649760D01*
X146901120Y-53649760D02*
X147599620Y-53649760D01*
X149298880Y-53665000D02*
X149298880Y-54935000D01*
X146901120Y-54935000D02*
X146901120Y-53665000D01*
D14*
X147411000Y-49976000D02*
X149189000Y-49976000D01*
X149189000Y-49976000D02*
X149189000Y-53024000D01*
X149189000Y-53024000D02*
X147411000Y-53024000D01*
X147411000Y-53024000D02*
X147411000Y-49976000D01*
X151798500Y-56399620D02*
X151798500Y-55693500D01*
X151798500Y-55693500D02*
X150401500Y-55693500D01*
X150401500Y-55693500D02*
X150401500Y-56399620D01*
X151798500Y-58106500D02*
X151798500Y-57400380D01*
X151798500Y-58106500D02*
X150401500Y-58106500D01*
X150401500Y-58106500D02*
X150401500Y-57400380D01*
X151201500Y-52600380D02*
X151201500Y-53306500D01*
X151201500Y-53306500D02*
X152598500Y-53306500D01*
X152598500Y-53306500D02*
X152598500Y-52600380D01*
X151201500Y-50893500D02*
X151201500Y-51599620D01*
X151201500Y-50893500D02*
X152598500Y-50893500D01*
X152598500Y-50893500D02*
X152598500Y-51599620D01*
X155400380Y-53898500D02*
X156106500Y-53898500D01*
X156106500Y-53898500D02*
X156106500Y-52501500D01*
X156106500Y-52501500D02*
X155400380Y-52501500D01*
X153693500Y-53898500D02*
X154399620Y-53898500D01*
X153693500Y-53898500D02*
X153693500Y-52501500D01*
X153693500Y-52501500D02*
X154399620Y-52501500D01*
X155300380Y-51798500D02*
X156006500Y-51798500D01*
X156006500Y-51798500D02*
X156006500Y-50401500D01*
X156006500Y-50401500D02*
X155300380Y-50401500D01*
X153593500Y-51798500D02*
X154299620Y-51798500D01*
X153593500Y-51798500D02*
X153593500Y-50401500D01*
X153593500Y-50401500D02*
X154299620Y-50401500D01*
X138898500Y-50099620D02*
X138898500Y-49393500D01*
X138898500Y-49393500D02*
X137501500Y-49393500D01*
X137501500Y-49393500D02*
X137501500Y-50099620D01*
X138898500Y-51806500D02*
X138898500Y-51100380D01*
X138898500Y-51806500D02*
X137501500Y-51806500D01*
X137501500Y-51806500D02*
X137501500Y-51100380D01*
D13*
X146590000Y-62500000D02*
G75*
G03X146590000Y-62500000I-3990000J0D01*
G01*
D11*
X154530000Y-54960000D02*
X154530000Y-60040000D01*
X158975000Y-54960000D02*
X158975000Y-60040000D01*
X152625000Y-60040000D02*
X152625000Y-54960000D01*
X152625000Y-60040000D02*
X158975000Y-60040000D01*
X152625000Y-54960000D02*
X158975000Y-54960000D01*
X123999500Y-54899120D02*
X123999500Y-63900880D01*
X120499380Y-54899120D02*
X120499380Y-63900880D01*
X120499380Y-63900880D02*
X135000240Y-63900880D01*
X135000240Y-63900880D02*
X135000240Y-54899120D01*
X135000240Y-54899120D02*
X120499380Y-54899120D01*
D12*
X148600380Y-57850240D02*
X149298880Y-57850240D01*
X147599620Y-57850240D02*
X146901120Y-57850240D01*
X148600380Y-56549760D02*
X149298880Y-56549760D01*
X146901120Y-56549760D02*
X147599620Y-56549760D01*
X149298880Y-56565000D02*
X149298880Y-57835000D01*
X146901120Y-57835000D02*
X146901120Y-56565000D01*
D11*
X138200000Y-56046000D02*
X138200000Y-55792000D01*
X138200000Y-56554000D02*
X138200000Y-56808000D01*
X138200000Y-56046000D02*
X138581000Y-56554000D01*
X138581000Y-56554000D02*
X137819000Y-56554000D01*
X137819000Y-56554000D02*
X138200000Y-56046000D01*
X137819000Y-56046000D02*
X138581000Y-56046000D01*
X138835000Y-56935000D02*
X138835000Y-55665000D01*
X137565000Y-56935000D02*
X137565000Y-55665000D01*
X136454000Y-65400000D02*
X136708000Y-65400000D01*
X135946000Y-65400000D02*
X135692000Y-65400000D01*
X136454000Y-65400000D02*
X135946000Y-65781000D01*
X135946000Y-65781000D02*
X135946000Y-65019000D01*
X135946000Y-65019000D02*
X136454000Y-65400000D01*
X136454000Y-65019000D02*
X136454000Y-65781000D01*
X135565000Y-66035000D02*
X136835000Y-66035000D01*
X135565000Y-64765000D02*
X136835000Y-64765000D01*
X101454000Y-65400000D02*
X101708000Y-65400000D01*
X100946000Y-65400000D02*
X100692000Y-65400000D01*
X101454000Y-65400000D02*
X100946000Y-65781000D01*
X100946000Y-65781000D02*
X100946000Y-65019000D01*
X100946000Y-65019000D02*
X101454000Y-65400000D01*
X101454000Y-65019000D02*
X101454000Y-65781000D01*
X100565000Y-66035000D02*
X101835000Y-66035000D01*
X100565000Y-64765000D02*
X101835000Y-64765000D01*
X103200000Y-56046000D02*
X103200000Y-55792000D01*
X103200000Y-56554000D02*
X103200000Y-56808000D01*
X103200000Y-56046000D02*
X103581000Y-56554000D01*
X103581000Y-56554000D02*
X102819000Y-56554000D01*
X102819000Y-56554000D02*
X103200000Y-56046000D01*
X102819000Y-56046000D02*
X103581000Y-56046000D01*
X103835000Y-56935000D02*
X103835000Y-55665000D01*
X102565000Y-56935000D02*
X102565000Y-55665000D01*
D12*
X113600380Y-57850240D02*
X114298880Y-57850240D01*
X112599620Y-57850240D02*
X111901120Y-57850240D01*
X113600380Y-56549760D02*
X114298880Y-56549760D01*
X111901120Y-56549760D02*
X112599620Y-56549760D01*
X114298880Y-56565000D02*
X114298880Y-57835000D01*
X111901120Y-57835000D02*
X111901120Y-56565000D01*
D11*
X88999500Y-54899120D02*
X88999500Y-63900880D01*
X85499380Y-54899120D02*
X85499380Y-63900880D01*
X85499380Y-63900880D02*
X100000240Y-63900880D01*
X100000240Y-63900880D02*
X100000240Y-54899120D01*
X100000240Y-54899120D02*
X85499380Y-54899120D01*
X119530000Y-54960000D02*
X119530000Y-60040000D01*
X123975000Y-54960000D02*
X123975000Y-60040000D01*
X117625000Y-60040000D02*
X117625000Y-54960000D01*
X117625000Y-60040000D02*
X123975000Y-60040000D01*
X117625000Y-54960000D02*
X123975000Y-54960000D01*
D13*
X111590000Y-62500000D02*
G75*
G03X111590000Y-62500000I-3990000J0D01*
G01*
D14*
X103898500Y-50099620D02*
X103898500Y-49393500D01*
X103898500Y-49393500D02*
X102501500Y-49393500D01*
X102501500Y-49393500D02*
X102501500Y-50099620D01*
X103898500Y-51806500D02*
X103898500Y-51100380D01*
X103898500Y-51806500D02*
X102501500Y-51806500D01*
X102501500Y-51806500D02*
X102501500Y-51100380D01*
X120300380Y-51798500D02*
X121006500Y-51798500D01*
X121006500Y-51798500D02*
X121006500Y-50401500D01*
X121006500Y-50401500D02*
X120300380Y-50401500D01*
X118593500Y-51798500D02*
X119299620Y-51798500D01*
X118593500Y-51798500D02*
X118593500Y-50401500D01*
X118593500Y-50401500D02*
X119299620Y-50401500D01*
X120400380Y-53898500D02*
X121106500Y-53898500D01*
X121106500Y-53898500D02*
X121106500Y-52501500D01*
X121106500Y-52501500D02*
X120400380Y-52501500D01*
X118693500Y-53898500D02*
X119399620Y-53898500D01*
X118693500Y-53898500D02*
X118693500Y-52501500D01*
X118693500Y-52501500D02*
X119399620Y-52501500D01*
X116201500Y-52600380D02*
X116201500Y-53306500D01*
X116201500Y-53306500D02*
X117598500Y-53306500D01*
X117598500Y-53306500D02*
X117598500Y-52600380D01*
X116201500Y-50893500D02*
X116201500Y-51599620D01*
X116201500Y-50893500D02*
X117598500Y-50893500D01*
X117598500Y-50893500D02*
X117598500Y-51599620D01*
X116798500Y-56399620D02*
X116798500Y-55693500D01*
X116798500Y-55693500D02*
X115401500Y-55693500D01*
X115401500Y-55693500D02*
X115401500Y-56399620D01*
X116798500Y-58106500D02*
X116798500Y-57400380D01*
X116798500Y-58106500D02*
X115401500Y-58106500D01*
X115401500Y-58106500D02*
X115401500Y-57400380D01*
X112411000Y-49976000D02*
X114189000Y-49976000D01*
X114189000Y-49976000D02*
X114189000Y-53024000D01*
X114189000Y-53024000D02*
X112411000Y-53024000D01*
X112411000Y-53024000D02*
X112411000Y-49976000D01*
D12*
X113600380Y-54950240D02*
X114298880Y-54950240D01*
X112599620Y-54950240D02*
X111901120Y-54950240D01*
X113600380Y-53649760D02*
X114298880Y-53649760D01*
X111901120Y-53649760D02*
X112599620Y-53649760D01*
X114298880Y-53665000D02*
X114298880Y-54935000D01*
X111901120Y-54935000D02*
X111901120Y-53665000D01*
D11*
X106023607Y-54900000D02*
G75*
G03X106023607Y-54900000I-223607J0D01*
G01*
X105300000Y-51400000D02*
X110300000Y-51400000D01*
X110300000Y-51400000D02*
X110300000Y-55400000D01*
X110300000Y-55400000D02*
X105300000Y-55400000D01*
X105300000Y-55400000D02*
X105300000Y-51400000D01*
X94800000Y-51300000D02*
X94200000Y-51300000D01*
X99500000Y-50900000D02*
X99500000Y-51700000D01*
X99100000Y-51300000D02*
X99900000Y-51300000D01*
X100100000Y-51300000D02*
G75*
G03X100100000Y-51300000I-3100000J0D01*
G01*
X114200000Y-63600000D02*
X113600000Y-63600000D01*
X118900000Y-63200000D02*
X118900000Y-64000000D01*
X118500000Y-63600000D02*
X119300000Y-63600000D01*
X119500000Y-63600000D02*
G75*
G03X119500000Y-63600000I-3100000J0D01*
G01*
X114200000Y-83600000D02*
X113600000Y-83600000D01*
X118900000Y-83200000D02*
X118900000Y-84000000D01*
X118500000Y-83600000D02*
X119300000Y-83600000D01*
X119500000Y-83600000D02*
G75*
G03X119500000Y-83600000I-3100000J0D01*
G01*
X94800000Y-71300000D02*
X94200000Y-71300000D01*
X99500000Y-70900000D02*
X99500000Y-71700000D01*
X99100000Y-71300000D02*
X99900000Y-71300000D01*
X100100000Y-71300000D02*
G75*
G03X100100000Y-71300000I-3100000J0D01*
G01*
X106023607Y-74900000D02*
G75*
G03X106023607Y-74900000I-223607J0D01*
G01*
X105300000Y-71400000D02*
X110300000Y-71400000D01*
X110300000Y-71400000D02*
X110300000Y-75400000D01*
X110300000Y-75400000D02*
X105300000Y-75400000D01*
X105300000Y-75400000D02*
X105300000Y-71400000D01*
D12*
X113600380Y-74950240D02*
X114298880Y-74950240D01*
X112599620Y-74950240D02*
X111901120Y-74950240D01*
X113600380Y-73649760D02*
X114298880Y-73649760D01*
X111901120Y-73649760D02*
X112599620Y-73649760D01*
X114298880Y-73665000D02*
X114298880Y-74935000D01*
X111901120Y-74935000D02*
X111901120Y-73665000D01*
D14*
X112411000Y-69976000D02*
X114189000Y-69976000D01*
X114189000Y-69976000D02*
X114189000Y-73024000D01*
X114189000Y-73024000D02*
X112411000Y-73024000D01*
X112411000Y-73024000D02*
X112411000Y-69976000D01*
X116798500Y-76399620D02*
X116798500Y-75693500D01*
X116798500Y-75693500D02*
X115401500Y-75693500D01*
X115401500Y-75693500D02*
X115401500Y-76399620D01*
X116798500Y-78106500D02*
X116798500Y-77400380D01*
X116798500Y-78106500D02*
X115401500Y-78106500D01*
X115401500Y-78106500D02*
X115401500Y-77400380D01*
X116201500Y-72600380D02*
X116201500Y-73306500D01*
X116201500Y-73306500D02*
X117598500Y-73306500D01*
X117598500Y-73306500D02*
X117598500Y-72600380D01*
X116201500Y-70893500D02*
X116201500Y-71599620D01*
X116201500Y-70893500D02*
X117598500Y-70893500D01*
X117598500Y-70893500D02*
X117598500Y-71599620D01*
X120400380Y-73898500D02*
X121106500Y-73898500D01*
X121106500Y-73898500D02*
X121106500Y-72501500D01*
X121106500Y-72501500D02*
X120400380Y-72501500D01*
X118693500Y-73898500D02*
X119399620Y-73898500D01*
X118693500Y-73898500D02*
X118693500Y-72501500D01*
X118693500Y-72501500D02*
X119399620Y-72501500D01*
X120300380Y-71798500D02*
X121006500Y-71798500D01*
X121006500Y-71798500D02*
X121006500Y-70401500D01*
X121006500Y-70401500D02*
X120300380Y-70401500D01*
X118593500Y-71798500D02*
X119299620Y-71798500D01*
X118593500Y-71798500D02*
X118593500Y-70401500D01*
X118593500Y-70401500D02*
X119299620Y-70401500D01*
X103898500Y-70099620D02*
X103898500Y-69393500D01*
X103898500Y-69393500D02*
X102501500Y-69393500D01*
X102501500Y-69393500D02*
X102501500Y-70099620D01*
X103898500Y-71806500D02*
X103898500Y-71100380D01*
X103898500Y-71806500D02*
X102501500Y-71806500D01*
X102501500Y-71806500D02*
X102501500Y-71100380D01*
D13*
X111590000Y-82500000D02*
G75*
G03X111590000Y-82500000I-3990000J0D01*
G01*
D11*
X119530000Y-74960000D02*
X119530000Y-80040000D01*
X123975000Y-74960000D02*
X123975000Y-80040000D01*
X117625000Y-80040000D02*
X117625000Y-74960000D01*
X117625000Y-80040000D02*
X123975000Y-80040000D01*
X117625000Y-74960000D02*
X123975000Y-74960000D01*
X88999500Y-74899120D02*
X88999500Y-83900880D01*
X85499380Y-74899120D02*
X85499380Y-83900880D01*
X85499380Y-83900880D02*
X100000240Y-83900880D01*
X100000240Y-83900880D02*
X100000240Y-74899120D01*
X100000240Y-74899120D02*
X85499380Y-74899120D01*
D12*
X113600380Y-77850240D02*
X114298880Y-77850240D01*
X112599620Y-77850240D02*
X111901120Y-77850240D01*
X113600380Y-76549760D02*
X114298880Y-76549760D01*
X111901120Y-76549760D02*
X112599620Y-76549760D01*
X114298880Y-76565000D02*
X114298880Y-77835000D01*
X111901120Y-77835000D02*
X111901120Y-76565000D01*
D11*
X103200000Y-76046000D02*
X103200000Y-75792000D01*
X103200000Y-76554000D02*
X103200000Y-76808000D01*
X103200000Y-76046000D02*
X103581000Y-76554000D01*
X103581000Y-76554000D02*
X102819000Y-76554000D01*
X102819000Y-76554000D02*
X103200000Y-76046000D01*
X102819000Y-76046000D02*
X103581000Y-76046000D01*
X103835000Y-76935000D02*
X103835000Y-75665000D01*
X102565000Y-76935000D02*
X102565000Y-75665000D01*
X101454000Y-85400000D02*
X101708000Y-85400000D01*
X100946000Y-85400000D02*
X100692000Y-85400000D01*
X101454000Y-85400000D02*
X100946000Y-85781000D01*
X100946000Y-85781000D02*
X100946000Y-85019000D01*
X100946000Y-85019000D02*
X101454000Y-85400000D01*
X101454000Y-85019000D02*
X101454000Y-85781000D01*
X100565000Y-86035000D02*
X101835000Y-86035000D01*
X100565000Y-84765000D02*
X101835000Y-84765000D01*
X101454000Y-125400000D02*
X101708000Y-125400000D01*
X100946000Y-125400000D02*
X100692000Y-125400000D01*
X101454000Y-125400000D02*
X100946000Y-125781000D01*
X100946000Y-125781000D02*
X100946000Y-125019000D01*
X100946000Y-125019000D02*
X101454000Y-125400000D01*
X101454000Y-125019000D02*
X101454000Y-125781000D01*
X100565000Y-126035000D02*
X101835000Y-126035000D01*
X100565000Y-124765000D02*
X101835000Y-124765000D01*
X103200000Y-116046000D02*
X103200000Y-115792000D01*
X103200000Y-116554000D02*
X103200000Y-116808000D01*
X103200000Y-116046000D02*
X103581000Y-116554000D01*
X103581000Y-116554000D02*
X102819000Y-116554000D01*
X102819000Y-116554000D02*
X103200000Y-116046000D01*
X102819000Y-116046000D02*
X103581000Y-116046000D01*
X103835000Y-116935000D02*
X103835000Y-115665000D01*
X102565000Y-116935000D02*
X102565000Y-115665000D01*
D12*
X113600380Y-117850240D02*
X114298880Y-117850240D01*
X112599620Y-117850240D02*
X111901120Y-117850240D01*
X113600380Y-116549760D02*
X114298880Y-116549760D01*
X111901120Y-116549760D02*
X112599620Y-116549760D01*
X114298880Y-116565000D02*
X114298880Y-117835000D01*
X111901120Y-117835000D02*
X111901120Y-116565000D01*
D11*
X88999500Y-114899120D02*
X88999500Y-123900880D01*
X85499380Y-114899120D02*
X85499380Y-123900880D01*
X85499380Y-123900880D02*
X100000240Y-123900880D01*
X100000240Y-123900880D02*
X100000240Y-114899120D01*
X100000240Y-114899120D02*
X85499380Y-114899120D01*
X119530000Y-114960000D02*
X119530000Y-120040000D01*
X123975000Y-114960000D02*
X123975000Y-120040000D01*
X117625000Y-120040000D02*
X117625000Y-114960000D01*
X117625000Y-120040000D02*
X123975000Y-120040000D01*
X117625000Y-114960000D02*
X123975000Y-114960000D01*
D13*
X111590000Y-122500000D02*
G75*
G03X111590000Y-122500000I-3990000J0D01*
G01*
D14*
X103898500Y-110099620D02*
X103898500Y-109393500D01*
X103898500Y-109393500D02*
X102501500Y-109393500D01*
X102501500Y-109393500D02*
X102501500Y-110099620D01*
X103898500Y-111806500D02*
X103898500Y-111100380D01*
X103898500Y-111806500D02*
X102501500Y-111806500D01*
X102501500Y-111806500D02*
X102501500Y-111100380D01*
X120300380Y-111798500D02*
X121006500Y-111798500D01*
X121006500Y-111798500D02*
X121006500Y-110401500D01*
X121006500Y-110401500D02*
X120300380Y-110401500D01*
X118593500Y-111798500D02*
X119299620Y-111798500D01*
X118593500Y-111798500D02*
X118593500Y-110401500D01*
X118593500Y-110401500D02*
X119299620Y-110401500D01*
X120400380Y-113898500D02*
X121106500Y-113898500D01*
X121106500Y-113898500D02*
X121106500Y-112501500D01*
X121106500Y-112501500D02*
X120400380Y-112501500D01*
X118693500Y-113898500D02*
X119399620Y-113898500D01*
X118693500Y-113898500D02*
X118693500Y-112501500D01*
X118693500Y-112501500D02*
X119399620Y-112501500D01*
X116201500Y-112600380D02*
X116201500Y-113306500D01*
X116201500Y-113306500D02*
X117598500Y-113306500D01*
X117598500Y-113306500D02*
X117598500Y-112600380D01*
X116201500Y-110893500D02*
X116201500Y-111599620D01*
X116201500Y-110893500D02*
X117598500Y-110893500D01*
X117598500Y-110893500D02*
X117598500Y-111599620D01*
X116798500Y-116399620D02*
X116798500Y-115693500D01*
X116798500Y-115693500D02*
X115401500Y-115693500D01*
X115401500Y-115693500D02*
X115401500Y-116399620D01*
X116798500Y-118106500D02*
X116798500Y-117400380D01*
X116798500Y-118106500D02*
X115401500Y-118106500D01*
X115401500Y-118106500D02*
X115401500Y-117400380D01*
X112411000Y-109976000D02*
X114189000Y-109976000D01*
X114189000Y-109976000D02*
X114189000Y-113024000D01*
X114189000Y-113024000D02*
X112411000Y-113024000D01*
X112411000Y-113024000D02*
X112411000Y-109976000D01*
D12*
X113600380Y-114950240D02*
X114298880Y-114950240D01*
X112599620Y-114950240D02*
X111901120Y-114950240D01*
X113600380Y-113649760D02*
X114298880Y-113649760D01*
X111901120Y-113649760D02*
X112599620Y-113649760D01*
X114298880Y-113665000D02*
X114298880Y-114935000D01*
X111901120Y-114935000D02*
X111901120Y-113665000D01*
D11*
X106023607Y-114900000D02*
G75*
G03X106023607Y-114900000I-223607J0D01*
G01*
X105300000Y-111400000D02*
X110300000Y-111400000D01*
X110300000Y-111400000D02*
X110300000Y-115400000D01*
X110300000Y-115400000D02*
X105300000Y-115400000D01*
X105300000Y-115400000D02*
X105300000Y-111400000D01*
X94800000Y-111300000D02*
X94200000Y-111300000D01*
X99500000Y-110900000D02*
X99500000Y-111700000D01*
X99100000Y-111300000D02*
X99900000Y-111300000D01*
X100100000Y-111300000D02*
G75*
G03X100100000Y-111300000I-3100000J0D01*
G01*
X114200000Y-123600000D02*
X113600000Y-123600000D01*
X118900000Y-123200000D02*
X118900000Y-124000000D01*
X118500000Y-123600000D02*
X119300000Y-123600000D01*
X119500000Y-123600000D02*
G75*
G03X119500000Y-123600000I-3100000J0D01*
G01*
X114200000Y-103600000D02*
X113600000Y-103600000D01*
X118900000Y-103200000D02*
X118900000Y-104000000D01*
X118500000Y-103600000D02*
X119300000Y-103600000D01*
X119500000Y-103600000D02*
G75*
G03X119500000Y-103600000I-3100000J0D01*
G01*
X94800000Y-91300000D02*
X94200000Y-91300000D01*
X99500000Y-90900000D02*
X99500000Y-91700000D01*
X99100000Y-91300000D02*
X99900000Y-91300000D01*
X100100000Y-91300000D02*
G75*
G03X100100000Y-91300000I-3100000J0D01*
G01*
X106023607Y-94900000D02*
G75*
G03X106023607Y-94900000I-223607J0D01*
G01*
X105300000Y-91400000D02*
X110300000Y-91400000D01*
X110300000Y-91400000D02*
X110300000Y-95400000D01*
X110300000Y-95400000D02*
X105300000Y-95400000D01*
X105300000Y-95400000D02*
X105300000Y-91400000D01*
D12*
X113600380Y-94950240D02*
X114298880Y-94950240D01*
X112599620Y-94950240D02*
X111901120Y-94950240D01*
X113600380Y-93649760D02*
X114298880Y-93649760D01*
X111901120Y-93649760D02*
X112599620Y-93649760D01*
X114298880Y-93665000D02*
X114298880Y-94935000D01*
X111901120Y-94935000D02*
X111901120Y-93665000D01*
D14*
X112411000Y-89976000D02*
X114189000Y-89976000D01*
X114189000Y-89976000D02*
X114189000Y-93024000D01*
X114189000Y-93024000D02*
X112411000Y-93024000D01*
X112411000Y-93024000D02*
X112411000Y-89976000D01*
X116798500Y-96399620D02*
X116798500Y-95693500D01*
X116798500Y-95693500D02*
X115401500Y-95693500D01*
X115401500Y-95693500D02*
X115401500Y-96399620D01*
X116798500Y-98106500D02*
X116798500Y-97400380D01*
X116798500Y-98106500D02*
X115401500Y-98106500D01*
X115401500Y-98106500D02*
X115401500Y-97400380D01*
X116201500Y-92600380D02*
X116201500Y-93306500D01*
X116201500Y-93306500D02*
X117598500Y-93306500D01*
X117598500Y-93306500D02*
X117598500Y-92600380D01*
X116201500Y-90893500D02*
X116201500Y-91599620D01*
X116201500Y-90893500D02*
X117598500Y-90893500D01*
X117598500Y-90893500D02*
X117598500Y-91599620D01*
X120400380Y-93898500D02*
X121106500Y-93898500D01*
X121106500Y-93898500D02*
X121106500Y-92501500D01*
X121106500Y-92501500D02*
X120400380Y-92501500D01*
X118693500Y-93898500D02*
X119399620Y-93898500D01*
X118693500Y-93898500D02*
X118693500Y-92501500D01*
X118693500Y-92501500D02*
X119399620Y-92501500D01*
X120300380Y-91798500D02*
X121006500Y-91798500D01*
X121006500Y-91798500D02*
X121006500Y-90401500D01*
X121006500Y-90401500D02*
X120300380Y-90401500D01*
X118593500Y-91798500D02*
X119299620Y-91798500D01*
X118593500Y-91798500D02*
X118593500Y-90401500D01*
X118593500Y-90401500D02*
X119299620Y-90401500D01*
X103898500Y-90099620D02*
X103898500Y-89393500D01*
X103898500Y-89393500D02*
X102501500Y-89393500D01*
X102501500Y-89393500D02*
X102501500Y-90099620D01*
X103898500Y-91806500D02*
X103898500Y-91100380D01*
X103898500Y-91806500D02*
X102501500Y-91806500D01*
X102501500Y-91806500D02*
X102501500Y-91100380D01*
D13*
X111590000Y-102500000D02*
G75*
G03X111590000Y-102500000I-3990000J0D01*
G01*
D11*
X119530000Y-94960000D02*
X119530000Y-100040000D01*
X123975000Y-94960000D02*
X123975000Y-100040000D01*
X117625000Y-100040000D02*
X117625000Y-94960000D01*
X117625000Y-100040000D02*
X123975000Y-100040000D01*
X117625000Y-94960000D02*
X123975000Y-94960000D01*
X88999500Y-94899120D02*
X88999500Y-103900880D01*
X85499380Y-94899120D02*
X85499380Y-103900880D01*
X85499380Y-103900880D02*
X100000240Y-103900880D01*
X100000240Y-103900880D02*
X100000240Y-94899120D01*
X100000240Y-94899120D02*
X85499380Y-94899120D01*
D12*
X113600380Y-97850240D02*
X114298880Y-97850240D01*
X112599620Y-97850240D02*
X111901120Y-97850240D01*
X113600380Y-96549760D02*
X114298880Y-96549760D01*
X111901120Y-96549760D02*
X112599620Y-96549760D01*
X114298880Y-96565000D02*
X114298880Y-97835000D01*
X111901120Y-97835000D02*
X111901120Y-96565000D01*
D11*
X103200000Y-96046000D02*
X103200000Y-95792000D01*
X103200000Y-96554000D02*
X103200000Y-96808000D01*
X103200000Y-96046000D02*
X103581000Y-96554000D01*
X103581000Y-96554000D02*
X102819000Y-96554000D01*
X102819000Y-96554000D02*
X103200000Y-96046000D01*
X102819000Y-96046000D02*
X103581000Y-96046000D01*
X103835000Y-96935000D02*
X103835000Y-95665000D01*
X102565000Y-96935000D02*
X102565000Y-95665000D01*
X101454000Y-105400000D02*
X101708000Y-105400000D01*
X100946000Y-105400000D02*
X100692000Y-105400000D01*
X101454000Y-105400000D02*
X100946000Y-105781000D01*
X100946000Y-105781000D02*
X100946000Y-105019000D01*
X100946000Y-105019000D02*
X101454000Y-105400000D01*
X101454000Y-105019000D02*
X101454000Y-105781000D01*
X100565000Y-106035000D02*
X101835000Y-106035000D01*
X100565000Y-104765000D02*
X101835000Y-104765000D01*
X136454000Y-105400000D02*
X136708000Y-105400000D01*
X135946000Y-105400000D02*
X135692000Y-105400000D01*
X136454000Y-105400000D02*
X135946000Y-105781000D01*
X135946000Y-105781000D02*
X135946000Y-105019000D01*
X135946000Y-105019000D02*
X136454000Y-105400000D01*
X136454000Y-105019000D02*
X136454000Y-105781000D01*
X135565000Y-106035000D02*
X136835000Y-106035000D01*
X135565000Y-104765000D02*
X136835000Y-104765000D01*
X138200000Y-96046000D02*
X138200000Y-95792000D01*
X138200000Y-96554000D02*
X138200000Y-96808000D01*
X138200000Y-96046000D02*
X138581000Y-96554000D01*
X138581000Y-96554000D02*
X137819000Y-96554000D01*
X137819000Y-96554000D02*
X138200000Y-96046000D01*
X137819000Y-96046000D02*
X138581000Y-96046000D01*
X138835000Y-96935000D02*
X138835000Y-95665000D01*
X137565000Y-96935000D02*
X137565000Y-95665000D01*
D12*
X148600380Y-97850240D02*
X149298880Y-97850240D01*
X147599620Y-97850240D02*
X146901120Y-97850240D01*
X148600380Y-96549760D02*
X149298880Y-96549760D01*
X146901120Y-96549760D02*
X147599620Y-96549760D01*
X149298880Y-96565000D02*
X149298880Y-97835000D01*
X146901120Y-97835000D02*
X146901120Y-96565000D01*
D11*
X123999500Y-94899120D02*
X123999500Y-103900880D01*
X120499380Y-94899120D02*
X120499380Y-103900880D01*
X120499380Y-103900880D02*
X135000240Y-103900880D01*
X135000240Y-103900880D02*
X135000240Y-94899120D01*
X135000240Y-94899120D02*
X120499380Y-94899120D01*
X154530000Y-94960000D02*
X154530000Y-100040000D01*
X158975000Y-94960000D02*
X158975000Y-100040000D01*
X152625000Y-100040000D02*
X152625000Y-94960000D01*
X152625000Y-100040000D02*
X158975000Y-100040000D01*
X152625000Y-94960000D02*
X158975000Y-94960000D01*
D13*
X146590000Y-102500000D02*
G75*
G03X146590000Y-102500000I-3990000J0D01*
G01*
D14*
X138898500Y-90099620D02*
X138898500Y-89393500D01*
X138898500Y-89393500D02*
X137501500Y-89393500D01*
X137501500Y-89393500D02*
X137501500Y-90099620D01*
X138898500Y-91806500D02*
X138898500Y-91100380D01*
X138898500Y-91806500D02*
X137501500Y-91806500D01*
X137501500Y-91806500D02*
X137501500Y-91100380D01*
X155300380Y-91798500D02*
X156006500Y-91798500D01*
X156006500Y-91798500D02*
X156006500Y-90401500D01*
X156006500Y-90401500D02*
X155300380Y-90401500D01*
X153593500Y-91798500D02*
X154299620Y-91798500D01*
X153593500Y-91798500D02*
X153593500Y-90401500D01*
X153593500Y-90401500D02*
X154299620Y-90401500D01*
X155400380Y-93898500D02*
X156106500Y-93898500D01*
X156106500Y-93898500D02*
X156106500Y-92501500D01*
X156106500Y-92501500D02*
X155400380Y-92501500D01*
X153693500Y-93898500D02*
X154399620Y-93898500D01*
X153693500Y-93898500D02*
X153693500Y-92501500D01*
X153693500Y-92501500D02*
X154399620Y-92501500D01*
X151201500Y-92600380D02*
X151201500Y-93306500D01*
X151201500Y-93306500D02*
X152598500Y-93306500D01*
X152598500Y-93306500D02*
X152598500Y-92600380D01*
X151201500Y-90893500D02*
X151201500Y-91599620D01*
X151201500Y-90893500D02*
X152598500Y-90893500D01*
X152598500Y-90893500D02*
X152598500Y-91599620D01*
X151798500Y-96399620D02*
X151798500Y-95693500D01*
X151798500Y-95693500D02*
X150401500Y-95693500D01*
X150401500Y-95693500D02*
X150401500Y-96399620D01*
X151798500Y-98106500D02*
X151798500Y-97400380D01*
X151798500Y-98106500D02*
X150401500Y-98106500D01*
X150401500Y-98106500D02*
X150401500Y-97400380D01*
X147411000Y-89976000D02*
X149189000Y-89976000D01*
X149189000Y-89976000D02*
X149189000Y-93024000D01*
X149189000Y-93024000D02*
X147411000Y-93024000D01*
X147411000Y-93024000D02*
X147411000Y-89976000D01*
D12*
X148600380Y-94950240D02*
X149298880Y-94950240D01*
X147599620Y-94950240D02*
X146901120Y-94950240D01*
X148600380Y-93649760D02*
X149298880Y-93649760D01*
X146901120Y-93649760D02*
X147599620Y-93649760D01*
X149298880Y-93665000D02*
X149298880Y-94935000D01*
X146901120Y-94935000D02*
X146901120Y-93665000D01*
D11*
X141023607Y-94900000D02*
G75*
G03X141023607Y-94900000I-223607J0D01*
G01*
X140300000Y-91400000D02*
X145300000Y-91400000D01*
X145300000Y-91400000D02*
X145300000Y-95400000D01*
X145300000Y-95400000D02*
X140300000Y-95400000D01*
X140300000Y-95400000D02*
X140300000Y-91400000D01*
X129800000Y-91300000D02*
X129200000Y-91300000D01*
X134500000Y-90900000D02*
X134500000Y-91700000D01*
X134100000Y-91300000D02*
X134900000Y-91300000D01*
X135100000Y-91300000D02*
G75*
G03X135100000Y-91300000I-3100000J0D01*
G01*
X149200000Y-103600000D02*
X148600000Y-103600000D01*
X153900000Y-103200000D02*
X153900000Y-104000000D01*
X153500000Y-103600000D02*
X154300000Y-103600000D01*
X154500000Y-103600000D02*
G75*
G03X154500000Y-103600000I-3100000J0D01*
G01*
X149200000Y-123600000D02*
X148600000Y-123600000D01*
X153900000Y-123200000D02*
X153900000Y-124000000D01*
X153500000Y-123600000D02*
X154300000Y-123600000D01*
X154500000Y-123600000D02*
G75*
G03X154500000Y-123600000I-3100000J0D01*
G01*
X129800000Y-111300000D02*
X129200000Y-111300000D01*
X134500000Y-110900000D02*
X134500000Y-111700000D01*
X134100000Y-111300000D02*
X134900000Y-111300000D01*
X135100000Y-111300000D02*
G75*
G03X135100000Y-111300000I-3100000J0D01*
G01*
X141023607Y-114900000D02*
G75*
G03X141023607Y-114900000I-223607J0D01*
G01*
X140300000Y-111400000D02*
X145300000Y-111400000D01*
X145300000Y-111400000D02*
X145300000Y-115400000D01*
X145300000Y-115400000D02*
X140300000Y-115400000D01*
X140300000Y-115400000D02*
X140300000Y-111400000D01*
D12*
X148600380Y-114950240D02*
X149298880Y-114950240D01*
X147599620Y-114950240D02*
X146901120Y-114950240D01*
X148600380Y-113649760D02*
X149298880Y-113649760D01*
X146901120Y-113649760D02*
X147599620Y-113649760D01*
X149298880Y-113665000D02*
X149298880Y-114935000D01*
X146901120Y-114935000D02*
X146901120Y-113665000D01*
D14*
X147411000Y-109976000D02*
X149189000Y-109976000D01*
X149189000Y-109976000D02*
X149189000Y-113024000D01*
X149189000Y-113024000D02*
X147411000Y-113024000D01*
X147411000Y-113024000D02*
X147411000Y-109976000D01*
X151798500Y-116399620D02*
X151798500Y-115693500D01*
X151798500Y-115693500D02*
X150401500Y-115693500D01*
X150401500Y-115693500D02*
X150401500Y-116399620D01*
X151798500Y-118106500D02*
X151798500Y-117400380D01*
X151798500Y-118106500D02*
X150401500Y-118106500D01*
X150401500Y-118106500D02*
X150401500Y-117400380D01*
X151201500Y-112600380D02*
X151201500Y-113306500D01*
X151201500Y-113306500D02*
X152598500Y-113306500D01*
X152598500Y-113306500D02*
X152598500Y-112600380D01*
X151201500Y-110893500D02*
X151201500Y-111599620D01*
X151201500Y-110893500D02*
X152598500Y-110893500D01*
X152598500Y-110893500D02*
X152598500Y-111599620D01*
X155400380Y-113898500D02*
X156106500Y-113898500D01*
X156106500Y-113898500D02*
X156106500Y-112501500D01*
X156106500Y-112501500D02*
X155400380Y-112501500D01*
X153693500Y-113898500D02*
X154399620Y-113898500D01*
X153693500Y-113898500D02*
X153693500Y-112501500D01*
X153693500Y-112501500D02*
X154399620Y-112501500D01*
X155300380Y-111798500D02*
X156006500Y-111798500D01*
X156006500Y-111798500D02*
X156006500Y-110401500D01*
X156006500Y-110401500D02*
X155300380Y-110401500D01*
X153593500Y-111798500D02*
X154299620Y-111798500D01*
X153593500Y-111798500D02*
X153593500Y-110401500D01*
X153593500Y-110401500D02*
X154299620Y-110401500D01*
X138898500Y-110099620D02*
X138898500Y-109393500D01*
X138898500Y-109393500D02*
X137501500Y-109393500D01*
X137501500Y-109393500D02*
X137501500Y-110099620D01*
X138898500Y-111806500D02*
X138898500Y-111100380D01*
X138898500Y-111806500D02*
X137501500Y-111806500D01*
X137501500Y-111806500D02*
X137501500Y-111100380D01*
D13*
X146590000Y-122500000D02*
G75*
G03X146590000Y-122500000I-3990000J0D01*
G01*
D11*
X154530000Y-114960000D02*
X154530000Y-120040000D01*
X158975000Y-114960000D02*
X158975000Y-120040000D01*
X152625000Y-120040000D02*
X152625000Y-114960000D01*
X152625000Y-120040000D02*
X158975000Y-120040000D01*
X152625000Y-114960000D02*
X158975000Y-114960000D01*
X123999500Y-114899120D02*
X123999500Y-123900880D01*
X120499380Y-114899120D02*
X120499380Y-123900880D01*
X120499380Y-123900880D02*
X135000240Y-123900880D01*
X135000240Y-123900880D02*
X135000240Y-114899120D01*
X135000240Y-114899120D02*
X120499380Y-114899120D01*
D12*
X148600380Y-117850240D02*
X149298880Y-117850240D01*
X147599620Y-117850240D02*
X146901120Y-117850240D01*
X148600380Y-116549760D02*
X149298880Y-116549760D01*
X146901120Y-116549760D02*
X147599620Y-116549760D01*
X149298880Y-116565000D02*
X149298880Y-117835000D01*
X146901120Y-117835000D02*
X146901120Y-116565000D01*
D11*
X138200000Y-116046000D02*
X138200000Y-115792000D01*
X138200000Y-116554000D02*
X138200000Y-116808000D01*
X138200000Y-116046000D02*
X138581000Y-116554000D01*
X138581000Y-116554000D02*
X137819000Y-116554000D01*
X137819000Y-116554000D02*
X138200000Y-116046000D01*
X137819000Y-116046000D02*
X138581000Y-116046000D01*
X138835000Y-116935000D02*
X138835000Y-115665000D01*
X137565000Y-116935000D02*
X137565000Y-115665000D01*
X136454000Y-125400000D02*
X136708000Y-125400000D01*
X135946000Y-125400000D02*
X135692000Y-125400000D01*
X136454000Y-125400000D02*
X135946000Y-125781000D01*
X135946000Y-125781000D02*
X135946000Y-125019000D01*
X135946000Y-125019000D02*
X136454000Y-125400000D01*
X136454000Y-125019000D02*
X136454000Y-125781000D01*
X135565000Y-126035000D02*
X136835000Y-126035000D01*
X135565000Y-124765000D02*
X136835000Y-124765000D01*
D10*
X139016667Y-85916666D02*
X138316667Y-85916666D01*
X138316667Y-85750000D01*
X138350000Y-85650000D01*
X138416667Y-85583333D01*
X138483333Y-85550000D01*
X138616667Y-85516666D01*
X138716667Y-85516666D01*
X138850000Y-85550000D01*
X138916667Y-85583333D01*
X138983333Y-85650000D01*
X139016667Y-85750000D01*
X139016667Y-85916666D01*
X138383333Y-85250000D02*
X138350000Y-85216666D01*
X138316667Y-85150000D01*
X138316667Y-84983333D01*
X138350000Y-84916666D01*
X138383333Y-84883333D01*
X138450000Y-84850000D01*
X138516667Y-84850000D01*
X138616667Y-84883333D01*
X139016667Y-85283333D01*
X139016667Y-84850000D01*
X137683334Y-74116667D02*
X137683334Y-73416667D01*
X137850000Y-73416667D01*
X137950000Y-73450000D01*
X138016667Y-73516667D01*
X138050000Y-73583333D01*
X138083334Y-73716667D01*
X138083334Y-73816667D01*
X138050000Y-73950000D01*
X138016667Y-74016667D01*
X137950000Y-74083333D01*
X137850000Y-74116667D01*
X137683334Y-74116667D01*
X138750000Y-74116667D02*
X138350000Y-74116667D01*
X138550000Y-74116667D02*
X138550000Y-73416667D01*
X138483334Y-73516667D01*
X138416667Y-73583333D01*
X138350000Y-73616667D01*
X148066667Y-78785714D02*
X148028572Y-78823810D01*
X147914286Y-78861905D01*
X147838096Y-78861905D01*
X147723810Y-78823810D01*
X147647619Y-78747619D01*
X147609524Y-78671429D01*
X147571429Y-78519048D01*
X147571429Y-78404762D01*
X147609524Y-78252381D01*
X147647619Y-78176190D01*
X147723810Y-78100000D01*
X147838096Y-78061905D01*
X147914286Y-78061905D01*
X148028572Y-78100000D01*
X148066667Y-78138095D01*
X148371429Y-78138095D02*
X148409524Y-78100000D01*
X148485715Y-78061905D01*
X148676191Y-78061905D01*
X148752381Y-78100000D01*
X148790477Y-78138095D01*
X148828572Y-78214286D01*
X148828572Y-78290476D01*
X148790477Y-78404762D01*
X148333334Y-78861905D01*
X148828572Y-78861905D01*
D15*
X146630429Y-77058486D02*
X146654619Y-77080257D01*
X146678810Y-77145571D01*
X146678810Y-77189114D01*
X146654619Y-77254429D01*
X146606238Y-77297971D01*
X146557857Y-77319743D01*
X146461095Y-77341514D01*
X146388524Y-77341514D01*
X146291762Y-77319743D01*
X146243381Y-77297971D01*
X146195000Y-77254429D01*
X146170810Y-77189114D01*
X146170810Y-77145571D01*
X146195000Y-77080257D01*
X146219190Y-77058486D01*
D11*
X135666667Y-75352381D02*
X135666667Y-76066667D01*
X135619047Y-76209524D01*
X135523809Y-76304762D01*
X135380952Y-76352381D01*
X135285714Y-76352381D01*
X136666667Y-76352381D02*
X136095238Y-76352381D01*
X136380952Y-76352381D02*
X136380952Y-75352381D01*
X136285714Y-75495238D01*
X136190476Y-75590476D01*
X136095238Y-75638095D01*
X155766667Y-82052381D02*
X155766667Y-82766667D01*
X155719047Y-82909524D01*
X155623809Y-83004762D01*
X155480952Y-83052381D01*
X155385714Y-83052381D01*
X156195238Y-82147619D02*
X156242857Y-82100000D01*
X156338095Y-82052381D01*
X156576191Y-82052381D01*
X156671429Y-82100000D01*
X156719048Y-82147619D01*
X156766667Y-82242857D01*
X156766667Y-82338095D01*
X156719048Y-82480952D01*
X156147619Y-83052381D01*
X156766667Y-83052381D01*
X146533334Y-86352381D02*
X146057143Y-86352381D01*
X146057143Y-85352381D01*
X147390477Y-86352381D02*
X146819048Y-86352381D01*
X147104762Y-86352381D02*
X147104762Y-85352381D01*
X147009524Y-85495238D01*
X146914286Y-85590476D01*
X146819048Y-85638095D01*
D10*
X138066667Y-73061905D02*
X137800000Y-72680952D01*
X137609524Y-73061905D02*
X137609524Y-72261905D01*
X137914286Y-72261905D01*
X137990477Y-72300000D01*
X138028572Y-72338095D01*
X138066667Y-72414286D01*
X138066667Y-72528571D01*
X138028572Y-72604762D01*
X137990477Y-72642857D01*
X137914286Y-72680952D01*
X137609524Y-72680952D01*
X138828572Y-73061905D02*
X138371429Y-73061905D01*
X138600000Y-73061905D02*
X138600000Y-72261905D01*
X138523810Y-72376190D01*
X138447619Y-72452381D01*
X138371429Y-72490476D01*
D15*
X136941514Y-70229810D02*
X136789114Y-69987905D01*
X136680257Y-70229810D02*
X136680257Y-69721810D01*
X136854429Y-69721810D01*
X136897971Y-69746000D01*
X136919743Y-69770190D01*
X136941514Y-69818571D01*
X136941514Y-69891143D01*
X136919743Y-69939524D01*
X136897971Y-69963714D01*
X136854429Y-69987905D01*
X136680257Y-69987905D01*
D10*
X157466667Y-71461905D02*
X157200000Y-71080952D01*
X157009524Y-71461905D02*
X157009524Y-70661905D01*
X157314286Y-70661905D01*
X157390477Y-70700000D01*
X157428572Y-70738095D01*
X157466667Y-70814286D01*
X157466667Y-70928571D01*
X157428572Y-71004762D01*
X157390477Y-71042857D01*
X157314286Y-71080952D01*
X157009524Y-71080952D01*
X157771429Y-70738095D02*
X157809524Y-70700000D01*
X157885715Y-70661905D01*
X158076191Y-70661905D01*
X158152381Y-70700000D01*
X158190477Y-70738095D01*
X158228572Y-70814286D01*
X158228572Y-70890476D01*
X158190477Y-71004762D01*
X157733334Y-71461905D01*
X158228572Y-71461905D01*
D15*
X156729070Y-70958486D02*
X156487165Y-71110886D01*
X156729070Y-71219743D02*
X156221070Y-71219743D01*
X156221070Y-71045571D01*
X156245260Y-71002029D01*
X156269450Y-70980257D01*
X156317831Y-70958486D01*
X156390403Y-70958486D01*
X156438784Y-70980257D01*
X156462974Y-71002029D01*
X156487165Y-71045571D01*
X156487165Y-71219743D01*
D10*
X157466667Y-73561905D02*
X157200000Y-73180952D01*
X157009524Y-73561905D02*
X157009524Y-72761905D01*
X157314286Y-72761905D01*
X157390477Y-72800000D01*
X157428572Y-72838095D01*
X157466667Y-72914286D01*
X157466667Y-73028571D01*
X157428572Y-73104762D01*
X157390477Y-73142857D01*
X157314286Y-73180952D01*
X157009524Y-73180952D01*
X157733334Y-72761905D02*
X158228572Y-72761905D01*
X157961905Y-73066667D01*
X158076191Y-73066667D01*
X158152381Y-73104762D01*
X158190477Y-73142857D01*
X158228572Y-73219048D01*
X158228572Y-73409524D01*
X158190477Y-73485714D01*
X158152381Y-73523810D01*
X158076191Y-73561905D01*
X157847619Y-73561905D01*
X157771429Y-73523810D01*
X157733334Y-73485714D01*
D15*
X156829070Y-73058486D02*
X156587165Y-73210886D01*
X156829070Y-73319743D02*
X156321070Y-73319743D01*
X156321070Y-73145571D01*
X156345260Y-73102029D01*
X156369450Y-73080257D01*
X156417831Y-73058486D01*
X156490403Y-73058486D01*
X156538784Y-73080257D01*
X156562974Y-73102029D01*
X156587165Y-73145571D01*
X156587165Y-73319743D01*
D10*
X151866667Y-70361905D02*
X151600000Y-69980952D01*
X151409524Y-70361905D02*
X151409524Y-69561905D01*
X151714286Y-69561905D01*
X151790477Y-69600000D01*
X151828572Y-69638095D01*
X151866667Y-69714286D01*
X151866667Y-69828571D01*
X151828572Y-69904762D01*
X151790477Y-69942857D01*
X151714286Y-69980952D01*
X151409524Y-69980952D01*
X152552381Y-69828571D02*
X152552381Y-70361905D01*
X152361905Y-69523810D02*
X152171429Y-70095238D01*
X152666667Y-70095238D01*
D15*
X152041514Y-74029070D02*
X151889114Y-73787165D01*
X151780257Y-74029070D02*
X151780257Y-73521070D01*
X151954429Y-73521070D01*
X151997971Y-73545260D01*
X152019743Y-73569450D01*
X152041514Y-73617831D01*
X152041514Y-73690403D01*
X152019743Y-73738784D01*
X151997971Y-73762974D01*
X151954429Y-73787165D01*
X151780257Y-73787165D01*
D10*
X151066667Y-79461905D02*
X150800000Y-79080952D01*
X150609524Y-79461905D02*
X150609524Y-78661905D01*
X150914286Y-78661905D01*
X150990477Y-78700000D01*
X151028572Y-78738095D01*
X151066667Y-78814286D01*
X151066667Y-78928571D01*
X151028572Y-79004762D01*
X150990477Y-79042857D01*
X150914286Y-79080952D01*
X150609524Y-79080952D01*
X151790477Y-78661905D02*
X151409524Y-78661905D01*
X151371429Y-79042857D01*
X151409524Y-79004762D01*
X151485715Y-78966667D01*
X151676191Y-78966667D01*
X151752381Y-79004762D01*
X151790477Y-79042857D01*
X151828572Y-79119048D01*
X151828572Y-79309524D01*
X151790477Y-79385714D01*
X151752381Y-79423810D01*
X151676191Y-79461905D01*
X151485715Y-79461905D01*
X151409524Y-79423810D01*
X151371429Y-79385714D01*
D15*
X151241514Y-75430550D02*
X151089114Y-75188645D01*
X150980257Y-75430550D02*
X150980257Y-74922550D01*
X151154429Y-74922550D01*
X151197971Y-74946740D01*
X151219743Y-74970930D01*
X151241514Y-75019311D01*
X151241514Y-75091883D01*
X151219743Y-75140264D01*
X151197971Y-75164454D01*
X151154429Y-75188645D01*
X150980257Y-75188645D01*
D10*
X145790476Y-71161905D02*
X145790476Y-71809524D01*
X145828571Y-71885714D01*
X145866667Y-71923810D01*
X145942857Y-71961905D01*
X146095238Y-71961905D01*
X146171429Y-71923810D01*
X146209524Y-71885714D01*
X146247619Y-71809524D01*
X146247619Y-71161905D01*
X146590476Y-71238095D02*
X146628571Y-71200000D01*
X146704762Y-71161905D01*
X146895238Y-71161905D01*
X146971428Y-71200000D01*
X147009524Y-71238095D01*
X147047619Y-71314286D01*
X147047619Y-71390476D01*
X147009524Y-71504762D01*
X146552381Y-71961905D01*
X147047619Y-71961905D01*
X147247619Y-69361905D02*
X146866666Y-69361905D01*
X146866666Y-68561905D01*
X147514285Y-69361905D02*
X147514285Y-68561905D01*
X147780952Y-69133333D01*
X148047619Y-68561905D01*
X148047619Y-69361905D01*
X148352381Y-68561905D02*
X148847619Y-68561905D01*
X148580952Y-68866667D01*
X148695238Y-68866667D01*
X148771428Y-68904762D01*
X148809524Y-68942857D01*
X148847619Y-69019048D01*
X148847619Y-69209524D01*
X148809524Y-69285714D01*
X148771428Y-69323810D01*
X148695238Y-69361905D01*
X148466666Y-69361905D01*
X148390476Y-69323810D01*
X148352381Y-69285714D01*
X149152381Y-68638095D02*
X149190476Y-68600000D01*
X149266667Y-68561905D01*
X149457143Y-68561905D01*
X149533333Y-68600000D01*
X149571429Y-68638095D01*
X149609524Y-68714286D01*
X149609524Y-68790476D01*
X149571429Y-68904762D01*
X149114286Y-69361905D01*
X149609524Y-69361905D01*
X150371429Y-69361905D02*
X149914286Y-69361905D01*
X150142857Y-69361905D02*
X150142857Y-68561905D01*
X150066667Y-68676190D01*
X149990476Y-68752381D01*
X149914286Y-68790476D01*
X147966667Y-75885714D02*
X147928572Y-75923810D01*
X147814286Y-75961905D01*
X147738096Y-75961905D01*
X147623810Y-75923810D01*
X147547619Y-75847619D01*
X147509524Y-75771429D01*
X147471429Y-75619048D01*
X147471429Y-75504762D01*
X147509524Y-75352381D01*
X147547619Y-75276190D01*
X147623810Y-75200000D01*
X147738096Y-75161905D01*
X147814286Y-75161905D01*
X147928572Y-75200000D01*
X147966667Y-75238095D01*
X148652381Y-75428571D02*
X148652381Y-75961905D01*
X148461905Y-75123810D02*
X148271429Y-75695238D01*
X148766667Y-75695238D01*
D15*
X146630429Y-74158486D02*
X146654619Y-74180257D01*
X146678810Y-74245571D01*
X146678810Y-74289114D01*
X146654619Y-74354429D01*
X146606238Y-74397971D01*
X146557857Y-74419743D01*
X146461095Y-74441514D01*
X146388524Y-74441514D01*
X146291762Y-74419743D01*
X146243381Y-74397971D01*
X146195000Y-74354429D01*
X146170810Y-74289114D01*
X146170810Y-74245571D01*
X146195000Y-74180257D01*
X146219190Y-74158486D01*
D10*
X138790476Y-73961905D02*
X138790476Y-74609524D01*
X138828571Y-74685714D01*
X138866667Y-74723810D01*
X138942857Y-74761905D01*
X139095238Y-74761905D01*
X139171429Y-74723810D01*
X139209524Y-74685714D01*
X139247619Y-74609524D01*
X139247619Y-73961905D01*
X140047619Y-74761905D02*
X139590476Y-74761905D01*
X139819047Y-74761905D02*
X139819047Y-73961905D01*
X139742857Y-74076190D01*
X139666666Y-74152381D01*
X139590476Y-74190476D01*
X140028571Y-78461905D02*
X140028571Y-77661905D01*
X140295238Y-78233333D01*
X140561905Y-77661905D01*
X140561905Y-78461905D01*
X141400000Y-78385714D02*
X141361905Y-78423810D01*
X141247619Y-78461905D01*
X141171429Y-78461905D01*
X141057143Y-78423810D01*
X140980952Y-78347619D01*
X140942857Y-78271429D01*
X140904762Y-78119048D01*
X140904762Y-78004762D01*
X140942857Y-77852381D01*
X140980952Y-77776190D01*
X141057143Y-77700000D01*
X141171429Y-77661905D01*
X141247619Y-77661905D01*
X141361905Y-77700000D01*
X141400000Y-77738095D01*
X141666667Y-77661905D02*
X142161905Y-77661905D01*
X141895238Y-77966667D01*
X142009524Y-77966667D01*
X142085714Y-78004762D01*
X142123810Y-78042857D01*
X142161905Y-78119048D01*
X142161905Y-78309524D01*
X142123810Y-78385714D01*
X142085714Y-78423810D01*
X142009524Y-78461905D01*
X141780952Y-78461905D01*
X141704762Y-78423810D01*
X141666667Y-78385714D01*
X142847619Y-77928571D02*
X142847619Y-78461905D01*
X142657143Y-77623810D02*
X142466667Y-78195238D01*
X142961905Y-78195238D01*
X143419048Y-77661905D02*
X143495239Y-77661905D01*
X143571429Y-77700000D01*
X143609524Y-77738095D01*
X143647620Y-77814286D01*
X143685715Y-77966667D01*
X143685715Y-78157143D01*
X143647620Y-78309524D01*
X143609524Y-78385714D01*
X143571429Y-78423810D01*
X143495239Y-78461905D01*
X143419048Y-78461905D01*
X143342858Y-78423810D01*
X143304762Y-78385714D01*
X143266667Y-78309524D01*
X143228572Y-78157143D01*
X143228572Y-77966667D01*
X143266667Y-77814286D01*
X143304762Y-77738095D01*
X143342858Y-77700000D01*
X143419048Y-77661905D01*
X144371429Y-77661905D02*
X144219048Y-77661905D01*
X144142858Y-77700000D01*
X144104763Y-77738095D01*
X144028572Y-77852381D01*
X143990477Y-78004762D01*
X143990477Y-78309524D01*
X144028572Y-78385714D01*
X144066667Y-78423810D01*
X144142858Y-78461905D01*
X144295239Y-78461905D01*
X144371429Y-78423810D01*
X144409525Y-78385714D01*
X144447620Y-78309524D01*
X144447620Y-78119048D01*
X144409525Y-78042857D01*
X144371429Y-78004762D01*
X144295239Y-77966667D01*
X144142858Y-77966667D01*
X144066667Y-78004762D01*
X144028572Y-78042857D01*
X143990477Y-78119048D01*
X144714287Y-77661905D02*
X145209525Y-77661905D01*
X144942858Y-77966667D01*
X145057144Y-77966667D01*
X145133334Y-78004762D01*
X145171430Y-78042857D01*
X145209525Y-78119048D01*
X145209525Y-78309524D01*
X145171430Y-78385714D01*
X145133334Y-78423810D01*
X145057144Y-78461905D01*
X144828572Y-78461905D01*
X144752382Y-78423810D01*
X144714287Y-78385714D01*
D11*
X135533334Y-73757143D02*
X135485715Y-73804762D01*
X135342858Y-73852381D01*
X135247620Y-73852381D01*
X135104762Y-73804762D01*
X135009524Y-73709524D01*
X134961905Y-73614286D01*
X134914286Y-73423810D01*
X134914286Y-73280952D01*
X134961905Y-73090476D01*
X135009524Y-72995238D01*
X135104762Y-72900000D01*
X135247620Y-72852381D01*
X135342858Y-72852381D01*
X135485715Y-72900000D01*
X135533334Y-72947619D01*
X136485715Y-73852381D02*
X135914286Y-73852381D01*
X136200000Y-73852381D02*
X136200000Y-72852381D01*
X136104762Y-72995238D01*
X136009524Y-73090476D01*
X135914286Y-73138095D01*
X154633334Y-86457143D02*
X154585715Y-86504762D01*
X154442858Y-86552381D01*
X154347620Y-86552381D01*
X154204762Y-86504762D01*
X154109524Y-86409524D01*
X154061905Y-86314286D01*
X154014286Y-86123810D01*
X154014286Y-85980952D01*
X154061905Y-85790476D01*
X154109524Y-85695238D01*
X154204762Y-85600000D01*
X154347620Y-85552381D01*
X154442858Y-85552381D01*
X154585715Y-85600000D01*
X154633334Y-85647619D01*
X154966667Y-85552381D02*
X155585715Y-85552381D01*
X155252381Y-85933333D01*
X155395239Y-85933333D01*
X155490477Y-85980952D01*
X155538096Y-86028571D01*
X155585715Y-86123810D01*
X155585715Y-86361905D01*
X155538096Y-86457143D01*
X155490477Y-86504762D01*
X155395239Y-86552381D01*
X155109524Y-86552381D01*
X155014286Y-86504762D01*
X154966667Y-86457143D01*
X154633334Y-66457143D02*
X154585715Y-66504762D01*
X154442858Y-66552381D01*
X154347620Y-66552381D01*
X154204762Y-66504762D01*
X154109524Y-66409524D01*
X154061905Y-66314286D01*
X154014286Y-66123810D01*
X154014286Y-65980952D01*
X154061905Y-65790476D01*
X154109524Y-65695238D01*
X154204762Y-65600000D01*
X154347620Y-65552381D01*
X154442858Y-65552381D01*
X154585715Y-65600000D01*
X154633334Y-65647619D01*
X154966667Y-65552381D02*
X155585715Y-65552381D01*
X155252381Y-65933333D01*
X155395239Y-65933333D01*
X155490477Y-65980952D01*
X155538096Y-66028571D01*
X155585715Y-66123810D01*
X155585715Y-66361905D01*
X155538096Y-66457143D01*
X155490477Y-66504762D01*
X155395239Y-66552381D01*
X155109524Y-66552381D01*
X155014286Y-66504762D01*
X154966667Y-66457143D01*
X135533334Y-53757143D02*
X135485715Y-53804762D01*
X135342858Y-53852381D01*
X135247620Y-53852381D01*
X135104762Y-53804762D01*
X135009524Y-53709524D01*
X134961905Y-53614286D01*
X134914286Y-53423810D01*
X134914286Y-53280952D01*
X134961905Y-53090476D01*
X135009524Y-52995238D01*
X135104762Y-52900000D01*
X135247620Y-52852381D01*
X135342858Y-52852381D01*
X135485715Y-52900000D01*
X135533334Y-52947619D01*
X136485715Y-53852381D02*
X135914286Y-53852381D01*
X136200000Y-53852381D02*
X136200000Y-52852381D01*
X136104762Y-52995238D01*
X136009524Y-53090476D01*
X135914286Y-53138095D01*
D10*
X138790476Y-53961905D02*
X138790476Y-54609524D01*
X138828571Y-54685714D01*
X138866667Y-54723810D01*
X138942857Y-54761905D01*
X139095238Y-54761905D01*
X139171429Y-54723810D01*
X139209524Y-54685714D01*
X139247619Y-54609524D01*
X139247619Y-53961905D01*
X140047619Y-54761905D02*
X139590476Y-54761905D01*
X139819047Y-54761905D02*
X139819047Y-53961905D01*
X139742857Y-54076190D01*
X139666666Y-54152381D01*
X139590476Y-54190476D01*
X140028571Y-58461905D02*
X140028571Y-57661905D01*
X140295238Y-58233333D01*
X140561905Y-57661905D01*
X140561905Y-58461905D01*
X141400000Y-58385714D02*
X141361905Y-58423810D01*
X141247619Y-58461905D01*
X141171429Y-58461905D01*
X141057143Y-58423810D01*
X140980952Y-58347619D01*
X140942857Y-58271429D01*
X140904762Y-58119048D01*
X140904762Y-58004762D01*
X140942857Y-57852381D01*
X140980952Y-57776190D01*
X141057143Y-57700000D01*
X141171429Y-57661905D01*
X141247619Y-57661905D01*
X141361905Y-57700000D01*
X141400000Y-57738095D01*
X141666667Y-57661905D02*
X142161905Y-57661905D01*
X141895238Y-57966667D01*
X142009524Y-57966667D01*
X142085714Y-58004762D01*
X142123810Y-58042857D01*
X142161905Y-58119048D01*
X142161905Y-58309524D01*
X142123810Y-58385714D01*
X142085714Y-58423810D01*
X142009524Y-58461905D01*
X141780952Y-58461905D01*
X141704762Y-58423810D01*
X141666667Y-58385714D01*
X142847619Y-57928571D02*
X142847619Y-58461905D01*
X142657143Y-57623810D02*
X142466667Y-58195238D01*
X142961905Y-58195238D01*
X143419048Y-57661905D02*
X143495239Y-57661905D01*
X143571429Y-57700000D01*
X143609524Y-57738095D01*
X143647620Y-57814286D01*
X143685715Y-57966667D01*
X143685715Y-58157143D01*
X143647620Y-58309524D01*
X143609524Y-58385714D01*
X143571429Y-58423810D01*
X143495239Y-58461905D01*
X143419048Y-58461905D01*
X143342858Y-58423810D01*
X143304762Y-58385714D01*
X143266667Y-58309524D01*
X143228572Y-58157143D01*
X143228572Y-57966667D01*
X143266667Y-57814286D01*
X143304762Y-57738095D01*
X143342858Y-57700000D01*
X143419048Y-57661905D01*
X144371429Y-57661905D02*
X144219048Y-57661905D01*
X144142858Y-57700000D01*
X144104763Y-57738095D01*
X144028572Y-57852381D01*
X143990477Y-58004762D01*
X143990477Y-58309524D01*
X144028572Y-58385714D01*
X144066667Y-58423810D01*
X144142858Y-58461905D01*
X144295239Y-58461905D01*
X144371429Y-58423810D01*
X144409525Y-58385714D01*
X144447620Y-58309524D01*
X144447620Y-58119048D01*
X144409525Y-58042857D01*
X144371429Y-58004762D01*
X144295239Y-57966667D01*
X144142858Y-57966667D01*
X144066667Y-58004762D01*
X144028572Y-58042857D01*
X143990477Y-58119048D01*
X144714287Y-57661905D02*
X145209525Y-57661905D01*
X144942858Y-57966667D01*
X145057144Y-57966667D01*
X145133334Y-58004762D01*
X145171430Y-58042857D01*
X145209525Y-58119048D01*
X145209525Y-58309524D01*
X145171430Y-58385714D01*
X145133334Y-58423810D01*
X145057144Y-58461905D01*
X144828572Y-58461905D01*
X144752382Y-58423810D01*
X144714287Y-58385714D01*
X147966667Y-55885714D02*
X147928572Y-55923810D01*
X147814286Y-55961905D01*
X147738096Y-55961905D01*
X147623810Y-55923810D01*
X147547619Y-55847619D01*
X147509524Y-55771429D01*
X147471429Y-55619048D01*
X147471429Y-55504762D01*
X147509524Y-55352381D01*
X147547619Y-55276190D01*
X147623810Y-55200000D01*
X147738096Y-55161905D01*
X147814286Y-55161905D01*
X147928572Y-55200000D01*
X147966667Y-55238095D01*
X148652381Y-55428571D02*
X148652381Y-55961905D01*
X148461905Y-55123810D02*
X148271429Y-55695238D01*
X148766667Y-55695238D01*
D15*
X146630429Y-54158486D02*
X146654619Y-54180257D01*
X146678810Y-54245571D01*
X146678810Y-54289114D01*
X146654619Y-54354429D01*
X146606238Y-54397971D01*
X146557857Y-54419743D01*
X146461095Y-54441514D01*
X146388524Y-54441514D01*
X146291762Y-54419743D01*
X146243381Y-54397971D01*
X146195000Y-54354429D01*
X146170810Y-54289114D01*
X146170810Y-54245571D01*
X146195000Y-54180257D01*
X146219190Y-54158486D01*
D10*
X145790476Y-51161905D02*
X145790476Y-51809524D01*
X145828571Y-51885714D01*
X145866667Y-51923810D01*
X145942857Y-51961905D01*
X146095238Y-51961905D01*
X146171429Y-51923810D01*
X146209524Y-51885714D01*
X146247619Y-51809524D01*
X146247619Y-51161905D01*
X146590476Y-51238095D02*
X146628571Y-51200000D01*
X146704762Y-51161905D01*
X146895238Y-51161905D01*
X146971428Y-51200000D01*
X147009524Y-51238095D01*
X147047619Y-51314286D01*
X147047619Y-51390476D01*
X147009524Y-51504762D01*
X146552381Y-51961905D01*
X147047619Y-51961905D01*
X147247619Y-49361905D02*
X146866666Y-49361905D01*
X146866666Y-48561905D01*
X147514285Y-49361905D02*
X147514285Y-48561905D01*
X147780952Y-49133333D01*
X148047619Y-48561905D01*
X148047619Y-49361905D01*
X148352381Y-48561905D02*
X148847619Y-48561905D01*
X148580952Y-48866667D01*
X148695238Y-48866667D01*
X148771428Y-48904762D01*
X148809524Y-48942857D01*
X148847619Y-49019048D01*
X148847619Y-49209524D01*
X148809524Y-49285714D01*
X148771428Y-49323810D01*
X148695238Y-49361905D01*
X148466666Y-49361905D01*
X148390476Y-49323810D01*
X148352381Y-49285714D01*
X149152381Y-48638095D02*
X149190476Y-48600000D01*
X149266667Y-48561905D01*
X149457143Y-48561905D01*
X149533333Y-48600000D01*
X149571429Y-48638095D01*
X149609524Y-48714286D01*
X149609524Y-48790476D01*
X149571429Y-48904762D01*
X149114286Y-49361905D01*
X149609524Y-49361905D01*
X150371429Y-49361905D02*
X149914286Y-49361905D01*
X150142857Y-49361905D02*
X150142857Y-48561905D01*
X150066667Y-48676190D01*
X149990476Y-48752381D01*
X149914286Y-48790476D01*
X151066667Y-59461905D02*
X150800000Y-59080952D01*
X150609524Y-59461905D02*
X150609524Y-58661905D01*
X150914286Y-58661905D01*
X150990477Y-58700000D01*
X151028572Y-58738095D01*
X151066667Y-58814286D01*
X151066667Y-58928571D01*
X151028572Y-59004762D01*
X150990477Y-59042857D01*
X150914286Y-59080952D01*
X150609524Y-59080952D01*
X151790477Y-58661905D02*
X151409524Y-58661905D01*
X151371429Y-59042857D01*
X151409524Y-59004762D01*
X151485715Y-58966667D01*
X151676191Y-58966667D01*
X151752381Y-59004762D01*
X151790477Y-59042857D01*
X151828572Y-59119048D01*
X151828572Y-59309524D01*
X151790477Y-59385714D01*
X151752381Y-59423810D01*
X151676191Y-59461905D01*
X151485715Y-59461905D01*
X151409524Y-59423810D01*
X151371429Y-59385714D01*
D15*
X151241514Y-55430550D02*
X151089114Y-55188645D01*
X150980257Y-55430550D02*
X150980257Y-54922550D01*
X151154429Y-54922550D01*
X151197971Y-54946740D01*
X151219743Y-54970930D01*
X151241514Y-55019311D01*
X151241514Y-55091883D01*
X151219743Y-55140264D01*
X151197971Y-55164454D01*
X151154429Y-55188645D01*
X150980257Y-55188645D01*
D10*
X151866667Y-50361905D02*
X151600000Y-49980952D01*
X151409524Y-50361905D02*
X151409524Y-49561905D01*
X151714286Y-49561905D01*
X151790477Y-49600000D01*
X151828572Y-49638095D01*
X151866667Y-49714286D01*
X151866667Y-49828571D01*
X151828572Y-49904762D01*
X151790477Y-49942857D01*
X151714286Y-49980952D01*
X151409524Y-49980952D01*
X152552381Y-49828571D02*
X152552381Y-50361905D01*
X152361905Y-49523810D02*
X152171429Y-50095238D01*
X152666667Y-50095238D01*
D15*
X152041514Y-54029070D02*
X151889114Y-53787165D01*
X151780257Y-54029070D02*
X151780257Y-53521070D01*
X151954429Y-53521070D01*
X151997971Y-53545260D01*
X152019743Y-53569450D01*
X152041514Y-53617831D01*
X152041514Y-53690403D01*
X152019743Y-53738784D01*
X151997971Y-53762974D01*
X151954429Y-53787165D01*
X151780257Y-53787165D01*
D10*
X157466667Y-53561905D02*
X157200000Y-53180952D01*
X157009524Y-53561905D02*
X157009524Y-52761905D01*
X157314286Y-52761905D01*
X157390477Y-52800000D01*
X157428572Y-52838095D01*
X157466667Y-52914286D01*
X157466667Y-53028571D01*
X157428572Y-53104762D01*
X157390477Y-53142857D01*
X157314286Y-53180952D01*
X157009524Y-53180952D01*
X157733334Y-52761905D02*
X158228572Y-52761905D01*
X157961905Y-53066667D01*
X158076191Y-53066667D01*
X158152381Y-53104762D01*
X158190477Y-53142857D01*
X158228572Y-53219048D01*
X158228572Y-53409524D01*
X158190477Y-53485714D01*
X158152381Y-53523810D01*
X158076191Y-53561905D01*
X157847619Y-53561905D01*
X157771429Y-53523810D01*
X157733334Y-53485714D01*
D15*
X156829070Y-53058486D02*
X156587165Y-53210886D01*
X156829070Y-53319743D02*
X156321070Y-53319743D01*
X156321070Y-53145571D01*
X156345260Y-53102029D01*
X156369450Y-53080257D01*
X156417831Y-53058486D01*
X156490403Y-53058486D01*
X156538784Y-53080257D01*
X156562974Y-53102029D01*
X156587165Y-53145571D01*
X156587165Y-53319743D01*
D10*
X157466667Y-51461905D02*
X157200000Y-51080952D01*
X157009524Y-51461905D02*
X157009524Y-50661905D01*
X157314286Y-50661905D01*
X157390477Y-50700000D01*
X157428572Y-50738095D01*
X157466667Y-50814286D01*
X157466667Y-50928571D01*
X157428572Y-51004762D01*
X157390477Y-51042857D01*
X157314286Y-51080952D01*
X157009524Y-51080952D01*
X157771429Y-50738095D02*
X157809524Y-50700000D01*
X157885715Y-50661905D01*
X158076191Y-50661905D01*
X158152381Y-50700000D01*
X158190477Y-50738095D01*
X158228572Y-50814286D01*
X158228572Y-50890476D01*
X158190477Y-51004762D01*
X157733334Y-51461905D01*
X158228572Y-51461905D01*
D15*
X156729070Y-50958486D02*
X156487165Y-51110886D01*
X156729070Y-51219743D02*
X156221070Y-51219743D01*
X156221070Y-51045571D01*
X156245260Y-51002029D01*
X156269450Y-50980257D01*
X156317831Y-50958486D01*
X156390403Y-50958486D01*
X156438784Y-50980257D01*
X156462974Y-51002029D01*
X156487165Y-51045571D01*
X156487165Y-51219743D01*
D10*
X138066667Y-53061905D02*
X137800000Y-52680952D01*
X137609524Y-53061905D02*
X137609524Y-52261905D01*
X137914286Y-52261905D01*
X137990477Y-52300000D01*
X138028572Y-52338095D01*
X138066667Y-52414286D01*
X138066667Y-52528571D01*
X138028572Y-52604762D01*
X137990477Y-52642857D01*
X137914286Y-52680952D01*
X137609524Y-52680952D01*
X138828572Y-53061905D02*
X138371429Y-53061905D01*
X138600000Y-53061905D02*
X138600000Y-52261905D01*
X138523810Y-52376190D01*
X138447619Y-52452381D01*
X138371429Y-52490476D01*
D15*
X136941514Y-50229810D02*
X136789114Y-49987905D01*
X136680257Y-50229810D02*
X136680257Y-49721810D01*
X136854429Y-49721810D01*
X136897971Y-49746000D01*
X136919743Y-49770190D01*
X136941514Y-49818571D01*
X136941514Y-49891143D01*
X136919743Y-49939524D01*
X136897971Y-49963714D01*
X136854429Y-49987905D01*
X136680257Y-49987905D01*
D11*
X146533334Y-66352381D02*
X146057143Y-66352381D01*
X146057143Y-65352381D01*
X147390477Y-66352381D02*
X146819048Y-66352381D01*
X147104762Y-66352381D02*
X147104762Y-65352381D01*
X147009524Y-65495238D01*
X146914286Y-65590476D01*
X146819048Y-65638095D01*
X155766667Y-62052381D02*
X155766667Y-62766667D01*
X155719047Y-62909524D01*
X155623809Y-63004762D01*
X155480952Y-63052381D01*
X155385714Y-63052381D01*
X156195238Y-62147619D02*
X156242857Y-62100000D01*
X156338095Y-62052381D01*
X156576191Y-62052381D01*
X156671429Y-62100000D01*
X156719048Y-62147619D01*
X156766667Y-62242857D01*
X156766667Y-62338095D01*
X156719048Y-62480952D01*
X156147619Y-63052381D01*
X156766667Y-63052381D01*
X135666667Y-55352381D02*
X135666667Y-56066667D01*
X135619047Y-56209524D01*
X135523809Y-56304762D01*
X135380952Y-56352381D01*
X135285714Y-56352381D01*
X136666667Y-56352381D02*
X136095238Y-56352381D01*
X136380952Y-56352381D02*
X136380952Y-55352381D01*
X136285714Y-55495238D01*
X136190476Y-55590476D01*
X136095238Y-55638095D01*
D10*
X148066667Y-58785714D02*
X148028572Y-58823810D01*
X147914286Y-58861905D01*
X147838096Y-58861905D01*
X147723810Y-58823810D01*
X147647619Y-58747619D01*
X147609524Y-58671429D01*
X147571429Y-58519048D01*
X147571429Y-58404762D01*
X147609524Y-58252381D01*
X147647619Y-58176190D01*
X147723810Y-58100000D01*
X147838096Y-58061905D01*
X147914286Y-58061905D01*
X148028572Y-58100000D01*
X148066667Y-58138095D01*
X148371429Y-58138095D02*
X148409524Y-58100000D01*
X148485715Y-58061905D01*
X148676191Y-58061905D01*
X148752381Y-58100000D01*
X148790477Y-58138095D01*
X148828572Y-58214286D01*
X148828572Y-58290476D01*
X148790477Y-58404762D01*
X148333334Y-58861905D01*
X148828572Y-58861905D01*
D15*
X146630429Y-57058486D02*
X146654619Y-57080257D01*
X146678810Y-57145571D01*
X146678810Y-57189114D01*
X146654619Y-57254429D01*
X146606238Y-57297971D01*
X146557857Y-57319743D01*
X146461095Y-57341514D01*
X146388524Y-57341514D01*
X146291762Y-57319743D01*
X146243381Y-57297971D01*
X146195000Y-57254429D01*
X146170810Y-57189114D01*
X146170810Y-57145571D01*
X146195000Y-57080257D01*
X146219190Y-57058486D01*
D10*
X137683334Y-54116667D02*
X137683334Y-53416667D01*
X137850000Y-53416667D01*
X137950000Y-53450000D01*
X138016667Y-53516667D01*
X138050000Y-53583333D01*
X138083334Y-53716667D01*
X138083334Y-53816667D01*
X138050000Y-53950000D01*
X138016667Y-54016667D01*
X137950000Y-54083333D01*
X137850000Y-54116667D01*
X137683334Y-54116667D01*
X138750000Y-54116667D02*
X138350000Y-54116667D01*
X138550000Y-54116667D02*
X138550000Y-53416667D01*
X138483334Y-53516667D01*
X138416667Y-53583333D01*
X138350000Y-53616667D01*
X139016667Y-65916666D02*
X138316667Y-65916666D01*
X138316667Y-65750000D01*
X138350000Y-65650000D01*
X138416667Y-65583333D01*
X138483333Y-65550000D01*
X138616667Y-65516666D01*
X138716667Y-65516666D01*
X138850000Y-65550000D01*
X138916667Y-65583333D01*
X138983333Y-65650000D01*
X139016667Y-65750000D01*
X139016667Y-65916666D01*
X138383333Y-65250000D02*
X138350000Y-65216666D01*
X138316667Y-65150000D01*
X138316667Y-64983333D01*
X138350000Y-64916666D01*
X138383333Y-64883333D01*
X138450000Y-64850000D01*
X138516667Y-64850000D01*
X138616667Y-64883333D01*
X139016667Y-65283333D01*
X139016667Y-64850000D01*
X104016667Y-65916666D02*
X103316667Y-65916666D01*
X103316667Y-65750000D01*
X103350000Y-65650000D01*
X103416667Y-65583333D01*
X103483333Y-65550000D01*
X103616667Y-65516666D01*
X103716667Y-65516666D01*
X103850000Y-65550000D01*
X103916667Y-65583333D01*
X103983333Y-65650000D01*
X104016667Y-65750000D01*
X104016667Y-65916666D01*
X103383333Y-65250000D02*
X103350000Y-65216666D01*
X103316667Y-65150000D01*
X103316667Y-64983333D01*
X103350000Y-64916666D01*
X103383333Y-64883333D01*
X103450000Y-64850000D01*
X103516667Y-64850000D01*
X103616667Y-64883333D01*
X104016667Y-65283333D01*
X104016667Y-64850000D01*
X102683334Y-54116667D02*
X102683334Y-53416667D01*
X102850000Y-53416667D01*
X102950000Y-53450000D01*
X103016667Y-53516667D01*
X103050000Y-53583333D01*
X103083334Y-53716667D01*
X103083334Y-53816667D01*
X103050000Y-53950000D01*
X103016667Y-54016667D01*
X102950000Y-54083333D01*
X102850000Y-54116667D01*
X102683334Y-54116667D01*
X103750000Y-54116667D02*
X103350000Y-54116667D01*
X103550000Y-54116667D02*
X103550000Y-53416667D01*
X103483334Y-53516667D01*
X103416667Y-53583333D01*
X103350000Y-53616667D01*
X113066667Y-58785714D02*
X113028572Y-58823810D01*
X112914286Y-58861905D01*
X112838096Y-58861905D01*
X112723810Y-58823810D01*
X112647619Y-58747619D01*
X112609524Y-58671429D01*
X112571429Y-58519048D01*
X112571429Y-58404762D01*
X112609524Y-58252381D01*
X112647619Y-58176190D01*
X112723810Y-58100000D01*
X112838096Y-58061905D01*
X112914286Y-58061905D01*
X113028572Y-58100000D01*
X113066667Y-58138095D01*
X113371429Y-58138095D02*
X113409524Y-58100000D01*
X113485715Y-58061905D01*
X113676191Y-58061905D01*
X113752381Y-58100000D01*
X113790477Y-58138095D01*
X113828572Y-58214286D01*
X113828572Y-58290476D01*
X113790477Y-58404762D01*
X113333334Y-58861905D01*
X113828572Y-58861905D01*
D15*
X111630429Y-57058486D02*
X111654619Y-57080257D01*
X111678810Y-57145571D01*
X111678810Y-57189114D01*
X111654619Y-57254429D01*
X111606238Y-57297971D01*
X111557857Y-57319743D01*
X111461095Y-57341514D01*
X111388524Y-57341514D01*
X111291762Y-57319743D01*
X111243381Y-57297971D01*
X111195000Y-57254429D01*
X111170810Y-57189114D01*
X111170810Y-57145571D01*
X111195000Y-57080257D01*
X111219190Y-57058486D01*
D11*
X100666667Y-55352381D02*
X100666667Y-56066667D01*
X100619047Y-56209524D01*
X100523809Y-56304762D01*
X100380952Y-56352381D01*
X100285714Y-56352381D01*
X101666667Y-56352381D02*
X101095238Y-56352381D01*
X101380952Y-56352381D02*
X101380952Y-55352381D01*
X101285714Y-55495238D01*
X101190476Y-55590476D01*
X101095238Y-55638095D01*
X120766667Y-62052381D02*
X120766667Y-62766667D01*
X120719047Y-62909524D01*
X120623809Y-63004762D01*
X120480952Y-63052381D01*
X120385714Y-63052381D01*
X121195238Y-62147619D02*
X121242857Y-62100000D01*
X121338095Y-62052381D01*
X121576191Y-62052381D01*
X121671429Y-62100000D01*
X121719048Y-62147619D01*
X121766667Y-62242857D01*
X121766667Y-62338095D01*
X121719048Y-62480952D01*
X121147619Y-63052381D01*
X121766667Y-63052381D01*
X111533334Y-66352381D02*
X111057143Y-66352381D01*
X111057143Y-65352381D01*
X112390477Y-66352381D02*
X111819048Y-66352381D01*
X112104762Y-66352381D02*
X112104762Y-65352381D01*
X112009524Y-65495238D01*
X111914286Y-65590476D01*
X111819048Y-65638095D01*
D10*
X103066667Y-53061905D02*
X102800000Y-52680952D01*
X102609524Y-53061905D02*
X102609524Y-52261905D01*
X102914286Y-52261905D01*
X102990477Y-52300000D01*
X103028572Y-52338095D01*
X103066667Y-52414286D01*
X103066667Y-52528571D01*
X103028572Y-52604762D01*
X102990477Y-52642857D01*
X102914286Y-52680952D01*
X102609524Y-52680952D01*
X103828572Y-53061905D02*
X103371429Y-53061905D01*
X103600000Y-53061905D02*
X103600000Y-52261905D01*
X103523810Y-52376190D01*
X103447619Y-52452381D01*
X103371429Y-52490476D01*
D15*
X101941514Y-50229810D02*
X101789114Y-49987905D01*
X101680257Y-50229810D02*
X101680257Y-49721810D01*
X101854429Y-49721810D01*
X101897971Y-49746000D01*
X101919743Y-49770190D01*
X101941514Y-49818571D01*
X101941514Y-49891143D01*
X101919743Y-49939524D01*
X101897971Y-49963714D01*
X101854429Y-49987905D01*
X101680257Y-49987905D01*
D10*
X122466667Y-51461905D02*
X122200000Y-51080952D01*
X122009524Y-51461905D02*
X122009524Y-50661905D01*
X122314286Y-50661905D01*
X122390477Y-50700000D01*
X122428572Y-50738095D01*
X122466667Y-50814286D01*
X122466667Y-50928571D01*
X122428572Y-51004762D01*
X122390477Y-51042857D01*
X122314286Y-51080952D01*
X122009524Y-51080952D01*
X122771429Y-50738095D02*
X122809524Y-50700000D01*
X122885715Y-50661905D01*
X123076191Y-50661905D01*
X123152381Y-50700000D01*
X123190477Y-50738095D01*
X123228572Y-50814286D01*
X123228572Y-50890476D01*
X123190477Y-51004762D01*
X122733334Y-51461905D01*
X123228572Y-51461905D01*
D15*
X121729070Y-50958486D02*
X121487165Y-51110886D01*
X121729070Y-51219743D02*
X121221070Y-51219743D01*
X121221070Y-51045571D01*
X121245260Y-51002029D01*
X121269450Y-50980257D01*
X121317831Y-50958486D01*
X121390403Y-50958486D01*
X121438784Y-50980257D01*
X121462974Y-51002029D01*
X121487165Y-51045571D01*
X121487165Y-51219743D01*
D10*
X122466667Y-53561905D02*
X122200000Y-53180952D01*
X122009524Y-53561905D02*
X122009524Y-52761905D01*
X122314286Y-52761905D01*
X122390477Y-52800000D01*
X122428572Y-52838095D01*
X122466667Y-52914286D01*
X122466667Y-53028571D01*
X122428572Y-53104762D01*
X122390477Y-53142857D01*
X122314286Y-53180952D01*
X122009524Y-53180952D01*
X122733334Y-52761905D02*
X123228572Y-52761905D01*
X122961905Y-53066667D01*
X123076191Y-53066667D01*
X123152381Y-53104762D01*
X123190477Y-53142857D01*
X123228572Y-53219048D01*
X123228572Y-53409524D01*
X123190477Y-53485714D01*
X123152381Y-53523810D01*
X123076191Y-53561905D01*
X122847619Y-53561905D01*
X122771429Y-53523810D01*
X122733334Y-53485714D01*
D15*
X121829070Y-53058486D02*
X121587165Y-53210886D01*
X121829070Y-53319743D02*
X121321070Y-53319743D01*
X121321070Y-53145571D01*
X121345260Y-53102029D01*
X121369450Y-53080257D01*
X121417831Y-53058486D01*
X121490403Y-53058486D01*
X121538784Y-53080257D01*
X121562974Y-53102029D01*
X121587165Y-53145571D01*
X121587165Y-53319743D01*
D10*
X116866667Y-50361905D02*
X116600000Y-49980952D01*
X116409524Y-50361905D02*
X116409524Y-49561905D01*
X116714286Y-49561905D01*
X116790477Y-49600000D01*
X116828572Y-49638095D01*
X116866667Y-49714286D01*
X116866667Y-49828571D01*
X116828572Y-49904762D01*
X116790477Y-49942857D01*
X116714286Y-49980952D01*
X116409524Y-49980952D01*
X117552381Y-49828571D02*
X117552381Y-50361905D01*
X117361905Y-49523810D02*
X117171429Y-50095238D01*
X117666667Y-50095238D01*
D15*
X117041514Y-54029070D02*
X116889114Y-53787165D01*
X116780257Y-54029070D02*
X116780257Y-53521070D01*
X116954429Y-53521070D01*
X116997971Y-53545260D01*
X117019743Y-53569450D01*
X117041514Y-53617831D01*
X117041514Y-53690403D01*
X117019743Y-53738784D01*
X116997971Y-53762974D01*
X116954429Y-53787165D01*
X116780257Y-53787165D01*
D10*
X116066667Y-59461905D02*
X115800000Y-59080952D01*
X115609524Y-59461905D02*
X115609524Y-58661905D01*
X115914286Y-58661905D01*
X115990477Y-58700000D01*
X116028572Y-58738095D01*
X116066667Y-58814286D01*
X116066667Y-58928571D01*
X116028572Y-59004762D01*
X115990477Y-59042857D01*
X115914286Y-59080952D01*
X115609524Y-59080952D01*
X116790477Y-58661905D02*
X116409524Y-58661905D01*
X116371429Y-59042857D01*
X116409524Y-59004762D01*
X116485715Y-58966667D01*
X116676191Y-58966667D01*
X116752381Y-59004762D01*
X116790477Y-59042857D01*
X116828572Y-59119048D01*
X116828572Y-59309524D01*
X116790477Y-59385714D01*
X116752381Y-59423810D01*
X116676191Y-59461905D01*
X116485715Y-59461905D01*
X116409524Y-59423810D01*
X116371429Y-59385714D01*
D15*
X116241514Y-55430550D02*
X116089114Y-55188645D01*
X115980257Y-55430550D02*
X115980257Y-54922550D01*
X116154429Y-54922550D01*
X116197971Y-54946740D01*
X116219743Y-54970930D01*
X116241514Y-55019311D01*
X116241514Y-55091883D01*
X116219743Y-55140264D01*
X116197971Y-55164454D01*
X116154429Y-55188645D01*
X115980257Y-55188645D01*
D10*
X110790476Y-51161905D02*
X110790476Y-51809524D01*
X110828571Y-51885714D01*
X110866667Y-51923810D01*
X110942857Y-51961905D01*
X111095238Y-51961905D01*
X111171429Y-51923810D01*
X111209524Y-51885714D01*
X111247619Y-51809524D01*
X111247619Y-51161905D01*
X111590476Y-51238095D02*
X111628571Y-51200000D01*
X111704762Y-51161905D01*
X111895238Y-51161905D01*
X111971428Y-51200000D01*
X112009524Y-51238095D01*
X112047619Y-51314286D01*
X112047619Y-51390476D01*
X112009524Y-51504762D01*
X111552381Y-51961905D01*
X112047619Y-51961905D01*
X112247619Y-49361905D02*
X111866666Y-49361905D01*
X111866666Y-48561905D01*
X112514285Y-49361905D02*
X112514285Y-48561905D01*
X112780952Y-49133333D01*
X113047619Y-48561905D01*
X113047619Y-49361905D01*
X113352381Y-48561905D02*
X113847619Y-48561905D01*
X113580952Y-48866667D01*
X113695238Y-48866667D01*
X113771428Y-48904762D01*
X113809524Y-48942857D01*
X113847619Y-49019048D01*
X113847619Y-49209524D01*
X113809524Y-49285714D01*
X113771428Y-49323810D01*
X113695238Y-49361905D01*
X113466666Y-49361905D01*
X113390476Y-49323810D01*
X113352381Y-49285714D01*
X114152381Y-48638095D02*
X114190476Y-48600000D01*
X114266667Y-48561905D01*
X114457143Y-48561905D01*
X114533333Y-48600000D01*
X114571429Y-48638095D01*
X114609524Y-48714286D01*
X114609524Y-48790476D01*
X114571429Y-48904762D01*
X114114286Y-49361905D01*
X114609524Y-49361905D01*
X115371429Y-49361905D02*
X114914286Y-49361905D01*
X115142857Y-49361905D02*
X115142857Y-48561905D01*
X115066667Y-48676190D01*
X114990476Y-48752381D01*
X114914286Y-48790476D01*
X112966667Y-55885714D02*
X112928572Y-55923810D01*
X112814286Y-55961905D01*
X112738096Y-55961905D01*
X112623810Y-55923810D01*
X112547619Y-55847619D01*
X112509524Y-55771429D01*
X112471429Y-55619048D01*
X112471429Y-55504762D01*
X112509524Y-55352381D01*
X112547619Y-55276190D01*
X112623810Y-55200000D01*
X112738096Y-55161905D01*
X112814286Y-55161905D01*
X112928572Y-55200000D01*
X112966667Y-55238095D01*
X113652381Y-55428571D02*
X113652381Y-55961905D01*
X113461905Y-55123810D02*
X113271429Y-55695238D01*
X113766667Y-55695238D01*
D15*
X111630429Y-54158486D02*
X111654619Y-54180257D01*
X111678810Y-54245571D01*
X111678810Y-54289114D01*
X111654619Y-54354429D01*
X111606238Y-54397971D01*
X111557857Y-54419743D01*
X111461095Y-54441514D01*
X111388524Y-54441514D01*
X111291762Y-54419743D01*
X111243381Y-54397971D01*
X111195000Y-54354429D01*
X111170810Y-54289114D01*
X111170810Y-54245571D01*
X111195000Y-54180257D01*
X111219190Y-54158486D01*
D10*
X103790476Y-53961905D02*
X103790476Y-54609524D01*
X103828571Y-54685714D01*
X103866667Y-54723810D01*
X103942857Y-54761905D01*
X104095238Y-54761905D01*
X104171429Y-54723810D01*
X104209524Y-54685714D01*
X104247619Y-54609524D01*
X104247619Y-53961905D01*
X105047619Y-54761905D02*
X104590476Y-54761905D01*
X104819047Y-54761905D02*
X104819047Y-53961905D01*
X104742857Y-54076190D01*
X104666666Y-54152381D01*
X104590476Y-54190476D01*
X105028571Y-58461905D02*
X105028571Y-57661905D01*
X105295238Y-58233333D01*
X105561905Y-57661905D01*
X105561905Y-58461905D01*
X106400000Y-58385714D02*
X106361905Y-58423810D01*
X106247619Y-58461905D01*
X106171429Y-58461905D01*
X106057143Y-58423810D01*
X105980952Y-58347619D01*
X105942857Y-58271429D01*
X105904762Y-58119048D01*
X105904762Y-58004762D01*
X105942857Y-57852381D01*
X105980952Y-57776190D01*
X106057143Y-57700000D01*
X106171429Y-57661905D01*
X106247619Y-57661905D01*
X106361905Y-57700000D01*
X106400000Y-57738095D01*
X106666667Y-57661905D02*
X107161905Y-57661905D01*
X106895238Y-57966667D01*
X107009524Y-57966667D01*
X107085714Y-58004762D01*
X107123810Y-58042857D01*
X107161905Y-58119048D01*
X107161905Y-58309524D01*
X107123810Y-58385714D01*
X107085714Y-58423810D01*
X107009524Y-58461905D01*
X106780952Y-58461905D01*
X106704762Y-58423810D01*
X106666667Y-58385714D01*
X107847619Y-57928571D02*
X107847619Y-58461905D01*
X107657143Y-57623810D02*
X107466667Y-58195238D01*
X107961905Y-58195238D01*
X108419048Y-57661905D02*
X108495239Y-57661905D01*
X108571429Y-57700000D01*
X108609524Y-57738095D01*
X108647620Y-57814286D01*
X108685715Y-57966667D01*
X108685715Y-58157143D01*
X108647620Y-58309524D01*
X108609524Y-58385714D01*
X108571429Y-58423810D01*
X108495239Y-58461905D01*
X108419048Y-58461905D01*
X108342858Y-58423810D01*
X108304762Y-58385714D01*
X108266667Y-58309524D01*
X108228572Y-58157143D01*
X108228572Y-57966667D01*
X108266667Y-57814286D01*
X108304762Y-57738095D01*
X108342858Y-57700000D01*
X108419048Y-57661905D01*
X109371429Y-57661905D02*
X109219048Y-57661905D01*
X109142858Y-57700000D01*
X109104763Y-57738095D01*
X109028572Y-57852381D01*
X108990477Y-58004762D01*
X108990477Y-58309524D01*
X109028572Y-58385714D01*
X109066667Y-58423810D01*
X109142858Y-58461905D01*
X109295239Y-58461905D01*
X109371429Y-58423810D01*
X109409525Y-58385714D01*
X109447620Y-58309524D01*
X109447620Y-58119048D01*
X109409525Y-58042857D01*
X109371429Y-58004762D01*
X109295239Y-57966667D01*
X109142858Y-57966667D01*
X109066667Y-58004762D01*
X109028572Y-58042857D01*
X108990477Y-58119048D01*
X109714287Y-57661905D02*
X110209525Y-57661905D01*
X109942858Y-57966667D01*
X110057144Y-57966667D01*
X110133334Y-58004762D01*
X110171430Y-58042857D01*
X110209525Y-58119048D01*
X110209525Y-58309524D01*
X110171430Y-58385714D01*
X110133334Y-58423810D01*
X110057144Y-58461905D01*
X109828572Y-58461905D01*
X109752382Y-58423810D01*
X109714287Y-58385714D01*
D11*
X100533334Y-53757143D02*
X100485715Y-53804762D01*
X100342858Y-53852381D01*
X100247620Y-53852381D01*
X100104762Y-53804762D01*
X100009524Y-53709524D01*
X99961905Y-53614286D01*
X99914286Y-53423810D01*
X99914286Y-53280952D01*
X99961905Y-53090476D01*
X100009524Y-52995238D01*
X100104762Y-52900000D01*
X100247620Y-52852381D01*
X100342858Y-52852381D01*
X100485715Y-52900000D01*
X100533334Y-52947619D01*
X101485715Y-53852381D02*
X100914286Y-53852381D01*
X101200000Y-53852381D02*
X101200000Y-52852381D01*
X101104762Y-52995238D01*
X101009524Y-53090476D01*
X100914286Y-53138095D01*
X119633334Y-66457143D02*
X119585715Y-66504762D01*
X119442858Y-66552381D01*
X119347620Y-66552381D01*
X119204762Y-66504762D01*
X119109524Y-66409524D01*
X119061905Y-66314286D01*
X119014286Y-66123810D01*
X119014286Y-65980952D01*
X119061905Y-65790476D01*
X119109524Y-65695238D01*
X119204762Y-65600000D01*
X119347620Y-65552381D01*
X119442858Y-65552381D01*
X119585715Y-65600000D01*
X119633334Y-65647619D01*
X119966667Y-65552381D02*
X120585715Y-65552381D01*
X120252381Y-65933333D01*
X120395239Y-65933333D01*
X120490477Y-65980952D01*
X120538096Y-66028571D01*
X120585715Y-66123810D01*
X120585715Y-66361905D01*
X120538096Y-66457143D01*
X120490477Y-66504762D01*
X120395239Y-66552381D01*
X120109524Y-66552381D01*
X120014286Y-66504762D01*
X119966667Y-66457143D01*
X119633334Y-86457143D02*
X119585715Y-86504762D01*
X119442858Y-86552381D01*
X119347620Y-86552381D01*
X119204762Y-86504762D01*
X119109524Y-86409524D01*
X119061905Y-86314286D01*
X119014286Y-86123810D01*
X119014286Y-85980952D01*
X119061905Y-85790476D01*
X119109524Y-85695238D01*
X119204762Y-85600000D01*
X119347620Y-85552381D01*
X119442858Y-85552381D01*
X119585715Y-85600000D01*
X119633334Y-85647619D01*
X119966667Y-85552381D02*
X120585715Y-85552381D01*
X120252381Y-85933333D01*
X120395239Y-85933333D01*
X120490477Y-85980952D01*
X120538096Y-86028571D01*
X120585715Y-86123810D01*
X120585715Y-86361905D01*
X120538096Y-86457143D01*
X120490477Y-86504762D01*
X120395239Y-86552381D01*
X120109524Y-86552381D01*
X120014286Y-86504762D01*
X119966667Y-86457143D01*
X100533334Y-73757143D02*
X100485715Y-73804762D01*
X100342858Y-73852381D01*
X100247620Y-73852381D01*
X100104762Y-73804762D01*
X100009524Y-73709524D01*
X99961905Y-73614286D01*
X99914286Y-73423810D01*
X99914286Y-73280952D01*
X99961905Y-73090476D01*
X100009524Y-72995238D01*
X100104762Y-72900000D01*
X100247620Y-72852381D01*
X100342858Y-72852381D01*
X100485715Y-72900000D01*
X100533334Y-72947619D01*
X101485715Y-73852381D02*
X100914286Y-73852381D01*
X101200000Y-73852381D02*
X101200000Y-72852381D01*
X101104762Y-72995238D01*
X101009524Y-73090476D01*
X100914286Y-73138095D01*
D10*
X103790476Y-73961905D02*
X103790476Y-74609524D01*
X103828571Y-74685714D01*
X103866667Y-74723810D01*
X103942857Y-74761905D01*
X104095238Y-74761905D01*
X104171429Y-74723810D01*
X104209524Y-74685714D01*
X104247619Y-74609524D01*
X104247619Y-73961905D01*
X105047619Y-74761905D02*
X104590476Y-74761905D01*
X104819047Y-74761905D02*
X104819047Y-73961905D01*
X104742857Y-74076190D01*
X104666666Y-74152381D01*
X104590476Y-74190476D01*
X105028571Y-78461905D02*
X105028571Y-77661905D01*
X105295238Y-78233333D01*
X105561905Y-77661905D01*
X105561905Y-78461905D01*
X106400000Y-78385714D02*
X106361905Y-78423810D01*
X106247619Y-78461905D01*
X106171429Y-78461905D01*
X106057143Y-78423810D01*
X105980952Y-78347619D01*
X105942857Y-78271429D01*
X105904762Y-78119048D01*
X105904762Y-78004762D01*
X105942857Y-77852381D01*
X105980952Y-77776190D01*
X106057143Y-77700000D01*
X106171429Y-77661905D01*
X106247619Y-77661905D01*
X106361905Y-77700000D01*
X106400000Y-77738095D01*
X106666667Y-77661905D02*
X107161905Y-77661905D01*
X106895238Y-77966667D01*
X107009524Y-77966667D01*
X107085714Y-78004762D01*
X107123810Y-78042857D01*
X107161905Y-78119048D01*
X107161905Y-78309524D01*
X107123810Y-78385714D01*
X107085714Y-78423810D01*
X107009524Y-78461905D01*
X106780952Y-78461905D01*
X106704762Y-78423810D01*
X106666667Y-78385714D01*
X107847619Y-77928571D02*
X107847619Y-78461905D01*
X107657143Y-77623810D02*
X107466667Y-78195238D01*
X107961905Y-78195238D01*
X108419048Y-77661905D02*
X108495239Y-77661905D01*
X108571429Y-77700000D01*
X108609524Y-77738095D01*
X108647620Y-77814286D01*
X108685715Y-77966667D01*
X108685715Y-78157143D01*
X108647620Y-78309524D01*
X108609524Y-78385714D01*
X108571429Y-78423810D01*
X108495239Y-78461905D01*
X108419048Y-78461905D01*
X108342858Y-78423810D01*
X108304762Y-78385714D01*
X108266667Y-78309524D01*
X108228572Y-78157143D01*
X108228572Y-77966667D01*
X108266667Y-77814286D01*
X108304762Y-77738095D01*
X108342858Y-77700000D01*
X108419048Y-77661905D01*
X109371429Y-77661905D02*
X109219048Y-77661905D01*
X109142858Y-77700000D01*
X109104763Y-77738095D01*
X109028572Y-77852381D01*
X108990477Y-78004762D01*
X108990477Y-78309524D01*
X109028572Y-78385714D01*
X109066667Y-78423810D01*
X109142858Y-78461905D01*
X109295239Y-78461905D01*
X109371429Y-78423810D01*
X109409525Y-78385714D01*
X109447620Y-78309524D01*
X109447620Y-78119048D01*
X109409525Y-78042857D01*
X109371429Y-78004762D01*
X109295239Y-77966667D01*
X109142858Y-77966667D01*
X109066667Y-78004762D01*
X109028572Y-78042857D01*
X108990477Y-78119048D01*
X109714287Y-77661905D02*
X110209525Y-77661905D01*
X109942858Y-77966667D01*
X110057144Y-77966667D01*
X110133334Y-78004762D01*
X110171430Y-78042857D01*
X110209525Y-78119048D01*
X110209525Y-78309524D01*
X110171430Y-78385714D01*
X110133334Y-78423810D01*
X110057144Y-78461905D01*
X109828572Y-78461905D01*
X109752382Y-78423810D01*
X109714287Y-78385714D01*
X112966667Y-75885714D02*
X112928572Y-75923810D01*
X112814286Y-75961905D01*
X112738096Y-75961905D01*
X112623810Y-75923810D01*
X112547619Y-75847619D01*
X112509524Y-75771429D01*
X112471429Y-75619048D01*
X112471429Y-75504762D01*
X112509524Y-75352381D01*
X112547619Y-75276190D01*
X112623810Y-75200000D01*
X112738096Y-75161905D01*
X112814286Y-75161905D01*
X112928572Y-75200000D01*
X112966667Y-75238095D01*
X113652381Y-75428571D02*
X113652381Y-75961905D01*
X113461905Y-75123810D02*
X113271429Y-75695238D01*
X113766667Y-75695238D01*
D15*
X111630429Y-74158486D02*
X111654619Y-74180257D01*
X111678810Y-74245571D01*
X111678810Y-74289114D01*
X111654619Y-74354429D01*
X111606238Y-74397971D01*
X111557857Y-74419743D01*
X111461095Y-74441514D01*
X111388524Y-74441514D01*
X111291762Y-74419743D01*
X111243381Y-74397971D01*
X111195000Y-74354429D01*
X111170810Y-74289114D01*
X111170810Y-74245571D01*
X111195000Y-74180257D01*
X111219190Y-74158486D01*
D10*
X110790476Y-71161905D02*
X110790476Y-71809524D01*
X110828571Y-71885714D01*
X110866667Y-71923810D01*
X110942857Y-71961905D01*
X111095238Y-71961905D01*
X111171429Y-71923810D01*
X111209524Y-71885714D01*
X111247619Y-71809524D01*
X111247619Y-71161905D01*
X111590476Y-71238095D02*
X111628571Y-71200000D01*
X111704762Y-71161905D01*
X111895238Y-71161905D01*
X111971428Y-71200000D01*
X112009524Y-71238095D01*
X112047619Y-71314286D01*
X112047619Y-71390476D01*
X112009524Y-71504762D01*
X111552381Y-71961905D01*
X112047619Y-71961905D01*
X112247619Y-69361905D02*
X111866666Y-69361905D01*
X111866666Y-68561905D01*
X112514285Y-69361905D02*
X112514285Y-68561905D01*
X112780952Y-69133333D01*
X113047619Y-68561905D01*
X113047619Y-69361905D01*
X113352381Y-68561905D02*
X113847619Y-68561905D01*
X113580952Y-68866667D01*
X113695238Y-68866667D01*
X113771428Y-68904762D01*
X113809524Y-68942857D01*
X113847619Y-69019048D01*
X113847619Y-69209524D01*
X113809524Y-69285714D01*
X113771428Y-69323810D01*
X113695238Y-69361905D01*
X113466666Y-69361905D01*
X113390476Y-69323810D01*
X113352381Y-69285714D01*
X114152381Y-68638095D02*
X114190476Y-68600000D01*
X114266667Y-68561905D01*
X114457143Y-68561905D01*
X114533333Y-68600000D01*
X114571429Y-68638095D01*
X114609524Y-68714286D01*
X114609524Y-68790476D01*
X114571429Y-68904762D01*
X114114286Y-69361905D01*
X114609524Y-69361905D01*
X115371429Y-69361905D02*
X114914286Y-69361905D01*
X115142857Y-69361905D02*
X115142857Y-68561905D01*
X115066667Y-68676190D01*
X114990476Y-68752381D01*
X114914286Y-68790476D01*
X116066667Y-79461905D02*
X115800000Y-79080952D01*
X115609524Y-79461905D02*
X115609524Y-78661905D01*
X115914286Y-78661905D01*
X115990477Y-78700000D01*
X116028572Y-78738095D01*
X116066667Y-78814286D01*
X116066667Y-78928571D01*
X116028572Y-79004762D01*
X115990477Y-79042857D01*
X115914286Y-79080952D01*
X115609524Y-79080952D01*
X116790477Y-78661905D02*
X116409524Y-78661905D01*
X116371429Y-79042857D01*
X116409524Y-79004762D01*
X116485715Y-78966667D01*
X116676191Y-78966667D01*
X116752381Y-79004762D01*
X116790477Y-79042857D01*
X116828572Y-79119048D01*
X116828572Y-79309524D01*
X116790477Y-79385714D01*
X116752381Y-79423810D01*
X116676191Y-79461905D01*
X116485715Y-79461905D01*
X116409524Y-79423810D01*
X116371429Y-79385714D01*
D15*
X116241514Y-75430550D02*
X116089114Y-75188645D01*
X115980257Y-75430550D02*
X115980257Y-74922550D01*
X116154429Y-74922550D01*
X116197971Y-74946740D01*
X116219743Y-74970930D01*
X116241514Y-75019311D01*
X116241514Y-75091883D01*
X116219743Y-75140264D01*
X116197971Y-75164454D01*
X116154429Y-75188645D01*
X115980257Y-75188645D01*
D10*
X116866667Y-70361905D02*
X116600000Y-69980952D01*
X116409524Y-70361905D02*
X116409524Y-69561905D01*
X116714286Y-69561905D01*
X116790477Y-69600000D01*
X116828572Y-69638095D01*
X116866667Y-69714286D01*
X116866667Y-69828571D01*
X116828572Y-69904762D01*
X116790477Y-69942857D01*
X116714286Y-69980952D01*
X116409524Y-69980952D01*
X117552381Y-69828571D02*
X117552381Y-70361905D01*
X117361905Y-69523810D02*
X117171429Y-70095238D01*
X117666667Y-70095238D01*
D15*
X117041514Y-74029070D02*
X116889114Y-73787165D01*
X116780257Y-74029070D02*
X116780257Y-73521070D01*
X116954429Y-73521070D01*
X116997971Y-73545260D01*
X117019743Y-73569450D01*
X117041514Y-73617831D01*
X117041514Y-73690403D01*
X117019743Y-73738784D01*
X116997971Y-73762974D01*
X116954429Y-73787165D01*
X116780257Y-73787165D01*
D10*
X122466667Y-73561905D02*
X122200000Y-73180952D01*
X122009524Y-73561905D02*
X122009524Y-72761905D01*
X122314286Y-72761905D01*
X122390477Y-72800000D01*
X122428572Y-72838095D01*
X122466667Y-72914286D01*
X122466667Y-73028571D01*
X122428572Y-73104762D01*
X122390477Y-73142857D01*
X122314286Y-73180952D01*
X122009524Y-73180952D01*
X122733334Y-72761905D02*
X123228572Y-72761905D01*
X122961905Y-73066667D01*
X123076191Y-73066667D01*
X123152381Y-73104762D01*
X123190477Y-73142857D01*
X123228572Y-73219048D01*
X123228572Y-73409524D01*
X123190477Y-73485714D01*
X123152381Y-73523810D01*
X123076191Y-73561905D01*
X122847619Y-73561905D01*
X122771429Y-73523810D01*
X122733334Y-73485714D01*
D15*
X121829070Y-73058486D02*
X121587165Y-73210886D01*
X121829070Y-73319743D02*
X121321070Y-73319743D01*
X121321070Y-73145571D01*
X121345260Y-73102029D01*
X121369450Y-73080257D01*
X121417831Y-73058486D01*
X121490403Y-73058486D01*
X121538784Y-73080257D01*
X121562974Y-73102029D01*
X121587165Y-73145571D01*
X121587165Y-73319743D01*
D10*
X122466667Y-71461905D02*
X122200000Y-71080952D01*
X122009524Y-71461905D02*
X122009524Y-70661905D01*
X122314286Y-70661905D01*
X122390477Y-70700000D01*
X122428572Y-70738095D01*
X122466667Y-70814286D01*
X122466667Y-70928571D01*
X122428572Y-71004762D01*
X122390477Y-71042857D01*
X122314286Y-71080952D01*
X122009524Y-71080952D01*
X122771429Y-70738095D02*
X122809524Y-70700000D01*
X122885715Y-70661905D01*
X123076191Y-70661905D01*
X123152381Y-70700000D01*
X123190477Y-70738095D01*
X123228572Y-70814286D01*
X123228572Y-70890476D01*
X123190477Y-71004762D01*
X122733334Y-71461905D01*
X123228572Y-71461905D01*
D15*
X121729070Y-70958486D02*
X121487165Y-71110886D01*
X121729070Y-71219743D02*
X121221070Y-71219743D01*
X121221070Y-71045571D01*
X121245260Y-71002029D01*
X121269450Y-70980257D01*
X121317831Y-70958486D01*
X121390403Y-70958486D01*
X121438784Y-70980257D01*
X121462974Y-71002029D01*
X121487165Y-71045571D01*
X121487165Y-71219743D01*
D10*
X103066667Y-73061905D02*
X102800000Y-72680952D01*
X102609524Y-73061905D02*
X102609524Y-72261905D01*
X102914286Y-72261905D01*
X102990477Y-72300000D01*
X103028572Y-72338095D01*
X103066667Y-72414286D01*
X103066667Y-72528571D01*
X103028572Y-72604762D01*
X102990477Y-72642857D01*
X102914286Y-72680952D01*
X102609524Y-72680952D01*
X103828572Y-73061905D02*
X103371429Y-73061905D01*
X103600000Y-73061905D02*
X103600000Y-72261905D01*
X103523810Y-72376190D01*
X103447619Y-72452381D01*
X103371429Y-72490476D01*
D15*
X101941514Y-70229810D02*
X101789114Y-69987905D01*
X101680257Y-70229810D02*
X101680257Y-69721810D01*
X101854429Y-69721810D01*
X101897971Y-69746000D01*
X101919743Y-69770190D01*
X101941514Y-69818571D01*
X101941514Y-69891143D01*
X101919743Y-69939524D01*
X101897971Y-69963714D01*
X101854429Y-69987905D01*
X101680257Y-69987905D01*
D11*
X111533334Y-86352381D02*
X111057143Y-86352381D01*
X111057143Y-85352381D01*
X112390477Y-86352381D02*
X111819048Y-86352381D01*
X112104762Y-86352381D02*
X112104762Y-85352381D01*
X112009524Y-85495238D01*
X111914286Y-85590476D01*
X111819048Y-85638095D01*
X120766667Y-82052381D02*
X120766667Y-82766667D01*
X120719047Y-82909524D01*
X120623809Y-83004762D01*
X120480952Y-83052381D01*
X120385714Y-83052381D01*
X121195238Y-82147619D02*
X121242857Y-82100000D01*
X121338095Y-82052381D01*
X121576191Y-82052381D01*
X121671429Y-82100000D01*
X121719048Y-82147619D01*
X121766667Y-82242857D01*
X121766667Y-82338095D01*
X121719048Y-82480952D01*
X121147619Y-83052381D01*
X121766667Y-83052381D01*
X100666667Y-75352381D02*
X100666667Y-76066667D01*
X100619047Y-76209524D01*
X100523809Y-76304762D01*
X100380952Y-76352381D01*
X100285714Y-76352381D01*
X101666667Y-76352381D02*
X101095238Y-76352381D01*
X101380952Y-76352381D02*
X101380952Y-75352381D01*
X101285714Y-75495238D01*
X101190476Y-75590476D01*
X101095238Y-75638095D01*
D10*
X113066667Y-78785714D02*
X113028572Y-78823810D01*
X112914286Y-78861905D01*
X112838096Y-78861905D01*
X112723810Y-78823810D01*
X112647619Y-78747619D01*
X112609524Y-78671429D01*
X112571429Y-78519048D01*
X112571429Y-78404762D01*
X112609524Y-78252381D01*
X112647619Y-78176190D01*
X112723810Y-78100000D01*
X112838096Y-78061905D01*
X112914286Y-78061905D01*
X113028572Y-78100000D01*
X113066667Y-78138095D01*
X113371429Y-78138095D02*
X113409524Y-78100000D01*
X113485715Y-78061905D01*
X113676191Y-78061905D01*
X113752381Y-78100000D01*
X113790477Y-78138095D01*
X113828572Y-78214286D01*
X113828572Y-78290476D01*
X113790477Y-78404762D01*
X113333334Y-78861905D01*
X113828572Y-78861905D01*
D15*
X111630429Y-77058486D02*
X111654619Y-77080257D01*
X111678810Y-77145571D01*
X111678810Y-77189114D01*
X111654619Y-77254429D01*
X111606238Y-77297971D01*
X111557857Y-77319743D01*
X111461095Y-77341514D01*
X111388524Y-77341514D01*
X111291762Y-77319743D01*
X111243381Y-77297971D01*
X111195000Y-77254429D01*
X111170810Y-77189114D01*
X111170810Y-77145571D01*
X111195000Y-77080257D01*
X111219190Y-77058486D01*
D10*
X102683334Y-74116667D02*
X102683334Y-73416667D01*
X102850000Y-73416667D01*
X102950000Y-73450000D01*
X103016667Y-73516667D01*
X103050000Y-73583333D01*
X103083334Y-73716667D01*
X103083334Y-73816667D01*
X103050000Y-73950000D01*
X103016667Y-74016667D01*
X102950000Y-74083333D01*
X102850000Y-74116667D01*
X102683334Y-74116667D01*
X103750000Y-74116667D02*
X103350000Y-74116667D01*
X103550000Y-74116667D02*
X103550000Y-73416667D01*
X103483334Y-73516667D01*
X103416667Y-73583333D01*
X103350000Y-73616667D01*
X104016667Y-85916666D02*
X103316667Y-85916666D01*
X103316667Y-85750000D01*
X103350000Y-85650000D01*
X103416667Y-85583333D01*
X103483333Y-85550000D01*
X103616667Y-85516666D01*
X103716667Y-85516666D01*
X103850000Y-85550000D01*
X103916667Y-85583333D01*
X103983333Y-85650000D01*
X104016667Y-85750000D01*
X104016667Y-85916666D01*
X103383333Y-85250000D02*
X103350000Y-85216666D01*
X103316667Y-85150000D01*
X103316667Y-84983333D01*
X103350000Y-84916666D01*
X103383333Y-84883333D01*
X103450000Y-84850000D01*
X103516667Y-84850000D01*
X103616667Y-84883333D01*
X104016667Y-85283333D01*
X104016667Y-84850000D01*
X104016667Y-125916666D02*
X103316667Y-125916666D01*
X103316667Y-125750000D01*
X103350000Y-125650000D01*
X103416667Y-125583333D01*
X103483333Y-125550000D01*
X103616667Y-125516666D01*
X103716667Y-125516666D01*
X103850000Y-125550000D01*
X103916667Y-125583333D01*
X103983333Y-125650000D01*
X104016667Y-125750000D01*
X104016667Y-125916666D01*
X103383333Y-125250000D02*
X103350000Y-125216666D01*
X103316667Y-125150000D01*
X103316667Y-124983333D01*
X103350000Y-124916666D01*
X103383333Y-124883333D01*
X103450000Y-124850000D01*
X103516667Y-124850000D01*
X103616667Y-124883333D01*
X104016667Y-125283333D01*
X104016667Y-124850000D01*
X102683334Y-114116667D02*
X102683334Y-113416667D01*
X102850000Y-113416667D01*
X102950000Y-113450000D01*
X103016667Y-113516667D01*
X103050000Y-113583333D01*
X103083334Y-113716667D01*
X103083334Y-113816667D01*
X103050000Y-113950000D01*
X103016667Y-114016667D01*
X102950000Y-114083333D01*
X102850000Y-114116667D01*
X102683334Y-114116667D01*
X103750000Y-114116667D02*
X103350000Y-114116667D01*
X103550000Y-114116667D02*
X103550000Y-113416667D01*
X103483334Y-113516667D01*
X103416667Y-113583333D01*
X103350000Y-113616667D01*
X113066667Y-118785714D02*
X113028572Y-118823810D01*
X112914286Y-118861905D01*
X112838096Y-118861905D01*
X112723810Y-118823810D01*
X112647619Y-118747619D01*
X112609524Y-118671429D01*
X112571429Y-118519048D01*
X112571429Y-118404762D01*
X112609524Y-118252381D01*
X112647619Y-118176190D01*
X112723810Y-118100000D01*
X112838096Y-118061905D01*
X112914286Y-118061905D01*
X113028572Y-118100000D01*
X113066667Y-118138095D01*
X113371429Y-118138095D02*
X113409524Y-118100000D01*
X113485715Y-118061905D01*
X113676191Y-118061905D01*
X113752381Y-118100000D01*
X113790477Y-118138095D01*
X113828572Y-118214286D01*
X113828572Y-118290476D01*
X113790477Y-118404762D01*
X113333334Y-118861905D01*
X113828572Y-118861905D01*
D15*
X111630429Y-117058486D02*
X111654619Y-117080257D01*
X111678810Y-117145571D01*
X111678810Y-117189114D01*
X111654619Y-117254429D01*
X111606238Y-117297971D01*
X111557857Y-117319743D01*
X111461095Y-117341514D01*
X111388524Y-117341514D01*
X111291762Y-117319743D01*
X111243381Y-117297971D01*
X111195000Y-117254429D01*
X111170810Y-117189114D01*
X111170810Y-117145571D01*
X111195000Y-117080257D01*
X111219190Y-117058486D01*
D11*
X100666667Y-115352381D02*
X100666667Y-116066667D01*
X100619047Y-116209524D01*
X100523809Y-116304762D01*
X100380952Y-116352381D01*
X100285714Y-116352381D01*
X101666667Y-116352381D02*
X101095238Y-116352381D01*
X101380952Y-116352381D02*
X101380952Y-115352381D01*
X101285714Y-115495238D01*
X101190476Y-115590476D01*
X101095238Y-115638095D01*
X120766667Y-122052381D02*
X120766667Y-122766667D01*
X120719047Y-122909524D01*
X120623809Y-123004762D01*
X120480952Y-123052381D01*
X120385714Y-123052381D01*
X121195238Y-122147619D02*
X121242857Y-122100000D01*
X121338095Y-122052381D01*
X121576191Y-122052381D01*
X121671429Y-122100000D01*
X121719048Y-122147619D01*
X121766667Y-122242857D01*
X121766667Y-122338095D01*
X121719048Y-122480952D01*
X121147619Y-123052381D01*
X121766667Y-123052381D01*
X111533334Y-126352381D02*
X111057143Y-126352381D01*
X111057143Y-125352381D01*
X112390477Y-126352381D02*
X111819048Y-126352381D01*
X112104762Y-126352381D02*
X112104762Y-125352381D01*
X112009524Y-125495238D01*
X111914286Y-125590476D01*
X111819048Y-125638095D01*
D10*
X103066667Y-113061905D02*
X102800000Y-112680952D01*
X102609524Y-113061905D02*
X102609524Y-112261905D01*
X102914286Y-112261905D01*
X102990477Y-112300000D01*
X103028572Y-112338095D01*
X103066667Y-112414286D01*
X103066667Y-112528571D01*
X103028572Y-112604762D01*
X102990477Y-112642857D01*
X102914286Y-112680952D01*
X102609524Y-112680952D01*
X103828572Y-113061905D02*
X103371429Y-113061905D01*
X103600000Y-113061905D02*
X103600000Y-112261905D01*
X103523810Y-112376190D01*
X103447619Y-112452381D01*
X103371429Y-112490476D01*
D15*
X101941514Y-110229810D02*
X101789114Y-109987905D01*
X101680257Y-110229810D02*
X101680257Y-109721810D01*
X101854429Y-109721810D01*
X101897971Y-109746000D01*
X101919743Y-109770190D01*
X101941514Y-109818571D01*
X101941514Y-109891143D01*
X101919743Y-109939524D01*
X101897971Y-109963714D01*
X101854429Y-109987905D01*
X101680257Y-109987905D01*
D10*
X122466667Y-111461905D02*
X122200000Y-111080952D01*
X122009524Y-111461905D02*
X122009524Y-110661905D01*
X122314286Y-110661905D01*
X122390477Y-110700000D01*
X122428572Y-110738095D01*
X122466667Y-110814286D01*
X122466667Y-110928571D01*
X122428572Y-111004762D01*
X122390477Y-111042857D01*
X122314286Y-111080952D01*
X122009524Y-111080952D01*
X122771429Y-110738095D02*
X122809524Y-110700000D01*
X122885715Y-110661905D01*
X123076191Y-110661905D01*
X123152381Y-110700000D01*
X123190477Y-110738095D01*
X123228572Y-110814286D01*
X123228572Y-110890476D01*
X123190477Y-111004762D01*
X122733334Y-111461905D01*
X123228572Y-111461905D01*
D15*
X121729070Y-110958486D02*
X121487165Y-111110886D01*
X121729070Y-111219743D02*
X121221070Y-111219743D01*
X121221070Y-111045571D01*
X121245260Y-111002029D01*
X121269450Y-110980257D01*
X121317831Y-110958486D01*
X121390403Y-110958486D01*
X121438784Y-110980257D01*
X121462974Y-111002029D01*
X121487165Y-111045571D01*
X121487165Y-111219743D01*
D10*
X122466667Y-113561905D02*
X122200000Y-113180952D01*
X122009524Y-113561905D02*
X122009524Y-112761905D01*
X122314286Y-112761905D01*
X122390477Y-112800000D01*
X122428572Y-112838095D01*
X122466667Y-112914286D01*
X122466667Y-113028571D01*
X122428572Y-113104762D01*
X122390477Y-113142857D01*
X122314286Y-113180952D01*
X122009524Y-113180952D01*
X122733334Y-112761905D02*
X123228572Y-112761905D01*
X122961905Y-113066667D01*
X123076191Y-113066667D01*
X123152381Y-113104762D01*
X123190477Y-113142857D01*
X123228572Y-113219048D01*
X123228572Y-113409524D01*
X123190477Y-113485714D01*
X123152381Y-113523810D01*
X123076191Y-113561905D01*
X122847619Y-113561905D01*
X122771429Y-113523810D01*
X122733334Y-113485714D01*
D15*
X121829070Y-113058486D02*
X121587165Y-113210886D01*
X121829070Y-113319743D02*
X121321070Y-113319743D01*
X121321070Y-113145571D01*
X121345260Y-113102029D01*
X121369450Y-113080257D01*
X121417831Y-113058486D01*
X121490403Y-113058486D01*
X121538784Y-113080257D01*
X121562974Y-113102029D01*
X121587165Y-113145571D01*
X121587165Y-113319743D01*
D10*
X116866667Y-110361905D02*
X116600000Y-109980952D01*
X116409524Y-110361905D02*
X116409524Y-109561905D01*
X116714286Y-109561905D01*
X116790477Y-109600000D01*
X116828572Y-109638095D01*
X116866667Y-109714286D01*
X116866667Y-109828571D01*
X116828572Y-109904762D01*
X116790477Y-109942857D01*
X116714286Y-109980952D01*
X116409524Y-109980952D01*
X117552381Y-109828571D02*
X117552381Y-110361905D01*
X117361905Y-109523810D02*
X117171429Y-110095238D01*
X117666667Y-110095238D01*
D15*
X117041514Y-114029070D02*
X116889114Y-113787165D01*
X116780257Y-114029070D02*
X116780257Y-113521070D01*
X116954429Y-113521070D01*
X116997971Y-113545260D01*
X117019743Y-113569450D01*
X117041514Y-113617831D01*
X117041514Y-113690403D01*
X117019743Y-113738784D01*
X116997971Y-113762974D01*
X116954429Y-113787165D01*
X116780257Y-113787165D01*
D10*
X116066667Y-119461905D02*
X115800000Y-119080952D01*
X115609524Y-119461905D02*
X115609524Y-118661905D01*
X115914286Y-118661905D01*
X115990477Y-118700000D01*
X116028572Y-118738095D01*
X116066667Y-118814286D01*
X116066667Y-118928571D01*
X116028572Y-119004762D01*
X115990477Y-119042857D01*
X115914286Y-119080952D01*
X115609524Y-119080952D01*
X116790477Y-118661905D02*
X116409524Y-118661905D01*
X116371429Y-119042857D01*
X116409524Y-119004762D01*
X116485715Y-118966667D01*
X116676191Y-118966667D01*
X116752381Y-119004762D01*
X116790477Y-119042857D01*
X116828572Y-119119048D01*
X116828572Y-119309524D01*
X116790477Y-119385714D01*
X116752381Y-119423810D01*
X116676191Y-119461905D01*
X116485715Y-119461905D01*
X116409524Y-119423810D01*
X116371429Y-119385714D01*
D15*
X116241514Y-115430550D02*
X116089114Y-115188645D01*
X115980257Y-115430550D02*
X115980257Y-114922550D01*
X116154429Y-114922550D01*
X116197971Y-114946740D01*
X116219743Y-114970930D01*
X116241514Y-115019311D01*
X116241514Y-115091883D01*
X116219743Y-115140264D01*
X116197971Y-115164454D01*
X116154429Y-115188645D01*
X115980257Y-115188645D01*
D10*
X110790476Y-111161905D02*
X110790476Y-111809524D01*
X110828571Y-111885714D01*
X110866667Y-111923810D01*
X110942857Y-111961905D01*
X111095238Y-111961905D01*
X111171429Y-111923810D01*
X111209524Y-111885714D01*
X111247619Y-111809524D01*
X111247619Y-111161905D01*
X111590476Y-111238095D02*
X111628571Y-111200000D01*
X111704762Y-111161905D01*
X111895238Y-111161905D01*
X111971428Y-111200000D01*
X112009524Y-111238095D01*
X112047619Y-111314286D01*
X112047619Y-111390476D01*
X112009524Y-111504762D01*
X111552381Y-111961905D01*
X112047619Y-111961905D01*
X112247619Y-109361905D02*
X111866666Y-109361905D01*
X111866666Y-108561905D01*
X112514285Y-109361905D02*
X112514285Y-108561905D01*
X112780952Y-109133333D01*
X113047619Y-108561905D01*
X113047619Y-109361905D01*
X113352381Y-108561905D02*
X113847619Y-108561905D01*
X113580952Y-108866667D01*
X113695238Y-108866667D01*
X113771428Y-108904762D01*
X113809524Y-108942857D01*
X113847619Y-109019048D01*
X113847619Y-109209524D01*
X113809524Y-109285714D01*
X113771428Y-109323810D01*
X113695238Y-109361905D01*
X113466666Y-109361905D01*
X113390476Y-109323810D01*
X113352381Y-109285714D01*
X114152381Y-108638095D02*
X114190476Y-108600000D01*
X114266667Y-108561905D01*
X114457143Y-108561905D01*
X114533333Y-108600000D01*
X114571429Y-108638095D01*
X114609524Y-108714286D01*
X114609524Y-108790476D01*
X114571429Y-108904762D01*
X114114286Y-109361905D01*
X114609524Y-109361905D01*
X115371429Y-109361905D02*
X114914286Y-109361905D01*
X115142857Y-109361905D02*
X115142857Y-108561905D01*
X115066667Y-108676190D01*
X114990476Y-108752381D01*
X114914286Y-108790476D01*
X112966667Y-115885714D02*
X112928572Y-115923810D01*
X112814286Y-115961905D01*
X112738096Y-115961905D01*
X112623810Y-115923810D01*
X112547619Y-115847619D01*
X112509524Y-115771429D01*
X112471429Y-115619048D01*
X112471429Y-115504762D01*
X112509524Y-115352381D01*
X112547619Y-115276190D01*
X112623810Y-115200000D01*
X112738096Y-115161905D01*
X112814286Y-115161905D01*
X112928572Y-115200000D01*
X112966667Y-115238095D01*
X113652381Y-115428571D02*
X113652381Y-115961905D01*
X113461905Y-115123810D02*
X113271429Y-115695238D01*
X113766667Y-115695238D01*
D15*
X111630429Y-114158486D02*
X111654619Y-114180257D01*
X111678810Y-114245571D01*
X111678810Y-114289114D01*
X111654619Y-114354429D01*
X111606238Y-114397971D01*
X111557857Y-114419743D01*
X111461095Y-114441514D01*
X111388524Y-114441514D01*
X111291762Y-114419743D01*
X111243381Y-114397971D01*
X111195000Y-114354429D01*
X111170810Y-114289114D01*
X111170810Y-114245571D01*
X111195000Y-114180257D01*
X111219190Y-114158486D01*
D10*
X103790476Y-113961905D02*
X103790476Y-114609524D01*
X103828571Y-114685714D01*
X103866667Y-114723810D01*
X103942857Y-114761905D01*
X104095238Y-114761905D01*
X104171429Y-114723810D01*
X104209524Y-114685714D01*
X104247619Y-114609524D01*
X104247619Y-113961905D01*
X105047619Y-114761905D02*
X104590476Y-114761905D01*
X104819047Y-114761905D02*
X104819047Y-113961905D01*
X104742857Y-114076190D01*
X104666666Y-114152381D01*
X104590476Y-114190476D01*
X105028571Y-118461905D02*
X105028571Y-117661905D01*
X105295238Y-118233333D01*
X105561905Y-117661905D01*
X105561905Y-118461905D01*
X106400000Y-118385714D02*
X106361905Y-118423810D01*
X106247619Y-118461905D01*
X106171429Y-118461905D01*
X106057143Y-118423810D01*
X105980952Y-118347619D01*
X105942857Y-118271429D01*
X105904762Y-118119048D01*
X105904762Y-118004762D01*
X105942857Y-117852381D01*
X105980952Y-117776190D01*
X106057143Y-117700000D01*
X106171429Y-117661905D01*
X106247619Y-117661905D01*
X106361905Y-117700000D01*
X106400000Y-117738095D01*
X106666667Y-117661905D02*
X107161905Y-117661905D01*
X106895238Y-117966667D01*
X107009524Y-117966667D01*
X107085714Y-118004762D01*
X107123810Y-118042857D01*
X107161905Y-118119048D01*
X107161905Y-118309524D01*
X107123810Y-118385714D01*
X107085714Y-118423810D01*
X107009524Y-118461905D01*
X106780952Y-118461905D01*
X106704762Y-118423810D01*
X106666667Y-118385714D01*
X107847619Y-117928571D02*
X107847619Y-118461905D01*
X107657143Y-117623810D02*
X107466667Y-118195238D01*
X107961905Y-118195238D01*
X108419048Y-117661905D02*
X108495239Y-117661905D01*
X108571429Y-117700000D01*
X108609524Y-117738095D01*
X108647620Y-117814286D01*
X108685715Y-117966667D01*
X108685715Y-118157143D01*
X108647620Y-118309524D01*
X108609524Y-118385714D01*
X108571429Y-118423810D01*
X108495239Y-118461905D01*
X108419048Y-118461905D01*
X108342858Y-118423810D01*
X108304762Y-118385714D01*
X108266667Y-118309524D01*
X108228572Y-118157143D01*
X108228572Y-117966667D01*
X108266667Y-117814286D01*
X108304762Y-117738095D01*
X108342858Y-117700000D01*
X108419048Y-117661905D01*
X109371429Y-117661905D02*
X109219048Y-117661905D01*
X109142858Y-117700000D01*
X109104763Y-117738095D01*
X109028572Y-117852381D01*
X108990477Y-118004762D01*
X108990477Y-118309524D01*
X109028572Y-118385714D01*
X109066667Y-118423810D01*
X109142858Y-118461905D01*
X109295239Y-118461905D01*
X109371429Y-118423810D01*
X109409525Y-118385714D01*
X109447620Y-118309524D01*
X109447620Y-118119048D01*
X109409525Y-118042857D01*
X109371429Y-118004762D01*
X109295239Y-117966667D01*
X109142858Y-117966667D01*
X109066667Y-118004762D01*
X109028572Y-118042857D01*
X108990477Y-118119048D01*
X109714287Y-117661905D02*
X110209525Y-117661905D01*
X109942858Y-117966667D01*
X110057144Y-117966667D01*
X110133334Y-118004762D01*
X110171430Y-118042857D01*
X110209525Y-118119048D01*
X110209525Y-118309524D01*
X110171430Y-118385714D01*
X110133334Y-118423810D01*
X110057144Y-118461905D01*
X109828572Y-118461905D01*
X109752382Y-118423810D01*
X109714287Y-118385714D01*
D11*
X100533334Y-113757143D02*
X100485715Y-113804762D01*
X100342858Y-113852381D01*
X100247620Y-113852381D01*
X100104762Y-113804762D01*
X100009524Y-113709524D01*
X99961905Y-113614286D01*
X99914286Y-113423810D01*
X99914286Y-113280952D01*
X99961905Y-113090476D01*
X100009524Y-112995238D01*
X100104762Y-112900000D01*
X100247620Y-112852381D01*
X100342858Y-112852381D01*
X100485715Y-112900000D01*
X100533334Y-112947619D01*
X101485715Y-113852381D02*
X100914286Y-113852381D01*
X101200000Y-113852381D02*
X101200000Y-112852381D01*
X101104762Y-112995238D01*
X101009524Y-113090476D01*
X100914286Y-113138095D01*
X119633334Y-126457143D02*
X119585715Y-126504762D01*
X119442858Y-126552381D01*
X119347620Y-126552381D01*
X119204762Y-126504762D01*
X119109524Y-126409524D01*
X119061905Y-126314286D01*
X119014286Y-126123810D01*
X119014286Y-125980952D01*
X119061905Y-125790476D01*
X119109524Y-125695238D01*
X119204762Y-125600000D01*
X119347620Y-125552381D01*
X119442858Y-125552381D01*
X119585715Y-125600000D01*
X119633334Y-125647619D01*
X119966667Y-125552381D02*
X120585715Y-125552381D01*
X120252381Y-125933333D01*
X120395239Y-125933333D01*
X120490477Y-125980952D01*
X120538096Y-126028571D01*
X120585715Y-126123810D01*
X120585715Y-126361905D01*
X120538096Y-126457143D01*
X120490477Y-126504762D01*
X120395239Y-126552381D01*
X120109524Y-126552381D01*
X120014286Y-126504762D01*
X119966667Y-126457143D01*
X119633334Y-106457143D02*
X119585715Y-106504762D01*
X119442858Y-106552381D01*
X119347620Y-106552381D01*
X119204762Y-106504762D01*
X119109524Y-106409524D01*
X119061905Y-106314286D01*
X119014286Y-106123810D01*
X119014286Y-105980952D01*
X119061905Y-105790476D01*
X119109524Y-105695238D01*
X119204762Y-105600000D01*
X119347620Y-105552381D01*
X119442858Y-105552381D01*
X119585715Y-105600000D01*
X119633334Y-105647619D01*
X119966667Y-105552381D02*
X120585715Y-105552381D01*
X120252381Y-105933333D01*
X120395239Y-105933333D01*
X120490477Y-105980952D01*
X120538096Y-106028571D01*
X120585715Y-106123810D01*
X120585715Y-106361905D01*
X120538096Y-106457143D01*
X120490477Y-106504762D01*
X120395239Y-106552381D01*
X120109524Y-106552381D01*
X120014286Y-106504762D01*
X119966667Y-106457143D01*
X100533334Y-93757143D02*
X100485715Y-93804762D01*
X100342858Y-93852381D01*
X100247620Y-93852381D01*
X100104762Y-93804762D01*
X100009524Y-93709524D01*
X99961905Y-93614286D01*
X99914286Y-93423810D01*
X99914286Y-93280952D01*
X99961905Y-93090476D01*
X100009524Y-92995238D01*
X100104762Y-92900000D01*
X100247620Y-92852381D01*
X100342858Y-92852381D01*
X100485715Y-92900000D01*
X100533334Y-92947619D01*
X101485715Y-93852381D02*
X100914286Y-93852381D01*
X101200000Y-93852381D02*
X101200000Y-92852381D01*
X101104762Y-92995238D01*
X101009524Y-93090476D01*
X100914286Y-93138095D01*
D10*
X103790476Y-93961905D02*
X103790476Y-94609524D01*
X103828571Y-94685714D01*
X103866667Y-94723810D01*
X103942857Y-94761905D01*
X104095238Y-94761905D01*
X104171429Y-94723810D01*
X104209524Y-94685714D01*
X104247619Y-94609524D01*
X104247619Y-93961905D01*
X105047619Y-94761905D02*
X104590476Y-94761905D01*
X104819047Y-94761905D02*
X104819047Y-93961905D01*
X104742857Y-94076190D01*
X104666666Y-94152381D01*
X104590476Y-94190476D01*
X105028571Y-98461905D02*
X105028571Y-97661905D01*
X105295238Y-98233333D01*
X105561905Y-97661905D01*
X105561905Y-98461905D01*
X106400000Y-98385714D02*
X106361905Y-98423810D01*
X106247619Y-98461905D01*
X106171429Y-98461905D01*
X106057143Y-98423810D01*
X105980952Y-98347619D01*
X105942857Y-98271429D01*
X105904762Y-98119048D01*
X105904762Y-98004762D01*
X105942857Y-97852381D01*
X105980952Y-97776190D01*
X106057143Y-97700000D01*
X106171429Y-97661905D01*
X106247619Y-97661905D01*
X106361905Y-97700000D01*
X106400000Y-97738095D01*
X106666667Y-97661905D02*
X107161905Y-97661905D01*
X106895238Y-97966667D01*
X107009524Y-97966667D01*
X107085714Y-98004762D01*
X107123810Y-98042857D01*
X107161905Y-98119048D01*
X107161905Y-98309524D01*
X107123810Y-98385714D01*
X107085714Y-98423810D01*
X107009524Y-98461905D01*
X106780952Y-98461905D01*
X106704762Y-98423810D01*
X106666667Y-98385714D01*
X107847619Y-97928571D02*
X107847619Y-98461905D01*
X107657143Y-97623810D02*
X107466667Y-98195238D01*
X107961905Y-98195238D01*
X108419048Y-97661905D02*
X108495239Y-97661905D01*
X108571429Y-97700000D01*
X108609524Y-97738095D01*
X108647620Y-97814286D01*
X108685715Y-97966667D01*
X108685715Y-98157143D01*
X108647620Y-98309524D01*
X108609524Y-98385714D01*
X108571429Y-98423810D01*
X108495239Y-98461905D01*
X108419048Y-98461905D01*
X108342858Y-98423810D01*
X108304762Y-98385714D01*
X108266667Y-98309524D01*
X108228572Y-98157143D01*
X108228572Y-97966667D01*
X108266667Y-97814286D01*
X108304762Y-97738095D01*
X108342858Y-97700000D01*
X108419048Y-97661905D01*
X109371429Y-97661905D02*
X109219048Y-97661905D01*
X109142858Y-97700000D01*
X109104763Y-97738095D01*
X109028572Y-97852381D01*
X108990477Y-98004762D01*
X108990477Y-98309524D01*
X109028572Y-98385714D01*
X109066667Y-98423810D01*
X109142858Y-98461905D01*
X109295239Y-98461905D01*
X109371429Y-98423810D01*
X109409525Y-98385714D01*
X109447620Y-98309524D01*
X109447620Y-98119048D01*
X109409525Y-98042857D01*
X109371429Y-98004762D01*
X109295239Y-97966667D01*
X109142858Y-97966667D01*
X109066667Y-98004762D01*
X109028572Y-98042857D01*
X108990477Y-98119048D01*
X109714287Y-97661905D02*
X110209525Y-97661905D01*
X109942858Y-97966667D01*
X110057144Y-97966667D01*
X110133334Y-98004762D01*
X110171430Y-98042857D01*
X110209525Y-98119048D01*
X110209525Y-98309524D01*
X110171430Y-98385714D01*
X110133334Y-98423810D01*
X110057144Y-98461905D01*
X109828572Y-98461905D01*
X109752382Y-98423810D01*
X109714287Y-98385714D01*
X112966667Y-95885714D02*
X112928572Y-95923810D01*
X112814286Y-95961905D01*
X112738096Y-95961905D01*
X112623810Y-95923810D01*
X112547619Y-95847619D01*
X112509524Y-95771429D01*
X112471429Y-95619048D01*
X112471429Y-95504762D01*
X112509524Y-95352381D01*
X112547619Y-95276190D01*
X112623810Y-95200000D01*
X112738096Y-95161905D01*
X112814286Y-95161905D01*
X112928572Y-95200000D01*
X112966667Y-95238095D01*
X113652381Y-95428571D02*
X113652381Y-95961905D01*
X113461905Y-95123810D02*
X113271429Y-95695238D01*
X113766667Y-95695238D01*
D15*
X111630429Y-94158486D02*
X111654619Y-94180257D01*
X111678810Y-94245571D01*
X111678810Y-94289114D01*
X111654619Y-94354429D01*
X111606238Y-94397971D01*
X111557857Y-94419743D01*
X111461095Y-94441514D01*
X111388524Y-94441514D01*
X111291762Y-94419743D01*
X111243381Y-94397971D01*
X111195000Y-94354429D01*
X111170810Y-94289114D01*
X111170810Y-94245571D01*
X111195000Y-94180257D01*
X111219190Y-94158486D01*
D10*
X110790476Y-91161905D02*
X110790476Y-91809524D01*
X110828571Y-91885714D01*
X110866667Y-91923810D01*
X110942857Y-91961905D01*
X111095238Y-91961905D01*
X111171429Y-91923810D01*
X111209524Y-91885714D01*
X111247619Y-91809524D01*
X111247619Y-91161905D01*
X111590476Y-91238095D02*
X111628571Y-91200000D01*
X111704762Y-91161905D01*
X111895238Y-91161905D01*
X111971428Y-91200000D01*
X112009524Y-91238095D01*
X112047619Y-91314286D01*
X112047619Y-91390476D01*
X112009524Y-91504762D01*
X111552381Y-91961905D01*
X112047619Y-91961905D01*
X112247619Y-89361905D02*
X111866666Y-89361905D01*
X111866666Y-88561905D01*
X112514285Y-89361905D02*
X112514285Y-88561905D01*
X112780952Y-89133333D01*
X113047619Y-88561905D01*
X113047619Y-89361905D01*
X113352381Y-88561905D02*
X113847619Y-88561905D01*
X113580952Y-88866667D01*
X113695238Y-88866667D01*
X113771428Y-88904762D01*
X113809524Y-88942857D01*
X113847619Y-89019048D01*
X113847619Y-89209524D01*
X113809524Y-89285714D01*
X113771428Y-89323810D01*
X113695238Y-89361905D01*
X113466666Y-89361905D01*
X113390476Y-89323810D01*
X113352381Y-89285714D01*
X114152381Y-88638095D02*
X114190476Y-88600000D01*
X114266667Y-88561905D01*
X114457143Y-88561905D01*
X114533333Y-88600000D01*
X114571429Y-88638095D01*
X114609524Y-88714286D01*
X114609524Y-88790476D01*
X114571429Y-88904762D01*
X114114286Y-89361905D01*
X114609524Y-89361905D01*
X115371429Y-89361905D02*
X114914286Y-89361905D01*
X115142857Y-89361905D02*
X115142857Y-88561905D01*
X115066667Y-88676190D01*
X114990476Y-88752381D01*
X114914286Y-88790476D01*
X116066667Y-99461905D02*
X115800000Y-99080952D01*
X115609524Y-99461905D02*
X115609524Y-98661905D01*
X115914286Y-98661905D01*
X115990477Y-98700000D01*
X116028572Y-98738095D01*
X116066667Y-98814286D01*
X116066667Y-98928571D01*
X116028572Y-99004762D01*
X115990477Y-99042857D01*
X115914286Y-99080952D01*
X115609524Y-99080952D01*
X116790477Y-98661905D02*
X116409524Y-98661905D01*
X116371429Y-99042857D01*
X116409524Y-99004762D01*
X116485715Y-98966667D01*
X116676191Y-98966667D01*
X116752381Y-99004762D01*
X116790477Y-99042857D01*
X116828572Y-99119048D01*
X116828572Y-99309524D01*
X116790477Y-99385714D01*
X116752381Y-99423810D01*
X116676191Y-99461905D01*
X116485715Y-99461905D01*
X116409524Y-99423810D01*
X116371429Y-99385714D01*
D15*
X116241514Y-95430550D02*
X116089114Y-95188645D01*
X115980257Y-95430550D02*
X115980257Y-94922550D01*
X116154429Y-94922550D01*
X116197971Y-94946740D01*
X116219743Y-94970930D01*
X116241514Y-95019311D01*
X116241514Y-95091883D01*
X116219743Y-95140264D01*
X116197971Y-95164454D01*
X116154429Y-95188645D01*
X115980257Y-95188645D01*
D10*
X116866667Y-90361905D02*
X116600000Y-89980952D01*
X116409524Y-90361905D02*
X116409524Y-89561905D01*
X116714286Y-89561905D01*
X116790477Y-89600000D01*
X116828572Y-89638095D01*
X116866667Y-89714286D01*
X116866667Y-89828571D01*
X116828572Y-89904762D01*
X116790477Y-89942857D01*
X116714286Y-89980952D01*
X116409524Y-89980952D01*
X117552381Y-89828571D02*
X117552381Y-90361905D01*
X117361905Y-89523810D02*
X117171429Y-90095238D01*
X117666667Y-90095238D01*
D15*
X117041514Y-94029070D02*
X116889114Y-93787165D01*
X116780257Y-94029070D02*
X116780257Y-93521070D01*
X116954429Y-93521070D01*
X116997971Y-93545260D01*
X117019743Y-93569450D01*
X117041514Y-93617831D01*
X117041514Y-93690403D01*
X117019743Y-93738784D01*
X116997971Y-93762974D01*
X116954429Y-93787165D01*
X116780257Y-93787165D01*
D10*
X122466667Y-93561905D02*
X122200000Y-93180952D01*
X122009524Y-93561905D02*
X122009524Y-92761905D01*
X122314286Y-92761905D01*
X122390477Y-92800000D01*
X122428572Y-92838095D01*
X122466667Y-92914286D01*
X122466667Y-93028571D01*
X122428572Y-93104762D01*
X122390477Y-93142857D01*
X122314286Y-93180952D01*
X122009524Y-93180952D01*
X122733334Y-92761905D02*
X123228572Y-92761905D01*
X122961905Y-93066667D01*
X123076191Y-93066667D01*
X123152381Y-93104762D01*
X123190477Y-93142857D01*
X123228572Y-93219048D01*
X123228572Y-93409524D01*
X123190477Y-93485714D01*
X123152381Y-93523810D01*
X123076191Y-93561905D01*
X122847619Y-93561905D01*
X122771429Y-93523810D01*
X122733334Y-93485714D01*
D15*
X121829070Y-93058486D02*
X121587165Y-93210886D01*
X121829070Y-93319743D02*
X121321070Y-93319743D01*
X121321070Y-93145571D01*
X121345260Y-93102029D01*
X121369450Y-93080257D01*
X121417831Y-93058486D01*
X121490403Y-93058486D01*
X121538784Y-93080257D01*
X121562974Y-93102029D01*
X121587165Y-93145571D01*
X121587165Y-93319743D01*
D10*
X122466667Y-91461905D02*
X122200000Y-91080952D01*
X122009524Y-91461905D02*
X122009524Y-90661905D01*
X122314286Y-90661905D01*
X122390477Y-90700000D01*
X122428572Y-90738095D01*
X122466667Y-90814286D01*
X122466667Y-90928571D01*
X122428572Y-91004762D01*
X122390477Y-91042857D01*
X122314286Y-91080952D01*
X122009524Y-91080952D01*
X122771429Y-90738095D02*
X122809524Y-90700000D01*
X122885715Y-90661905D01*
X123076191Y-90661905D01*
X123152381Y-90700000D01*
X123190477Y-90738095D01*
X123228572Y-90814286D01*
X123228572Y-90890476D01*
X123190477Y-91004762D01*
X122733334Y-91461905D01*
X123228572Y-91461905D01*
D15*
X121729070Y-90958486D02*
X121487165Y-91110886D01*
X121729070Y-91219743D02*
X121221070Y-91219743D01*
X121221070Y-91045571D01*
X121245260Y-91002029D01*
X121269450Y-90980257D01*
X121317831Y-90958486D01*
X121390403Y-90958486D01*
X121438784Y-90980257D01*
X121462974Y-91002029D01*
X121487165Y-91045571D01*
X121487165Y-91219743D01*
D10*
X103066667Y-93061905D02*
X102800000Y-92680952D01*
X102609524Y-93061905D02*
X102609524Y-92261905D01*
X102914286Y-92261905D01*
X102990477Y-92300000D01*
X103028572Y-92338095D01*
X103066667Y-92414286D01*
X103066667Y-92528571D01*
X103028572Y-92604762D01*
X102990477Y-92642857D01*
X102914286Y-92680952D01*
X102609524Y-92680952D01*
X103828572Y-93061905D02*
X103371429Y-93061905D01*
X103600000Y-93061905D02*
X103600000Y-92261905D01*
X103523810Y-92376190D01*
X103447619Y-92452381D01*
X103371429Y-92490476D01*
D15*
X101941514Y-90229810D02*
X101789114Y-89987905D01*
X101680257Y-90229810D02*
X101680257Y-89721810D01*
X101854429Y-89721810D01*
X101897971Y-89746000D01*
X101919743Y-89770190D01*
X101941514Y-89818571D01*
X101941514Y-89891143D01*
X101919743Y-89939524D01*
X101897971Y-89963714D01*
X101854429Y-89987905D01*
X101680257Y-89987905D01*
D11*
X111533334Y-106352381D02*
X111057143Y-106352381D01*
X111057143Y-105352381D01*
X112390477Y-106352381D02*
X111819048Y-106352381D01*
X112104762Y-106352381D02*
X112104762Y-105352381D01*
X112009524Y-105495238D01*
X111914286Y-105590476D01*
X111819048Y-105638095D01*
X120766667Y-102052381D02*
X120766667Y-102766667D01*
X120719047Y-102909524D01*
X120623809Y-103004762D01*
X120480952Y-103052381D01*
X120385714Y-103052381D01*
X121195238Y-102147619D02*
X121242857Y-102100000D01*
X121338095Y-102052381D01*
X121576191Y-102052381D01*
X121671429Y-102100000D01*
X121719048Y-102147619D01*
X121766667Y-102242857D01*
X121766667Y-102338095D01*
X121719048Y-102480952D01*
X121147619Y-103052381D01*
X121766667Y-103052381D01*
X100666667Y-95352381D02*
X100666667Y-96066667D01*
X100619047Y-96209524D01*
X100523809Y-96304762D01*
X100380952Y-96352381D01*
X100285714Y-96352381D01*
X101666667Y-96352381D02*
X101095238Y-96352381D01*
X101380952Y-96352381D02*
X101380952Y-95352381D01*
X101285714Y-95495238D01*
X101190476Y-95590476D01*
X101095238Y-95638095D01*
D10*
X113066667Y-98785714D02*
X113028572Y-98823810D01*
X112914286Y-98861905D01*
X112838096Y-98861905D01*
X112723810Y-98823810D01*
X112647619Y-98747619D01*
X112609524Y-98671429D01*
X112571429Y-98519048D01*
X112571429Y-98404762D01*
X112609524Y-98252381D01*
X112647619Y-98176190D01*
X112723810Y-98100000D01*
X112838096Y-98061905D01*
X112914286Y-98061905D01*
X113028572Y-98100000D01*
X113066667Y-98138095D01*
X113371429Y-98138095D02*
X113409524Y-98100000D01*
X113485715Y-98061905D01*
X113676191Y-98061905D01*
X113752381Y-98100000D01*
X113790477Y-98138095D01*
X113828572Y-98214286D01*
X113828572Y-98290476D01*
X113790477Y-98404762D01*
X113333334Y-98861905D01*
X113828572Y-98861905D01*
D15*
X111630429Y-97058486D02*
X111654619Y-97080257D01*
X111678810Y-97145571D01*
X111678810Y-97189114D01*
X111654619Y-97254429D01*
X111606238Y-97297971D01*
X111557857Y-97319743D01*
X111461095Y-97341514D01*
X111388524Y-97341514D01*
X111291762Y-97319743D01*
X111243381Y-97297971D01*
X111195000Y-97254429D01*
X111170810Y-97189114D01*
X111170810Y-97145571D01*
X111195000Y-97080257D01*
X111219190Y-97058486D01*
D10*
X102683334Y-94116667D02*
X102683334Y-93416667D01*
X102850000Y-93416667D01*
X102950000Y-93450000D01*
X103016667Y-93516667D01*
X103050000Y-93583333D01*
X103083334Y-93716667D01*
X103083334Y-93816667D01*
X103050000Y-93950000D01*
X103016667Y-94016667D01*
X102950000Y-94083333D01*
X102850000Y-94116667D01*
X102683334Y-94116667D01*
X103750000Y-94116667D02*
X103350000Y-94116667D01*
X103550000Y-94116667D02*
X103550000Y-93416667D01*
X103483334Y-93516667D01*
X103416667Y-93583333D01*
X103350000Y-93616667D01*
X104016667Y-105916666D02*
X103316667Y-105916666D01*
X103316667Y-105750000D01*
X103350000Y-105650000D01*
X103416667Y-105583333D01*
X103483333Y-105550000D01*
X103616667Y-105516666D01*
X103716667Y-105516666D01*
X103850000Y-105550000D01*
X103916667Y-105583333D01*
X103983333Y-105650000D01*
X104016667Y-105750000D01*
X104016667Y-105916666D01*
X103383333Y-105250000D02*
X103350000Y-105216666D01*
X103316667Y-105150000D01*
X103316667Y-104983333D01*
X103350000Y-104916666D01*
X103383333Y-104883333D01*
X103450000Y-104850000D01*
X103516667Y-104850000D01*
X103616667Y-104883333D01*
X104016667Y-105283333D01*
X104016667Y-104850000D01*
X139016667Y-105916666D02*
X138316667Y-105916666D01*
X138316667Y-105750000D01*
X138350000Y-105650000D01*
X138416667Y-105583333D01*
X138483333Y-105550000D01*
X138616667Y-105516666D01*
X138716667Y-105516666D01*
X138850000Y-105550000D01*
X138916667Y-105583333D01*
X138983333Y-105650000D01*
X139016667Y-105750000D01*
X139016667Y-105916666D01*
X138383333Y-105250000D02*
X138350000Y-105216666D01*
X138316667Y-105150000D01*
X138316667Y-104983333D01*
X138350000Y-104916666D01*
X138383333Y-104883333D01*
X138450000Y-104850000D01*
X138516667Y-104850000D01*
X138616667Y-104883333D01*
X139016667Y-105283333D01*
X139016667Y-104850000D01*
X137683334Y-94116667D02*
X137683334Y-93416667D01*
X137850000Y-93416667D01*
X137950000Y-93450000D01*
X138016667Y-93516667D01*
X138050000Y-93583333D01*
X138083334Y-93716667D01*
X138083334Y-93816667D01*
X138050000Y-93950000D01*
X138016667Y-94016667D01*
X137950000Y-94083333D01*
X137850000Y-94116667D01*
X137683334Y-94116667D01*
X138750000Y-94116667D02*
X138350000Y-94116667D01*
X138550000Y-94116667D02*
X138550000Y-93416667D01*
X138483334Y-93516667D01*
X138416667Y-93583333D01*
X138350000Y-93616667D01*
X148066667Y-98785714D02*
X148028572Y-98823810D01*
X147914286Y-98861905D01*
X147838096Y-98861905D01*
X147723810Y-98823810D01*
X147647619Y-98747619D01*
X147609524Y-98671429D01*
X147571429Y-98519048D01*
X147571429Y-98404762D01*
X147609524Y-98252381D01*
X147647619Y-98176190D01*
X147723810Y-98100000D01*
X147838096Y-98061905D01*
X147914286Y-98061905D01*
X148028572Y-98100000D01*
X148066667Y-98138095D01*
X148371429Y-98138095D02*
X148409524Y-98100000D01*
X148485715Y-98061905D01*
X148676191Y-98061905D01*
X148752381Y-98100000D01*
X148790477Y-98138095D01*
X148828572Y-98214286D01*
X148828572Y-98290476D01*
X148790477Y-98404762D01*
X148333334Y-98861905D01*
X148828572Y-98861905D01*
D15*
X146630429Y-97058486D02*
X146654619Y-97080257D01*
X146678810Y-97145571D01*
X146678810Y-97189114D01*
X146654619Y-97254429D01*
X146606238Y-97297971D01*
X146557857Y-97319743D01*
X146461095Y-97341514D01*
X146388524Y-97341514D01*
X146291762Y-97319743D01*
X146243381Y-97297971D01*
X146195000Y-97254429D01*
X146170810Y-97189114D01*
X146170810Y-97145571D01*
X146195000Y-97080257D01*
X146219190Y-97058486D01*
D11*
X135666667Y-95352381D02*
X135666667Y-96066667D01*
X135619047Y-96209524D01*
X135523809Y-96304762D01*
X135380952Y-96352381D01*
X135285714Y-96352381D01*
X136666667Y-96352381D02*
X136095238Y-96352381D01*
X136380952Y-96352381D02*
X136380952Y-95352381D01*
X136285714Y-95495238D01*
X136190476Y-95590476D01*
X136095238Y-95638095D01*
X155766667Y-102052381D02*
X155766667Y-102766667D01*
X155719047Y-102909524D01*
X155623809Y-103004762D01*
X155480952Y-103052381D01*
X155385714Y-103052381D01*
X156195238Y-102147619D02*
X156242857Y-102100000D01*
X156338095Y-102052381D01*
X156576191Y-102052381D01*
X156671429Y-102100000D01*
X156719048Y-102147619D01*
X156766667Y-102242857D01*
X156766667Y-102338095D01*
X156719048Y-102480952D01*
X156147619Y-103052381D01*
X156766667Y-103052381D01*
X146533334Y-106352381D02*
X146057143Y-106352381D01*
X146057143Y-105352381D01*
X147390477Y-106352381D02*
X146819048Y-106352381D01*
X147104762Y-106352381D02*
X147104762Y-105352381D01*
X147009524Y-105495238D01*
X146914286Y-105590476D01*
X146819048Y-105638095D01*
D10*
X138066667Y-93061905D02*
X137800000Y-92680952D01*
X137609524Y-93061905D02*
X137609524Y-92261905D01*
X137914286Y-92261905D01*
X137990477Y-92300000D01*
X138028572Y-92338095D01*
X138066667Y-92414286D01*
X138066667Y-92528571D01*
X138028572Y-92604762D01*
X137990477Y-92642857D01*
X137914286Y-92680952D01*
X137609524Y-92680952D01*
X138828572Y-93061905D02*
X138371429Y-93061905D01*
X138600000Y-93061905D02*
X138600000Y-92261905D01*
X138523810Y-92376190D01*
X138447619Y-92452381D01*
X138371429Y-92490476D01*
D15*
X136941514Y-90229810D02*
X136789114Y-89987905D01*
X136680257Y-90229810D02*
X136680257Y-89721810D01*
X136854429Y-89721810D01*
X136897971Y-89746000D01*
X136919743Y-89770190D01*
X136941514Y-89818571D01*
X136941514Y-89891143D01*
X136919743Y-89939524D01*
X136897971Y-89963714D01*
X136854429Y-89987905D01*
X136680257Y-89987905D01*
D10*
X157466667Y-91461905D02*
X157200000Y-91080952D01*
X157009524Y-91461905D02*
X157009524Y-90661905D01*
X157314286Y-90661905D01*
X157390477Y-90700000D01*
X157428572Y-90738095D01*
X157466667Y-90814286D01*
X157466667Y-90928571D01*
X157428572Y-91004762D01*
X157390477Y-91042857D01*
X157314286Y-91080952D01*
X157009524Y-91080952D01*
X157771429Y-90738095D02*
X157809524Y-90700000D01*
X157885715Y-90661905D01*
X158076191Y-90661905D01*
X158152381Y-90700000D01*
X158190477Y-90738095D01*
X158228572Y-90814286D01*
X158228572Y-90890476D01*
X158190477Y-91004762D01*
X157733334Y-91461905D01*
X158228572Y-91461905D01*
D15*
X156729070Y-90958486D02*
X156487165Y-91110886D01*
X156729070Y-91219743D02*
X156221070Y-91219743D01*
X156221070Y-91045571D01*
X156245260Y-91002029D01*
X156269450Y-90980257D01*
X156317831Y-90958486D01*
X156390403Y-90958486D01*
X156438784Y-90980257D01*
X156462974Y-91002029D01*
X156487165Y-91045571D01*
X156487165Y-91219743D01*
D10*
X157466667Y-93561905D02*
X157200000Y-93180952D01*
X157009524Y-93561905D02*
X157009524Y-92761905D01*
X157314286Y-92761905D01*
X157390477Y-92800000D01*
X157428572Y-92838095D01*
X157466667Y-92914286D01*
X157466667Y-93028571D01*
X157428572Y-93104762D01*
X157390477Y-93142857D01*
X157314286Y-93180952D01*
X157009524Y-93180952D01*
X157733334Y-92761905D02*
X158228572Y-92761905D01*
X157961905Y-93066667D01*
X158076191Y-93066667D01*
X158152381Y-93104762D01*
X158190477Y-93142857D01*
X158228572Y-93219048D01*
X158228572Y-93409524D01*
X158190477Y-93485714D01*
X158152381Y-93523810D01*
X158076191Y-93561905D01*
X157847619Y-93561905D01*
X157771429Y-93523810D01*
X157733334Y-93485714D01*
D15*
X156829070Y-93058486D02*
X156587165Y-93210886D01*
X156829070Y-93319743D02*
X156321070Y-93319743D01*
X156321070Y-93145571D01*
X156345260Y-93102029D01*
X156369450Y-93080257D01*
X156417831Y-93058486D01*
X156490403Y-93058486D01*
X156538784Y-93080257D01*
X156562974Y-93102029D01*
X156587165Y-93145571D01*
X156587165Y-93319743D01*
D10*
X151866667Y-90361905D02*
X151600000Y-89980952D01*
X151409524Y-90361905D02*
X151409524Y-89561905D01*
X151714286Y-89561905D01*
X151790477Y-89600000D01*
X151828572Y-89638095D01*
X151866667Y-89714286D01*
X151866667Y-89828571D01*
X151828572Y-89904762D01*
X151790477Y-89942857D01*
X151714286Y-89980952D01*
X151409524Y-89980952D01*
X152552381Y-89828571D02*
X152552381Y-90361905D01*
X152361905Y-89523810D02*
X152171429Y-90095238D01*
X152666667Y-90095238D01*
D15*
X152041514Y-94029070D02*
X151889114Y-93787165D01*
X151780257Y-94029070D02*
X151780257Y-93521070D01*
X151954429Y-93521070D01*
X151997971Y-93545260D01*
X152019743Y-93569450D01*
X152041514Y-93617831D01*
X152041514Y-93690403D01*
X152019743Y-93738784D01*
X151997971Y-93762974D01*
X151954429Y-93787165D01*
X151780257Y-93787165D01*
D10*
X151066667Y-99461905D02*
X150800000Y-99080952D01*
X150609524Y-99461905D02*
X150609524Y-98661905D01*
X150914286Y-98661905D01*
X150990477Y-98700000D01*
X151028572Y-98738095D01*
X151066667Y-98814286D01*
X151066667Y-98928571D01*
X151028572Y-99004762D01*
X150990477Y-99042857D01*
X150914286Y-99080952D01*
X150609524Y-99080952D01*
X151790477Y-98661905D02*
X151409524Y-98661905D01*
X151371429Y-99042857D01*
X151409524Y-99004762D01*
X151485715Y-98966667D01*
X151676191Y-98966667D01*
X151752381Y-99004762D01*
X151790477Y-99042857D01*
X151828572Y-99119048D01*
X151828572Y-99309524D01*
X151790477Y-99385714D01*
X151752381Y-99423810D01*
X151676191Y-99461905D01*
X151485715Y-99461905D01*
X151409524Y-99423810D01*
X151371429Y-99385714D01*
D15*
X151241514Y-95430550D02*
X151089114Y-95188645D01*
X150980257Y-95430550D02*
X150980257Y-94922550D01*
X151154429Y-94922550D01*
X151197971Y-94946740D01*
X151219743Y-94970930D01*
X151241514Y-95019311D01*
X151241514Y-95091883D01*
X151219743Y-95140264D01*
X151197971Y-95164454D01*
X151154429Y-95188645D01*
X150980257Y-95188645D01*
D10*
X145790476Y-91161905D02*
X145790476Y-91809524D01*
X145828571Y-91885714D01*
X145866667Y-91923810D01*
X145942857Y-91961905D01*
X146095238Y-91961905D01*
X146171429Y-91923810D01*
X146209524Y-91885714D01*
X146247619Y-91809524D01*
X146247619Y-91161905D01*
X146590476Y-91238095D02*
X146628571Y-91200000D01*
X146704762Y-91161905D01*
X146895238Y-91161905D01*
X146971428Y-91200000D01*
X147009524Y-91238095D01*
X147047619Y-91314286D01*
X147047619Y-91390476D01*
X147009524Y-91504762D01*
X146552381Y-91961905D01*
X147047619Y-91961905D01*
X147247619Y-89361905D02*
X146866666Y-89361905D01*
X146866666Y-88561905D01*
X147514285Y-89361905D02*
X147514285Y-88561905D01*
X147780952Y-89133333D01*
X148047619Y-88561905D01*
X148047619Y-89361905D01*
X148352381Y-88561905D02*
X148847619Y-88561905D01*
X148580952Y-88866667D01*
X148695238Y-88866667D01*
X148771428Y-88904762D01*
X148809524Y-88942857D01*
X148847619Y-89019048D01*
X148847619Y-89209524D01*
X148809524Y-89285714D01*
X148771428Y-89323810D01*
X148695238Y-89361905D01*
X148466666Y-89361905D01*
X148390476Y-89323810D01*
X148352381Y-89285714D01*
X149152381Y-88638095D02*
X149190476Y-88600000D01*
X149266667Y-88561905D01*
X149457143Y-88561905D01*
X149533333Y-88600000D01*
X149571429Y-88638095D01*
X149609524Y-88714286D01*
X149609524Y-88790476D01*
X149571429Y-88904762D01*
X149114286Y-89361905D01*
X149609524Y-89361905D01*
X150371429Y-89361905D02*
X149914286Y-89361905D01*
X150142857Y-89361905D02*
X150142857Y-88561905D01*
X150066667Y-88676190D01*
X149990476Y-88752381D01*
X149914286Y-88790476D01*
X147966667Y-95885714D02*
X147928572Y-95923810D01*
X147814286Y-95961905D01*
X147738096Y-95961905D01*
X147623810Y-95923810D01*
X147547619Y-95847619D01*
X147509524Y-95771429D01*
X147471429Y-95619048D01*
X147471429Y-95504762D01*
X147509524Y-95352381D01*
X147547619Y-95276190D01*
X147623810Y-95200000D01*
X147738096Y-95161905D01*
X147814286Y-95161905D01*
X147928572Y-95200000D01*
X147966667Y-95238095D01*
X148652381Y-95428571D02*
X148652381Y-95961905D01*
X148461905Y-95123810D02*
X148271429Y-95695238D01*
X148766667Y-95695238D01*
D15*
X146630429Y-94158486D02*
X146654619Y-94180257D01*
X146678810Y-94245571D01*
X146678810Y-94289114D01*
X146654619Y-94354429D01*
X146606238Y-94397971D01*
X146557857Y-94419743D01*
X146461095Y-94441514D01*
X146388524Y-94441514D01*
X146291762Y-94419743D01*
X146243381Y-94397971D01*
X146195000Y-94354429D01*
X146170810Y-94289114D01*
X146170810Y-94245571D01*
X146195000Y-94180257D01*
X146219190Y-94158486D01*
D10*
X138790476Y-93961905D02*
X138790476Y-94609524D01*
X138828571Y-94685714D01*
X138866667Y-94723810D01*
X138942857Y-94761905D01*
X139095238Y-94761905D01*
X139171429Y-94723810D01*
X139209524Y-94685714D01*
X139247619Y-94609524D01*
X139247619Y-93961905D01*
X140047619Y-94761905D02*
X139590476Y-94761905D01*
X139819047Y-94761905D02*
X139819047Y-93961905D01*
X139742857Y-94076190D01*
X139666666Y-94152381D01*
X139590476Y-94190476D01*
X140028571Y-98461905D02*
X140028571Y-97661905D01*
X140295238Y-98233333D01*
X140561905Y-97661905D01*
X140561905Y-98461905D01*
X141400000Y-98385714D02*
X141361905Y-98423810D01*
X141247619Y-98461905D01*
X141171429Y-98461905D01*
X141057143Y-98423810D01*
X140980952Y-98347619D01*
X140942857Y-98271429D01*
X140904762Y-98119048D01*
X140904762Y-98004762D01*
X140942857Y-97852381D01*
X140980952Y-97776190D01*
X141057143Y-97700000D01*
X141171429Y-97661905D01*
X141247619Y-97661905D01*
X141361905Y-97700000D01*
X141400000Y-97738095D01*
X141666667Y-97661905D02*
X142161905Y-97661905D01*
X141895238Y-97966667D01*
X142009524Y-97966667D01*
X142085714Y-98004762D01*
X142123810Y-98042857D01*
X142161905Y-98119048D01*
X142161905Y-98309524D01*
X142123810Y-98385714D01*
X142085714Y-98423810D01*
X142009524Y-98461905D01*
X141780952Y-98461905D01*
X141704762Y-98423810D01*
X141666667Y-98385714D01*
X142847619Y-97928571D02*
X142847619Y-98461905D01*
X142657143Y-97623810D02*
X142466667Y-98195238D01*
X142961905Y-98195238D01*
X143419048Y-97661905D02*
X143495239Y-97661905D01*
X143571429Y-97700000D01*
X143609524Y-97738095D01*
X143647620Y-97814286D01*
X143685715Y-97966667D01*
X143685715Y-98157143D01*
X143647620Y-98309524D01*
X143609524Y-98385714D01*
X143571429Y-98423810D01*
X143495239Y-98461905D01*
X143419048Y-98461905D01*
X143342858Y-98423810D01*
X143304762Y-98385714D01*
X143266667Y-98309524D01*
X143228572Y-98157143D01*
X143228572Y-97966667D01*
X143266667Y-97814286D01*
X143304762Y-97738095D01*
X143342858Y-97700000D01*
X143419048Y-97661905D01*
X144371429Y-97661905D02*
X144219048Y-97661905D01*
X144142858Y-97700000D01*
X144104763Y-97738095D01*
X144028572Y-97852381D01*
X143990477Y-98004762D01*
X143990477Y-98309524D01*
X144028572Y-98385714D01*
X144066667Y-98423810D01*
X144142858Y-98461905D01*
X144295239Y-98461905D01*
X144371429Y-98423810D01*
X144409525Y-98385714D01*
X144447620Y-98309524D01*
X144447620Y-98119048D01*
X144409525Y-98042857D01*
X144371429Y-98004762D01*
X144295239Y-97966667D01*
X144142858Y-97966667D01*
X144066667Y-98004762D01*
X144028572Y-98042857D01*
X143990477Y-98119048D01*
X144714287Y-97661905D02*
X145209525Y-97661905D01*
X144942858Y-97966667D01*
X145057144Y-97966667D01*
X145133334Y-98004762D01*
X145171430Y-98042857D01*
X145209525Y-98119048D01*
X145209525Y-98309524D01*
X145171430Y-98385714D01*
X145133334Y-98423810D01*
X145057144Y-98461905D01*
X144828572Y-98461905D01*
X144752382Y-98423810D01*
X144714287Y-98385714D01*
D11*
X135533334Y-93757143D02*
X135485715Y-93804762D01*
X135342858Y-93852381D01*
X135247620Y-93852381D01*
X135104762Y-93804762D01*
X135009524Y-93709524D01*
X134961905Y-93614286D01*
X134914286Y-93423810D01*
X134914286Y-93280952D01*
X134961905Y-93090476D01*
X135009524Y-92995238D01*
X135104762Y-92900000D01*
X135247620Y-92852381D01*
X135342858Y-92852381D01*
X135485715Y-92900000D01*
X135533334Y-92947619D01*
X136485715Y-93852381D02*
X135914286Y-93852381D01*
X136200000Y-93852381D02*
X136200000Y-92852381D01*
X136104762Y-92995238D01*
X136009524Y-93090476D01*
X135914286Y-93138095D01*
X154633334Y-106457143D02*
X154585715Y-106504762D01*
X154442858Y-106552381D01*
X154347620Y-106552381D01*
X154204762Y-106504762D01*
X154109524Y-106409524D01*
X154061905Y-106314286D01*
X154014286Y-106123810D01*
X154014286Y-105980952D01*
X154061905Y-105790476D01*
X154109524Y-105695238D01*
X154204762Y-105600000D01*
X154347620Y-105552381D01*
X154442858Y-105552381D01*
X154585715Y-105600000D01*
X154633334Y-105647619D01*
X154966667Y-105552381D02*
X155585715Y-105552381D01*
X155252381Y-105933333D01*
X155395239Y-105933333D01*
X155490477Y-105980952D01*
X155538096Y-106028571D01*
X155585715Y-106123810D01*
X155585715Y-106361905D01*
X155538096Y-106457143D01*
X155490477Y-106504762D01*
X155395239Y-106552381D01*
X155109524Y-106552381D01*
X155014286Y-106504762D01*
X154966667Y-106457143D01*
X154633334Y-126457143D02*
X154585715Y-126504762D01*
X154442858Y-126552381D01*
X154347620Y-126552381D01*
X154204762Y-126504762D01*
X154109524Y-126409524D01*
X154061905Y-126314286D01*
X154014286Y-126123810D01*
X154014286Y-125980952D01*
X154061905Y-125790476D01*
X154109524Y-125695238D01*
X154204762Y-125600000D01*
X154347620Y-125552381D01*
X154442858Y-125552381D01*
X154585715Y-125600000D01*
X154633334Y-125647619D01*
X154966667Y-125552381D02*
X155585715Y-125552381D01*
X155252381Y-125933333D01*
X155395239Y-125933333D01*
X155490477Y-125980952D01*
X155538096Y-126028571D01*
X155585715Y-126123810D01*
X155585715Y-126361905D01*
X155538096Y-126457143D01*
X155490477Y-126504762D01*
X155395239Y-126552381D01*
X155109524Y-126552381D01*
X155014286Y-126504762D01*
X154966667Y-126457143D01*
X135533334Y-113757143D02*
X135485715Y-113804762D01*
X135342858Y-113852381D01*
X135247620Y-113852381D01*
X135104762Y-113804762D01*
X135009524Y-113709524D01*
X134961905Y-113614286D01*
X134914286Y-113423810D01*
X134914286Y-113280952D01*
X134961905Y-113090476D01*
X135009524Y-112995238D01*
X135104762Y-112900000D01*
X135247620Y-112852381D01*
X135342858Y-112852381D01*
X135485715Y-112900000D01*
X135533334Y-112947619D01*
X136485715Y-113852381D02*
X135914286Y-113852381D01*
X136200000Y-113852381D02*
X136200000Y-112852381D01*
X136104762Y-112995238D01*
X136009524Y-113090476D01*
X135914286Y-113138095D01*
D10*
X138790476Y-113961905D02*
X138790476Y-114609524D01*
X138828571Y-114685714D01*
X138866667Y-114723810D01*
X138942857Y-114761905D01*
X139095238Y-114761905D01*
X139171429Y-114723810D01*
X139209524Y-114685714D01*
X139247619Y-114609524D01*
X139247619Y-113961905D01*
X140047619Y-114761905D02*
X139590476Y-114761905D01*
X139819047Y-114761905D02*
X139819047Y-113961905D01*
X139742857Y-114076190D01*
X139666666Y-114152381D01*
X139590476Y-114190476D01*
X140028571Y-118461905D02*
X140028571Y-117661905D01*
X140295238Y-118233333D01*
X140561905Y-117661905D01*
X140561905Y-118461905D01*
X141400000Y-118385714D02*
X141361905Y-118423810D01*
X141247619Y-118461905D01*
X141171429Y-118461905D01*
X141057143Y-118423810D01*
X140980952Y-118347619D01*
X140942857Y-118271429D01*
X140904762Y-118119048D01*
X140904762Y-118004762D01*
X140942857Y-117852381D01*
X140980952Y-117776190D01*
X141057143Y-117700000D01*
X141171429Y-117661905D01*
X141247619Y-117661905D01*
X141361905Y-117700000D01*
X141400000Y-117738095D01*
X141666667Y-117661905D02*
X142161905Y-117661905D01*
X141895238Y-117966667D01*
X142009524Y-117966667D01*
X142085714Y-118004762D01*
X142123810Y-118042857D01*
X142161905Y-118119048D01*
X142161905Y-118309524D01*
X142123810Y-118385714D01*
X142085714Y-118423810D01*
X142009524Y-118461905D01*
X141780952Y-118461905D01*
X141704762Y-118423810D01*
X141666667Y-118385714D01*
X142847619Y-117928571D02*
X142847619Y-118461905D01*
X142657143Y-117623810D02*
X142466667Y-118195238D01*
X142961905Y-118195238D01*
X143419048Y-117661905D02*
X143495239Y-117661905D01*
X143571429Y-117700000D01*
X143609524Y-117738095D01*
X143647620Y-117814286D01*
X143685715Y-117966667D01*
X143685715Y-118157143D01*
X143647620Y-118309524D01*
X143609524Y-118385714D01*
X143571429Y-118423810D01*
X143495239Y-118461905D01*
X143419048Y-118461905D01*
X143342858Y-118423810D01*
X143304762Y-118385714D01*
X143266667Y-118309524D01*
X143228572Y-118157143D01*
X143228572Y-117966667D01*
X143266667Y-117814286D01*
X143304762Y-117738095D01*
X143342858Y-117700000D01*
X143419048Y-117661905D01*
X144371429Y-117661905D02*
X144219048Y-117661905D01*
X144142858Y-117700000D01*
X144104763Y-117738095D01*
X144028572Y-117852381D01*
X143990477Y-118004762D01*
X143990477Y-118309524D01*
X144028572Y-118385714D01*
X144066667Y-118423810D01*
X144142858Y-118461905D01*
X144295239Y-118461905D01*
X144371429Y-118423810D01*
X144409525Y-118385714D01*
X144447620Y-118309524D01*
X144447620Y-118119048D01*
X144409525Y-118042857D01*
X144371429Y-118004762D01*
X144295239Y-117966667D01*
X144142858Y-117966667D01*
X144066667Y-118004762D01*
X144028572Y-118042857D01*
X143990477Y-118119048D01*
X144714287Y-117661905D02*
X145209525Y-117661905D01*
X144942858Y-117966667D01*
X145057144Y-117966667D01*
X145133334Y-118004762D01*
X145171430Y-118042857D01*
X145209525Y-118119048D01*
X145209525Y-118309524D01*
X145171430Y-118385714D01*
X145133334Y-118423810D01*
X145057144Y-118461905D01*
X144828572Y-118461905D01*
X144752382Y-118423810D01*
X144714287Y-118385714D01*
X147966667Y-115885714D02*
X147928572Y-115923810D01*
X147814286Y-115961905D01*
X147738096Y-115961905D01*
X147623810Y-115923810D01*
X147547619Y-115847619D01*
X147509524Y-115771429D01*
X147471429Y-115619048D01*
X147471429Y-115504762D01*
X147509524Y-115352381D01*
X147547619Y-115276190D01*
X147623810Y-115200000D01*
X147738096Y-115161905D01*
X147814286Y-115161905D01*
X147928572Y-115200000D01*
X147966667Y-115238095D01*
X148652381Y-115428571D02*
X148652381Y-115961905D01*
X148461905Y-115123810D02*
X148271429Y-115695238D01*
X148766667Y-115695238D01*
D15*
X146630429Y-114158486D02*
X146654619Y-114180257D01*
X146678810Y-114245571D01*
X146678810Y-114289114D01*
X146654619Y-114354429D01*
X146606238Y-114397971D01*
X146557857Y-114419743D01*
X146461095Y-114441514D01*
X146388524Y-114441514D01*
X146291762Y-114419743D01*
X146243381Y-114397971D01*
X146195000Y-114354429D01*
X146170810Y-114289114D01*
X146170810Y-114245571D01*
X146195000Y-114180257D01*
X146219190Y-114158486D01*
D10*
X145790476Y-111161905D02*
X145790476Y-111809524D01*
X145828571Y-111885714D01*
X145866667Y-111923810D01*
X145942857Y-111961905D01*
X146095238Y-111961905D01*
X146171429Y-111923810D01*
X146209524Y-111885714D01*
X146247619Y-111809524D01*
X146247619Y-111161905D01*
X146590476Y-111238095D02*
X146628571Y-111200000D01*
X146704762Y-111161905D01*
X146895238Y-111161905D01*
X146971428Y-111200000D01*
X147009524Y-111238095D01*
X147047619Y-111314286D01*
X147047619Y-111390476D01*
X147009524Y-111504762D01*
X146552381Y-111961905D01*
X147047619Y-111961905D01*
X147247619Y-109361905D02*
X146866666Y-109361905D01*
X146866666Y-108561905D01*
X147514285Y-109361905D02*
X147514285Y-108561905D01*
X147780952Y-109133333D01*
X148047619Y-108561905D01*
X148047619Y-109361905D01*
X148352381Y-108561905D02*
X148847619Y-108561905D01*
X148580952Y-108866667D01*
X148695238Y-108866667D01*
X148771428Y-108904762D01*
X148809524Y-108942857D01*
X148847619Y-109019048D01*
X148847619Y-109209524D01*
X148809524Y-109285714D01*
X148771428Y-109323810D01*
X148695238Y-109361905D01*
X148466666Y-109361905D01*
X148390476Y-109323810D01*
X148352381Y-109285714D01*
X149152381Y-108638095D02*
X149190476Y-108600000D01*
X149266667Y-108561905D01*
X149457143Y-108561905D01*
X149533333Y-108600000D01*
X149571429Y-108638095D01*
X149609524Y-108714286D01*
X149609524Y-108790476D01*
X149571429Y-108904762D01*
X149114286Y-109361905D01*
X149609524Y-109361905D01*
X150371429Y-109361905D02*
X149914286Y-109361905D01*
X150142857Y-109361905D02*
X150142857Y-108561905D01*
X150066667Y-108676190D01*
X149990476Y-108752381D01*
X149914286Y-108790476D01*
X151066667Y-119461905D02*
X150800000Y-119080952D01*
X150609524Y-119461905D02*
X150609524Y-118661905D01*
X150914286Y-118661905D01*
X150990477Y-118700000D01*
X151028572Y-118738095D01*
X151066667Y-118814286D01*
X151066667Y-118928571D01*
X151028572Y-119004762D01*
X150990477Y-119042857D01*
X150914286Y-119080952D01*
X150609524Y-119080952D01*
X151790477Y-118661905D02*
X151409524Y-118661905D01*
X151371429Y-119042857D01*
X151409524Y-119004762D01*
X151485715Y-118966667D01*
X151676191Y-118966667D01*
X151752381Y-119004762D01*
X151790477Y-119042857D01*
X151828572Y-119119048D01*
X151828572Y-119309524D01*
X151790477Y-119385714D01*
X151752381Y-119423810D01*
X151676191Y-119461905D01*
X151485715Y-119461905D01*
X151409524Y-119423810D01*
X151371429Y-119385714D01*
D15*
X151241514Y-115430550D02*
X151089114Y-115188645D01*
X150980257Y-115430550D02*
X150980257Y-114922550D01*
X151154429Y-114922550D01*
X151197971Y-114946740D01*
X151219743Y-114970930D01*
X151241514Y-115019311D01*
X151241514Y-115091883D01*
X151219743Y-115140264D01*
X151197971Y-115164454D01*
X151154429Y-115188645D01*
X150980257Y-115188645D01*
D10*
X151866667Y-110361905D02*
X151600000Y-109980952D01*
X151409524Y-110361905D02*
X151409524Y-109561905D01*
X151714286Y-109561905D01*
X151790477Y-109600000D01*
X151828572Y-109638095D01*
X151866667Y-109714286D01*
X151866667Y-109828571D01*
X151828572Y-109904762D01*
X151790477Y-109942857D01*
X151714286Y-109980952D01*
X151409524Y-109980952D01*
X152552381Y-109828571D02*
X152552381Y-110361905D01*
X152361905Y-109523810D02*
X152171429Y-110095238D01*
X152666667Y-110095238D01*
D15*
X152041514Y-114029070D02*
X151889114Y-113787165D01*
X151780257Y-114029070D02*
X151780257Y-113521070D01*
X151954429Y-113521070D01*
X151997971Y-113545260D01*
X152019743Y-113569450D01*
X152041514Y-113617831D01*
X152041514Y-113690403D01*
X152019743Y-113738784D01*
X151997971Y-113762974D01*
X151954429Y-113787165D01*
X151780257Y-113787165D01*
D10*
X157466667Y-113561905D02*
X157200000Y-113180952D01*
X157009524Y-113561905D02*
X157009524Y-112761905D01*
X157314286Y-112761905D01*
X157390477Y-112800000D01*
X157428572Y-112838095D01*
X157466667Y-112914286D01*
X157466667Y-113028571D01*
X157428572Y-113104762D01*
X157390477Y-113142857D01*
X157314286Y-113180952D01*
X157009524Y-113180952D01*
X157733334Y-112761905D02*
X158228572Y-112761905D01*
X157961905Y-113066667D01*
X158076191Y-113066667D01*
X158152381Y-113104762D01*
X158190477Y-113142857D01*
X158228572Y-113219048D01*
X158228572Y-113409524D01*
X158190477Y-113485714D01*
X158152381Y-113523810D01*
X158076191Y-113561905D01*
X157847619Y-113561905D01*
X157771429Y-113523810D01*
X157733334Y-113485714D01*
D15*
X156829070Y-113058486D02*
X156587165Y-113210886D01*
X156829070Y-113319743D02*
X156321070Y-113319743D01*
X156321070Y-113145571D01*
X156345260Y-113102029D01*
X156369450Y-113080257D01*
X156417831Y-113058486D01*
X156490403Y-113058486D01*
X156538784Y-113080257D01*
X156562974Y-113102029D01*
X156587165Y-113145571D01*
X156587165Y-113319743D01*
D10*
X157466667Y-111461905D02*
X157200000Y-111080952D01*
X157009524Y-111461905D02*
X157009524Y-110661905D01*
X157314286Y-110661905D01*
X157390477Y-110700000D01*
X157428572Y-110738095D01*
X157466667Y-110814286D01*
X157466667Y-110928571D01*
X157428572Y-111004762D01*
X157390477Y-111042857D01*
X157314286Y-111080952D01*
X157009524Y-111080952D01*
X157771429Y-110738095D02*
X157809524Y-110700000D01*
X157885715Y-110661905D01*
X158076191Y-110661905D01*
X158152381Y-110700000D01*
X158190477Y-110738095D01*
X158228572Y-110814286D01*
X158228572Y-110890476D01*
X158190477Y-111004762D01*
X157733334Y-111461905D01*
X158228572Y-111461905D01*
D15*
X156729070Y-110958486D02*
X156487165Y-111110886D01*
X156729070Y-111219743D02*
X156221070Y-111219743D01*
X156221070Y-111045571D01*
X156245260Y-111002029D01*
X156269450Y-110980257D01*
X156317831Y-110958486D01*
X156390403Y-110958486D01*
X156438784Y-110980257D01*
X156462974Y-111002029D01*
X156487165Y-111045571D01*
X156487165Y-111219743D01*
D10*
X138066667Y-113061905D02*
X137800000Y-112680952D01*
X137609524Y-113061905D02*
X137609524Y-112261905D01*
X137914286Y-112261905D01*
X137990477Y-112300000D01*
X138028572Y-112338095D01*
X138066667Y-112414286D01*
X138066667Y-112528571D01*
X138028572Y-112604762D01*
X137990477Y-112642857D01*
X137914286Y-112680952D01*
X137609524Y-112680952D01*
X138828572Y-113061905D02*
X138371429Y-113061905D01*
X138600000Y-113061905D02*
X138600000Y-112261905D01*
X138523810Y-112376190D01*
X138447619Y-112452381D01*
X138371429Y-112490476D01*
D15*
X136941514Y-110229810D02*
X136789114Y-109987905D01*
X136680257Y-110229810D02*
X136680257Y-109721810D01*
X136854429Y-109721810D01*
X136897971Y-109746000D01*
X136919743Y-109770190D01*
X136941514Y-109818571D01*
X136941514Y-109891143D01*
X136919743Y-109939524D01*
X136897971Y-109963714D01*
X136854429Y-109987905D01*
X136680257Y-109987905D01*
D11*
X146533334Y-126352381D02*
X146057143Y-126352381D01*
X146057143Y-125352381D01*
X147390477Y-126352381D02*
X146819048Y-126352381D01*
X147104762Y-126352381D02*
X147104762Y-125352381D01*
X147009524Y-125495238D01*
X146914286Y-125590476D01*
X146819048Y-125638095D01*
X155766667Y-122052381D02*
X155766667Y-122766667D01*
X155719047Y-122909524D01*
X155623809Y-123004762D01*
X155480952Y-123052381D01*
X155385714Y-123052381D01*
X156195238Y-122147619D02*
X156242857Y-122100000D01*
X156338095Y-122052381D01*
X156576191Y-122052381D01*
X156671429Y-122100000D01*
X156719048Y-122147619D01*
X156766667Y-122242857D01*
X156766667Y-122338095D01*
X156719048Y-122480952D01*
X156147619Y-123052381D01*
X156766667Y-123052381D01*
X135666667Y-115352381D02*
X135666667Y-116066667D01*
X135619047Y-116209524D01*
X135523809Y-116304762D01*
X135380952Y-116352381D01*
X135285714Y-116352381D01*
X136666667Y-116352381D02*
X136095238Y-116352381D01*
X136380952Y-116352381D02*
X136380952Y-115352381D01*
X136285714Y-115495238D01*
X136190476Y-115590476D01*
X136095238Y-115638095D01*
D10*
X148066667Y-118785714D02*
X148028572Y-118823810D01*
X147914286Y-118861905D01*
X147838096Y-118861905D01*
X147723810Y-118823810D01*
X147647619Y-118747619D01*
X147609524Y-118671429D01*
X147571429Y-118519048D01*
X147571429Y-118404762D01*
X147609524Y-118252381D01*
X147647619Y-118176190D01*
X147723810Y-118100000D01*
X147838096Y-118061905D01*
X147914286Y-118061905D01*
X148028572Y-118100000D01*
X148066667Y-118138095D01*
X148371429Y-118138095D02*
X148409524Y-118100000D01*
X148485715Y-118061905D01*
X148676191Y-118061905D01*
X148752381Y-118100000D01*
X148790477Y-118138095D01*
X148828572Y-118214286D01*
X148828572Y-118290476D01*
X148790477Y-118404762D01*
X148333334Y-118861905D01*
X148828572Y-118861905D01*
D15*
X146630429Y-117058486D02*
X146654619Y-117080257D01*
X146678810Y-117145571D01*
X146678810Y-117189114D01*
X146654619Y-117254429D01*
X146606238Y-117297971D01*
X146557857Y-117319743D01*
X146461095Y-117341514D01*
X146388524Y-117341514D01*
X146291762Y-117319743D01*
X146243381Y-117297971D01*
X146195000Y-117254429D01*
X146170810Y-117189114D01*
X146170810Y-117145571D01*
X146195000Y-117080257D01*
X146219190Y-117058486D01*
D10*
X137683334Y-114116667D02*
X137683334Y-113416667D01*
X137850000Y-113416667D01*
X137950000Y-113450000D01*
X138016667Y-113516667D01*
X138050000Y-113583333D01*
X138083334Y-113716667D01*
X138083334Y-113816667D01*
X138050000Y-113950000D01*
X138016667Y-114016667D01*
X137950000Y-114083333D01*
X137850000Y-114116667D01*
X137683334Y-114116667D01*
X138750000Y-114116667D02*
X138350000Y-114116667D01*
X138550000Y-114116667D02*
X138550000Y-113416667D01*
X138483334Y-113516667D01*
X138416667Y-113583333D01*
X138350000Y-113616667D01*
X139016667Y-125916666D02*
X138316667Y-125916666D01*
X138316667Y-125750000D01*
X138350000Y-125650000D01*
X138416667Y-125583333D01*
X138483333Y-125550000D01*
X138616667Y-125516666D01*
X138716667Y-125516666D01*
X138850000Y-125550000D01*
X138916667Y-125583333D01*
X138983333Y-125650000D01*
X139016667Y-125750000D01*
X139016667Y-125916666D01*
X138383333Y-125250000D02*
X138350000Y-125216666D01*
X138316667Y-125150000D01*
X138316667Y-124983333D01*
X138350000Y-124916666D01*
X138383333Y-124883333D01*
X138450000Y-124850000D01*
X138516667Y-124850000D01*
X138616667Y-124883333D01*
X139016667Y-125283333D01*
X139016667Y-124850000D01*
M02*
