G04 #@! TF.FileFunction,Paste,Top*
%FSLAX46Y46*%
G04 Gerber Fmt 4.6, Leading zero omitted, Abs format (unit mm)*
G04 Created by KiCad (PCBNEW 4.0.7-e2-6376~58~ubuntu14.04.1) date Wed Feb  7 09:15:08 2018*
%MOMM*%
%LPD*%
G01*
G04 APERTURE LIST*
%ADD10C,0.100000*%
%ADD11R,0.558800X0.685800*%
%ADD12R,0.685800X0.558800*%
%ADD13R,0.635000X1.143000*%
%ADD14R,1.143000X0.635000*%
%ADD15R,0.762000X0.508000*%
%ADD16R,0.700000X1.600000*%
%ADD17R,3.500000X1.400000*%
G04 APERTURE END LIST*
D10*
D11*
X134980800Y-85400000D03*
X137419200Y-85400000D03*
D12*
X138200000Y-77519200D03*
X138200000Y-75080800D03*
D13*
X147338000Y-77200000D03*
X148862000Y-77200000D03*
D14*
X138200000Y-69838000D03*
X138200000Y-71362000D03*
D13*
X155562000Y-71100000D03*
X154038000Y-71100000D03*
X155662000Y-73200000D03*
X154138000Y-73200000D03*
D14*
X151900000Y-72862000D03*
X151900000Y-71338000D03*
X151100000Y-76138000D03*
X151100000Y-77662000D03*
D15*
X149570000Y-72452500D03*
X149570000Y-70547500D03*
X147030000Y-72452500D03*
X149570000Y-71500000D03*
X147030000Y-70547500D03*
D13*
X147338000Y-74300000D03*
X148862000Y-74300000D03*
D16*
X140895000Y-76500000D03*
X142165000Y-76500000D03*
X143435000Y-76500000D03*
X144705000Y-76500000D03*
X144705000Y-70300000D03*
X143435000Y-70300000D03*
X142165000Y-70300000D03*
X140895000Y-70300000D03*
D17*
X134200000Y-71300000D03*
X129800000Y-71300000D03*
X153600000Y-83600000D03*
X149200000Y-83600000D03*
X153600000Y-63600000D03*
X149200000Y-63600000D03*
X134200000Y-51300000D03*
X129800000Y-51300000D03*
D16*
X140895000Y-56500000D03*
X142165000Y-56500000D03*
X143435000Y-56500000D03*
X144705000Y-56500000D03*
X144705000Y-50300000D03*
X143435000Y-50300000D03*
X142165000Y-50300000D03*
X140895000Y-50300000D03*
D13*
X147338000Y-54300000D03*
X148862000Y-54300000D03*
D15*
X149570000Y-52452500D03*
X149570000Y-50547500D03*
X147030000Y-52452500D03*
X149570000Y-51500000D03*
X147030000Y-50547500D03*
D14*
X151100000Y-56138000D03*
X151100000Y-57662000D03*
X151900000Y-52862000D03*
X151900000Y-51338000D03*
D13*
X155662000Y-53200000D03*
X154138000Y-53200000D03*
X155562000Y-51100000D03*
X154038000Y-51100000D03*
D14*
X138200000Y-49838000D03*
X138200000Y-51362000D03*
D13*
X147338000Y-57200000D03*
X148862000Y-57200000D03*
D12*
X138200000Y-57519200D03*
X138200000Y-55080800D03*
D11*
X134980800Y-65400000D03*
X137419200Y-65400000D03*
X99980800Y-65400000D03*
X102419200Y-65400000D03*
D12*
X103200000Y-57519200D03*
X103200000Y-55080800D03*
D13*
X112338000Y-57200000D03*
X113862000Y-57200000D03*
D14*
X103200000Y-49838000D03*
X103200000Y-51362000D03*
D13*
X120562000Y-51100000D03*
X119038000Y-51100000D03*
X120662000Y-53200000D03*
X119138000Y-53200000D03*
D14*
X116900000Y-52862000D03*
X116900000Y-51338000D03*
X116100000Y-56138000D03*
X116100000Y-57662000D03*
D15*
X114570000Y-52452500D03*
X114570000Y-50547500D03*
X112030000Y-52452500D03*
X114570000Y-51500000D03*
X112030000Y-50547500D03*
D13*
X112338000Y-54300000D03*
X113862000Y-54300000D03*
D16*
X105895000Y-56500000D03*
X107165000Y-56500000D03*
X108435000Y-56500000D03*
X109705000Y-56500000D03*
X109705000Y-50300000D03*
X108435000Y-50300000D03*
X107165000Y-50300000D03*
X105895000Y-50300000D03*
D17*
X99200000Y-51300000D03*
X94800000Y-51300000D03*
X118600000Y-63600000D03*
X114200000Y-63600000D03*
X118600000Y-83600000D03*
X114200000Y-83600000D03*
X99200000Y-71300000D03*
X94800000Y-71300000D03*
D16*
X105895000Y-76500000D03*
X107165000Y-76500000D03*
X108435000Y-76500000D03*
X109705000Y-76500000D03*
X109705000Y-70300000D03*
X108435000Y-70300000D03*
X107165000Y-70300000D03*
X105895000Y-70300000D03*
D13*
X112338000Y-74300000D03*
X113862000Y-74300000D03*
D15*
X114570000Y-72452500D03*
X114570000Y-70547500D03*
X112030000Y-72452500D03*
X114570000Y-71500000D03*
X112030000Y-70547500D03*
D14*
X116100000Y-76138000D03*
X116100000Y-77662000D03*
X116900000Y-72862000D03*
X116900000Y-71338000D03*
D13*
X120662000Y-73200000D03*
X119138000Y-73200000D03*
X120562000Y-71100000D03*
X119038000Y-71100000D03*
D14*
X103200000Y-69838000D03*
X103200000Y-71362000D03*
D13*
X112338000Y-77200000D03*
X113862000Y-77200000D03*
D12*
X103200000Y-77519200D03*
X103200000Y-75080800D03*
D11*
X99980800Y-85400000D03*
X102419200Y-85400000D03*
X99980800Y-125400000D03*
X102419200Y-125400000D03*
D12*
X103200000Y-117519200D03*
X103200000Y-115080800D03*
D13*
X112338000Y-117200000D03*
X113862000Y-117200000D03*
D14*
X103200000Y-109838000D03*
X103200000Y-111362000D03*
D13*
X120562000Y-111100000D03*
X119038000Y-111100000D03*
X120662000Y-113200000D03*
X119138000Y-113200000D03*
D14*
X116900000Y-112862000D03*
X116900000Y-111338000D03*
X116100000Y-116138000D03*
X116100000Y-117662000D03*
D15*
X114570000Y-112452500D03*
X114570000Y-110547500D03*
X112030000Y-112452500D03*
X114570000Y-111500000D03*
X112030000Y-110547500D03*
D13*
X112338000Y-114300000D03*
X113862000Y-114300000D03*
D16*
X105895000Y-116500000D03*
X107165000Y-116500000D03*
X108435000Y-116500000D03*
X109705000Y-116500000D03*
X109705000Y-110300000D03*
X108435000Y-110300000D03*
X107165000Y-110300000D03*
X105895000Y-110300000D03*
D17*
X99200000Y-111300000D03*
X94800000Y-111300000D03*
X118600000Y-123600000D03*
X114200000Y-123600000D03*
X118600000Y-103600000D03*
X114200000Y-103600000D03*
X99200000Y-91300000D03*
X94800000Y-91300000D03*
D16*
X105895000Y-96500000D03*
X107165000Y-96500000D03*
X108435000Y-96500000D03*
X109705000Y-96500000D03*
X109705000Y-90300000D03*
X108435000Y-90300000D03*
X107165000Y-90300000D03*
X105895000Y-90300000D03*
D13*
X112338000Y-94300000D03*
X113862000Y-94300000D03*
D15*
X114570000Y-92452500D03*
X114570000Y-90547500D03*
X112030000Y-92452500D03*
X114570000Y-91500000D03*
X112030000Y-90547500D03*
D14*
X116100000Y-96138000D03*
X116100000Y-97662000D03*
X116900000Y-92862000D03*
X116900000Y-91338000D03*
D13*
X120662000Y-93200000D03*
X119138000Y-93200000D03*
X120562000Y-91100000D03*
X119038000Y-91100000D03*
D14*
X103200000Y-89838000D03*
X103200000Y-91362000D03*
D13*
X112338000Y-97200000D03*
X113862000Y-97200000D03*
D12*
X103200000Y-97519200D03*
X103200000Y-95080800D03*
D11*
X99980800Y-105400000D03*
X102419200Y-105400000D03*
X134980800Y-105400000D03*
X137419200Y-105400000D03*
D12*
X138200000Y-97519200D03*
X138200000Y-95080800D03*
D13*
X147338000Y-97200000D03*
X148862000Y-97200000D03*
D14*
X138200000Y-89838000D03*
X138200000Y-91362000D03*
D13*
X155562000Y-91100000D03*
X154038000Y-91100000D03*
X155662000Y-93200000D03*
X154138000Y-93200000D03*
D14*
X151900000Y-92862000D03*
X151900000Y-91338000D03*
X151100000Y-96138000D03*
X151100000Y-97662000D03*
D15*
X149570000Y-92452500D03*
X149570000Y-90547500D03*
X147030000Y-92452500D03*
X149570000Y-91500000D03*
X147030000Y-90547500D03*
D13*
X147338000Y-94300000D03*
X148862000Y-94300000D03*
D16*
X140895000Y-96500000D03*
X142165000Y-96500000D03*
X143435000Y-96500000D03*
X144705000Y-96500000D03*
X144705000Y-90300000D03*
X143435000Y-90300000D03*
X142165000Y-90300000D03*
X140895000Y-90300000D03*
D17*
X134200000Y-91300000D03*
X129800000Y-91300000D03*
X153600000Y-103600000D03*
X149200000Y-103600000D03*
X153600000Y-123600000D03*
X149200000Y-123600000D03*
X134200000Y-111300000D03*
X129800000Y-111300000D03*
D16*
X140895000Y-116500000D03*
X142165000Y-116500000D03*
X143435000Y-116500000D03*
X144705000Y-116500000D03*
X144705000Y-110300000D03*
X143435000Y-110300000D03*
X142165000Y-110300000D03*
X140895000Y-110300000D03*
D13*
X147338000Y-114300000D03*
X148862000Y-114300000D03*
D15*
X149570000Y-112452500D03*
X149570000Y-110547500D03*
X147030000Y-112452500D03*
X149570000Y-111500000D03*
X147030000Y-110547500D03*
D14*
X151100000Y-116138000D03*
X151100000Y-117662000D03*
X151900000Y-112862000D03*
X151900000Y-111338000D03*
D13*
X155662000Y-113200000D03*
X154138000Y-113200000D03*
X155562000Y-111100000D03*
X154038000Y-111100000D03*
D14*
X138200000Y-109838000D03*
X138200000Y-111362000D03*
D13*
X147338000Y-117200000D03*
X148862000Y-117200000D03*
D12*
X138200000Y-117519200D03*
X138200000Y-115080800D03*
D11*
X134980800Y-125400000D03*
X137419200Y-125400000D03*
M02*
