M48
;DRILL file {KiCad 4.0.7-e2-6376~58~ubuntu14.04.1} date Sat Jan 20 11:47:29 2018
;FORMAT={-:-/ absolute / metric / decimal}
FMAT,2
METRIC,TZ
T1C0.762
T2C1.000
T3C1.300
%
G90
G05
M71
T1
X95.8Y-51.3
X95.8Y-71.3
X95.8Y-91.3
X95.8Y-111.3
X98.2Y-51.3
X98.2Y-71.3
X98.2Y-91.3
X98.2Y-111.3
X115.2Y-63.6
X115.2Y-83.6
X115.2Y-103.6
X115.2Y-123.6
X117.6Y-63.6
X117.6Y-83.6
X117.6Y-103.6
X117.6Y-123.6
X130.8Y-51.3
X130.8Y-71.3
X130.8Y-91.3
X130.8Y-111.3
X133.2Y-51.3
X133.2Y-71.3
X133.2Y-91.3
X133.2Y-111.3
X150.2Y-63.6
X150.2Y-83.6
X150.2Y-103.6
X150.2Y-123.6
X152.6Y-63.6
X152.6Y-83.6
X152.6Y-103.6
X152.6Y-123.6
T2
X91.Y-49.5
X91.Y-65.5
X91.Y-69.5
X91.Y-85.5
X91.Y-89.5
X91.Y-105.5
X91.Y-109.5
X91.Y-125.5
X120.8Y-56.23
X120.8Y-58.77
X120.8Y-76.23
X120.8Y-78.77
X120.8Y-96.23
X120.8Y-98.77
X120.8Y-116.23
X120.8Y-118.77
X122.Y-49.5
X122.Y-65.5
X122.Y-69.5
X122.Y-85.5
X122.Y-89.5
X122.Y-105.5
X122.Y-109.5
X122.Y-125.5
X126.Y-49.5
X126.Y-65.5
X126.Y-69.5
X126.Y-85.5
X126.Y-89.5
X126.Y-105.5
X126.Y-109.5
X126.Y-125.5
X155.8Y-56.23
X155.8Y-58.77
X155.8Y-76.23
X155.8Y-78.77
X155.8Y-96.23
X155.8Y-98.77
X155.8Y-116.23
X155.8Y-118.77
X157.Y-49.5
X157.Y-65.5
X157.Y-69.5
X157.Y-85.5
X157.Y-89.5
X157.Y-105.5
X157.Y-109.5
X157.Y-125.5
T3
X105.1Y-62.5
X105.1Y-82.5
X105.1Y-102.5
X105.1Y-122.5
X110.1Y-62.5
X110.1Y-82.5
X110.1Y-102.5
X110.1Y-122.5
X140.1Y-62.5
X140.1Y-82.5
X140.1Y-102.5
X140.1Y-122.5
X145.1Y-62.5
X145.1Y-82.5
X145.1Y-102.5
X145.1Y-122.5
T2
X93.201Y-58.4G85X93.201Y-60.4
G05
X93.201Y-78.4G85X93.201Y-80.4
G05
X93.201Y-98.4G85X93.201Y-100.4
G05
X93.201Y-118.4G85X93.201Y-120.4
G05
X95.2Y-64.099G85X97.2Y-64.099
G05
X95.2Y-84.099G85X97.2Y-84.099
G05
X95.2Y-104.099G85X97.2Y-104.099
G05
X95.2Y-124.099G85X97.2Y-124.099
G05
X99.2Y-58.4G85X99.2Y-60.4
G05
X99.2Y-78.4G85X99.2Y-80.4
G05
X99.2Y-98.4G85X99.2Y-100.4
G05
X99.2Y-118.4G85X99.2Y-120.4
G05
X128.201Y-58.4G85X128.201Y-60.4
G05
X128.201Y-78.4G85X128.201Y-80.4
G05
X128.201Y-98.4G85X128.201Y-100.4
G05
X128.201Y-118.4G85X128.201Y-120.4
G05
X130.2Y-64.099G85X132.2Y-64.099
G05
X130.2Y-84.099G85X132.2Y-84.099
G05
X130.2Y-104.099G85X132.2Y-104.099
G05
X130.2Y-124.099G85X132.2Y-124.099
G05
X134.2Y-58.4G85X134.2Y-60.4
G05
X134.2Y-78.4G85X134.2Y-80.4
G05
X134.2Y-98.4G85X134.2Y-100.4
G05
X134.2Y-118.4G85X134.2Y-120.4
G05
T0
M30
